<?xml version="1.0" encoding="utf-8"?>
<!-- Generator: Adobe Illustrator 22.0.0, SVG Export Plug-In . SVG Version: 6.00 Build 0)  -->
<svg version="1.1" id="Livello_1" xmlns="http://www.w3.org/2000/svg" xmlns:xlink="http://www.w3.org/1999/xlink" x="0px" y="0px"
	 viewBox="0 0 673.2 362.1" style="enable-background:new 0 0 673.2 362.1;" xml:space="preserve">
<style type="text/css">
	.st0{fill:#FFFFFF;}
	.st1{fill:#A7C236;}
	.st2{fill:#DFE15A;}
	.st3{fill:#1B191A;}
	.st4{fill:#040302;}
	.st5{fill:#BACC5B;}
</style>
<g>
	<path class="st0" d="M68.9,373.6c0-129.8,0-259.6,0-389.5c181.8,0,363.6,0,545.5,0c0,129.8,0,259.6,0,389.5
		C432.6,373.6,250.8,373.6,68.9,373.6z M205.1,304.7c0.1,0.3,0.3,0.3,0.6,0.3c1.9,1.2,3.6,2.7,5.8,3.5c3,1.2,5.9,2.9,8.9,4.2
		c2.5,1.1,2.9,0.8,3.3-2c0-0.1,0-0.3,0-0.4c2.9,0.8,5.7,1.7,8.6,2.5c6.7,1.8,13.6,2.3,20.5,2.6c0.7,0,1.5,0.2,2.1-0.3
		c1.7,0.3,3.2,1,4.8,1.6c2,0.8,4.1,0.8,6.2,0.3c1.6-0.4,3.1-0.9,4.7-1.1c3.6-0.6,7.2-1.1,10.8-1.7c2.9-0.5,5.7-1.2,7.9-3.5
		c0.6-0.1,1.2-0.2,1.7-0.3c5.4-1.2,10.7-2.6,15.9-4.2c7.9-2.4,15.7-5,23.2-8.5c9.2-4.3,17.9-9.7,26.1-15.7c7.4-5.5,14-11.7,20-18.7
		c4.4-5.2,8.7-10.4,13.3-15.5c1-1.1,2.1-1.9,3.6-2.2c3.9-0.9,7.3-2.7,9.6-6.1c1.1-1.6,2-3.4,3-5.1c2.4-4.5,4.8-9,7.5-13.4
		c0.6-0.9,1.4-1.7,1.5-2.9c0.4-0.2,0.8-0.3,1.2-0.5c3.8-0.7,6.5-2.8,8.1-6.2c1.1-2.4,1.6-4.9,1.5-7.6c0.1-0.6,0.1-1.2,0.2-1.8
		c0.7-0.7,1.1-1.5,1.6-2.3c2.1-3.4,3.7-7,5.8-10.5c0,4.5,0.1,9.1,0.1,13.6c0,1.8,0.1,3.5,0.5,5.2c1,5,3.8,8.3,8.8,9.6
		c3.8,1,7.7,0.9,11.5-0.2c3.9-1.2,6.5-3.7,7.8-7.7c0.7-2,0.9-4.1,0.9-6.3c0-14.6,0-29.3,0-43.9c0-1.6-0.1-3.2-0.5-4.8
		c-1.2-5.2-4.3-8.4-9.5-9.4c-5.1-1-10-0.7-14.6,2.1c0-2.9-1.1-5.1-3.7-6.4c-0.5-0.2-0.8-0.6-1.3-0.8c-1.3-0.8-1.3-0.8-2.2,0.5
		c-1.9,2.8-3.8,5.7-5.7,8.6c-0.4,0.6-0.7,1.3-1.5,1.5c-2.1-3.3-5.1-4.9-8.9-5.6c-2.1-0.4-4.2-0.2-6.3-0.3c0.3-4.2,1.2-8.2,1.5-12.4
		c0.6-7.6,0.5-15.2-0.2-22.8c-0.2-1.8-0.6-3.6-1.3-5.3c-0.3-0.8-0.8-1.6-1.5-2.2c-1.8-1.6-3.7-1.2-4.6,1c-0.5,1.4-0.8,2.8-0.9,4.3
		c-0.4,3.8,0.2,7.4,1.4,11c1.2,3.6,1.5,7.2,0.4,11c-2.5,8.8-6.3,17-12,24.2c-0.3,0.4-0.6,0.8-1.2,0.8c0-4,0-8-0.4-11.9
		c-0.2-2.1-0.6-4.2-0.4-6.3c1.1-0.9,1.4-2.2,1.8-3.4c1.5-5.1,2.2-10.5,2.3-15.8c0-5.8-0.4-11.5-0.3-17.3c0-0.7-0.2-1.4-0.4-2.1
		c-0.1-0.4-0.4-0.8-0.6-1.1c-0.3-0.4-0.8-0.5-1,0.1c-1.6,3-3.8,5.7-4.6,9.2c-0.3,1.5-0.4,3,0.4,4.2c1.8,3,1.3,6,0.6,9.1
		c-0.1,0.4-0.3,0.6-0.8,0.6c-0.4-2.7-1.2-5.3-2-7.9c-1.8-5.7-4.5-10.9-9.1-15c-1.5-1.4-2.9-2.9-4.1-4.5
		c-6.4-8.2-13.4-15.6-21.8-21.9c-2.2-1.6-4.4-3.1-6.3-5.1c-0.7-3.4-1.7-6.8-2.9-10.1c-0.3-0.9-0.8-1.5-1.5-2.1
		c-6.1-4.9-12.2-9.8-18.3-14.7c-4-3.3-8.1-6.5-13-8.5c-10.1-4.2-20.7-6.5-31.7-7.3c-3.1-0.2-6.1-0.3-9.1-1c-6.1-1.5-12.2-3-18.3-4.4
		c-6.2-1.4-12.4-1.9-18.7-0.6c-2.9,0.6-5.7,1.1-8.6,1.7c-12.4,2.6-24.7,5.6-36.2,10.9c-6.8,3.1-13.1,6.9-18.6,11.9
		c-4.4,4-8.3,8.4-12.1,13.1c-7,8.7-13,18-18.2,27.9c-6.3,12-11.5,24.5-15.7,37.4c-0.8,2.6-1.9,5.1-2.2,7.8c-0.5,1.4-1.6,2.5-2.6,3.5
		c-3.3,3.5-5.4,7.4-5.4,12.4c0,0.3-0.1,0.6-0.1,0.9c-0.6,3.7-1.4,7.4-0.3,11.3c0.6,2.2-0.1,4.5-1.5,6.4c-1,1.4-1.9,2.8-2.8,4.2
		c-1,1.6-1.5,3.3-1.3,5.2c0.3,2,0.3,4.1,0.5,6.1c0.2,1.8,0.5,3.6,0.8,5.4c0.1,0.5,0.1,1.1,0.8,1.1c0.6,0,0.7-0.7,0.9-1.1
		c0.2-0.8,0.4-1.6,0.5-2.4c0.4-3,0.9-6.1,1.3-9.1c0.1-0.9,0.2-1.8,0.9-2.7c0.9,0.7,1.3,1.5,1.6,2.4c0.8,2.1,0.8,4.3,0,6.4
		c-0.6,1.6-0.7,3.3-0.8,5c-0.1,5.4,0.5,10.8,1.4,16.2c0.2,1,0.2,2,1,2.9c0.5-0.8,0.5-1.6,0.5-2.4c0.1-2.6,0.3-5.3,0.5-7.9
		c0.4-3.9,0.9-7.9,2.3-11.6c0.7,0.4,0.7,1.2,0.9,1.9c1.2,5.7,2.5,11.4,4,17c0.3,1.2,0.4,2.5,1.6,3.3c0,2.4-0.4,4.7-1,6.9
		c-1.1,3.9-0.5,7.3,2.2,10.4c1.2,1.4,2,3.1,2.2,4.9c-1,4.1-0.7,8.3,0.5,12.3c0.8,3,2,5.8,4.2,8c1.9,4,4.5,7.5,7.8,10.5
		c6.4,6.1,12,13,16.9,20.4c2,3.1,4.5,5.8,7.2,8.2c9.7,8.7,19.8,16.9,30.6,24.2c7.3,4.9,14.9,9.3,23.4,12c6,1.9,12,3.9,17.7,6.6
		c0.9,0.4,1.9,0.6,3,0.6c3.3,0.1,6.6,0.4,9.8,1.1c1.6,0.4,3.4,0.4,5-0.1c0.9-0.3,2.1-0.6,2-1.7c0-1-1.2-1.2-2-1.4
		c-3.6-1-7.2-1.9-10.9-2.5c-3.5-0.5-7.1-0.7-10.5-2.1c-4.4-1.7-8.8-3.3-13.1-5c-2-0.8-3.8-1.9-5.2-3.6c-1.9-2.3-4.4-3.8-6.9-5.2
		c-1.1-0.6-2.2-1.1-2.9-2.2C203.4,304.6,204.3,304.7,205.1,304.7L205.1,304.7z M99.2,175.1c-1.6,1.8-2,2.8-2.4,5.7
		c-1.3,8.5-1.9,17-1.4,25.6c0.3,5.4,1.4,10.6,4.5,15.2c1.9,2.9,3.2,6.1,4,9.5c1.4,6.6,4.1,12.7,6.9,18.7c3.4,7.3,7.1,14.4,10.4,21.8
		c5.1,11.7,12.6,21.5,22.1,30c4.5,4,9,8,12.7,12.8c0.5,0.6,1.1,1.2,1.7,1.7c2,1.7,2.9,1.8,5,0.3c1.4-1,2.8-1,4.3-0.4
		c1.7,0.8,3.2,1.7,4.7,2.8c2.3,1.6,4.7,3,7.3,4c4,1.5,8,3,11.8,4.7c4.9,2.2,9.6,4.7,14.4,7c4.4,2.1,8.9,3.7,13.7,4.6
		c4.7,0.9,9.4,1.2,14.1,1.8c8.8,1,17.5,1.4,26.3,0.7c2.4-0.2,4.8-0.5,7.2-1.1c0.4-0.1,0.9-0.1,1-0.7c0-0.4-0.4-0.6-0.6-0.8
		c-0.5-0.4-1.2-0.6-1.8-0.6c-1.2-0.1-2.3-0.2-3.5-0.1c-7.1,0.4-14.2,0.3-21.3,0.6c-4.5,0.2-8.9-0.1-13-2.2c-0.2-0.1-0.4-0.1-0.6-0.2
		c-5.9-2.1-11.9-3.6-17.8-5.6c-5.3-1.8-10.4-4-15-7.3c-3.3-2.4-6.4-5.1-9.6-7.7c-3.3-2.8-6.6-5.6-10.9-6.9c-1.7-0.6-3-1.8-4-3.3
		c-1.4-2.1-2.4-4.4-3.2-6.7c-1.7-4.6-4.6-8.1-8.8-10.6c-2.6-1.6-5-3.4-7.2-5.4c-3.9-3.6-7.9-7.2-11.8-10.9c-1.5-1.3-2.8-2.8-3.8-4.5
		c-3-5.1-5.6-10.3-7-16.1c-1.2-5-2.6-9.9-5.7-14.2c-1.7-2.4-2.6-5.2-3.1-8.2c-0.8-5.1-1.9-10.2-3-15.3c-0.5-2.1-1-4.3-1.6-6.4
		c-0.1-0.6-0.4-1.2-1.1-1.2c-0.8,0-1,0.7-1.2,1.4c0,0.2-0.1,0.4-0.1,0.7c0,1.5-0.1,3.1,0.2,4.6c0.8,4.3,1.2,8.7,0.2,13.1
		c-0.2,1.1-0.3,2.2-0.5,3.2c-0.4,2.6-0.3,4.9,1.8,6.9c0.6,0.6,1.1,1.4,1,2.3c-0.1,1-0.6,1.7-1.5,2c-0.8,0.2-1.1-0.6-1.4-1.1
		c-3.5-5.7-6.1-11.9-7.3-18.5c-1-5.5-0.8-11.1-1.3-16.6c-0.6-6.3-0.6-12.6-1.8-18.8C100.8,181.8,100,178.7,99.2,175.1z M468.2,146.2
		c-0.3,0.6-0.2,0.9-0.2,1.3c1.4,10.7,2.7,21.4,4.4,32c2,12.1,3.9,24.3,5.7,36.4c0.2,1,0.5,1.4,1.5,1.3c3.8-0.1,7.6-0.1,11.4,0
		c1.1,0,1.5-0.3,1.7-1.5c0.4-3.1,0.9-6.2,1.4-9.3c2.9-18.1,5.9-36.3,8.1-54.5c0.2-1.9,0.8-3.7,0.5-5.8c-3.1,0-6.1,0-9.1,0
		c-1,0-1.2,0.5-1.3,1.3c-0.3,2-0.5,4.1-0.8,6.1c-1.1,8.3-2.2,16.7-3.3,25c-0.9,6.9-1.8,13.8-2.8,21c-0.4-1.2-0.6-2.1-0.7-3.1
		c-0.2-1.6-0.4-3.2-0.6-4.8c-1.6-12-3.2-24.1-4.8-36.1c-0.4-2.8-0.8-5.5-1.1-8.3c-0.1-0.6-0.1-1.2-0.9-1.2
		C474.3,146.2,471.2,146.2,468.2,146.2z M588.5,146.3c-0.6,0-1-0.1-1.4-0.1c-7.8,0-15.7,0-23.5,0c-0.3,0-0.6,0-0.9,0
		c-0.7,0-0.9,0.3-0.9,1c0,0.5,0,1,0,1.5c0,10.9,0,21.8,0,32.7c0,11.3,0,22.5,0,33.8c0,2-0.2,2,2,2c5.2,0,10.4,0,15.6,0
		c2.5,0,5,0,7.5,0c1.5,0,1.5,0,1.5-1.6c0-2.3,0-4.7,0-7c0-1.5,0-1.5-1.6-1.5c-4.2,0-8.5,0-12.7,0c-2.1,0-1.9,0.2-1.9-1.8
		c0-5.5,0-11,0-16.5c0-2.3,0-1.9,2.1-1.9c3.5,0,7,0,10.5,0c1.2,0,1.5-0.4,1.5-1.5c-0.1-2.3,0-4.7,0-7c0-1.6,0-1.6-1.7-1.6
		c-3.7,0-7.3,0-11,0c-1.1,0-1.4-0.3-1.4-1.4c0.1-3.7,0-7.3,0-11c0-2.3,0-4.5,0-6.8c0-0.8,0.2-1.2,1.1-1.1c0.5,0,1,0,1.5,0
		c4.1,0,8.2,0,12.3,0c1.1,0,1.4-0.3,1.4-1.4C588.5,152.1,588.5,149.3,588.5,146.3z M529.2,181.6c0,1.1,0,2.2,0,3.3
		c0,10.2,0,20.4,0,30.5c0,1.8,0,1.8,1.8,1.8c7.7,0,15.4,0,23.1,0c1.7,0,1.7,0,1.7-1.6c0-2.3,0-4.5,0-6.8c0-1.7,0-1.7-1.7-1.7
		c-0.4,0-0.9,0-1.3,0c-3.9,0-7.8,0-11.6,0c-1.7,0-1.7,0-1.8-1.8c0-0.4,0-0.9,0-1.3c0-18.4,0-36.8,0-55.1c0-0.6,0-1.2,0-1.8
		c0-0.5-0.2-0.8-0.8-0.8c-2.9,0-5.7,0-8.6,0c-0.7,0-0.9,0.3-0.9,0.9c0,0.5,0,1,0,1.5C529.2,159.7,529.2,170.6,529.2,181.6z
		 M519.6,181.7c0-5,0-10,0-14.9c0-6.4,0-12.7,0-19.1c0-1.1-0.3-1.5-1.5-1.5c-2.1,0.1-4.2,0-6.4,0c-2.8,0-2.4-0.4-2.4,2.5
		c0,22,0,43.9,0,65.9c0,0.4,0,0.9,0,1.3c-0.1,1,0.2,1.4,1.3,1.4c2.3-0.1,4.7,0,7,0c2.1,0,1.9,0.1,1.9-1.9
		C519.6,204.1,519.6,192.9,519.6,181.7z M303.5,321.1c3.2,0.8,4.4,0.7,6.6-0.9c2.4-1.7,4.8-2.7,7.8-2.5c1.7,0.1,3-0.7,3.5-2.4
		c0.7-2.4,2.4-3.6,4.6-4.3c2.7-0.9,5.3-2.1,7.7-3.6c2-1.2,3.9-2.5,6.1-3.6c0.6-0.3,1.1-0.8,1.5-1.2c0.9-1,0.7-1.8-0.2-3.4
		c-0.6-1.1-1.4-0.8-2.2-0.5c-1.3,0.4-2.6,0.7-3.8,1c-3,0.8-5.4,2.2-6.3,5.4c-0.6,1.9-1.9,3.2-3.9,3.8c-2,0.6-3.8,1.6-5.2,3.1
		c-1.2,1.2-2.7,1.8-4.4,1.1c-1.5-0.6-2.8-0.2-3.9,0.8C308.8,316.2,306.3,318.6,303.5,321.1z M298.1,322c-2.4,0-3.7,0.1-5.4,1.1
		c-3.4,1.9-7,1.9-10.7,1.7c-2.5-0.2-5-0.2-7.4,0c-5.3,0.4-10.5,0.4-15.7-0.7c-0.8-0.2-1.9-1.1-2.5,0c-0.4,0.8-0.1,1.9,0.1,2.8
		c0.3,0.9,0.9,1.5,1.6,2c2.3,1.6,4.9,1.9,7.5,1.6c7.7-0.8,15.3-2.6,22.8-4.5C291.7,325,295,323.9,298.1,322z"/>
	<path class="st1" d="M202.6,304.6c0.7,1.1,1.9,1.6,2.9,2.2c2.6,1.4,5,3,6.9,5.2c1.4,1.7,3.2,2.8,5.2,3.6c4.4,1.7,8.8,3.3,13.1,5
		c3.4,1.3,7,1.6,10.5,2.1c3.7,0.5,7.3,1.5,10.9,2.5c0.8,0.2,2,0.4,2,1.4c0,1.1-1.2,1.4-2,1.7c-1.6,0.5-3.4,0.5-5,0.1
		c-3.2-0.7-6.5-1-9.8-1.1c-1,0-2-0.2-3-0.6c-5.7-2.7-11.7-4.7-17.7-6.6c-8.5-2.7-16.1-7-23.4-12c-10.8-7.3-21-15.5-30.6-24.2
		c-2.7-2.5-5.2-5.2-7.2-8.2c-4.9-7.4-10.5-14.3-16.9-20.4c-3.2-3.1-5.9-6.5-7.8-10.5c0-0.4,0-0.7-0.1-1.1c-1.3-4.3-1.8-8.7-3-12.9
		c-0.6-2.1-0.6-4.3-1.6-6.3c-0.2-1.9-1-3.5-2.2-4.9c-2.7-3.1-3.3-6.5-2.2-10.4c0.6-2.2,1.1-4.5,1-6.9c1-4.4,1.1-9,1.9-13.4
		c0.8-4.7,1.6-9.3,2.1-14c0.3-3,0.5-6-0.1-9c-0.7-3.6-0.8-7.2,0.2-10.8c2-7.6,5.1-14.8,8.5-21.8c2-4.1,4.1-8.1,6.1-12.1
		c0.6-1.2,1.1-2.5,1.7-3.8c0.2-0.4,0.2-0.9-0.2-1.2c-0.5-0.3-1-0.3-1.4,0.1c-0.3,0.2-0.4,0.6-0.6,0.9c-0.4,0.7-0.8,1.4-1.1,2.2
		c-2.2,5.2-5.3,9.7-9.3,13.7c-2.1,2.1-4,4.5-4.6,7.6c-0.4,1.9-0.9,3.9-1,5.8c-0.2,4.4-1.4,8.5-3.4,12.3c-0.6,1.2-1.1,2.4-1,3.8
		c0.1,3.2-0.5,6.4-0.5,9.6c0,2.4-0.6,4.8-2.6,6.5c-0.4,0.4-0.9,0.8-0.8,1.5c-1.4,3.7-1.9,7.7-2.3,11.6c-0.3,2.6-0.4,5.3-0.5,7.9
		c0,0.8-0.1,1.6-0.5,2.4c-0.9-0.8-0.9-1.9-1-2.9c-0.9-5.3-1.5-10.7-1.4-16.2c0-1.7,0.2-3.3,0.8-5c0.8-2.1,0.8-4.3,0-6.4
		c-0.3-0.9-0.7-1.8-1.6-2.4c-0.7,0.8-0.8,1.8-0.9,2.7c-0.4,3-0.9,6.1-1.3,9.1c-0.1,0.8-0.3,1.6-0.5,2.4c-0.1,0.5-0.3,1.1-0.9,1.1
		c-0.6,0-0.7-0.7-0.8-1.1c-0.3-1.8-0.6-3.6-0.8-5.4c-0.2-2-0.3-4.1-0.5-6.1c-0.2-1.9,0.3-3.6,1.3-5.2c0.9-1.4,1.8-2.8,2.8-4.2
		c1.4-2,2.1-4.2,1.5-6.4c-1.1-3.9-0.3-7.5,0.3-11.3c0-0.3,0.1-0.6,0.1-0.9c0-4.9,2.2-8.9,5.4-12.4c1-1.1,2.1-2.1,2.6-3.5
		c0.9,0,1.3-0.6,1.8-1.2c1.1-1.5,2.3-3,3.2-4.7c1.3-2.5,2.6-4.9,4.1-7.2c7-10.4,13.6-21,21-31.1c5.1-6.9,11.1-12.8,18.2-17.6
		c7.7-5.2,15.7-9.6,24.1-13.4c8-3.5,16.2-6.3,24.6-8.5c4.6-1.2,9.4-2.1,14.1-3c2.1-0.4,4.1-1,6.3-0.9c1.5-0.5,3-0.2,4.5-0.4
		c4-0.5,8.1-0.6,12.2-0.8c2.9-0.1,5.8,0,8.8,0c0.6,0,1.2,0,1.7,0.1c3.7,0.5,7.4,0.6,11.1,0.8c2.3,0.7,4.6,0.6,6.9,0.8
		c4.9,0.6,9.8,1.4,14.6,2.5c9.6,2.2,18.7,5.9,27.4,10.2c5.2,2.5,10.1,5.5,14.9,8.8c1.8,1.2,3.4,2.8,5.4,3.6c1.9,2,4.1,3.5,6.3,5.1
		c8.3,6.2,15.4,13.7,21.8,21.9c1.3,1.6,2.6,3.2,4.1,4.5c4.6,4.1,7.2,9.3,9.1,15c0.8,2.6,1.6,5.2,2,7.9c0.3,1.3,0.5,2.5,0.8,3.8
		c0.9,4.2,1,8.6,1.9,12.8c-0.2,2.1,0.2,4.2,0.4,6.3c0.3,4,0.3,8,0.4,11.9c-0.2,2.8-0.2,5.7-0.4,8.5c-0.3,4.9-1.3,9.6-2.1,14.4
		c-0.5,2.8-1.5,5.5-1.6,8.3c-1-1.4-2.1-2.8-3.1-4.2c0.1-0.3,0.1-0.6,0.2-0.9c0.8-3.7,1.9-7.3,2.1-11.1c0.4,0,0.7-0.1,1.1-0.1
		c1.9-0.1,1.9-0.1,1.9-1.9c0-2.7,0.1-5.4,0-8.1c-0.1-2.8-0.3-5.5-1.8-8c-0.1-0.4-0.3-0.8-0.4-1.1c0.1-2.8-0.1-5.7-0.5-8.5
		c0-1.8-0.2-3.6-0.8-5.4c0-0.4,0.1-0.9,0.1-1.3l0.1-0.1c0-0.1-0.1-0.2-0.2-0.3c-0.5-2.9-0.9-5.8-1.5-8.7
		c-2.1-10.4-5.5-20.1-11.3-29.1c-6.5-10-15-17.9-24.7-24.6c-0.4-0.2-0.7-0.5-1.2-0.5c-0.2-0.6-0.8-0.8-1.3-1.2
		c-5.1-3.5-10.5-6.5-15.8-9.8c-5.1-3.1-10.7-4.8-16.3-6.7c-0.6-0.2-1.3-0.2-1.9,0v-0.1c-0.1-0.6-0.5-0.5-0.9-0.5
		c-5.9-3-12.9-5.5-14.7-5.2c0.2,0.5,0.6,0.6,1,0.8c4.8,2.2,9.7,4,14.6,6c0.3,0.1,0.7,0.1,1.1,0.1l0,0c0.1,0.5,0.6,0.4,0.9,0.5
		c0.2,0.7,0.8,0.7,1.4,0.9c1.2,0.4,2.3,0.9,3.4,1.4c3.4,1.7,6.5,3.8,9.7,5.9c4.6,3.1,9.1,6.3,13.4,9.8c3.7,2.9,6.9,6.3,10.2,9.6
		c0.6,0.6,1,1.3,1.9,1.4c0.1,0.5,0.4,0.9,0.8,1.3c2.4,2.8,4.7,5.6,6.9,8.5c7.2,9.4,13.6,19.4,17.6,30.7c0.1,0.3,0.3,0.5,0.4,0.7
		c0.8,0.2,1.1-0.8,2-0.5c0.2,1.2,0.2,2.5,0,3.8c-0.3,2.4,0,4.7,0.6,6.9c0,0.4,0.1,0.9,0.1,1.3c0.4,3,1.2,5.9,1.1,8.9
		c-3.3-1.4-6.7-1.9-10.2-1.7c-7.3,0.4-12,4-12.8,11c-0.7,6-1.1,12.1,1.1,17.9c-0.5,1.5-1.1,3-0.7,4.6c-0.8,3-1.4,6.1-2.7,9
		c-0.5,1.1-0.9,2.3-1.4,3.4c-2.3,4.5-4.9,8.9-7.8,13.1c-0.6,0.9-1.8,1.5-1.9,2.8c-2,0-3.9,0.1-5.9,0c-1.4,0-3.1,0.7-4-0.4
		c-0.8-1-0.2-2.7-0.2-4c0.8-0.4,1-1.2,1.3-1.9c0.8-1.6,1.6-3.2,2.5-4.8c0.2-0.5,0.5-0.8,0.4-1.4c1.2-2.5,2.4-5.1,3.6-7.6
		c0.2-0.1,0.3-0.1,0.5-0.2c1.6,0.2,3.2,0.1,4.8,0c0.4,0.1,0.7,0.2,0.8-0.4c0.1-3.1,0.1-6.2,0-9.2c0-0.3-0.1-0.4-0.4-0.3
		c-0.1-0.1-0.1-0.1-0.1-0.3c1.1-3.6,1.6-7.3,1.3-11.1c0.1-0.4,0.1-0.7-0.2-1c-0.1-0.4-0.2-0.7-0.2-1.1c0.1-0.4-0.1-0.8-0.2-1.3
		c-0.3-1.8-1.2-3.6-1-5.5c0.4,0,0.9-0.1,1.3-0.1c1.8-0.1,1.8-0.1,1.8-1.8c0-2.2,0-4.5,0-6.7c0-0.6,0.2-1.3-0.6-1.7
		c-1.5-0.3-3.1-0.1-4.6-0.1c-0.9,0-1.3-0.3-1.6-1.1c-0.6-1.7-1.3-3.4-1.8-5.1c-1.4-4.1-2.7-8.1-3.4-12.4c-0.3-2.4-1.2-4.6-2.6-6.7
		c-1.6-2.5-3.9-4.3-5.9-6.4c-0.6-0.7-1.2-1.7-2.5-1.7c-0.5-1.1-1.5-1.8-2.4-2.5c-2.3-1.7-4.7-3.3-7.2-4.8c-4.1-2.3-8.3-4.3-12.5-6.3
		c-1.4-0.6-2.8-1.1-4.3-1.4c-1.6-1.3-3.6-1.7-5.6-2.2c-2.9-1.5-6.1-2.3-9.1-3.5c-0.3-0.1-0.7-0.1-1.1-0.1c-0.6-0.4-1.3-0.7-2-0.9
		c-2.8-0.9-5.6-1.6-8.5-2.3c-7.3-1.9-14.4-1.8-21.5,1.4c-4.8,2.2-10,3.4-15,5c-3.1,1-6.3,1.4-9.5,0.9c-2.2-0.3-4.5-0.8-6.8-0.5
		c-2.2-0.2-4.3,0.1-6.2,1.3c-0.3,0.1-0.7,0.1-1,0.4c-1.7,1.3-3.3,2.8-4.8,4.4c-2.2,2.5-4.4,5-7.2,6.9c-0.5,0.3-0.5,0.8-0.9,1.2
		c-1.9,0.3-3.6,1.2-4.8,2.7c-3,3.5-6,6.9-9.3,10.1c-0.4,0.4-0.8,0.7-0.9,1.2c-0.7,0.6-1.5,1.1-1.7,2.2c-1.4,0.4-2.2,1.3-2.7,2.6
		c-0.8,0-1.3,0.7-1.8,1.2c-1.2,1.2-2.3,2.6-3.6,3.5c-2.6,1.8-4.4,4.3-6.4,6.6c-1.4,1.5-2.8,3.2-3.2,5.4c-1,1.2-1.2,2.6-1.3,4.1
		c-0.1,1.9,0.3,3.8,0.5,5.6c-0.1,0.9-0.4,1.7-0.4,2.6c-0.2,4-1.3,7.9-2.7,11.6c-1,2.7-2.2,5.4-2.7,8.3c-0.1-0.3-0.2-0.5-0.3-0.8
		c-1.5-9.5-3-19.1-4.5-28.6c-0.1-0.9-0.2-1.5-1.4-1.5c-4,0-7.9,0-11.9,0c-0.8,0-1.2,0.3-1.3,1.1c-0.2,1.4-0.4,2.8-0.6,4.1
		c-1.7,10.7-3.4,21.4-5.1,32.1c-1.5,9.1-2.6,18.2-3.8,27.4c-0.3,2-0.9,4.1-0.6,6.3c2.5,0,4.8,0,7.1,0c3,0,3,0,3.4-3
		c0.4-3.6,0.9-7.1,1.4-10.7c0.1-1,0.5-1.4,1.5-1.4c2.6,0,5.3,0,7.9,0c0.9,0,1.3,0.4,1.4,1.3c0,0.4,0.1,0.7,0.1,1.1
		c0.5,3.6,0.9,7.3,1.4,10.9c0.2,1.8,0.3,1.8,2,1.8c1.2,0,2.3,0.1,3.5,0.1c-0.1,1.6,0.6,3.1,1,4.7c1.6,6.6,3,13.2,5.6,19.5
		c1.4,3.5,2.9,6.8,5.4,9.7c2.1,2.5,3.6,5.3,4,8.6c0.4,2.9,1.8,5.1,4.3,6.8c2.4,1.7,4.8,3.3,7.1,5.1c2.9,2.4,5.6,4.9,8.6,7.2
		c5.1,4,10.2,7.9,14.6,12.5c0.5,0.6,1,1.3,1.9,1.3c0.2,0.3,0.5,0.4,0.9,0.4l0,0c0.2,0.7,0.8,0.8,1.3,1c3.7,1.6,7.4,3.2,11.1,4.7
		c7.9,3.2,16.1,4.7,24.6,4.7c5.4,0,10.8,0,16.2,0.4c2.5,0.2,5.1,0.6,7.7,0.4c0.3,0,0.6,0,0.8,0c0.1,0,0.2-0.1,0.3-0.1
		c3.1,0.7,6.1,0.4,9.1-0.3c1.4-0.3,2.8-0.7,4.2-1.2c3.6-1,7.4-1.9,10.9-3.2c3.4-1.2,6.8-2.5,10.5-3.2c0.7-0.1,1.3-0.2,2-0.2
		c0.6,0,1.2,0.1,1.4,0.8c0.2,0.6,0.1,1.2-0.4,1.6c-0.6,0.6-1.2,1.2-2,1.6c-1.7,0.9-3.5,1.5-4.8,3.1c-1.4,1.7-3.2,2-5.2,1.6
		c-1.8-0.4-3.6-0.3-5.5-0.2c-2.8,0.1-5.3,1.1-7,3.5c-0.6,0.9-1.3,1.8-1.9,2.7c-2.1,2.3-5,3-7.9,3.5c-3.6,0.6-7.2,1.1-10.8,1.7
		c-1.6,0.3-3.1,0.8-4.7,1.1c-2.1,0.5-4.2,0.5-6.2-0.3c-1.6-0.6-3.1-1.3-4.8-1.6c-0.5-0.7-1.3-0.7-1.9-0.9c-2.6-0.9-5.3-1.6-7.9-2.5
		c-6.9-2.5-13.8-5-20.7-7.5c-0.1,0-0.2,0-0.3-0.1l0,0c-1.4-0.9-2.9-1.6-4.6-1.9c-0.7-0.1-1.5-0.4-1.9,0.5c-1.8,0.8-1.9,1.3-0.6,2.5
		c0.8,0.8,1.9,1.1,2.8,1.6c1.5,0.9,3.1,1.7,3.8,3.5c0,0.1,0,0.3,0,0.4c-0.4,2.7-0.8,3.1-3.3,2c-3-1.3-5.8-3-8.9-4.2
		c-2.2-0.9-3.9-2.3-5.8-3.5c-0.1-0.2-0.3-0.4-0.6-0.3l0,0c-1-2-2.8-3.3-4.4-4.7c-1.1-1-2.3-2-3.7-2.6c-0.3-0.2-0.7-0.4-1-0.1
		c-0.4,0.2-0.2,0.6-0.1,1c0.2,0.9,0.3,1.9,1,2.6c1.5,1.3,3,2.8,5,3.4C202,304.5,202.3,304.6,202.6,304.6L202.6,304.6z M242.1,73.8
		c-2.3-0.1-4.4,0.5-6.6,0.9c-1.9,0.4-3.9,0.6-5.5,1.8c-0.7-0.2-1.4-0.1-2.1,0.2c-2,0.7-4.1,1.2-6,2c-3,1.2-5.8,2.7-8,5.2
		c-1.7,1.8-3.7,3-6.1,3.6c-1.4,0.4-2.8,0.8-4.2,1.3c-3.2,1.1-5,3.7-6.5,6.4c-0.1,0.2,0,0.5,0.1,0.6c0.2,0.3,0.5,0.2,0.8,0.1
		s0.5-0.3,0.8-0.4c4.1-1.7,8.1-3.6,12.3-5.2c4.3-1.6,8.4-3.7,12.4-6c0.3-0.1,0.7-0.2,1-0.4c3.6-1.5,7.2-3,10.8-4.5
		c0.4,0,0.8,0,1.1-0.1c1.7-0.7,3.3-0.8,5.1-0.4c3,0.6,3.1,0.5,3.7-2.8C245.2,74.3,244.2,73.4,242.1,73.8z M223.7,61
		c-2.7-0.3-5,0.4-7.1,2.1c-3.8,3-8.1,5.1-12.5,7.1c-0.7,0.3-1.7,0.2-2.2,1.4c1.8-0.7,3.4-0.6,5-0.5c2.6,0.2,4.7-0.8,6.6-2.2
		c1.3-0.1,2.2-1,3.4-1.4c4.5-1.3,8.9-2.7,13.4-3.9c1.8-0.5,3.5-1.2,5.4-1.4c2.7-0.3,5.3-0.6,8-0.8c0.5,0,1,0.1,1.4-0.4
		c2.3-0.1,4.5-0.3,6.8-0.4c4.7-0.1,9.3-0.8,14-0.5c1.1,0.1,2.1-0.4,3.2-0.2c5.1,1.1,10.3,1.8,15.4,2.9c2.5,0.5,5.1,0.7,7.5,1.6
		c2.5,0.9,4.9,1.9,7.4,2.7c4.7,1.4,9.4,2.7,14.1,4c0.5,0.1,1,0.7,1.7,0.1c-0.6-0.7-1.5-0.9-2.2-1.4c-2.1-1.5-4.4-2.9-6.4-4.6
		c-2.5-2-5.7-2.6-8.7-3.6c-4.9-1.7-9.9-2.4-15-2.5c-0.3-0.4-0.7-0.4-1.2-0.4c-1.7-0.2-3.3-0.4-5-0.6c-2.5-0.3-4.8-1.1-7.2-1.8
		c-5.1-1.5-5.1-1.4-10.2,0.8c-1.4,0.6-2.8,1.3-4.4,1.2c-1.9-0.1-3.8,0.3-5.6,0.6c-3.1,0.6-6.1,0.4-9-0.8c-2-0.8-3.6-0.6-5.4,0.6
		c-1.5,1-3.2,1.5-5.2,1.5C227.8,60.2,225.7,60.4,223.7,61z"/>
	<path class="st2" d="M289.2,310.8c0.6-0.9,1.3-1.8,1.9-2.7c1.7-2.4,4.2-3.4,7-3.5c1.8-0.1,3.6-0.2,5.5,0.2c2,0.5,3.8,0.1,5.2-1.6
		c1.2-1.5,3.1-2.2,4.8-3.1c0.8-0.4,1.4-1,2-1.6c0.4-0.5,0.6-1,0.4-1.6c-0.2-0.7-0.8-0.8-1.4-0.8c-0.7,0-1.3,0.1-2,0.2
		c-3.6,0.6-7,1.9-10.5,3.2c-3.6,1.3-7.3,2.2-10.9,3.2c-1.4,0.4-2.8,0.8-4.2,1.2c-3,0.7-6,1-9.1,0.3c-0.7-1-1.8-0.7-2.7-0.8
		c-4.2-0.2-8.5-0.3-12.7-0.4c-6.4-0.2-12.9-0.5-19.2-1.7c-8.2-1.6-16.1-4.2-24-7c-1.2-0.4-2.3-1-3.5-1.2l0,0
		c-0.3-0.1-0.6-0.3-0.9-0.4c-1,0-1.4-0.7-1.9-1.3c-4.4-4.7-9.5-8.6-14.6-12.5c-2.9-2.3-5.7-4.8-8.6-7.2c-2.3-1.9-4.7-3.5-7.1-5.1
		c-2.5-1.7-3.9-3.9-4.3-6.8c-0.4-3.3-1.9-6.1-4-8.6c-2.5-2.9-4-6.2-5.4-9.7c-2.5-6.3-4-12.9-5.6-19.5c-0.4-1.6-1.1-3-1-4.7
		c1.1-0.1,2.1-0.2,3.2,0.1c0.1,1.4,0.9,2.5,1.6,3.6c2.2,3.8,4,7.8,5,12.1c1.1,4.5,2.1,9,4.3,13.1c1.6,3.1,3.5,6.1,5.2,9.1
		c4.2,7,9.9,12.4,16.8,16.7c3.6,2.3,7.5,4.3,11.2,6.5c4,2.4,8,4.9,11.1,8.5c1.3,1.5,2.8,2.8,4.2,4.2c2.3,2.2,4.9,3.6,8.2,3.4
		c2.2-0.1,4.4-0.4,6.5-0.5c5.4-0.2,10.7,1.2,16,2c3.5,0.5,6.9,1.3,10.4,1.5c6,0.4,11.8-0.9,17.5-2.4c2-0.5,3.6-1.5,5-3
		c1.5-1.7,1.3-2.8-1-3.4c-2.2-0.5-4.4-0.9-6.7-1c-2.3,0-4.7-0.3-7-0.5c-5.4-0.6-10.6-1.8-15.9-2.7c-9.5-1.5-19-3.1-28.5-4.3
		c-3-0.4-5.9-1.1-8.6-2.4c-1.6-0.7-2.8-1.8-3.5-3.4c-0.7-1.5-1.5-3-2.2-4.5c-0.5-1-1.1-1.9-1.9-2.7c-4-3.6-8.3-6.7-12.7-9.7
		c-5.4-3.7-9.8-8.2-12.6-14.3c-1.4-3.1-3.3-5.9-5-8.7c-2.6-4.2-5.3-8.2-7.4-12.7c-0.7-1.5-1.6-3-1.6-4.7c3.2,0,6.4,0.1,9.6,0.1
		c0.1,1.5,1.3,2.2,2.4,2.9c2.2,1.5,4.6,2.8,6.7,4.5c3.4,2.6,6.8,5.2,10.3,7.7c3.2,2.3,6.7,3.3,10.6,3.2c0.8,0,1.8-0.3,2.5,0.3
		c0.2,0.2,0.3,0.5,0.5,0.7c3.5,2.6,7.3,4.9,11.4,6.4c5.6,2.1,11.4,3.1,17.3,3.8c4.6,0.6,9.3,1,14,0.9c1.7,0,3.2-0.5,4-2.1
		c1.7,0,3.4,0.3,5-0.4c2.5-1.1,5-2,7.6-2.9c2.2-0.7,4.5-1.4,6.5-2.4c4.1-1.9,8.2-3.9,12-6.3c4.4-2.8,9.2-5.1,13.9-7.4
		c3.8-1.8,7.6-3.8,10.7-6.7c0.4-0.4,0.8-0.7,1.3-0.7c0,1-0.9,1.5-1.5,2.1c-1.2,1.2-2.5,2.5-3.4,4c-0.7,1.3-0.4,2,1,2.5
		c0.7,0.2,1.4,0.2,2.1-0.1c0.8-0.4,1.5-0.8,2.3-1.3c1.8-1.3,3.3-3,5.4-4c1.7-0.8,3.4-1.7,5-2.7c0.8-0.5,1.9-0.8,2.3-1.9
		c2.3-0.4,4.6-0.2,6.9-0.1c-0.1,0.3-0.1,0.6-0.3,0.8c-1.7,2-3.3,4.1-5.1,6c-1.7,1.9-3.5,3.8-5.5,5.3c-3.2,2.4-7,3.2-10.8,3.9
		c-4.6,0.9-8.7,2.9-12,6.3c-1.3,1.4-1.3,2.2,0.3,3.4c1.3,1,2.7,1.8,4.3,2.1c2.1,0.5,4.3,0.9,6.5,1c6.3,0.4,9.1-0.9,11.1-5.5
		c0.9-2.1,2.2-4,4.3-5.1c1.5-0.8,3-1.6,4.5-2.2c3.1-1.2,6.3-2.3,9.4-3.6c3.3-1.4,6.1-3.2,8.4-6.1s4.3-6.1,6.7-8.9
		c1.5,1.2,3,2.1,4.8,2.8c-0.1,0.8-0.5,1.5-1,2.1c-3.4,4-6.3,8.6-10.1,12.3c-1.2,1.2-2.4,2.4-2.9,4.4c1.4-0.5,2.2-1.3,3.1-2
		c5-4.6,9-10.1,13.6-15c0.3-0.3,0.4-0.6,0.4-1c3.4,0.1,6.8,0,10.1-0.9c-0.2,0.3-0.3,0.6-0.6,0.9c-4.5,5.7-9.1,11.4-13.7,17.2
		c-4.3,5.4-8.6,10.7-11.9,16.8c-1.2,2.3-2.8,4.5-4.4,6.5c-2.6,3.3-6.1,3.8-9.9,3.5c-0.7-0.1-1.5-0.2-1.8-1.1
		c-0.2-0.7,0.3-1.2,0.7-1.7c1.4-1.7,3.3-2.8,5.3-3.8c2.3-1.1,4.7-2.1,6.9-3.3c2.6-1.5,3.8-3.7,3.9-6.7c-1.5,0.5-2.4,1.5-3.5,2.3
		c-3.8,2.9-7.4,6.1-11.5,8.4c-5.9,3.3-12.3,5.9-18.5,8.6c-1,0.4-2.1,0.5-3.2,0.6c-2,0.1-4.1,0.2-6.1,0.5c-9,1.6-17.8,4-26.5,6.8
		c-7,2.3-14,4.3-21.1,6.1c-3.1,0.8-6.3,1.2-9.6,0.7c-2.9-0.5-5.7-1.3-8.4-2.6c-4.4-2.1-9.1-3.2-14-3.1c-0.4,0-0.9-0.2-1.5,0.4
		c6.8,2.6,13.2,5.6,20.1,7.6c7,2,14.1,2,21.3,0.9c6.1-0.9,11.7-3,16.9-6.4c2.6-1.7,5.4-3.3,8.2-4.6c4.6-2.2,9.4-2.9,14.5-2.2
		c3.9,0.6,7.8,1.5,11.6,2.2c3.7,0.7,7.4,1.1,11.1,0.2c4.9-1.2,9.7-2.7,14.4-4.6c5.2-2.1,9.1-5.6,11-10.9c1.8-4.9,4.9-8.9,8.6-12.6
		c1.8-1.7,3.5-3.5,5.3-5.3c0.7-0.7,1.3-1.4,1.8-2.2c2.8-4.1,5.7-8.2,8.5-12.3c3.9-5.5,7.8-11,11.7-16.5c0.1,0,0.2,0,0.3,0.1
		c0.6,5.2,4.1,8.9,9.5,10.1c2.9,0.6,5.8,0.5,8.7,0.2c-0.1,1.2-1,2-1.5,2.9c-2.7,4.4-5.1,8.9-7.5,13.4c-0.9,1.7-1.9,3.5-3,5.1
		c-2.3,3.4-5.7,5.2-9.6,6.1c-1.5,0.3-2.6,1.1-3.6,2.2c-4.6,5-8.9,10.3-13.3,15.5c-6,7-12.6,13.2-20,18.7
		c-8.2,6.1-16.8,11.4-26.1,15.7c-7.5,3.5-15.4,6.1-23.2,8.5c-5.2,1.6-10.5,3-15.9,4.2C290.4,310.7,289.8,310.7,289.2,310.8z"/>
	<path class="st2" d="M235.5,39.9c-2.2-0.1-4.2,0.5-6.3,0.9c-4.7,0.8-9.5,1.7-14.1,3c-8.4,2.3-16.6,5-24.6,8.5
		c-8.4,3.8-16.5,8.2-24.1,13.4c-7.1,4.8-13.1,10.7-18.2,17.6c-7.4,10.1-14,20.7-21,31.1c-1.5,2.3-2.8,4.8-4.1,7.2
		c-0.9,1.7-2.1,3.2-3.2,4.7c-0.4,0.6-0.9,1.2-1.8,1.2c0.2-2.7,1.4-5.2,2.2-7.8c4.1-12.9,9.3-25.4,15.7-37.4
		c5.2-9.9,11.3-19.2,18.2-27.9c3.7-4.6,7.7-9.1,12.1-13.1c5.5-5,11.8-8.8,18.6-11.9c11.6-5.3,23.8-8.4,36.2-10.9
		c2.9-0.6,5.7-1.2,8.6-1.7c6.3-1.2,12.5-0.8,18.7,0.6c6.1,1.4,12.2,2.9,18.3,4.4c3,0.8,6.1,0.8,9.1,1c11,0.8,21.5,3.1,31.7,7.3
		c4.9,2,8.9,5.2,13,8.5c6.1,4.9,12.2,9.8,18.3,14.7c0.7,0.6,1.2,1.3,1.5,2.1c1.2,3.3,2.2,6.6,2.9,10.1c-2-0.9-3.6-2.4-5.4-3.6
		c-4.8-3.2-9.7-6.2-14.9-8.8c-8.8-4.3-17.8-8.1-27.4-10.2c-4.8-1.1-9.7-1.9-14.6-2.5c-2.3-0.3-4.7-0.1-6.9-0.8
		c-0.3-1.4-1.3-1.8-2.5-2.1c-3.1-0.8-6.2-0.6-9.4-0.3c-3.9,0.4-7.7,0.4-11.6-0.1c-1.1-0.1-2.2-0.2-3.3,0c-3.6,0.7-7.1,1.4-10.7,2
		C235.9,39.2,235.6,39.4,235.5,39.9z"/>
	<path class="st1" d="M99.2,175.1c0.8,3.5,1.6,6.7,2.2,9.9c1.2,6.2,1.1,12.5,1.8,18.8c0.5,5.5,0.3,11.1,1.3,16.6
		c1.2,6.6,3.8,12.7,7.3,18.5c0.3,0.5,0.6,1.4,1.4,1.1c0.9-0.3,1.4-1,1.5-2s-0.4-1.8-1-2.3c-2.1-1.9-2.2-4.3-1.8-6.9
		c0.2-1.1,0.3-2.2,0.5-3.2c1-4.4,0.6-8.7-0.2-13.1c-0.3-1.5-0.2-3.1-0.2-4.6c0-0.2,0-0.4,0.1-0.7c0.1-0.7,0.4-1.3,1.2-1.4
		c0.7,0,1,0.6,1.1,1.2c0.6,2.1,1.1,4.3,1.6,6.4c1.2,5.1,2.2,10.2,3,15.3c0.5,2.9,1.4,5.7,3.1,8.2c3,4.3,4.5,9.2,5.7,14.2
		c1.3,5.8,4,11,7,16.1c1,1.7,2.3,3.2,3.8,4.5c3.9,3.6,7.9,7.2,11.8,10.9c2.2,2,4.6,3.8,7.2,5.4c4.1,2.6,7.1,6,8.8,10.6
		c0.8,2.3,1.8,4.6,3.2,6.7c1,1.5,2.2,2.8,4,3.3c4.2,1.4,7.5,4.2,10.9,6.9c3.2,2.6,6.3,5.3,9.6,7.7c4.6,3.3,9.7,5.5,15,7.3
		c5.9,2,11.9,3.5,17.8,5.6c0.2,0.1,0.4,0.1,0.6,0.2c4.1,2.1,8.5,2.4,13,2.2c7.1-0.3,14.2-0.2,21.3-0.6c1.2-0.1,2.3,0,3.5,0.1
		c0.6,0.1,1.3,0.2,1.8,0.6c0.3,0.2,0.6,0.5,0.6,0.8c0,0.6-0.6,0.6-1,0.7c-2.4,0.6-4.7,0.9-7.2,1.1c-8.8,0.8-17.5,0.4-26.3-0.7
		c-4.7-0.6-9.5-0.9-14.1-1.8c-4.8-0.9-9.3-2.5-13.7-4.6c-4.8-2.3-9.6-4.8-14.4-7c-3.9-1.7-7.9-3.2-11.8-4.7c-2.6-1-5-2.3-7.3-4
		c-1.5-1.1-3-2-4.7-2.8c-1.5-0.7-2.9-0.7-4.3,0.4c-2.2,1.6-3,1.5-5-0.3c-0.6-0.5-1.2-1.1-1.7-1.7c-3.7-4.8-8.2-8.8-12.7-12.8
		c-9.5-8.4-17-18.3-22.1-30c-3.2-7.4-6.9-14.5-10.4-21.8c-2.9-6-5.5-12.1-6.9-18.7c-0.7-3.4-2-6.6-4-9.5c-3.1-4.6-4.2-9.8-4.5-15.2
		c-0.5-8.6,0.1-17.1,1.4-25.6C97.2,177.9,97.7,176.9,99.2,175.1z"/>
	<path class="st3" d="M468.2,146.2c3,0,6.1,0,9.2,0c0.9,0,0.9,0.6,0.9,1.2c0.4,2.8,0.8,5.5,1.1,8.3c1.6,12,3.2,24.1,4.8,36.1
		c0.2,1.6,0.4,3.2,0.6,4.8c0.1,0.9,0.3,1.9,0.7,3.1c1-7.2,1.9-14.1,2.8-21c1.1-8.3,2.2-16.7,3.3-25c0.3-2,0.5-4.1,0.8-6.1
		c0.1-0.8,0.3-1.3,1.3-1.3c3,0.1,6,0,9.1,0c0.2,2-0.3,3.9-0.5,5.8c-2.3,18.2-5.2,36.4-8.1,54.5c-0.5,3.1-1,6.2-1.4,9.3
		c-0.1,1.1-0.6,1.5-1.7,1.5c-3.8-0.1-7.6-0.1-11.4,0c-1,0-1.3-0.3-1.5-1.3c-1.9-12.2-3.8-24.3-5.7-36.4c-1.7-10.6-3-21.3-4.4-32
		C468,147.1,467.8,146.8,468.2,146.2z"/>
	<path class="st3" d="M437.8,147.6c4.6-2.8,9.5-3.1,14.6-2.1c5.2,1,8.4,4.2,9.5,9.4c0.4,1.6,0.5,3.2,0.5,4.8c0,14.6,0,29.3,0,43.9
		c0,2.1-0.2,4.2-0.9,6.3c-1.3,3.9-3.9,6.5-7.8,7.7c-3.8,1.1-7.7,1.2-11.5,0.2c-5-1.3-7.8-4.6-8.8-9.6c-0.4-1.7-0.5-3.5-0.5-5.2
		c0-4.5,0-9.1-0.1-13.6c0.1-0.7,0.1-1.4,0.2-2.1c0.5-0.1,0.7-0.4,0.9-0.8c0.5-1.7,1.2-3.4,1.7-5.2c1.6-5.5,2.4-11.1,2.6-16.8
		c0.2-5.5,0.2-11-0.4-16.4C437.7,147.9,437.7,147.7,437.8,147.6z M452.1,181.9c0-7,0-14.1,0-21.1c0-1,0-1.9-0.3-2.8
		c-0.3-1-0.9-1.8-1.8-2.3c-3.1-1.6-6.4,0.2-6.8,3.6c-0.1,0.5,0,1,0,1.5c0,13.9,0,27.8,0,41.7c0,1,0,1.9,0.3,2.8c0.3,1.1,1,2,2,2.4
		c3.3,1.5,6.4-0.3,6.6-3.9c0-0.5,0-1,0-1.5C452.1,195.6,452.1,188.7,452.1,181.9z"/>
	<path class="st3" d="M588.5,146.3c0,3,0,5.9,0,8.7c0,1.1-0.3,1.4-1.4,1.4c-4.1,0-8.2,0-12.3,0c-0.5,0-1,0-1.5,0
		c-0.9-0.1-1.1,0.3-1.1,1.1c0,2.3,0,4.5,0,6.8c0,3.7,0,7.3,0,11c0,1.1,0.3,1.4,1.4,1.4c3.7-0.1,7.3,0,11,0c1.7,0,1.7,0,1.7,1.6
		c0,2.3,0,4.7,0,7c0,1.1-0.3,1.5-1.5,1.5c-3.5-0.1-7,0-10.5,0c-2,0-2.1-0.3-2.1,1.9c0,5.5,0,11,0,16.5c0,2-0.2,1.8,1.9,1.8
		c4.2,0,8.5,0,12.7,0c1.6,0,1.6,0,1.6,1.5c0,2.3,0,4.7,0,7c0,1.6,0,1.6-1.5,1.6c-2.5,0-5,0-7.5,0c-5.2,0-10.4,0-15.6,0
		c-2.3,0-2,0-2-2c0-11.3,0-22.5,0-33.8c0-10.9,0-21.8,0-32.7c0-0.5,0-1,0-1.5c0-0.6,0.2-1,0.9-1c0.3,0,0.6,0,0.9,0
		c7.8,0,15.7,0,23.5,0C587.5,146.2,587.9,146.2,588.5,146.3z"/>
	<path class="st2" d="M437.8,147.6c0,0.1,0,0.2,0,0.4c-2.6,1.7-3.7,4.4-4.3,7.3c-0.5,2.1-0.5,4.2-0.5,6.3c0,8.5,0.1,17.1,0.1,25.6
		c-0.1,0.7-0.1,1.4-0.2,2.1c-2,3.4-3.6,7.1-5.8,10.5c-0.5,0.8-0.9,1.6-1.6,2.3c0-2.3-0.1-4.7-0.1-7c0-0.9-0.3-1.3-1.3-1.3
		c-2.3,0-4.7,0-7,0c-2.1,0-2.1,0-2.1,2c0,2.8,0.1,5.6-0.1,8.3c-0.1,2.7-1.6,4-4.2,4.1c-2.7,0.1-4.3-1.3-4.6-3.9
		c-0.1-0.6,0-1.2,0-1.8c0-2.8-0.1-5.5-0.1-8.3c0.1-0.4,0.1-0.9,0.2-1.3c1-0.9,1.5-2.1,2-3.3c2.6-5.7,5.5-11.3,8.4-16.8
		c0.5-1,1.3-1.9,1.5-3.1c0.3-0.1,0.5-0.1,0.8-0.2c1.9,0.1,3.8,0.1,5.7,0c0.3,0.1,0.7,0.2,0.7-0.3c0.3-2.7,0.1-5.4,0.1-8
		c0-1.3,0.2-2.6-0.3-3.9c0-0.1,0.1-0.1,0.1-0.2s-0.1-0.2-0.2-0.3c0-1.7-0.4-3.3-1.3-4.8c-0.1-0.4-0.3-0.7-0.4-1.1
		c0.8-0.2,1.1-0.9,1.5-1.5c1.9-2.9,3.8-5.7,5.7-8.6c0.9-1.3,0.9-1.3,2.2-0.5c0.4,0.3,0.8,0.6,1.3,0.8
		C436.6,142.5,437.7,144.8,437.8,147.6z"/>
	<path class="st3" d="M529.2,181.6c0-11,0-22,0-33c0-0.5,0-1,0-1.5c0-0.6,0.2-0.9,0.9-0.9c2.9,0,5.7,0,8.6,0c0.6,0,0.8,0.3,0.8,0.8
		c0,0.6,0,1.2,0,1.8c0,18.4,0,36.8,0,55.1c0,0.4,0,0.9,0,1.3c0,1.8,0,1.8,1.8,1.8c3.9,0,7.8,0,11.6,0c0.4,0,0.9,0,1.3,0
		c1.6,0,1.7,0,1.7,1.7c0,2.3,0,4.5,0,6.8c0,1.6,0,1.6-1.7,1.6c-7.7,0-15.4,0-23.1,0c-1.8,0-1.8,0-1.8-1.8c0-10.2,0-20.4,0-30.5
		C529.2,183.8,529.2,182.7,529.2,181.6z"/>
	<path class="st2" d="M385.9,185.9c0.1-2.9,1.1-5.5,1.6-8.3c0.8-4.8,1.8-9.5,2.1-14.4c0.2-2.8,0.2-5.7,0.4-8.5
		c0.6,0.1,0.9-0.3,1.2-0.8c5.7-7.2,9.5-15.4,12-24.2c1-3.7,0.8-7.3-0.4-11c-1.2-3.6-1.8-7.2-1.4-11c0.1-1.5,0.4-2.9,0.9-4.3
		c0.9-2.2,2.7-2.6,4.6-1c0.7,0.6,1.1,1.3,1.5,2.2c0.7,1.7,1.1,3.5,1.3,5.3c0.7,7.6,0.8,15.2,0.2,22.8c-0.3,4.2-1.2,8.2-1.5,12.4
		c-0.1,0.1-0.3,0.2-0.4,0.3c-6.1,0.3-10.1,3.8-11.4,9.6c-0.4,1.9-0.5,3.8-0.5,5.7c0,7,0,13.9,0,20.9c0,2.9,0.1,5.8,0.1,8.8
		c0,0.6-0.1,1.1-0.1,1.7c-0.6,0.5-0.9,1.3-1.2,2c-1.2,2.9-2.6,5.7-4.1,8.4c-0.8,1.4-1.3,3.1-2.6,4.2c0-3.4,0-6.7,0.1-10.1
		C388.1,192.8,387.5,189.2,385.9,185.9z"/>
	<path class="st3" d="M519.6,181.7c0,11.2,0,22.4,0,33.6c0,2,0.2,1.9-1.9,1.9c-2.3,0-4.7-0.1-7,0c-1.1,0-1.5-0.4-1.3-1.4
		c0.1-0.4,0-0.9,0-1.3c0-22,0-43.9,0-65.9c0-2.8-0.4-2.4,2.4-2.5c2.1,0,4.2,0.1,6.4,0c1.2,0,1.5,0.3,1.5,1.5c-0.1,6.4,0,12.7,0,19.1
		C519.6,171.7,519.6,176.7,519.6,181.7z"/>
	<path class="st3" d="M395.9,192c0-0.6,0.1-1.1,0.1-1.7c1-1,1-2.5,1.5-3.8c2-5.7,3.6-11.5,5.2-17.3c1.6-5.7,2.9-11.6,4.2-17.4
		c0.5-2.1,1-4.2,1-6.4c0.1-0.1,0.3-0.2,0.4-0.3c2.1,0.1,4.2-0.1,6.3,0.3c3.8,0.6,6.8,2.3,8.9,5.6c0.1,0.4,0.3,0.7,0.4,1.1
		c-0.9,0.1-1,0.7-1,1.4c0,1.7,0,3.3,0,5c0.1,2.3-0.7,4.2-1.8,6.2c-0.9,1.6-2,3-2.2,4.9c-0.3,0.1-0.5,0.1-0.8,0.2
		c-3.1-0.2-3.1-0.2-3.1-3.2c0-0.1,0-0.3,0-0.4c0-2.3,0-4.7-0.1-7c-0.1-2.1-1.2-3.2-3.1-3.7c-3.2-0.7-5.5,1-5.6,4.3
		c-0.1,2.8,0,5.7,0,8.6c0,8.3,0,16.5,0.1,24.8c-0.1,0.4-0.1,0.9-0.2,1.3c-0.4,0.1-0.6,0.4-0.8,0.7c-2,2.9-3.9,5.8-6,8.6
		c-1.1,1.4-2.4,2.6-2.8,4.4c-0.1-0.1-0.2-0.1-0.3-0.1c-0.1-1.5-0.2-3-0.2-4.5C395.9,199.5,395.9,195.7,395.9,192z"/>
	<path class="st2" d="M116.4,179.7c0-0.7,0.4-1.1,0.8-1.5c2-1.7,2.6-4.1,2.6-6.5c0.1-3.2,0.6-6.4,0.5-9.6c0-1.4,0.4-2.6,1-3.8
		c2.1-3.9,3.2-8,3.4-12.3c0.1-1.9,0.6-3.9,1-5.8c0.6-3.1,2.5-5.5,4.6-7.6c4-4,7.1-8.5,9.3-13.7c0.3-0.7,0.7-1.4,1.1-2.2
		c0.2-0.3,0.4-0.6,0.6-0.9c0.4-0.4,0.9-0.5,1.4-0.1c0.4,0.3,0.4,0.8,0.2,1.2c-0.5,1.3-1,2.6-1.7,3.8c-2,4.1-4.2,8-6.1,12.1
		c-3.4,7.1-6.5,14.2-8.5,21.8c-1,3.6-0.9,7.2-0.2,10.8c0.6,3,0.5,6,0.1,9c-0.5,4.7-1.3,9.4-2.1,14c-0.8,4.4-0.9,9-1.9,13.4
		c-1.2-0.8-1.3-2.1-1.6-3.3c-1.5-5.6-2.8-11.3-4-17C117.1,180.9,117.2,180.2,116.4,179.7z"/>
	<path class="st4" d="M396.4,207.9c0.5-1.8,1.8-3,2.8-4.4c2.1-2.8,4.1-5.7,6-8.6c0.2-0.3,0.4-0.6,0.8-0.7c0,2.8,0.1,5.5,0.1,8.3
		c0,0.6,0,1.2,0,1.8c0.3,2.6,1.9,4,4.6,3.9c2.6-0.1,4.1-1.4,4.2-4.1c0.1-2.8,0-5.5,0.1-8.3c0-2,0-2,2.1-2c2.3,0,4.7,0,7,0
		c0.9,0,1.3,0.3,1.3,1.3c0,2.3,0,4.7,0.1,7c-0.1,0.6-0.1,1.2-0.2,1.8c-0.8,0.1-1.2,0.7-1.6,1.3c-2.2,3.1-4.1,6.4-6.4,9.4
		c-0.7,0.9-1.5,1.8-1.6,3.1c-0.4,0.2-0.8,0.3-1.2,0.5c-2.9,0.2-5.8,0.4-8.7-0.2C400.6,216.8,397.1,213.1,396.4,207.9z"/>
	<path class="st2" d="M389.1,136.4c-0.9-4.2-1-8.6-1.9-12.8c-0.3-1.3-0.5-2.5-0.8-3.8c0.4,0,0.7-0.2,0.8-0.6
		c0.7-3.1,1.2-6.1-0.6-9.1c-0.8-1.3-0.7-2.7-0.4-4.2c0.8-3.4,2.9-6.2,4.6-9.2c0.3-0.5,0.7-0.5,1-0.1c0.3,0.3,0.5,0.7,0.6,1.1
		c0.2,0.7,0.4,1.4,0.4,2.1c0,5.8,0.4,11.5,0.3,17.3c0,5.3-0.8,10.6-2.3,15.8C390.6,134.2,390.3,135.6,389.1,136.4z"/>
	<path class="st1" d="M303.5,321.1c2.8-2.5,5.3-4.9,7.9-7.1c1.1-1,2.4-1.4,3.9-0.8c1.7,0.7,3.2,0.1,4.4-1.1c1.5-1.5,3.2-2.5,5.2-3.1
		s3.4-1.9,3.9-3.8c0.9-3.2,3.3-4.7,6.3-5.4c1.3-0.3,2.6-0.6,3.8-1c0.9-0.2,1.6-0.6,2.2,0.5c0.9,1.6,1.1,2.4,0.2,3.4
		c-0.4,0.5-1,0.9-1.5,1.2c-2.1,1-4.1,2.3-6.1,3.6c-2.4,1.5-5,2.7-7.7,3.6c-2.2,0.7-3.9,1.9-4.6,4.3c-0.5,1.7-1.8,2.5-3.5,2.4
		c-2.9-0.2-5.4,0.8-7.8,2.5C307.9,321.8,306.7,321.9,303.5,321.1z"/>
	<path class="st2" d="M224.4,304.2c6.9,2.5,13.8,5.1,20.7,7.5c2.6,0.9,5.3,1.7,7.9,2.5c0.7,0.2,1.5,0.3,1.9,0.9
		c-0.7,0.5-1.4,0.3-2.1,0.3c-6.9-0.3-13.8-0.9-20.5-2.6c-2.9-0.8-5.7-1.7-8.6-2.5c-0.6-1.8-2.2-2.6-3.8-3.5c-1-0.5-2-0.9-2.8-1.6
		c-1.3-1.2-1.2-1.8,0.6-2.5c2.2,0.3,4.2,1.4,6.4,1.4l0,0l0.1,0.1L224.4,304.2z"/>
	<path class="st1" d="M298.1,322c-3.1,1.9-6.3,3.1-9.6,3.9c-7.5,1.9-15.1,3.7-22.8,4.5c-2.7,0.3-5.3,0-7.5-1.6
		c-0.7-0.5-1.4-1.1-1.6-2c-0.3-0.9-0.6-2-0.1-2.8c0.6-1.1,1.7-0.2,2.5,0c5.2,1.1,10.5,1.1,15.7,0.7c2.5-0.2,5-0.2,7.4,0
		c3.7,0.3,7.3,0.2,10.7-1.7C294.3,322.1,295.6,322,298.1,322z"/>
	<path class="st3" d="M415.8,217.7c0.1-1.3,0.9-2.2,1.6-3.1c2.2-3.1,4.2-6.3,6.4-9.4c0.4-0.6,0.8-1.2,1.6-1.3
		c0.1,2.7-0.3,5.2-1.5,7.6C422.2,214.9,419.5,217,415.8,217.7z"/>
	<path class="st2" d="M126.2,224.1c1,2,1,4.2,1.6,6.3c1.2,4.3,1.8,8.7,3,12.9c0.1,0.3,0,0.7,0.1,1.1c-2.2-2.2-3.4-5.1-4.2-8
		C125.5,232.4,125.2,228.3,126.2,224.1z"/>
	<path class="st2" d="M201.8,304.2c-2-0.6-3.5-2.1-5-3.4c-0.7-0.7-0.9-1.6-1-2.6c-0.1-0.4-0.3-0.7,0.1-1c0.3-0.2,0.7,0,1,0.1
		c1.4,0.7,2.6,1.6,3.7,2.6c1.6,1.4,3.4,2.7,4.4,4.7c-0.8,0-1.7-0.1-2.5-0.1l0,0C202.4,304.3,202.1,304.3,201.8,304.2z"/>
	<path class="st2" d="M205.1,304.7c0.3-0.1,0.4,0.1,0.6,0.3C205.4,305,205.2,305,205.1,304.7z"/>
	<path class="st0" d="M296.7,95.4c1.9,0.5,3.9,0.9,5.6,2.2c0.7,1.1,1.3,2.1,2,3.2c2.2,3.8,3.5,7.9,4.3,12.2c1.3,6.9,3.4,13.6,6.2,20
		c1.5,3.5,3.1,6.9,4.1,10.6c0.3,0.9,0.6,1.8,0,2.7c-1.3-0.1-2.7-0.1-4-0.2c0-0.6,0.1-1.2,0-1.7c-0.2-1-1.4-2.3-2.3-2.3
		c-1.9,0-3.7-0.6-5.7-0.6c-2.1,0-3-1-3.1-3.1c0-0.7,0.1-1.5,0.3-2.2c0.3-1.8,0.3-3.5-0.2-5.2c-0.4-1.3-1.6-2.1-2.9-2.2
		c-1.4,0-1.6,1.1-2,2c-1.5,4.1-1.4,8.3-1.1,12.6c0.1,0.8,0.4,1.6,0.9,2.2c2.1,2.7,2.9,5.9,3.2,9.2c0.4,3.6,0.7,7.2-2.2,10.1
		c-0.6,0.6-0.7,1.4-0.9,2.2c-0.3,0.9-0.4,1.9-1.5,2.2c-0.6-2.9-0.6-6-1.4-8.9c0-1,0.1-2.1-0.4-3.1c-0.1-2.7-0.6-5.3-0.9-8
		c-0.4-3-0.4-3-3.2-3.2c0.4-3.1,0-6.1-0.2-9.1c-0.1-1.7-0.5-3.5-1-5.1c-0.4-1.1-1.1-1.9-2.2-2.3c-1.1-0.4-1.6-0.2-2,0.9
		c-0.3,0.8-0.2,1.6,0,2.4c1.2,4.5,0.8,9-0.7,13.3c-1.1,0-1.6,0.4-1.3,1.6c0.2,1.1,0.5,2.3,0.3,3.5c-0.6,1.2-1.2,2.5-1.9,3.7
		c-0.9,1.6-1.7,3.2-3.3,4.3c-0.2-0.6-0.3-1.3-0.5-1.9c-0.6-2.9-1.2-5.9-2.2-8.7c-1-2.7-2.8-4.2-5.8-4.1c-4,0.2-8,0-12.1,0.5
		c-1.7,0.2-3.5,0.6-5.2,1c-1.5,0.3-2.4,1.2-3.3,2.4c-2.1,2.9-3.1,6.3-3.9,9.7c-0.8,3.3-0.9,6.6,0,10c0.7,2.5,1.2,5,1.9,7.4
		c-0.3,0.8-0.8,1.1-1.6,1.3c-2.1,0.5-4.2,1-6.4,1.5c-2.2,0.5-4.1,0.1-5.8-1.1c-1.6-1.1-3.2-2.3-4.8-3.5c-2.2-1.5-4.5-2.8-7.3-1.8
		c-0.3,0.1-0.7,0-1.1,0c0-4-0.1-8,0-12.1c0.1-3.1,1.6-4.6,4.4-4.6s4.3,1.4,4.5,4.5c0,0.7,0,1.3,0,2c0,2.2,0,4.4,0,6.6
		c0,1.1,0.4,1.4,1.4,1.4c2.6-0.1,5.1,0,7.7,0c1,0,1.3-0.3,1.3-1.3c-0.1-2.1,0-4.2,0-6.4c0-2.1,0-4.1-0.4-6.1
		c-0.9-5.2-3.7-8.8-9-10.2c-3.6-0.9-7.3-0.9-10.9,0c-4.7,1.2-7.6,4.2-8.7,8.9c-0.4,1.6-0.5,3.2-0.5,4.8c0,2,0,4,0,5.9
		c-1.9-2.3-2.9-5.1-3-8.1c-0.1-3.4-0.3-6.9-0.7-10.3c-0.5-4.7-1.9-9.2-2.5-13.8s-0.1-8.9,2-13c0.3-0.6,0.9-1.2,0.8-2
		c1.8-1.6,3.7-3.2,5.5-4.9c0.8-0.7,1.5-1.5,2.1-2.5c0.8-1.3,0.6-1.7-1-1.9c-0.1,0-0.3,0-0.4,0c0.8-1.8,2.2-3.3,3.3-4.9
		c2-2.9,4.4-5.6,6.3-8.7c2.3-0.2,4.5,0.2,6.8,0.5c3.3,0.5,6.4,0.1,9.5-0.9c5-1.6,10.2-2.8,15-5c7-3.2,14.1-3.3,21.5-1.4
		c2.8,0.7,5.7,1.4,8.5,2.3c0.7,0.2,1.4,0.5,2,0.9c1.6,2.6,4,3.9,6.9,4.3C294.5,96.3,295.7,96.2,296.7,95.4z M261.4,121
		c-0.4,0-0.8,0.1-1.2,0.2c-0.5,0.1-1,0.2-1.5,0.4c-4.2,1.8-6.8,4.9-7.7,9.4c-0.4,1.8-0.5,3.6,0.5,5.3c1.6,2.9,4.1,4.7,7.5,5.1
		c1.5,0.2,3-0.3,4.6-0.5c2.4-0.4,4.5-1.4,5.7-3.6c1.3-2.4,1-5.1,0.6-7.6c-0.2-1.3-0.9-2.5-1.4-3.7C267,123,264.8,121.1,261.4,121z"
		/>
	<path class="st5" d="M318.7,146.3c0.6-0.9,0.3-1.8,0-2.7c-1-3.7-2.6-7.1-4.1-10.6c-2.8-6.5-4.9-13.1-6.2-20
		c-0.8-4.3-2-8.4-4.3-12.2c-0.6-1.1-1.3-2.1-2-3.2c1.5,0.3,2.9,0.7,4.3,1.4c4.2,1.9,8.4,4,12.5,6.3c-0.2,0.8,0.2,1.4,0.4,2.1
		c1.3,3.4,2.5,6.9,3.6,10.3c1.9,6.2,3.5,12.6,4.9,19c0.7,3,1,6.1,1.8,9.2c-1.5,0.3-3-0.3-4.5,0.4c-0.3,0.9-0.1,1.7-0.1,2.6
		c0,21.1,0,42.3,0,63.4c0,0.9,0.1,1.8-0.1,2.6c-1.7,1-2.8,2.6-4.1,4c-0.2-0.3-0.3-0.3-0.4,0l0,0c-0.6,0-1,0.3-1.3,0.7
		c-3.1,3-6.9,4.9-10.7,6.7c-4.7,2.3-9.5,4.6-13.9,7.4c-3.8,2.4-7.9,4.4-12,6.3c-2.1,1-4.3,1.7-6.5,2.4c-2.6,0.9-5.1,1.8-7.6,2.9
		c-1.6,0.7-3.3,0.4-5,0.4c-0.5-0.3-1.1-0.3-1.7-0.3c-2.6-0.1-5.2-0.3-7.9-0.4c-6.3-0.3-12.5-1.1-18.6-2.4c-4.4-0.9-8.7-1.9-12.5-4.4
		c-1.9-1.3-4.2-2-6.6-2.3c-0.8-0.6-1.7-0.3-2.5-0.3c-3.9,0.1-7.4-0.9-10.6-3.2c-3.5-2.5-6.9-5-10.3-7.7c-2.1-1.7-4.5-2.9-6.7-4.5
		c-1.1-0.7-2.3-1.4-2.4-2.9c0.7-0.9,0.1-1.9,0.5-2.9c0.5,0,1,0,1.4,0.4c1,0.9,2.1,1.8,3.1,2.7c2.3,2.1,4.9,3.6,7.5,5.2
		c0.5,0.3,1,0.6,1.6,0.5l0,0c0,0.3,0.2,0.4,0.5,0.4l0,0c0.2,0.7,0.7,0.5,1.2,0.6l0,0c0.2,0.1,0.3,0.3,0.5,0.4
		c1.4,0.9,2.9,1.4,4.5,1.7c3.6,0.8,7.2,1.8,10.7,3.3c0.5,0.2,1,0.3,1.5,0.2c3.2,1.9,6.8,3,10.1,4.5c0.2,0.1,0.4,0.1,0.6,0.1
		c0.1,0.2,0.1,0.5,0.3,0.5c2.5,1.2,5.1,2.5,7.7,3.7c1.5,0.7,3.2,1,4.9,1c3-0.1,6.1-0.1,9.1-0.1c2.6-0.1,5.1,0.6,7.6,0.6
		c2.9-0.1,5.8-0.1,8.8,0c2.2,0,4.3-0.4,6.4-1c3-0.9,6-1.8,9-2.7c1.9-0.6,3.7-1.3,5.5-2.1c1.4-0.6,2-2,1.6-3
		c-0.3-0.9-1.3-1.2-3.1-0.6c-1.6,0.5-3.2,0.8-4.9,1.1c-5,0.8-10.1,1.6-15.1,2.4c-3.9,0.6-7.8,1.9-11.9,1.5c-1.9-0.6-4-0.5-6-0.9
		c-2.8-0.5-5.7-0.6-8.6-1.2c-3.3-0.7-6.7-1.3-10-2c-6.1-2.1-11.9-4.8-17.7-7.5c-3.9-1.9-7.4-4.5-11.1-6.7c-0.1-0.1-0.1-0.1,0-0.2
		c1.9,0.3,3.7,0.2,5.7,0c-0.6-2.9-2-5.5-2.6-8.3c2.9,0.6,5.9,1.2,8.8,1.7c2.1,5.1,6.2,7.4,11.5,7.8c1.5,0.1,2.9,0.1,4.4,0.1
		c0.3,0.7,0.9,0.8,1.6,0.9c1.4,0.1,2.8,0.2,4.1,0.5c3.4,0.7,6.9,1,10.4,1.1c7,0.3,14,0.1,21,0.1c1.1,0,2.2-0.2,3-1
		c0.9,1.5,2.2,2.5,4,2.4c0.4,0,0.9,0.1,1-0.5c0.1-0.8,0.9-1.4,0.5-2.2c0.3,0,0.6,0,0.9,0c5.5-1.2,10.9-2.7,16-4.9
		c1.2-0.5,2.5-1,3.3-2.1c0.2,1,0.4,2,0.5,3s0.4,1.5,1.6,1.5c3.8-0.1,7.6-0.1,11.4,0c1.2,0,1.4-0.5,1.6-1.5c0.6-4.5,1.4-8.9,2.1-13.4
		c0.6-3.3,0.9-6.6,1.7-9.9c1.1,0,1.4-0.8,2-1.5c2.3-3.1,4.2-6.5,6-9.8c0.7-1.3,1.7-2.6,1.9-4.3c-0.6,0.5-1.3,0.9-1.6,1.6
		c-1.5,3.4-4.1,6-6.1,9c-0.4,0.6-0.8,1.1-1.5,1.1c0-0.2-0.1-0.4,0-0.7c1.3-8.2,2.7-16.4,3.7-24.7c0.5-4.3,1.3-8.5,1.6-12.8
		c0.2-0.2,0.3-0.5,0.1-0.8c0.1-0.1,0.1-0.2,0.1-0.3C318.8,148.3,318.6,147.3,318.7,146.3z"/>
	<path class="st4" d="M165.6,217.4c-1-0.3-2.1-0.2-3.2-0.1c-1.2,0-2.3-0.1-3.5-0.1c-1.8,0-1.8,0-2-1.8c-0.5-3.6-0.9-7.3-1.4-10.9
		c0-0.4-0.1-0.7-0.1-1.1c-0.1-0.8-0.5-1.3-1.4-1.3c-2.6,0-5.3,0-7.9,0c-1,0-1.4,0.4-1.5,1.4c-0.4,3.6-0.9,7.1-1.4,10.7
		c-0.4,3-0.3,3-3.4,3c-2.3,0-4.7,0-7.1,0c-0.3-2.2,0.3-4.3,0.6-6.3c1.2-9.1,2.3-18.3,3.8-27.4c1.7-10.7,3.4-21.4,5.1-32.1
		c0.2-1.4,0.5-2.7,0.6-4.1c0.1-0.8,0.5-1.1,1.3-1.1c4,0,7.9,0,11.9,0c1.1,0,1.2,0.7,1.4,1.5c1.5,9.5,3,19.1,4.5,28.6
		c0,0.3,0.2,0.5,0.3,0.8c0.3,3.3,0.9,6.5,1.4,9.8c0.6,3.9,1.2,7.8,1.8,11.7c0.4,3,0.7,5.9,1.1,8.9c0.3,2.7,0.7,5.5,1.1,8.2
		c0.1,1,0,1.6-1.2,1.5C166,217.2,165.8,217.4,165.6,217.4z M150.1,163.7c-0.1,0-0.1,0-0.2,0c-0.2,1.2-0.4,2.3-0.5,3.5
		c-0.7,5.1-1.4,10.1-2,15.2c-0.4,2.8-0.7,5.5-1.1,8.3c-0.1,1,0.2,1.5,1.3,1.4c1.5-0.1,3.1,0,4.6,0c1.7,0,1.7-0.1,1.5-1.8
		C152.5,181.4,151.3,172.6,150.1,163.7z"/>
	<path class="st4" d="M385.9,185.9c1.7,3.3,2.3,6.9,2.2,10.6c-0.1,3.4-0.1,6.7-0.1,10.1c-0.8,4.9-3,8.8-7.8,10.9
		c-3.3,0.9-6.7,1.1-10.1,0.9c-1-0.5-2.1-0.5-3.1-0.8c-1.7-0.7-3.3-1.6-4.8-2.8c-2.1-2.4-3.3-5.3-3.5-8.5c-0.2-1.9-0.1-3.8-0.2-5.7
		c-0.1-2,0.3-4-0.2-6c0-0.1,0-0.3,0-0.4c0.1-0.1,0.1-0.2,0.1-0.3l0,0c2.9,0,5.7-0.1,8.6-0.1c1.8,0,1.8,0,1.9,2
		c0.1,2.4-0.2,4.8,0.1,7.2c0,0.3,0,0.6-0.1,0.9c-0.1,0.5-0.1,1,0.3,1.4c0.3,1.5,1.1,2.4,2.6,2.7c3.4,0.9,5.6-0.6,5.9-3.9
		c0.1-1.5,0.2-3-0.1-4.5c0.1-1.3,0.2-2.6,0.2-3.9c0-2.1-0.8-4-2.3-5.5c-1.3-2.2-3.2-3.7-5.2-5.2c-2.6-1.9-5.1-3.9-7.3-6.2
		c-0.3-0.5-0.5-1-1-1.3c-0.6-1.1-1.3-2.3-1.9-3.4c-2.1-5.9-1.7-12-1.1-17.9c0.8-7,5.5-10.7,12.8-11c3.6-0.2,7,0.3,10.2,1.7l0.1,0.1
		l0.1-0.1c0.1,0.2,0.2,0.4,0.4,0.5c0,0.8-0.1,1.6-0.1,2.4c0,4.1-0.1,8.2,0,12.3c0,1.7-0.9,3.2-0.4,4.9c0.3,0.1,0.4-0.2,0.5-0.3
		c1.9-3,4-5.9,3.4-9.8c-0.2-1.2,0-2.5,0-3.7c0-0.5-0.1-1,0.3-1.4c1.4,2.5,1.7,5.2,1.8,8c0.1,2.7,0,5.4,0,8.1c0,1.8,0,1.8-1.9,1.9
		c-0.4,0-0.7,0.1-1.1,0.1c-1.3-0.1-2.6-0.2-3.9,0c-0.2,0-0.4-0.1-0.6-0.1c-2.7-0.1-2.7-0.1-2.7-2.9c0-0.2,0-0.4,0-0.7
		c0-2.3,0-4.7-0.1-7c-0.1-2.1-1.2-3.3-3.1-3.7c-3.2-0.7-5.5,1-5.7,4.3c-0.1,1.7,0.1,3.4,0,5c-0.3,3,1,5.4,2.9,7.5
		c2.4,2.6,5.1,4.8,8.1,6.7c1,0.9,2.1,1.8,3.1,2.8C383.8,183.1,384.8,184.5,385.9,185.9z M361.2,166.1c3.2-2.1,2.4-3,1.4-4.7
		c-0.4-0.7-1-0.4-1.1,0.1C361.3,162.9,360.4,164.3,361.2,166.1z"/>
	<path class="st4" d="M325,214.9c0.3-0.9,0.1-1.7,0.1-2.6c0-21.1,0-42.3,0-63.4c0-0.9-0.1-1.8,0.1-2.6c1.5,0,3,0.2,4.4-0.1
		c0.1,0.1,0.3,0.1,0.4,0.2c-0.9,7.1-2.5,14.1-4,21.6c1.6-1.2,2.1-2.7,3-3.8c1.4-1.8,2.6-3.9,3.6-6c0.3-0.7,0.7-1.4,0.2-2.1
		c-1-1.3-0.7-2.7-0.4-4.2c0.4-1.9,1.2-3.6,1.1-5.6c0.3-0.1,0.5-0.2,0.8-0.3c5.6,0.4,11.1,0.2,16.7,0.1c0.7,0.4,0.6,1.1,0.6,1.7
		c0,2.2,0,4.5,0,6.7c0,1.7,0,1.7-1.8,1.8c-0.4,0-0.9,0.1-1.3,0.1c-4-0.2-8,0-12-0.1c-1,0-1.2,0.5-1.2,1.4c0,5.8,0,11.7,0,17.5
		c0,1.2,0.5,1.4,1.6,1.4c2.4,0,4.8,0.1,7.2,0.1c-0.2,0.8-0.4,1.6-0.7,2.3c-1.2,2.5-2,5.1-2.8,7.7c-0.1,0.1-0.2,0.1-0.3,0.2
		c-1.2,0-2.5-0.1-3.7-0.1c-0.9-0.1-1.3,0.2-1.3,1.2c0.1,4.9,0.1,9.7,0.1,14.6c-0.1,1.4-0.6,3.1,0.2,4c0.8,1.1,2.6,0.3,4,0.4
		c2,0.1,3.9,0,5.9,0c1.6,0.1,3.2,0.1,4.8,0c0.8,0.1,1.4,0.2,1.4,1.2c-0.1,2.5,0,5,0,7.4c0,1.5,0,1.5-1.6,1.5c-3.1,0-6.3,0.1-9.4,0.1
		c-2.3-0.1-4.6-0.2-6.9,0.1c-2-0.4-4-0.1-6-0.2C325.3,217.2,325.3,217.2,325,214.9z"/>
	<path class="st0" d="M346,72.1c0.5,0,0.8,0.2,1.2,0.5c9.7,6.8,18.2,14.6,24.7,24.6c5.8,8.9,9.3,18.7,11.3,29.1
		c0.6,2.9,1,5.8,1.5,8.7c-0.1,0.1-0.1,0.3,0,0.4c0,0.4-0.1,0.9-0.1,1.3c-1.9,1.3-2,1.3-3.9,0c-0.6-2.3-0.9-4.6-0.6-6.9
		c0.2-1.3,0.2-2.6,0-3.8c-0.9-0.3-1.2,0.7-2,0.5c-0.1-0.2-0.3-0.4-0.4-0.7c-4-11.3-10.3-21.2-17.6-30.7c-2.2-2.9-4.5-5.7-6.9-8.5
		c-0.3-0.4-0.7-0.8-0.8-1.3c0.5-0.6,0.4-1.4,0.6-2.1c1-3-1.4-4.8-2.4-7.2c-0.1-0.2-0.3-0.3-0.6-0.3C348.1,75.3,347,73.8,346,72.1z"
		/>
	<path class="st0" d="M330.1,146.3c-0.1-0.1-0.3-0.1-0.4-0.2l0.1-0.1l-0.1-0.1c-0.8-3-1.1-6.1-1.8-9.2c-1.4-6.4-2.9-12.7-4.9-19
		c-1.1-3.5-2.3-6.9-3.6-10.3c-0.3-0.7-0.6-1.3-0.4-2.1c2.5,1.5,4.9,3.1,7.2,4.8c0.9,0.7,1.9,1.4,2.4,2.5c-0.1,0.8,0.3,1.6,0.6,2.3
		c1.3,3.8,2.5,7.6,3.5,11.5c1.3,5,2.5,9.9,2.1,15.1c-0.1,1.5-0.4,3-0.6,4.6c-0.3,0.1-0.5,0.2-0.8,0.3
		C332.4,146.1,331.2,146.1,330.1,146.3z"/>
	<path class="st5" d="M344.1,176.7c-2.4,0-4.8-0.1-7.2-0.1c-1,0-1.6-0.2-1.6-1.4c0.1-5.8,0-11.7,0-17.5c0-0.9,0.1-1.4,1.2-1.4
		c4,0.1,8-0.1,12,0.1c-0.2,1.9,0.7,3.7,1,5.5c0.1,0.4,0.3,0.8,0.2,1.3c-1.5,3.1-2.5,6.3-3.8,9.5c-0.5,1.3-1.3,2.4-1.4,3.9
		C344.4,176.6,344.2,176.7,344.1,176.7z"/>
	<path class="st5" d="M334.3,146c0.2-1.5,0.5-3,0.6-4.6c0.4-5.2-0.9-10.2-2.1-15.1c-1-3.9-2.2-7.7-3.5-11.5
		c-0.3-0.7-0.7-1.5-0.6-2.3c1.2-0.1,1.8,1,2.5,1.7c2,2.1,4.3,4,5.9,6.4c1.4,2,2.3,4.3,2.6,6.7c0.6,4.3,2,8.4,3.4,12.4
		c0.6,1.7,1.3,3.4,1.8,5.1c0.3,0.8,0.7,1.1,1.6,1.1c1.5,0,3.1-0.2,4.6,0.1C345.5,146.2,339.9,146.4,334.3,146z"/>
	<path class="st2" d="M346,72.1c1,1.7,2.1,3.1,4.2,3.6c0.2,0,0.5,0.2,0.6,0.3c1,2.3,3.4,4.2,2.4,7.2c-0.2,0.7-0.1,1.5-0.6,2.1
		c-0.9-0.1-1.3-0.9-1.9-1.4c-3.3-3.3-6.5-6.7-10.2-9.6c-4.3-3.4-8.8-6.7-13.4-9.8c-3.2-2.1-6.3-4.2-9.7-5.9c-1.1-0.5-2.3-1-3.4-1.4
		c-0.5-0.2-1.1-0.3-1.4-0.9c-0.3-0.2-0.6-0.3-0.9-0.5l0,0c-0.3-0.4-0.7-0.8-1-1.2c0.6-0.2,1.3-0.3,1.9,0c5.6,1.8,11.2,3.5,16.3,6.7
		c5.3,3.2,10.7,6.3,15.8,9.8C345.2,71.3,345.8,71.5,346,72.1z"/>
	<path class="st2" d="M283,59.3c5.1,0.1,10.2,0.8,15,2.5c3,1,6.2,1.6,8.7,3.6c2.1,1.7,4.3,3,6.4,4.6c0.7,0.5,1.6,0.7,2.2,1.4
		c-0.7,0.6-1.2,0-1.7-0.1c-4.7-1.3-9.4-2.6-14.1-4c-2.5-0.8-5-1.8-7.4-2.7c-2.4-0.9-5-1.1-7.5-1.6c-5.1-1.1-10.3-1.9-15.4-2.9
		c-1.2-0.2-2.1,0.3-3.2,0.2c-4.7-0.3-9.3,0.4-14,0.5c-2.2,0.1-4.5,0.3-6.8,0.4c0.7-0.9,1.7-0.9,2.8-0.9c2.4,0,4.8,0.1,7.2-0.1
		c3-0.2,6-1.1,8.9-1.9c3.2-0.9,6.3-1,9.4,0.9C276.5,60.9,279.9,60.6,283,59.3z"/>
	<path class="st5" d="M283,59.3c-3.2,1.4-6.5,1.6-9.4-0.2c-3.1-1.9-6.2-1.8-9.4-0.9c-3,0.8-5.9,1.7-8.9,1.9
		c-2.4,0.2-4.8,0.1-7.2,0.1c-1,0-2.1,0-2.8,0.9c-0.4,0.5-0.9,0.4-1.4,0.4c-2.7,0.1-5.3,0.5-8,0.8c-1.9,0.2-3.6,1-5.4,1.4
		c-4.5,1.2-8.9,2.6-13.4,3.9c-1.2,0.3-2.2,1.3-3.4,1.4c0.1-0.3,0.2-0.6,0.4-0.8c2.7-1.8,5.2-4,8-5.6c0.7-0.4,1.4-0.8,1.7-1.6
		c2-0.6,4.1-0.8,6.2-0.8c1.9,0,3.6-0.5,5.2-1.5c1.7-1.1,3.4-1.4,5.4-0.6c2.9,1.2,5.9,1.4,9,0.8c1.8-0.3,3.7-0.7,5.6-0.6
		c1.6,0.1,3-0.6,4.4-1.2c5.1-2.2,5.1-2.3,10.2-0.8c2.4,0.7,4.7,1.5,7.2,1.8c1.7,0.2,3.3,0.4,5,0.6C282.3,58.9,282.7,58.9,283,59.3z"
		/>
	<path class="st5" d="M223.2,84.4c-4,2.3-8.1,4.4-12.4,6c-4.2,1.5-8.2,3.5-12.3,5.2c-0.3,0.1-0.5,0.3-0.8,0.4s-0.6,0.2-0.8-0.1
		c-0.1-0.2-0.1-0.5-0.1-0.6c1.5-2.8,3.4-5.3,6.5-6.4c1.4-0.5,2.8-0.9,4.2-1.3c2.4-0.7,4.4-1.8,6.1-3.6c2.2-2.4,5.1-3.9,8-5.2
		c1.9-0.8,4-1.3,6-2c0.7-0.3,1.4-0.3,2.1-0.2c-0.3,0.4-0.7,0.7-0.6,1.2l0,0c-0.2,0.1-0.4,0.2-0.7,0.4c-2.4,1.4-3.7,3.9-5.4,5.9
		C223.2,84,223.3,84.2,223.2,84.4z"/>
	<path class="st5" d="M168.7,145c0.3-2.2,1.8-3.9,3.2-5.4c2-2.3,3.8-4.8,6.4-6.6c1.4-0.9,2.4-2.3,3.6-3.5c0.5-0.5,0.9-1.1,1.8-1.2
		c0,1.1,0.1,2.2,0.9,3.1c-0.4,0.8-1.2,1.4-1.6,2.3c-1.4,3-3,5.9-4.3,9c-0.7,1.8-1.6,3.7-4.2,3.2c-0.1,0-0.2,0.1-0.4,0.2
		c-0.6,0.6-0.3,1.4-0.4,2c-0.1,1.6-0.1,3.1-0.1,4.7c-1.1-0.2-1.2,1.3-2.2,1.4c-0.8-2.4-1.7-4.8-2.1-7.3
		C169.2,146.3,169.4,145.5,168.7,145z"/>
	<path class="st5" d="M165.2,198.6c-0.6-3.9-1.2-7.8-1.8-11.7c-0.5-3.3-1.1-6.5-1.4-9.8c0.5-2.9,1.7-5.6,2.7-8.3
		c1.4-3.8,2.5-7.6,2.7-11.6c0-0.9,0.3-1.7,0.4-2.6c0.5,0,0.7,0.3,1,0.7c0.4,0.6,0.9,1.1,1.7,1.1c-0.6,1.8-1.3,3.6-1.8,5.4
		c-1.7,5.7-1.3,11.7-1.7,17.5c-0.2,2.8-0.3,5.5-1,8.2c-1,3.4-1.1,6.9-0.4,10.3C165.6,198.2,165.5,198.4,165.2,198.6z"/>
	<path class="st0" d="M215.7,293.1c1.2,0.2,2.4,0.8,3.5,1.2c7.8,2.8,15.8,5.4,24,7c6.3,1.3,12.7,1.5,19.2,1.7
		c4.2,0.1,8.5,0.2,12.7,0.4c0.9,0,2-0.2,2.7,0.8c-0.1,0-0.2,0.1-0.3,0.1c-0.3-0.3-0.6-0.2-0.8,0c-2.6,0.1-5.1-0.2-7.7-0.4
		c-5.4-0.4-10.8-0.4-16.2-0.4c-8.5,0-16.7-1.5-24.6-4.7c-3.7-1.5-7.4-3.1-11.1-4.7C216.5,293.9,215.9,293.8,215.7,293.1z"/>
	<path class="st2" d="M350.3,207c-1.6,0.1-3.2,0.1-4.8,0c0.1-1.3,1.3-1.9,1.9-2.8c2.9-4.2,5.5-8.5,7.8-13.1c1.1,0.3,2.4-0.1,3.5,0.5
		c0.2,0.8-0.5,1.5-0.3,2.4l0,0c-0.1,0-0.3,0-0.3,0c-0.1,0.2,0.1,0.2,0.3,0.3c0,0.1,0,0.3,0,0.4c-1.1,0.4-1.4,1.4-1.9,2.3
		C354.7,200.5,352.5,203.7,350.3,207z"/>
	<path class="st0" d="M203.1,109.5c0.4-0.3,0.5-0.9,0.9-1.2c2.8-1.8,5-4.4,7.2-6.9c1.5-1.6,3.1-3.1,4.8-4.4c0.3-0.2,0.6-0.3,1-0.4
		c-0.3,1.3-1.3,2.1-2,3.1c-2.5,3.6-5,7.1-6.9,11c-2.8,2.3-5.8,4.4-8.7,6.5c0-0.8,0.4-1.5,0.8-2.2
		C201.2,113.2,202.2,111.3,203.1,109.5z"/>
	<path class="st5" d="M208.3,110.7c1.8-3.9,4.4-7.5,6.9-11c0.7-1,1.7-1.8,2-3.1c1.9-1.2,4-1.4,6.2-1.3c-1.9,3-4.3,5.7-6.3,8.7
		c-1.1,1.6-2.5,3.1-3.3,4.9c-0.8,0-1.5,0.3-2.3,0.5C210.3,109.8,209.4,110.6,208.3,110.7z"/>
	<path class="st5" d="M203.1,109.5c-0.9,1.9-1.9,3.7-2.8,5.6c-0.4,0.7-0.8,1.4-0.8,2.2c-2.4,2-5,4-7.3,6.2c-1.5,1.3-2.8,2.9-4.6,4
		c-0.2-1.4,0.8-2.6,0.5-3.9c0.1-0.5,0.6-0.8,0.9-1.2c3.2-3.2,6.3-6.6,9.3-10.1C199.6,110.7,201.2,109.8,203.1,109.5z"/>
	<path class="st5" d="M235.5,39.9c0.1-0.5,0.4-0.7,0.9-0.8c3.6-0.7,7.1-1.3,10.7-2c1.1-0.2,2.2-0.2,3.3,0c3.9,0.5,7.7,0.4,11.6,0.1
		c3.1-0.3,6.3-0.5,9.4,0.3c1.2,0.3,2.2,0.8,2.5,2.1c-3.7-0.1-7.4-0.3-11.1-0.8c-0.6-0.1-1.2-0.1-1.7-0.1c-2.9,0-5.9-0.1-8.8,0
		c-4.1,0.2-8.1,0.3-12.2,0.8C238.5,39.6,237,39.4,235.5,39.9z"/>
	<path class="st3" d="M386.2,151.6c-0.4,0.4-0.3,0.9-0.3,1.4c0,1.2-0.2,2.5,0,3.7c0.6,3.9-1.4,6.8-3.4,9.8c-0.1,0.2-0.2,0.4-0.5,0.3
		c-0.5-1.7,0.4-3.2,0.4-4.9c-0.1-4.1,0-8.2,0-12.3c0-0.8,0.1-1.6,0.1-2.4c1.5,0.6,2.3,2,3.4,3.1C386,150.9,386.1,151.3,386.2,151.6z
		"/>
	<path class="st2" d="M223.7,61c-0.3,0.8-1,1.2-1.7,1.6c-2.9,1.6-5.3,3.8-8,5.6c-0.2,0.1-0.2,0.5-0.4,0.8c-2,1.5-4.1,2.5-6.6,2.2
		c-1.6-0.1-3.2-0.2-5,0.5c0.6-1.2,1.6-1.1,2.2-1.4c4.3-2.1,8.7-4.1,12.5-7.1C218.7,61.4,221,60.7,223.7,61z"/>
	<path class="st5" d="M335.4,202.6c0-4.9,0-9.7-0.1-14.6c0-1,0.4-1.3,1.3-1.2c1.2,0.1,2.5,0.1,3.7,0.1c-0.4,2.5-0.9,5-0.7,7.6
		c0.1,0.5-0.2,0.9-0.4,1.4c-0.9,1.6-1.7,3.2-2.5,4.8C336.4,201.4,336.2,202.2,335.4,202.6z"/>
	<path class="st0" d="M358.6,191.6c-1.1-0.6-2.3-0.2-3.5-0.5c0.5-1.1,0.9-2.3,1.4-3.4c1.3-2.9,1.9-6,2.7-9c0.9-0.4,1.7-0.8,2.6-1.2
		c0.5,0.3,0.7,0.8,1,1.3c-1,3.3-1.9,6.6-2.9,9.9C359.6,189.6,359.5,190.8,358.6,191.6z"/>
	<path class="st2" d="M223.2,84.4c0-0.1,0-0.3,0.1-0.4c1.8-2,3.1-4.4,5.4-5.9c0.2-0.1,0.4-0.2,0.7-0.4l0,0c0.7,0,1.3-0.4,1.9-0.6
		c2.7-0.9,5.4-1.8,8.3-2c-0.5,1.5-2,2-3.1,2.8c-0.6,0.4-1.3,0.7-1.3,1.5c-3.6,1.5-7.2,3-10.8,4.5C223.9,84.2,223.6,84.3,223.2,84.4z
		"/>
	<path class="st2" d="M381.1,169.7c1.3-0.2,2.6-0.2,3.9,0c-0.2,3.8-1.2,7.4-2.1,11.1c-0.1,0.3-0.1,0.6-0.2,0.9
		c-1-0.9-2.1-1.8-3.1-2.8c0.1-0.8,0.1-1.6,0.3-2.4C380.4,174.3,381.2,172.1,381.1,169.7z"/>
	<path class="st0" d="M344.5,176.6c0-1.4,0.8-2.6,1.4-3.9c1.4-3.1,2.3-6.4,3.8-9.5c0.1,0.4,0.2,0.7,0.2,1.1c-0.1,0.4,0,0.7,0.2,1
		c0.3,3.8-0.2,7.5-1.3,11.1c-0.3,0.1-0.5,0.2-0.8,0.2C346.9,176.7,345.7,176.6,344.5,176.6z"/>
	<path class="st3" d="M344.5,176.6c1.2,0.1,2.4,0.1,3.6,0.2c-0.2,2-1.2,3.7-2.2,5.3c-0.9,1.5-1.8,2.9-2.2,4.6
		c-0.2,0.1-0.3,0.1-0.5,0.2c-0.9-0.1-1.7-0.1-2.6-0.2c0.8-2.6,1.5-5.3,2.8-7.7c0.4-0.7,0.5-1.5,0.7-2.3
		C344.2,176.7,344.4,176.6,344.5,176.6z"/>
	<path class="st4" d="M343.7,186.7c0.4-1.7,1.4-3.1,2.2-4.6c1-1.7,2-3.3,2.2-5.3c0.3-0.1,0.5-0.2,0.8-0.2c-0.1,0.1,0,0.2,0.1,0.3
		s0.2,0.2,0.4,0.3c0.1,3.1,0.1,6.2,0,9.2c-0.3,0-0.6,0.1-0.8,0.4C346.9,186.8,345.3,186.9,343.7,186.7z"/>
	<path class="st5" d="M235.1,79.5c0-0.9,0.7-1.1,1.3-1.5c1.1-0.8,2.6-1.3,3.1-2.8c1-0.3,2-0.5,2.6-1.4c2-0.4,3.1,0.5,2.8,2.4
		c-0.6,3.3-0.6,3.4-3.7,2.8c-1.8-0.4-3.4-0.3-5.1,0.4C235.8,79.5,235.4,79.4,235.1,79.5z"/>
	<path class="st2" d="M380.7,136.6c1.9,1.3,2.1,1.3,3.9,0c0.6,1.7,0.8,3.5,0.8,5.4c-0.5,0.2-0.7,0.7-1,1.1c-0.9,1.2-1.3,2.6-2.3,3.7
		l-0.1,0.1l-0.1-0.1c0.1-3-0.7-6-1.1-8.9C380.7,137.5,380.7,137,380.7,136.6z"/>
	<path class="st2" d="M170.5,156.5c-0.8-0.1-1.3-0.5-1.7-1.1c-0.2-0.4-0.5-0.6-1-0.7c-0.2-1.9-0.6-3.7-0.5-5.6
		c0.1-1.5,0.4-2.9,1.3-4.1c0.7,0.5,0.5,1.3,0.6,2c0.4,2.5,1.4,4.9,2.1,7.3C171.4,155.1,171.4,156,170.5,156.5z"/>
	<path class="st0" d="M310.6,54.6c0.3,0.4,0.7,0.8,1,1.2c-0.4,0-0.8,0-1.1-0.1c-4.9-1.9-9.8-3.7-14.6-6c-0.4-0.2-0.8-0.3-1-0.8
		c1.8-0.3,8.8,2.2,14.7,5.2C309.9,54.4,310.2,54.6,310.6,54.6L310.6,54.6z"/>
	<path class="st2" d="M296.7,95.4c-1,0.8-2.1,0.9-3.3,0.7c-2.9-0.4-5.3-1.7-6.9-4.3c0.4,0,0.8,0,1.1,0.1
		C290.6,93.1,293.8,93.9,296.7,95.4z"/>
	<path class="st0" d="M382.1,146.9c1-1.1,1.4-2.6,2.3-3.7c0.3-0.4,0.5-0.9,1-1.1c0.3,2.8,0.6,5.6,0.5,8.5c-1.1-1.1-1.9-2.5-3.4-3.1
		C382.4,147.2,382.3,147,382.1,146.9z"/>
	<path class="st0" d="M242.1,73.8c-0.6,0.9-1.6,1.1-2.6,1.4c-2.9,0.2-5.6,1.1-8.3,2c-0.6,0.2-1.2,0.6-1.9,0.6
		c-0.1-0.5,0.3-0.9,0.6-1.2c1.6-1.2,3.6-1.4,5.5-1.8C237.7,74.3,239.9,73.7,242.1,73.8z"/>
	<path class="st0" d="M340.6,186.7c0.9,0.1,1.7,0.1,2.6,0.2c-1.2,2.5-2.4,5.1-3.6,7.6c-0.2-2.6,0.2-5.1,0.7-7.6
		C340.4,186.9,340.5,186.8,340.6,186.7z"/>
	<path class="st2" d="M184.5,131.4c-0.8-0.9-0.9-2-0.9-3.1c0.5-1.3,1.3-2.3,2.7-2.6c0.1,0.9,0.3,1.8,0.4,2.7
		C186.6,129.7,185.1,130.2,184.5,131.4z"/>
	<path class="st2" d="M361.9,177.4c-0.9,0.4-1.7,0.8-2.6,1.2c-0.5-1.6,0.1-3.1,0.7-4.6C360.6,175.2,361.2,176.3,361.9,177.4z"/>
	<path class="st0" d="M224.1,304.1c-2.3,0-4.3-1.1-6.4-1.4c0.4-0.9,1.2-0.6,1.9-0.5C221.2,302.6,222.7,303.2,224.1,304.1z"/>
	<path class="st0" d="M186.8,128.3c-0.1-0.9-0.3-1.8-0.4-2.7c0.2-1,1-1.5,1.7-2.2c0.4,1.4-0.7,2.6-0.5,3.9
		C187.3,127.7,187,128,186.8,128.3z"/>
	<path class="st0" d="M201.8,304.2c0.3,0.1,0.6,0.1,0.8,0.4C202.3,304.6,202,304.5,201.8,304.2z"/>
	<path class="st2" d="M310.6,54.5c-0.4,0-0.7-0.1-0.9-0.5C310.1,54,310.5,54,310.6,54.5z"/>
	<path class="st0" d="M214.9,292.7c0.3,0.1,0.6,0.3,0.9,0.4C215.4,293.2,215.1,293.1,214.9,292.7z"/>
	<path class="st3" d="M348.5,186.7c0.2-0.3,0.5-0.4,0.8-0.4C349.3,186.9,348.9,186.8,348.5,186.7z"/>
	<path class="st0" d="M311.6,55.8c0.3,0.2,0.6,0.3,0.9,0.5C312.1,56.1,311.7,56.2,311.6,55.8z"/>
	<path class="st5" d="M350.2,165.4c-0.3-0.3-0.3-0.6-0.2-1C350.3,164.6,350.3,165,350.2,165.4z"/>
	<path class="st2" d="M384.7,135.3c-0.1-0.1-0.1-0.2,0-0.4c0.1,0.1,0.1,0.2,0.2,0.3C384.8,135.2,384.8,135.3,384.7,135.3z"/>
	<path class="st2" d="M276.7,304.4c0.3-0.3,0.5-0.3,0.8,0C277.2,304.4,277,304.4,276.7,304.4z"/>
	<path class="st0" d="M224.4,304.2h-0.2l-0.1-0.1C224.2,304.2,224.3,304.2,224.4,304.2z"/>
	<path class="st3" d="M349.3,177.1c-0.1-0.1-0.2-0.2-0.4-0.3C349.2,176.7,349.3,176.8,349.3,177.1z"/>
	<path class="st1" d="M170.5,156.5c0.9-0.5,0.9-1.4,0.9-2.2c1-0.1,1.1-1.5,2.2-1.4c0.3,2.6,0.1,5.2,0.1,7.8c0,4.7-0.1,9.4-0.1,14.1
		c-0.2,0.2-0.4,0.4-0.4,0.7c-0.2,2.5-0.8,4.9-1.3,7.3c-0.8,3.3-1.8,6.6-1.8,10c-0.6,1.9-0.9,4-0.7,6c0.2,2.8,0.5,5.6,1.2,8.4
		c0.8,3.2,1.6,6.5,3.1,9.5c0.1,0.2,0.3,0.4,0.4,0.5c-0.1,1.8,0.9,3.2,1.6,4.7c2.1,4.5,4.8,8.5,7.4,12.7c1.8,2.9,3.6,5.7,5,8.7
		c2.7,6.1,7.2,10.6,12.6,14.3c4.4,3,8.8,6.1,12.7,9.7c0.8,0.7,1.4,1.7,1.9,2.7c0.8,1.5,1.6,3,2.2,4.5c0.7,1.6,1.9,2.7,3.5,3.4
		c2.7,1.3,5.7,2,8.6,2.4c9.5,1.2,19,2.7,28.5,4.3c5.3,0.9,10.6,2.1,15.9,2.7c2.3,0.3,4.6,0.5,7,0.5c2.3,0,4.5,0.4,6.7,1
		c2.3,0.5,2.5,1.6,1,3.4c-1.4,1.5-3,2.5-5,3c-5.7,1.4-11.5,2.8-17.5,2.4c-3.5-0.2-6.9-1-10.4-1.5c-5.3-0.8-10.6-2.2-16-2
		c-2.2,0.1-4.4,0.4-6.5,0.5c-3.4,0.2-6-1.1-8.2-3.4c-1.4-1.4-2.9-2.7-4.2-4.2c-3.2-3.6-7.1-6.1-11.1-8.5c-3.7-2.2-7.5-4.2-11.2-6.5
		c-6.8-4.3-12.6-9.7-16.8-16.7c-1.8-3-3.6-6-5.2-9.1c-2.2-4.1-3.2-8.6-4.3-13.1c-1.1-4.3-2.8-8.3-5-12.1c-0.7-1.1-1.4-2.2-1.6-3.6
		c0.2-0.1,0.4-0.2,0.6-0.2c1.2,0.1,1.3-0.5,1.2-1.5c-0.4-2.7-0.7-5.5-1.1-8.2c-0.4-3-0.7-5.9-1.1-8.9c0.2-0.2,0.4-0.4,0.3-0.8
		c-0.7-3.5-0.5-6.9,0.4-10.3c0.8-2.7,0.8-5.4,1-8.2c0.4-5.8,0-11.8,1.7-17.5C169.2,160,169.9,158.3,170.5,156.5z"/>
	<path class="st4" d="M174,217.2c-0.1-0.2-0.3-0.4-0.4-0.5c0-2.3,0.1-4.5,0.1-6.8c0-4.2,0.2-8.4-0.1-12.6c0-1.9,0.1-3.8,0.1-5.7
		c0-5.6,0.2-11.2-0.1-16.8c0-4.7,0.1-9.4,0.1-14.1c0-2.6,0.2-5.2-0.1-7.8c0-1.6,0.1-3.1,0.1-4.7c0-0.7-0.2-1.4,0.4-2
		c5.4,0.1,10.7,0.2,16.1,0c0.5,0.1,1,0.1,1.5,0.2c5.4,0.8,8.8,3.9,10.1,9.3c0.4,1.8,0.5,3.6,0.5,5.4c0,4.7,0.1,9.5-0.1,14.2
		c-0.5,1.3-0.9,2.5-1.4,3.8c-1.4,2-3.1,3.7-5.4,4.6c-1,0.4-0.8,1-0.6,1.7c1.5,4.3,3,8.5,4.5,12.8c0.7,2.2,1.3,4.5,2.4,6.6
		c0.2,1.4,0.6,2.7,1.4,3.9l0,0c0.5,2.8,2,5.4,2.6,8.3c-2,0.2-3.8,0.2-5.7,0c-0.6-0.3-1.2-0.7-1.8-1.1c-1.6-1.1-2.9-2.6-4.7-3.2
		c-0.2-0.4-0.4-0.8-0.6-1.2c0-0.2,0-0.4-0.1-0.6c-2.3-7.8-4.5-15.5-6.8-23.3c-0.1-0.4-0.2-0.9-0.5-1.2c-0.3-0.5-1-0.4-1.2,0.1
		c-0.1,0.3-0.1,0.6-0.1,0.9c0,6,0.1,12,0.1,17.9c-0.2,1.4-0.2,2.9,0,4.3c-0.2,1.6-0.2,3.2,0,4.9c-0.3,0.9,0.3,2-0.5,2.9
		C180.4,217.3,177.2,217.3,174,217.2z M192,164.4c0-1,0-2.1,0-3.1c0.1-0.6,0.2-1.1-0.2-1.6c-0.7-2.8-1.7-3.4-5-3.2
		c-0.4,0-0.7-0.1-1.1-0.1c-1.6,0-1.6,0-1.6,1.7c0,4.1,0.1,8.3,0.1,12.4c-0.1,1.9-0.2,3.8,0,5.7c1.1,1,2.5,0.4,3.7,0.4
		c2.6-0.1,4.1-1.8,4.2-4.4c0.1-1.7,0-3.5-0.1-5.2c0-0.3,0-0.6,0-0.9C192.1,165.5,192.1,164.9,192,164.4z"/>
	<path class="st0" d="M380.2,217.5c4.8-2.1,6.9-6,7.8-10.9c1.3-1.1,1.8-2.7,2.6-4.2c1.5-2.7,2.9-5.5,4.1-8.4c0.3-0.7,0.6-1.5,1.2-2
		c0,3.8,0,7.5,0.1,11.3c0,1.5,0.1,3,0.2,4.5c-3.9,5.5-7.8,11-11.7,16.5c-2.9,4.1-5.7,8.2-8.5,12.3c-0.5,0.8-1.2,1.5-1.8,2.2
		c-1.7,1.8-3.5,3.6-5.3,5.3c-3.7,3.6-6.8,7.6-8.6,12.6c-1.9,5.3-5.8,8.8-11,10.9c-4.7,1.9-9.5,3.4-14.4,4.6
		c-3.7,0.9-7.4,0.5-11.1-0.2c-3.9-0.7-7.7-1.6-11.6-2.2c-5.1-0.7-9.9,0-14.5,2.2c-2.9,1.3-5.6,2.9-8.2,4.6
		c-5.2,3.4-10.8,5.5-16.9,6.4c-7.2,1.1-14.3,1.1-21.3-0.9c-6.8-2-13.3-5-20.1-7.6c0.6-0.5,1.1-0.4,1.5-0.4c4.9,0,9.5,1,14,3.1
		c2.6,1.2,5.4,2.1,8.4,2.6c3.3,0.5,6.4,0.1,9.6-0.7c7.1-1.7,14.1-3.8,21.1-6.1c8.7-2.8,17.5-5.2,26.5-6.8c2-0.3,4.1-0.4,6.1-0.5
		c1.1-0.1,2.2-0.1,3.2-0.6c6.3-2.7,12.6-5.2,18.5-8.6c4.2-2.3,7.7-5.5,11.5-8.4c1.1-0.8,2-1.9,3.5-2.3c-0.2,3.1-1.3,5.3-3.9,6.7
		c-2.2,1.3-4.6,2.2-6.9,3.3c-2,1-3.9,2.1-5.3,3.8c-0.4,0.5-0.9,1-0.7,1.7c0.3,0.8,1,1,1.8,1.1c3.8,0.3,7.3-0.2,9.9-3.5
		c1.6-2.1,3.2-4.2,4.4-6.5c3.3-6.1,7.6-11.5,11.9-16.8c4.5-5.7,9.1-11.5,13.7-17.2C379.8,218.1,380,217.8,380.2,217.5z"/>
	<path class="st1" d="M350.3,207c2.2-3.3,4.4-6.5,6.2-10c0.4-0.9,0.8-1.9,1.9-2.3c0.5,2,0.1,4,0.2,6c0.1,1.9,0,3.8,0.2,5.7
		c0.3,3.2,1.4,6,3.5,8.5c-2.4,2.8-4.5,5.9-6.7,8.9c-2.3,2.9-5.1,4.8-8.4,6.1c-3.1,1.3-6.3,2.3-9.4,3.6c-1.6,0.6-3.1,1.4-4.5,2.2
		c-2,1.2-3.4,3.1-4.3,5.1c-1.9,4.6-4.7,5.9-11.1,5.5c-2.2-0.1-4.3-0.6-6.5-1c-1.6-0.4-3-1.1-4.3-2.1c-1.5-1.2-1.6-2-0.3-3.4
		c3.3-3.4,7.4-5.4,12-6.3c3.8-0.8,7.6-1.5,10.8-3.9c2-1.6,3.8-3.5,5.5-5.3c1.8-1.9,3.4-4,5.1-6c0.2-0.2,0.2-0.5,0.3-0.8
		c3.1,0,6.3-0.1,9.4-0.1c1.6,0,1.6,0,1.6-1.5c0-2.5,0-5,0-7.4C351.7,207.2,351,207.1,350.3,207z"/>
	<path class="st0" d="M216.2,235.9c2.3,0.3,4.6,1,6.6,2.3c3.8,2.5,8.1,3.5,12.5,4.4c6.2,1.2,12.3,2.1,18.6,2.4
		c2.6,0.1,5.2,0.3,7.9,0.4c0.6,0,1.2,0,1.7,0.3c-0.8,1.7-2.3,2.1-4,2.1c-4.7,0-9.4-0.4-14-0.9c-5.9-0.7-11.7-1.8-17.3-3.8
		c-4.2-1.5-7.9-3.8-11.4-6.4C216.5,236.4,216.3,236.1,216.2,235.9z"/>
	<path class="st1" d="M325,214.9c0.3,2.3,0.3,2.3,2.7,2.4c2,0.1,4-0.3,6,0.2c-0.4,1-1.5,1.4-2.3,1.9c-1.6,1-3.3,1.9-5,2.7
		c-2.1,1-3.6,2.7-5.4,4c-0.7,0.5-1.5,1-2.3,1.3c-0.7,0.3-1.4,0.3-2.1,0.1c-1.4-0.5-1.7-1.2-1-2.5c0.9-1.6,2.1-2.8,3.4-4
		c0.6-0.6,1.4-1.1,1.5-2.1l0,0c0.1,0,0.3,0,0.4,0C322.1,217.4,323.2,215.8,325,214.9z"/>
	<path class="st1" d="M367,217.6c1,0.3,2.1,0.3,3.1,0.8c0,0.4-0.1,0.7-0.4,1c-4.6,5-8.7,10.4-13.6,15c-0.8,0.8-1.7,1.5-3.1,2
		c0.4-2,1.7-3.3,2.9-4.4c3.8-3.8,6.6-8.3,10.1-12.3C366.5,219.1,366.9,218.4,367,217.6z"/>
	<path class="st0" d="M452.1,181.9c0,6.8,0,13.6,0,20.4c0,0.5,0,1,0,1.5c-0.3,3.6-3.3,5.4-6.6,3.9c-1.1-0.5-1.7-1.3-2-2.4
		c-0.2-0.9-0.3-1.9-0.3-2.8c0-13.9,0-27.8,0-41.7c0-0.5,0-1,0-1.5c0.3-3.5,3.7-5.2,6.8-3.6c1,0.5,1.5,1.3,1.8,2.3
		c0.3,0.9,0.3,1.9,0.3,2.8C452.1,167.9,452.1,174.9,452.1,181.9z"/>
	<path class="st4" d="M433,187.2c0-8.5,0-17.1-0.1-25.6c0-2.1,0-4.2,0.5-6.3c0.6-2.9,1.7-5.6,4.3-7.3c0.7,5.5,0.6,10.9,0.4,16.4
		c-0.2,5.7-0.9,11.3-2.6,16.8c-0.5,1.7-1.2,3.4-1.7,5.2C433.7,186.8,433.5,187.1,433,187.2z"/>
	<path class="st0" d="M406.3,193c0-8.3,0-16.5-0.1-24.8c0-2.9-0.1-5.7,0-8.6c0.1-3.3,2.4-5.1,5.6-4.3c1.9,0.4,3,1.6,3.1,3.7
		c0.1,2.3,0.1,4.7,0.1,7c0,0.1,0,0.3,0,0.4c0,3.1,0,3.1,3.1,3.2c-0.2,1.2-1,2.1-1.5,3.1c-2.9,5.6-5.7,11.1-8.4,16.8
		C407.7,190.8,407.3,192.1,406.3,193z"/>
	<path class="st4" d="M418.9,169.5c0.2-1.9,1.3-3.3,2.2-4.9c1.1-1.9,1.8-3.9,1.8-6.2c0-1.7,0-3.3,0-5c0-0.7,0.1-1.3,1-1.4
		c0.9,1.5,1.3,3.1,1.3,4.8c0,0.1-0.1,0.1,0,0.2c0,0.1,0.1,0.2,0.1,0.3c0.5,1.3,0.3,2.6,0.3,3.9c0,2.7,0.2,5.4-0.1,8
		c-0.3,0-0.6,0.1-0.7,0.3C422.7,169.6,420.8,169.6,418.9,169.5z"/>
	<path class="st3" d="M424.6,169.5c0.2-0.3,0.4-0.4,0.7-0.3C425.3,169.7,424.9,169.6,424.6,169.5z"/>
	<path class="st3" d="M425.1,157.3c0-0.1-0.1-0.2-0.1-0.3c0,0,0-0.1,0-0.2c0.1,0.1,0.1,0.2,0.2,0.3
		C425.2,157.1,425.2,157.2,425.1,157.3z"/>
	<path class="st4" d="M407.8,145.3c0,2.2-0.5,4.3-1,6.4c-1.2,5.8-2.6,11.6-4.2,17.4s-3.1,11.7-5.2,17.3c-0.5,1.3-0.4,2.7-1.5,3.8
		c0-2.9-0.1-5.8-0.1-8.8c0-7,0-13.9,0-20.9c0-1.9,0.1-3.8,0.5-5.7C397.7,149.1,401.8,145.7,407.8,145.3z"/>
	<path class="st3" d="M248.1,175.4c-0.6-2.5-1.1-5-1.9-7.4c-1-3.3-0.9-6.7,0-10c0.9-3.4,1.8-6.8,3.9-9.7c0.9-1.2,1.8-2,3.3-2.4
		c1.7-0.4,3.4-0.7,5.2-1c4-0.5,8-0.3,12.1-0.5c3-0.2,4.8,1.3,5.8,4.1s1.6,5.8,2.2,8.7c0.1,0.6,0.3,1.3,0.5,1.9c0,0.3,0,0.6-0.1,0.8
		c-1,0-1.6,1.1-2.7,1c-0.9-0.2-1.4-1-2-1.6c-0.1-0.8-0.2-1.7-0.5-2.5c-0.3-0.9-0.6-1.7-0.4-2.7c0.4,0,0.7,0.6,1.2,0.2
		c-0.3-0.9-0.9-1.8-0.2-2.8c0,0-0.1-0.2-0.2-0.3c-0.1,0-0.3,0-0.4,0.1c0.2,1-1.3,1.4-0.8,2.5c-2.2,0.4-3.5,1.9-3.1,3.6
		c-0.2,0.1-0.4,0.3-0.6,0.4c-1.3,1.1-1.5,2.5-0.6,3.8c1.1,1.6,1.6,3.5,2.8,5.1c0.3,0.5,0.2,0.9,0.1,1.4c-0.4,1-0.5,2.1-0.4,3.2
		c-1.2,0-2.3,0.7-3.5,0.4c-0.1-2,0.7-4.1-0.6-6.3c-0.4,2.2-0.8,4-0.6,5.9c-1.3-0.2-2-1.1-2.3-2.3c-0.3-1-0.5-2-0.9-2.9
		c-0.5-1.2-1.1-1.3-2.2-0.5c-0.2,0.1-0.4,0.3-0.6,0.1c-0.8-0.8-1.1,0.2-1.6,0.3c-0.6,1.3-1,2.7-0.6,4.3c0.3-0.2,0.5-0.2,0.5-0.3
		c0.1-0.8,0.2-1.6,0.3-2.3c0.2,0.1,0.5,0.1,0.6,0.3c1.2,2.5,0.8,5-0.4,7.4c-0.5,1.1-1.7,1.1-2.8,0.3c-1.4-1-2.9-1.7-4.5-2.1
		c-1.3-0.3-2,1.1-3,1.6c-0.1,0.1-0.3,0.1-0.4,0.1C248.3,175.3,248.2,175.3,248.1,175.4z M255.8,149c1.3-0.7,2.5-1.3,3.8-2
		c-1.6,0.1-3,0.6-4,1.7c-0.2,0.1-0.4,0.2-0.2,0.4C255.6,149.4,255.7,149.2,255.8,149z M249.8,170.5c0.5-1.7,0.3-3.3,0-5
		c-0.4,1.6-0.8,3.2-0.6,4.9c0,0.8-0.3,1.5,0.2,2.6C250,172,249.8,171.2,249.8,170.5z M250.7,169.8c0.6-3.2,1-6.5,1.6-9.7
		c0.2-0.8,0.2-1.6,0.2-2.4c0-0.3,0-0.6-0.3-0.7c-0.5-0.1-0.6,0.3-0.7,0.6C250.6,161.6,250.3,165.7,250.7,169.8z M256,162
		c0.1-0.8,0.2-1.5,0.3-2.2c0-0.3,0-0.6-0.3-0.7c-0.2-0.1-0.4-0.2-0.6,0c-0.2,0.3-0.7,0.6-0.4,0.9C255.6,160.5,255.7,161.3,256,162z
		 M268,146.5c-0.8-0.1-1.4-0.4-2.3-0.3C267.1,147.3,267.1,147.3,268,146.5z M257.1,152.9c-0.7,0.1-1,0.5-1.3,0.9
		c-0.3,0.4-0.4,0.9,0.2,1.1c0.4,0.2,0.6-0.3,0.7-0.6C256.7,153.8,257.3,153.5,257.1,152.9z M271.9,151.8c-0.5-0.8-1.2-0.6-1.9-0.6
		c-0.4,0-0.8,0-0.6,0.6c0.1,0.4,0.4,0.6,0.8,0.6C270.7,152.3,271.3,152,271.9,151.8z M250,152.9c1-1.1,1-1.1,0.8-2.8
		C250.2,151.1,249.8,151.8,250,152.9z M261.4,147.8c-1-0.1-1.7,0.4-2.6,1.1C260,149,260.8,148.5,261.4,147.8z M254.8,151.6
		c-1.2-0.3-1.5,0.2-1.4,1.3C254.1,152.7,254.5,152.4,254.8,151.6z M264.3,156c-0.4,0.7-1,1.1-0.4,1.8
		C264.5,157.4,264.7,157,264.3,156z M266.6,151.2c-0.1-0.2-0.2-0.4-0.4-0.4c-0.2,0-0.4,0.1-0.4,0.3s0.2,0.4,0.4,0.4
		S266.6,151.4,266.6,151.2z M260.9,160.2c-0.1-0.2-0.3-0.2-0.5-0.2s-0.5,0-0.4,0.3c0,0.2,0.3,0.3,0.5,0.3
		C260.7,160.5,260.9,160.5,260.9,160.2z M262.5,160c0.1,0.2,0.2,0.3,0.4,0.3c0.1,0,0.2-0.2,0.1-0.3c0-0.2-0.2-0.4-0.4-0.3
		C262.6,159.7,262.6,159.9,262.5,160z M260.7,146.6c-0.1,0-0.1-0.1-0.2-0.1s-0.1,0-0.2,0c0.1,0,0.1,0.1,0.2,0.1
		S260.6,146.6,260.7,146.6z M262.1,147.5l0.1-0.1H262L262.1,147.5z"/>
	<path class="st3" d="M210.8,165.3c0-2,0-4,0-5.9c0-1.6,0.2-3.2,0.5-4.8c1.2-4.7,4-7.7,8.7-8.9c3.6-0.9,7.3-0.9,10.9,0
		c5.3,1.3,8.1,4.9,9,10.2c0.4,2,0.4,4.1,0.4,6.1c0,2.1,0,4.2,0,6.4c0,0.9-0.3,1.3-1.3,1.3c-2.6,0-5.1-0.1-7.7,0
		c-1,0-1.4-0.3-1.4-1.4c0.1-2.2,0-4.4,0-6.6c0-0.7,0-1.3,0-2c-0.2-3.1-1.6-4.5-4.5-4.5c-2.8,0-4.3,1.5-4.4,4.6c-0.1,4,0,8,0,12.1
		c-0.1,0.1-0.1,0.3-0.2,0.4c-2.7,0.2-5-0.4-6.9-2.4c-1-1.1-2.1-2.2-3.1-3.3C210.9,166.1,210.8,165.7,210.8,165.3z"/>
	<path class="st5" d="M210.8,165.3c0,0.4,0.1,0.8,0.1,1.3c0,2.8,0,5.6-0.1,8.4c0,2.2,0.2,4.5-0.2,6.7c-2.4-1.5-4.6-3.3-6.8-5.2
		c-0.4-0.6-0.9-1.2-1.7-1.2c0.3-4.7,0.1-9.5,0.1-14.2c0-1.8-0.1-3.6-0.5-5.4c-1.3-5.4-4.6-8.5-10.1-9.3c-0.5-0.1-1-0.1-1.5-0.2
		c-0.7-0.5-1.5-0.2-2.2-0.4c0.4-1.5-0.4-3-0.4-4.5c0.1-2.2,0-4.3,0-6.5c0.1-0.2,0.1-0.5,0.2-0.6c1.8-2.8,4.5-4.7,6.9-6.9
		c0.3-0.3,0.8-0.3,1.3-0.3c0,0.6,0,1.2-0.1,1.7c-0.6,4.2,0.2,8.3,1.5,12.3c0.3,0.8,0.6,1.8,1.7,2.2c0.8-1.8,0.9-3.6,0.8-5.4
		c-0.2-4.1,0.4-8.2,1.7-12.1c0.5-1.6,1.2-3.1,1.4-4.8c1.4-1,2.8-2.1,4.4-2.7c0,0.8-0.5,1.4-0.8,2c-2.1,4.1-2.7,8.4-2,13
		s2.1,9.1,2.5,13.8c0.3,3.4,0.5,6.8,0.7,10.3C207.9,160.2,208.9,162.9,210.8,165.3z"/>
	<path class="st5" d="M221,172.3c0.1-0.1,0.1-0.3,0.2-0.4c0.4,0,0.8,0.1,1.1,0c2.8-1,5.1,0.2,7.3,1.8c1.6,1.1,3.2,2.3,4.8,3.5
		c1.8,1.2,3.7,1.6,5.8,1.1c2.1-0.4,4.3-0.9,6.4-1.5c0.8-0.2,1.3-0.6,1.6-1.3c0.1,0,0.2,0,0.2,0c0.1,2.4,1.1,4.7,1.4,7.1
		c0,0.1,0,0.1,0.1,0.2c0.2,0.5,0.6,0.6,1.1,0.6c0.5-0.1,0.4-0.5,0.4-0.9c0.1-0.6,0.1-1.2,0.1-1.7c0-1.1,0.6-1.2,1.5-1
		c0.3,2.5,0,5.1,0.6,7.6c0,0.2-0.1,0.3-0.1,0.5c-1.4,0.1-2.3,0.8-3,1.9c-1,1.6-2.5,1.9-4.2,1.5c-0.6-0.1-1.3-0.2-1.9-0.4
		c-1.7-0.6-3.5-0.7-5.2-1.5c-0.5-0.2-1-0.3-1.5-0.3c-0.8-0.6-1.6-0.6-2.3,0.3c-0.5,0.7-0.3,1.7,0.6,2.5c0.4,0.3,0.8,0.6,1.3,0.7
		c0.7,0.8,2,0.4,2.6,1.3c-2.8,0-5.6,0.1-8.4,0c-1.1,0-1.6,0.3-1.7,1.4c-0.4-0.1-0.8-0.2-1.3-0.3c-2.7-0.8-5-2.3-7.4-3.7
		c-0.1-0.3-0.1-0.6-0.2-0.9C221.1,184.3,221.1,178.3,221,172.3z"/>
	<path class="st5" d="M297.2,169.2c1.1-0.3,1.2-1.4,1.5-2.2c0.2-0.8,0.4-1.6,0.9-2.2c2.8-2.9,2.5-6.5,2.2-10.1
		c-0.3-3.3-1.2-6.5-3.2-9.2c-0.5-0.7-0.8-1.4-0.9-2.2c-0.3-4.2-0.4-8.5,1.1-12.6c0.3-0.9,0.6-2,2-2c1.3,0,2.6,0.9,2.9,2.2
		c0.5,1.7,0.6,3.4,0.2,5.2c-0.1,0.7-0.3,1.4-0.3,2.2c0,2.1,1,3.2,3.1,3.1c1.9,0,3.7,0.6,5.7,0.6c0.9,0,2.1,1.3,2.3,2.3
		c0.1,0.6,0,1.2,0,1.7c0.1,0.1,0,0.2,0,0.3c-1.5-0.3-3.1,0-4.6-0.1c-1.2-0.1-1.6,0.5-1.7,1.6c-0.4,3.3-0.8,6.5-1.3,9.8
		c-1.4,10.8-2.8,21.6-4.3,32.4c-0.4,3.2-0.7,6.4-1.5,9.5c-1-6.9-1.9-13.7-2.8-20.6c-0.4-3-0.6-6-1.3-8.9
		C297.2,169.8,297.2,169.5,297.2,169.2z"/>
	<path class="st3" d="M261.4,121c3.4,0.2,5.6,2.1,7,5c0.6,1.2,1.2,2.4,1.4,3.7c0.4,2.6,0.7,5.2-0.6,7.6c-1.2,2.2-3.3,3.3-5.7,3.6
		c-1.5,0.2-3,0.7-4.6,0.5c-3.3-0.5-5.8-2.2-7.5-5.1c-0.9-1.7-0.9-3.5-0.5-5.3c0.9-4.5,3.5-7.6,7.7-9.4c0.5-0.2,1-0.3,1.5-0.4
		C260.6,121,261,121,261.4,121z M257.5,136.2c-0.1,0.3,0.1,0.3,0.3,0.3c0.1,0,0.1-0.1,0.2-0.1C257.8,136.4,257.7,136.3,257.5,136.2
		c-0.3-0.6-0.8-0.5-1.3-0.4c-0.1-0.1-0.1-0.4-0.4-0.1c0.1,0,0.3,0.1,0.4,0.1C256.5,136.4,257,136.4,257.5,136.2z M255.4,125.7
		c0.5-0.1,0.9-0.3,1.2-0.8c0.6-0.3,1.2-0.6,1.8-0.8c2-0.6,4.1-1.1,6,0.4c0.3,0.3,0.8,0.9,1.5,0.4c0.1-0.5-0.3-0.8-0.6-1.1
		c-2.2-1.8-5.6-3-9.2,0.6c-0.5,0.2-0.8,0.5-0.9,1.1c-0.2,0.1-0.4,0.3-0.2,0.4C255.2,126.2,255.3,125.9,255.4,125.7z M267.2,132.3
		c-0.6,0.4-0.7,1.1-1.2,2.1C267.3,133.7,267.3,133,267.2,132.3c0.2-0.1,0.3-0.3,0.3-0.5c0-0.1,0-0.1-0.1-0.2
		C267.3,131.8,267.3,132,267.2,132.3z M264,137.8c-1.3,0.2-2.8-0.1-3.8,1.1c-2.8,0-4.7-1.5-6.2-3.7c-0.3-0.5-0.4-1.2-1.3-1.4
		c0.4,2.6,1.7,4.3,4,5.2c1.3,0.5,2.6,0.8,4,0.6c0.3,0.2,0.6,0.1,0.9-0.1c-0.3-0.3-0.6-0.3-0.9-0.2c-0.3-0.1-0.7,0-0.6-0.5
		c0.8,0,1.5,0,2.3,0c0.7,0,1.4-0.1,1.7-0.9c0.1-0.1,0.2-0.2,0.3-0.2C264.2,137.6,264.1,137.6,264,137.8z M261.2,126.6
		c0.7,0.6,1,1.3,1.8,1.1c0.1,0,0.1-0.4,0.1-0.6C262.8,126.1,262.1,126.5,261.2,126.6z M254.7,131.8c-0.4,1-0.5,2,1.1,2.4
		C255.4,133.2,255.1,132.5,254.7,131.8z M256.4,131.2c0.9-0.6,0.7-1.2,0.2-2C256.1,130,256.1,130.6,256.4,131.2z M265.3,130.2
		c-0.4,0.7-0.6,1.2,0,2C265.5,131.5,265.6,131,265.3,130.2z M258.6,133.8c-0.1-0.1-0.1-0.2-0.2-0.3c-0.1-0.2-0.3-0.1-0.3,0.1
		c0,0.1,0.1,0.3,0.2,0.4C258.4,134,258.5,133.9,258.6,133.8z"/>
	<path class="st1" d="M207.4,118.2c-1.6,0.6-3,1.7-4.4,2.7c-0.3,0.1-0.6,0.1-0.8,0.2c-1.8,1.5-3.6,3-5.3,4.4
		c-0.5,0.4-0.7,0.9-0.9,1.5c-0.4,0-0.9,0-1.3,0.3c-2.4,2.2-5.1,4.1-6.9,6.9c-0.1,0.2-0.1,0.4-0.2,0.6c-1.9,2-3.1,4.4-4.2,6.9
		c-0.2,0.4-0.1,1-0.2,1.5c-1.3,0.4-1.3,1.5-1.4,2.5c0.7,0.3,1.4,0.2,2,0.1c1.4,0,2.8,0,4.2,0c0.7,0.2,1.5-0.2,2.2,0.4
		c-5.4,0.2-10.7,0-16.1,0c0.1-0.1,0.3-0.2,0.4-0.2c2.6,0.5,3.4-1.5,4.2-3.2c1.3-3.1,3-6,4.3-9c0.4-0.9,1.2-1.5,1.6-2.3
		c0.5-1.2,2-1.6,2.2-3.1c0.3-0.3,0.6-0.6,0.9-0.9c1.7-1.1,3.1-2.7,4.6-4c2.4-2.1,4.9-4.1,7.3-6.2c3-2.1,5.9-4.2,8.7-6.5
		c1.2-0.1,2-0.9,3.1-1.3c0.7-0.2,1.5-0.6,2.3-0.5c0.1,0,0.3,0,0.4,0c1.5,0.2,1.7,0.6,1,1.9c-0.5,0.9-1.3,1.8-2.1,2.5
		C211.1,115,209.3,116.6,207.4,118.2z"/>
	<path class="st5" d="M285.3,146.1c1.5-4.4,1.8-8.8,0.7-13.3c-0.2-0.8-0.3-1.6,0-2.4c0.4-1.1,0.9-1.4,2-0.9c1.1,0.4,1.8,1.2,2.2,2.3
		c0.5,1.7,0.9,3.4,1,5.1c0.2,3,0.6,6.1,0.2,9.1c0,0.1,0,0.2,0,0.3C289.3,146.3,287.3,146.2,285.3,146.1z"/>
	<path class="st3" d="M297.2,169.2c0,0.3,0,0.6-0.1,0.8c-0.6,0-1.3-0.1-1.9,0.3c-1.9,1.7-4.3,2.5-6.6,3.6c-0.5,0.2-0.8,0.5-0.9,1.1
		c-0.1-0.1-0.3-0.2-0.4-0.2c0.1-2.2-0.4-4.4-0.8-6.5c0-0.3,0.1-0.6,0.1-0.9c0.3,0,0.7,0.1,0.8-0.1c2.9-2.2,6.3-3.8,8.4-7
		C296.6,163.3,296.6,166.3,297.2,169.2z"/>
	<path class="st3" d="M291.4,146.1c2.8,0.3,2.8,0.3,3.2,3.2c0.3,2.7,0.9,5.3,0.9,8c-1,0.1-1.8,0.6-2.6,1.1c-2.3,1.5-4.5,3.1-6.8,4.7
		c-0.4-1-0.3-2.1-0.5-3.1c0-0.4,0-0.8,0-1.2c0.7-0.1,1.2-0.4,1.5-1c0.5-0.9,1.2-1.8,1.7-2.8c1.3-2.7,2.8-5.4,2.7-8.6
		C291.4,146.2,291.4,146.2,291.4,146.1z"/>
	<path class="st4" d="M291.4,146.3c0.1,3.2-1.4,5.8-2.7,8.6c-0.5,1-1.2,1.8-1.7,2.8c-0.4,0.6-0.8,1-1.5,1c-0.6-2.5-0.5-5.1-1.2-7.6
		c0.2-1.2-0.2-2.3-0.3-3.5c-0.2-1.2,0.3-1.6,1.3-1.6C287.3,146.2,289.3,146.3,291.4,146.3z"/>
	<path class="st4" d="M286.1,163c2.3-1.6,4.5-3.1,6.8-4.7c0.8-0.5,1.6-1,2.6-1.1c0.5,1,0.4,2.1,0.4,3.1c-2,3.2-5.5,4.7-8.4,7
		c-0.2,0.1-0.6,0.1-0.8,0.1c-0.2-1.4-0.5-2.7-0.7-4.1C285.9,163.2,286,163.1,286.1,163z"/>
	<path class="st5" d="M284.3,151.2c0.7,2.5,0.6,5.1,1.2,7.6c0,0.4,0,0.8,0,1.2c-0.6,0-1.1,0.3-1.5,0.7c-1.3,1-2.6,2.1-3.9,3.1
		c-0.7-1.1-0.4-2.5-1-3.7c0-0.3,0-0.6,0.1-0.8c1.6-1.1,2.4-2.7,3.3-4.3C283,153.6,283.6,152.4,284.3,151.2z"/>
	<path class="st3" d="M318.7,146.3c-0.1,1,0.1,2-0.3,3c-3.2,0.9-3.7,0.6-3.7-2.7c0-0.1,0-0.1,0-0.2c0.1-0.1,0.1-0.2,0-0.3
		C316,146.1,317.4,146.2,318.7,146.3z"/>
	<path class="st4" d="M314.7,146.3c0,0.1,0,0.1,0,0.2c0.1,3.3,0.5,3.7,3.7,2.7c0,0.1,0,0.2-0.1,0.3c0,0.3,0,0.5-0.1,0.8
		c-0.3,4.3-1.1,8.5-1.6,12.8c-1,8.3-2.4,16.5-3.7,24.7c0,0.2,0,0.4,0,0.7c-0.4,1.3-0.6,2.6-0.6,3.9c-0.8,3.3-1.1,6.6-1.7,9.9
		c-0.8,4.5-1.5,8.9-2.1,13.4c-0.2,1-0.4,1.5-1.6,1.5c-3.8-0.1-7.6-0.1-11.4,0c-1.2,0-1.5-0.5-1.6-1.5s-0.3-2-0.5-3
		c-0.1-1.5-0.3-3-0.8-4.4c0-0.6,0-1.2-0.1-1.7c-0.9-6-2-11.9-2.8-17.9c-0.7-4.5-1.6-9-2-13.6c0.1-0.5,0.4-0.8,0.9-1.1
		c2.3-1,4.7-1.9,6.6-3.6c0.5-0.5,1.2-0.3,1.9-0.3c0.7,2.9,0.9,5.9,1.3,8.9c0.9,6.9,1.8,13.7,2.8,20.6c0.8-3.1,1.1-6.3,1.5-9.5
		c1.5-10.8,2.9-21.6,4.3-32.4c0.4-3.3,0.9-6.5,1.3-9.8c0.1-1.1,0.5-1.7,1.7-1.6C311.6,146.3,313.1,146.1,314.7,146.3z"/>
	<path class="st4" d="M229.8,195.2c0.1-1.1,0.6-1.4,1.7-1.4c2.8,0.1,5.6,0,8.4,0c0.1,0.1,0.2,0.1,0.3,0.1c0.1,2,0.1,4.1,0.2,6.1
		c-0.1,0.4-0.1,0.7,0,1.1c-0.4,1.4,0.1,2.8-0.3,4.2c-0.4,0.4-0.3,0.9-0.2,1.4c-0.1,3-1.3,5.6-3.1,7.8c-1.7,1.6-3.5,2.8-5.8,3.3
		c-1.1,0.3-2.3,0.5-3.4,0.7c-1.5,0-2.9,0-4.4-0.1c-5.3-0.5-9.3-2.7-11.5-7.8c-0.3-1.3-0.6-2.6-0.9-3.9c0-0.3,0-0.6,0-0.9
		c0-0.4-0.1-0.9-0.1-1.3c0.2-5.6,0.2-11.2,0-16.8c0-0.3,0-0.6,0-0.9c0.1-0.1,0.1-0.3,0.2-0.4c2,1.7,4,3.4,6.1,4.9
		c1.3,0.9,2.1,2.5,3.9,2.5c0.1,0.4,0.1,0.7,0.2,1.1c-0.3,3.1-0.2,6.1,0,9.2c0.1,2.3,1.2,3.5,3.1,4c3.2,0.8,5.5-0.9,5.7-4.2
		c0.1-1.7-0.2-3.5,0.2-5.2c0.6,0,1.2,0,1.7,0.1c2,0.5,4.1,1,6.1,1.5c0.5,0.1,1,0.3,1.3-0.5c-1.5-1.2-3.4-1.6-5.1-2.4
		c-1.3-0.6-2.5-1.6-4.1-1.5C230,195.7,229.9,195.5,229.8,195.2z"/>
	<path class="st2" d="M228.7,231.5c3.3,0.7,6.7,1.3,10,2c2.8,0.6,5.7,0.6,8.6,1.2c2,0.4,4,0.3,6,0.9c1.7,1.2,3.5,1.6,5.5,1.7
		c6.3,0.1,12.3-1.4,18.1-3.7c1.2-0.5,2.5-0.8,3.4-1.9c1.6-0.3,3.3-0.6,4.9-1.1c1.7-0.5,2.8-0.3,3.1,0.6c0.4,1-0.2,2.4-1.6,3
		c-1.8,0.8-3.6,1.5-5.5,2.1c-3,1-6,1.8-9,2.7c-2.1,0.6-4.2,1-6.4,1c-2.9-0.1-5.8-0.1-8.8,0c-2.6,0.1-5.1-0.6-7.6-0.6
		c-0.4-0.3-0.8-0.2-1.3-0.2c-2.9-0.5-6.1-0.4-8.7-1.9c-3.7-2.2-7.8-2.8-12-2.9c-0.2,0-0.5,0-0.6-0.1c-3.4-1.5-6.9-2.6-10.1-4.5
		c-0.2-0.4-0.5-0.7-0.4-1.2l0.1-0.1c1.2-0.1,2.3,0.5,3.4,0.8C222.6,230.1,225.5,231.5,228.7,231.5z"/>
	<path class="st4" d="M273.3,219.7c0.4,0.9-0.4,1.5-0.5,2.2c-0.1,0.5-0.6,0.5-1,0.5c-1.9,0.1-3.1-0.9-4-2.4c-0.1-0.6,0-1.6-0.4-1.8
		c-1-0.8-0.9-1.8-1.2-2.8c0-0.7,0.1-1.3,0.1-2c-0.2-4.2-0.5-8.3-1.1-12.5c-0.3-2.4-0.4-4.8-1.1-7.1c0-0.1,0.1-0.3,0.1-0.4
		c1.2,0,2.2-0.7,3.3-0.9c0.1,1,0.2,1.9,0.3,3.1c0.4-1.3,0.7-2.4,0.6-3.6c0.8-0.4,1.6-0.6,2.5-0.5c0.1,0.2,0.3,0.3,0.4,0.5
		c0.1-0.2,0.1-0.3,0.2-0.5c0.1-0.4,0.2-0.8,0.3-1.2c0.4,0,0.8,0,1.2,0c0,0.7,0.1,1.4,0.1,2.2c-0.1,6.3-0.3,12.5-0.4,18.8
		c0,1.1-0.1,2.2,0.3,3.2c0,1.2-0.1,2.4-0.1,3.6C272.7,218.7,272.6,219.4,273.3,219.7z M269.7,220.4c0.1,0.6,0.3,1.1,1.1,1
		c0.2,0,0.4-0.2,0.3-0.5C270.8,220.2,270.3,220.3,269.7,220.4z"/>
	<path class="st0" d="M216.2,228.6c-0.1,0.5,0.2,0.8,0.4,1.2c-0.5,0.1-1,0-1.5-0.2c-3.5-1.4-7.1-2.4-10.7-3.3
		c-1.6-0.4-3.1-0.8-4.5-1.7c-0.1-0.2-0.2-0.4-0.5-0.4l0,0c-0.3-0.5-0.7-0.6-1.2-0.6l0,0c0-0.3-0.2-0.4-0.5-0.4l0,0
		c-0.1-0.7-0.6-0.9-1.1-1.3c-3.6-3-7.2-5.9-10.2-9.5c-0.8-0.9-1.4-2.1-2.4-2.8c-0.2-1.4-0.2-2.9,0-4.3c0.6,0.4,1.2,0.8,1.8,1.2
		c2.3,1.6,4.3,3.6,6.8,5c0.2,0.4,0.4,0.8,0.6,1.2c0,1.3,0.7,2.3,0.9,3.5c0.1,0.8,0.6,1,1.4,1c1.4,0,2.9,0,4.3,0
		c3.7,2.2,7.1,4.8,11.1,6.7c5.8,2.8,11.6,5.5,17.7,7.5c-3.2-0.1-6.1-1.4-9.1-2.3c-1.1-0.3-2.2-0.9-3.4-0.8c-0.1-0.2-0.2-0.2-0.3-0.1
		C215.9,228.4,216,228.5,216.2,228.6z"/>
	<path class="st2" d="M266.1,215.4c0.2,1,0.1,2.1,1.2,2.8c0.4,0.3,0.3,1.2,0.4,1.8c-0.8,0.8-1.9,1-3,1c-7,0-14,0.2-21-0.1
		c-3.4-0.1-6.9-0.4-10.4-1.1c-1.3-0.3-2.7-0.4-4.1-0.5c-0.7-0.1-1.3-0.2-1.6-0.9c1.1-0.2,2.3-0.5,3.4-0.7c2.3-0.5,4.1-1.7,5.8-3.3
		c1.9,0.2,3.9,0.6,5.8,0.5c0.6,0,1.2-0.1,1.7,0c3.4,0.6,6.9,0.5,10.4,0.9c0.3,0.5,0.7,0.8,1.2,0.7c0.9-0.1,1.6-0.1,1.6,1.1
		c0,0.5,0.5,0.7,1,0.7c0.6,0,0.6-0.5,0.7-0.9c0-0.1,0.1-0.3,0.1-0.4c0.1-0.2,0.2-0.1,0.2,0.1c0.4,1.4,1.6,0.5,2.4,0.8
		c1.4,0.4,1.6-0.4,1.6-1.5C264.2,215.4,265.1,215.3,266.1,215.4z"/>
	<path class="st2" d="M273.3,219.7c-0.8-0.3-0.6-1.1-0.6-1.7c0-1.2,0.1-2.4,0.1-3.6c6.9-1.1,13.7-2.7,19.9-6.2
		c0.5,1.4,0.6,2.9,0.8,4.4c-0.8,1.1-2.1,1.6-3.3,2.1c-5.2,2.2-10.5,3.8-16,4.9C273.9,219.8,273.6,219.7,273.3,219.7z"/>
	<path class="st0" d="M280.3,231.7c-0.8,1.1-2.2,1.4-3.4,1.9c-5.8,2.3-11.8,3.8-18.1,3.7c-2,0-3.9-0.5-5.5-1.7
		c4.1,0.4,7.9-0.9,11.9-1.5C270.2,233.3,275.2,232.5,280.3,231.7z"/>
	<path class="st0" d="M227.4,234.4c4.2,0.2,8.2,0.7,12,2.9c2.6,1.5,5.8,1.4,8.7,1.9c0.4,0.1,0.9,0,1.3,0.2c-3.1,0-6.1,0-9.2,0.1
		c-1.7,0-3.3-0.3-4.9-1c-2.6-1.2-5.1-2.4-7.7-3.7C227.5,234.8,227.5,234.5,227.4,234.4z"/>
	<path class="st2" d="M184.1,209.6c1.1,0.7,1.7,1.8,2.4,2.8c3,3.6,6.6,6.6,10.2,9.5c0.4,0.4,1,0.6,1.1,1.3c-0.6,0.2-1.2-0.2-1.6-0.5
		c-2.6-1.6-5.2-3.1-7.5-5.2c-1-0.9-2.1-1.8-3.1-2.7c-0.4-0.4-0.9-0.4-1.4-0.4C184,212.8,184,211.2,184.1,209.6z"/>
	<path class="st2" d="M210.7,204.4c0,0.4,0.1,0.9,0.1,1.3c-0.4,0.3-0.3,0.6,0,0.9c0.3,1.3,0.6,2.6,0.9,3.9c-2.9-0.6-5.9-1.2-8.8-1.7
		l0,0c0.1-0.9,0.6-1.4,1.4-1.8c0.6-0.3,1.2-0.6,1.6-1C207.4,204.7,208.9,204,210.7,204.4z"/>
	<path class="st2" d="M312.4,192.5c0-1.3,0.3-2.6,0.6-3.9c0.7-0.1,1.2-0.6,1.5-1.1c2-3,4.6-5.6,6.1-9c0.3-0.7,1-1.1,1.6-1.6
		c-0.2,1.7-1.2,2.9-1.9,4.3c-1.9,3.4-3.7,6.7-6,9.8C313.8,191.7,313.5,192.5,312.4,192.5z"/>
	<path class="st3" d="M199.9,217.3c-1.4,0-2.9-0.1-4.3,0c-0.8,0-1.2-0.2-1.4-1c-0.2-1.2-0.9-2.3-0.9-3.5c1.9,0.6,3.1,2.2,4.7,3.2
		c0.6,0.4,1.2,0.8,1.8,1.1C199.8,217.1,199.8,217.2,199.9,217.3z"/>
	<path class="st1" d="M329.7,145.8l0.1,0.1l-0.1,0.1c-1.5,0.3-2.9,0.1-4.4,0.1C326.7,145.5,328.2,146.1,329.7,145.8z"/>
	<path class="st2" d="M198.2,223.6c0.5,0,0.9,0.1,1.2,0.6C199,224.1,198.4,224.2,198.2,223.6z"/>
	<path class="st3" d="M318.2,150.4c0-0.3,0-0.5,0.1-0.8C318.5,149.9,318.5,150.1,318.2,150.4z"/>
	<path class="st2" d="M320.8,218.9c-0.1,0-0.3,0-0.4,0C320.5,218.6,320.7,218.5,320.8,218.9z"/>
	<path class="st2" d="M197.8,223.2c0.3,0,0.4,0.1,0.5,0.4C198,223.6,197.8,223.4,197.8,223.2z"/>
	<path class="st2" d="M199.5,224.2c0.2,0,0.4,0.2,0.5,0.4C199.8,224.4,199.6,224.3,199.5,224.2z"/>
	<path class="st1" d="M150.1,163.7c1.2,8.8,2.4,17.7,3.5,26.5c0.2,1.7,0.2,1.7-1.5,1.8c-1.5,0-3.1,0-4.6,0c-1.1,0.1-1.4-0.4-1.3-1.4
		c0.4-2.8,0.7-5.5,1.1-8.3c0.7-5.1,1.4-10.1,2-15.2c0.2-1.2,0.4-2.3,0.5-3.5C150,163.7,150.1,163.7,150.1,163.7z"/>
	<path class="st1" d="M358.6,191.6c0.9-0.8,1-1.9,1.3-3c1-3.3,2-6.6,2.9-9.9c2.2,2.3,4.8,4.3,7.3,6.2c2,1.5,3.9,3,5.2,5.2
		c0,0.2,0,0.5-0.1,0.6c-1.6,3.9-3.5,7.7-5.5,11.5c-0.2,0.4-0.4,0.8-0.9,0.9c-0.3-2.4-0.1-4.8-0.1-7.2c-0.1-2,0-2-1.9-2
		c-2.9,0-5.7,0.1-8.6,0.1C358.1,193.1,358.8,192.4,358.6,191.6z"/>
	<path class="st1" d="M381.1,169.7c0.1,2.4-0.7,4.6-1.1,6.8c-0.1,0.8-0.2,1.6-0.3,2.4c-2.9-1.9-5.7-4.1-8.1-6.7
		c-1.9-2.1-3.1-4.5-2.9-7.5c0.1-1.7,0-3.4,0-5c0.2-3.3,2.4-5.1,5.7-4.3c1.9,0.4,3,1.6,3.1,3.7c0.1,2.3,0.1,4.7,0.1,7
		c0,0.2,0,0.4,0,0.7c0,2.8,0,2.8,2.7,2.9C380.6,169.6,380.9,169.7,381.1,169.7z"/>
	<path class="st2" d="M368.9,203.1c0.5-0.1,0.7-0.5,0.9-0.9c1.9-3.8,3.8-7.5,5.5-11.5c0.1-0.2,0.1-0.4,0.1-0.6
		c1.5,1.5,2.3,3.4,2.3,5.5c0,1.3-0.1,2.6-0.2,3.9c-0.5,0-0.7,0.3-0.9,0.8c-0.8,1.9-1.6,3.9-2.4,5.8c-0.5,1.2-1.1,2-2.5,1.9
		c-1.5-0.3-2.4-1.2-2.6-2.7c0.1-0.5,0.2-1-0.3-1.4C368.9,203.6,368.9,203.4,368.9,203.1z"/>
	<path class="st1" d="M371.7,208c1.4,0.1,2-0.7,2.5-1.9c0.8-1.9,1.6-3.9,2.4-5.8c0.2-0.5,0.4-0.8,0.9-0.8c0.3,1.5,0.2,3,0.1,4.5
		C377.4,207.4,375.2,208.8,371.7,208z"/>
	<path class="st3" d="M361.2,166.1c-0.7-1.7,0.1-3.1,0.3-4.6c0.1-0.5,0.7-0.8,1.1-0.1C363.5,163.1,364.4,164,361.2,166.1z"/>
	<path class="st1" d="M368.9,203.9c0.4,0.4,0.4,0.9,0.3,1.4C368.7,204.9,368.7,204.4,368.9,203.9z"/>
	<path class="st1" d="M358.3,194.2c-0.2,0-0.4,0-0.3-0.3c0,0,0.2,0,0.3,0C358.4,194.1,358.4,194.2,358.3,194.2z"/>
	<path class="st3" d="M330.1,146.3c1.2-0.2,2.3-0.2,3.5,0c0.1,1.9-0.7,3.7-1.1,5.6c-0.3,1.5-0.6,2.8,0.4,4.2
		c0.5,0.7,0.2,1.4-0.2,2.1c-1,2.1-2.2,4.1-3.6,6c-0.9,1.1-1.4,2.5-3,3.8C327.6,160.4,329.1,153.4,330.1,146.3z"/>
	<path class="st0" d="M229.4,77.7c-0.2,0.1-0.4,0.2-0.7,0.4C229,78,229.2,77.8,229.4,77.7z"/>
	<path class="st2" d="M173.6,197.3c0.3,4.2,0.1,8.4,0.1,12.6c0,2.3-0.1,4.5-0.1,6.8c-1.5-3-2.3-6.2-3.1-9.5
		c-0.7-2.8-0.9-5.6-1.2-8.4c-0.2-2,0.1-4,0.7-6C171.2,194.4,172.2,196,173.6,197.3z"/>
	<path class="st5" d="M173.6,197.3c-1.4-1.3-2.4-3-3.6-4.4c0-3.4,1-6.7,1.8-10c0.6-2.4,1.1-4.8,1.3-7.3c0-0.3,0.2-0.5,0.4-0.7
		c0.3,5.6,0.1,11.2,0.1,16.8C173.7,193.5,173.6,195.4,173.6,197.3z"/>
	<path class="st5" d="M210.7,204.4c-1.9-0.3-3.4,0.3-4.7,1.6c-0.5,0.4-1.1,0.7-1.6,1c-0.7,0.4-1.3,0.9-1.4,1.8
		c-0.7-1.2-1.1-2.6-1.4-3.9c0.7-0.3,1.2-1,1.8-1.6c0.3-0.3,0.5-0.6,0.3-1c-1.2-1.6-2.1-3.7-4.4-4.1c-1.5-4.3-3-8.5-4.5-12.8
		c-0.3-0.7-0.4-1.3,0.6-1.7c2.3-0.9,4-2.6,5.4-4.6c0.6,0.9,1.6,1.4,2.5,1.6c1.5,0.4,2.3,1.4,3.3,2.3s1.8,2.1,2.6,3.2
		c0.4,0.6,0.8,1.2,1.6,1.3C210.9,193.2,211,198.8,210.7,204.4z"/>
	<path class="st5" d="M192,167c0,1.7,0.1,3.5,0.1,5.2c-0.1,2.6-1.6,4.2-4.2,4.4c-1.2,0.1-2.5,0.6-3.7-0.4c0.9,0,1.9,0,2.8,0
		c1.1-0.1,1.3-0.4,0.8-1.4s-1-1.9-1.6-2.8c-0.5-0.7-1-1.4-2-1.5c0-4.1-0.1-8.3-0.1-12.4c0-1.7,0-1.7,1.6-1.7c0.4,0,0.7,0.1,1.1,0.1
		c1.2,3.1,2.3,6.2,3.4,9.3C190.5,166.7,191,167,192,167z"/>
	<path class="st5" d="M192.7,211.5c-2.4-1.4-4.5-3.4-6.8-5c-0.6-0.4-1.2-0.8-1.8-1.2c0-6-0.1-12-0.1-17.9c0-0.3,0-0.6,0.1-0.9
		c0.2-0.5,0.9-0.6,1.2-0.1c0.2,0.4,0.3,0.8,0.5,1.2c2.3,7.8,4.5,15.5,6.8,23.3C192.7,211,192.7,211.3,192.7,211.5z"/>
	<path class="st2" d="M192,167c-0.9,0.1-1.4-0.3-1.8-1.2c-1.1-3.1-2.3-6.2-3.4-9.3c3.3-0.2,4.3,0.4,5,3.2c-0.2,0.6-0.3,1.1,0.2,1.6
		c0,1,0,2.1,0,3.1c-0.5,0.6-0.5,1.2,0,1.8C192,166.4,192,166.7,192,167z"/>
	<path class="st2" d="M210.8,187.6c-0.8-0.1-1.2-0.7-1.6-1.3c-0.7-1.2-1.5-2.3-2.6-3.2c-1-0.9-1.9-1.9-3.3-2.3
		c-0.9-0.2-1.9-0.8-2.5-1.6c0.5-1.3,0.9-2.5,1.4-3.8c0.8,0,1.3,0.6,1.7,1.2c0,0.8,0.4,1.4,0.8,2c1.7,2.6,3.6,5.1,5.8,7.2
		c0,0.4-0.1,0.8,0.3,1.1C210.8,187,210.8,187.3,210.8,187.6z"/>
	<path class="st2" d="M184.1,170.5c1,0.1,1.5,0.8,2,1.5c0.6,0.9,1.2,1.8,1.6,2.8c0.5,1,0.3,1.3-0.8,1.4c-0.9,0.1-1.9,0-2.8,0
		C184,174.3,184,172.4,184.1,170.5z"/>
	<path class="st2" d="M199.2,198.2c2.3,0.4,3.2,2.5,4.4,4.1c0.3,0.3,0,0.7-0.3,1c-0.6,0.6-1,1.2-1.8,1.6
		C200.5,202.7,200,200.4,199.2,198.2z"/>
	<path class="st5" d="M192,166.1c-0.5-0.6-0.5-1.2,0-1.8C192.1,164.9,192.1,165.5,192,166.1z"/>
	<path class="st5" d="M192,161.3c-0.5-0.5-0.4-1-0.2-1.6C192.2,160.2,192.1,160.7,192,161.3z"/>
	<path class="st4" d="M253.6,187.2c-0.6-2.5-0.3-5.1-0.6-7.6c-0.9-0.1-1.5-0.1-1.5,1c0,0.6-0.1,1.2-0.1,1.7c0,0.3,0.1,0.8-0.4,0.9
		s-0.9-0.1-1.1-0.6c0-0.1-0.1-0.1-0.1-0.2c-0.3-2.4-1.3-4.7-1.4-7.1c0.1,0,0.3,0,0.4-0.1c1-0.5,1.7-1.8,3-1.6
		c1.6,0.3,3.2,1.1,4.5,2.1c1.1,0.8,2.3,0.8,2.8-0.3c1.1-2.4,1.5-4.9,0.4-7.4c-0.1-0.2-0.4-0.2-0.6-0.3c-0.1-0.5-0.1-1.1-0.2-1.6
		c0.5-0.1,0.9-1.2,1.6-0.3c0.2,0.2,0.4,0,0.6-0.1c1.1-0.8,1.8-0.7,2.2,0.5c0.4,0.9,0.6,1.9,0.9,2.9c0.3,1.2,1,2.1,2.3,2.3
		c0.1,0.1,0.2,0.3,0.3,0.4c0,0.7,0.1,1.4,0.5,2.1c0.1-0.7,0.5-1.4,0.3-2.1h0.1c1.2,0.3,2.3-0.3,3.5-0.4c0.1,2.9,0.1,5.8,0.2,8.7
		c-0.1,0.4-0.1,0.9-0.2,1.3c-1.4,0.7-1.9,2.3-3,3.4c-1.3,1.3-1.9,1.4-3.4,0.5c-0.8-0.4-1.5-0.9-2.5-0.6c-2.4,0.7-4.8,1.1-7.1,2.2
		C254.6,187.1,254.1,187.2,253.6,187.2z M265.3,178.7c-0.2,1.9-0.5,3.8,0.1,5.6c0.2,0,0.3,0,0.5-0.1
		C265.7,182.3,265.5,180.5,265.3,178.7z"/>
	<path class="st4" d="M279,160c0.6,1.2,0.3,2.6,1,3.7c-0.3,1.3,0.3,2.5,0.4,3.7c-0.3,1.9-0.6,3.9-0.9,5.8c-0.2,0.4-0.3,0.9-0.5,1.3
		c-0.6,0-1.1,0.1-1.6,0.5c-1.2,0.9-1.5,0.8-1.9-0.6c-0.1-0.4,0.1-0.9-0.5-1.3c0,1.1,0,2.1,0,3.1c0,0.4-0.1,1-0.8,0.6
		c-0.9-0.6-1,0-1,0.7c0,0.8-0.3,1.4-1.3,1.5c-0.5-3.5-0.4-7.1-0.7-10.7c0.1-0.5,0.2-1-0.1-1.4c-1.1-1.6-1.7-3.5-2.8-5.1
		c-0.9-1.3-0.7-2.7,0.6-3.8c-0.2,0.7-0.4,1.5,0.4,2.3c0.4-1.1,0.2-1.9,0.3-2.7c-0.3-1.8,0.9-3.2,3.1-3.6c0.2,0.1,0.3,0.2,0.5,0.3
		c-0.2,1,0.1,1.8,0.4,2.7c0.3,0.8,0.4,1.7,0.5,2.5c0,0.5-0.1,1.1,0.1,1.4c0.8,1,0.9,2.3,1.2,3.5c0.4,1.5,0.7,2.9,1.1,4.9
		c0.3-3.1-0.4-5.6-0.4-8.2C277.4,161.1,278,160,279,160z M275.1,171.1c0.4-2,0-4-0.8-6.4C274,167.3,274.9,169.2,275.1,171.1z
		 M273.2,159.8c-0.1-0.3-0.1-0.7-0.5-0.8c-0.2,0-0.3,0.3-0.3,0.5c0,0.3,0,0.8,0.5,0.8C273.1,160.2,273.2,160,273.2,159.8z"/>
	<path class="st0" d="M250.7,169.8c-0.4-4.1-0.1-8.2,0.8-12.2c0.1-0.3,0.2-0.7,0.7-0.6c0.3,0.1,0.4,0.4,0.3,0.7c0,0.8,0,1.6-0.2,2.4
		C251.6,163.3,251.2,166.6,250.7,169.8z"/>
	<path class="st1" d="M276.3,160.9c0,2.6,0.7,5.1,0.4,8.2c-0.4-1.9-0.7-3.4-1.1-4.9c-0.3-1.2-0.3-2.4-1.2-3.5
		c-0.3-0.3-0.1-1-0.1-1.4C275,159.9,275.4,160.7,276.3,160.9z"/>
	<path class="st1" d="M271.4,168.2c0.3,3.5,0.1,7.1,0.7,10.7c-0.1,0.3-0.1,0.6-0.2,0.9c-0.2,0.1-0.5,0.3-0.7,0.4
		c-0.1-2.9-0.1-5.8-0.2-8.7C271,170.3,271.1,169.2,271.4,168.2z"/>
	<path class="st0" d="M266.6,171.8c-0.1-0.1-0.2-0.3-0.3-0.4c-0.1-1.9,0.3-3.7,0.6-5.9c1.3,2.3,0.5,4.3,0.6,6.3h-0.1
		C267.2,171.8,266.9,171.8,266.6,171.8z"/>
	<path class="st5" d="M249.3,170.4c-0.2-1.7,0.2-3.3,0.6-4.9c0.2,1.7,0.5,3.3,0,5C249.6,170.7,249.5,170.6,249.3,170.4z"/>
	<path class="st0" d="M256,162c-0.4-0.7-0.4-1.4-1-2c-0.3-0.3,0.1-0.6,0.4-0.9c0.2-0.2,0.4-0.1,0.6,0c0.3,0.2,0.3,0.4,0.3,0.7
		C256.2,160.5,256.1,161.2,256,162z"/>
	<path class="st5" d="M273.4,154.1c-0.2-0.1-0.3-0.2-0.5-0.3c-0.5-1.1,1-1.5,0.8-2.5c0.1,0,0.3-0.1,0.4-0.1s0.3,0.3,0.2,0.3
		c-0.7,1,0,1.9,0.2,2.8C274.1,154.7,273.8,154.1,273.4,154.1z"/>
	<path class="st5" d="M255.6,148.8c1-1.1,2.4-1.7,4-1.7c-1.3,0.7-2.5,1.3-3.8,2C255.8,148.9,255.7,148.9,255.6,148.8z"/>
	<path class="st5" d="M258.8,166.2c0.1,0.5,0.1,1.1,0.2,1.6c-0.1,0.8-0.2,1.6-0.3,2.3c0,0.1-0.2,0.1-0.5,0.3
		C257.8,168.9,258.2,167.5,258.8,166.2z"/>
	<path class="st0" d="M268,146.5c-0.9,0.8-0.9,0.8-2.3-0.3C266.6,146,267.2,146.3,268,146.5z"/>
	<path class="st0" d="M257.1,152.9c0.1,0.7-0.4,0.9-0.5,1.3s-0.3,0.8-0.7,0.6c-0.5-0.2-0.4-0.7-0.2-1.1
		C256.1,153.3,256.4,152.9,257.1,152.9z"/>
	<path class="st5" d="M271.9,151.8c-0.7,0.2-1.2,0.4-1.7,0.5c-0.4,0.1-0.7-0.2-0.8-0.6c-0.1-0.5,0.3-0.6,0.6-0.6
		C270.7,151.3,271.4,151.1,271.9,151.8z"/>
	<path class="st5" d="M250,152.9c-0.2-1.1,0.2-1.8,0.8-2.8C251,151.8,251,151.8,250,152.9z"/>
	<path class="st0" d="M249.3,170.4c0.2,0.1,0.3,0.3,0.5,0.1c0,0.7,0.2,1.5-0.3,2.5C249,171.9,249.3,171.2,249.3,170.4z"/>
	<path class="st1" d="M269.8,157.4c-0.1,0.8,0.1,1.7-0.3,2.7c-0.8-0.9-0.5-1.6-0.4-2.3C269.4,157.7,269.6,157.6,269.8,157.4z"/>
	<path class="st5" d="M261.4,147.8c-0.7,0.7-1.4,1.2-2.6,1.1C259.7,148.2,260.4,147.7,261.4,147.8z"/>
	<path class="st5" d="M254.8,151.6c-0.3,0.7-0.7,1-1.4,1.3C253.4,151.8,253.6,151.3,254.8,151.6z"/>
	<path class="st5" d="M264.3,156c0.4,0.9,0.2,1.4-0.4,1.8C263.4,157.1,263.9,156.7,264.3,156z"/>
	<path class="st1" d="M266.6,151.2c0,0.3-0.2,0.3-0.4,0.3c-0.2,0-0.4-0.1-0.4-0.4s0.2-0.4,0.4-0.3
		C266.4,150.8,266.5,151,266.6,151.2z"/>
	<path class="st1" d="M260.9,160.2c0,0.3-0.2,0.3-0.4,0.3c-0.2,0-0.5,0-0.5-0.3s0.2-0.3,0.4-0.3C260.6,160,260.8,160,260.9,160.2z"
		/>
	<path class="st5" d="M262.5,160c0.1-0.1,0.1-0.3,0.2-0.3c0.2-0.1,0.4,0.1,0.4,0.3c0,0.1-0.1,0.3-0.1,0.3
		C262.8,160.3,262.6,160.2,262.5,160z"/>
	<path class="st5" d="M260.7,146.6c-0.1,0-0.1,0-0.2,0s-0.1,0-0.2-0.1c0.1,0,0.1,0,0.2,0S260.6,146.5,260.7,146.6z"/>
	<path class="st5" d="M255.8,149c-0.1,0.2-0.2,0.4-0.4,0.2c-0.2-0.2,0-0.3,0.2-0.4C255.7,148.9,255.8,148.9,255.8,149z"/>
	<polygon class="st5" points="262.1,147.5 262,147.4 262.2,147.4 	"/>
	<path class="st4" d="M221,172.3c0.2,6,0.1,12,0,18c-0.5,0.3-0.9,0.1-1.3-0.2c-2.1-1.8-4.1-3.6-6-5.6c-0.8-0.8-1.5-1.5-2.7-1.7
		c-0.1-0.4-0.2-0.7-0.3-1.1c0.4-2.2,0.1-4.5,0.2-6.7c0.1-2.8,0.1-5.6,0.1-8.4c1,1.1,2.1,2.2,3.1,3.3
		C215.9,171.9,218.3,172.5,221,172.3z"/>
	<path class="st0" d="M195.9,127c0.2-0.5,0.4-1.1,0.9-1.5c1.8-1.5,3.6-3,5.3-4.4c0.2-0.2,0.5-0.1,0.8-0.2c-0.2,1.7-0.9,3.2-1.4,4.8
		c-1.2,3.9-1.8,8-1.7,12.1c0.1,1.8,0,3.6-0.8,5.4c-1.1-0.5-1.4-1.4-1.7-2.2c-1.3-4-2.2-8-1.5-12.3C196,128.1,195.9,127.5,195.9,127z
		"/>
	<path class="st2" d="M183.2,143.2c0.1-0.5,0-1.1,0.2-1.5c1.1-2.5,2.3-4.9,4.2-6.9c0,2.2,0.1,4.3,0,6.5c0,1.5,0.8,3,0.4,4.5
		c-1.4,0-2.8,0-4.2,0C183.5,145,184,143.9,183.2,143.2z"/>
	<path class="st0" d="M210.7,181.7c0.1,0.4,0.2,0.7,0.3,1.1c-0.1,1-0.1,2-0.2,3c-0.1-0.1-0.2-0.1-0.3-0.1c-2.2-2.2-4.1-4.6-5.8-7.2
		c-0.4-0.6-0.8-1.2-0.8-2C206,178.4,208.2,180.2,210.7,181.7z"/>
	<path class="st3" d="M253.6,187.2c0.5,0,1-0.1,1.5-0.3c2.2-1.1,4.7-1.5,7.1-2.2c1-0.3,1.7,0.2,2.5,0.6c1.6,0.9,2.1,0.8,3.4-0.5
		c1.1-1,1.6-2.6,3-3.4c0.2,1.1,0,2.2-0.1,3.2c-0.1,1.9-0.4,3.8-0.1,5.6c0,0.4,0,0.8,0,1.2c-0.9,0-1.7,0.1-2.5,0.5
		c-0.4-0.3-0.1-1-0.7-1.5c-0.1,0.8-0.1,1.3-0.1,1.9c-1.1,0.1-2.1,0.9-3.3,0.9c-0.4-0.6,0.2-1.9-1.3-1.7c-1.3,0.2-1.4,0.4-1.5,2.1
		c0,0.3,0.1,0.6,0.1,0.8c-0.1,0-0.2,0-0.3,0.1c-0.5,0.2-1,0.3-1.5,0.5c0-0.7,0-1.4-0.1-2.1c0-0.3-0.1-0.6-0.5-0.6s-0.5,0.2-0.5,0.5
		c0,0.7,0.1,1.4,0.1,2.1c-0.9-0.2-0.7,1.2-1.5,1.1c-0.7-1.9-0.7-1.9-3-2c-0.1-0.1-0.2-0.3-0.3-0.4c0.1-2.1-0.4-4.1-0.6-6.2
		C253.5,187.5,253.5,187.3,253.6,187.2z M261.6,189.5c0.1,1.8,0.1,1.8,2.1,0.7C263.1,189.7,262.5,189.5,261.6,189.5z M258.6,189.6
		c-0.2,0.6-0.4,1.3,0.2,1.9l0.3-0.1C259.4,190.6,258.9,190.1,258.6,189.6z M258.2,188.8c0-0.1,0.1-0.3,0.1-0.4s-0.1-0.3-0.1-0.4
		c0,0.1-0.1,0.3-0.1,0.4S258.2,188.6,258.2,188.8z"/>
	<path class="st2" d="M254,193.8c0.1,0.1,0.2,0.3,0.3,0.4c0,0.7,0,1.4,0,2.2c-0.4,0.8-0.8,1.4-1.8,1.5c-0.9,0.1-1.8,0.4-2.7,0.6
		c-0.5-1.2-1.5-0.5-2.3-0.7c-0.4-0.2-0.7-0.5-1.1-0.7c-2-1.3-3.7-3-6.3-3.2c-0.1,0-0.2,0-0.3-0.1c-0.6-1-1.9-0.5-2.6-1.3
		c0-1.2-0.4-2.4,0.4-3.5c0.5,0,1,0,1.5,0.3c1.6,0.7,3.5,0.9,5.2,1.5C247.3,192.6,250.7,193.1,254,193.8z"/>
	<path class="st3" d="M210.8,185.8c0.1-1,0.1-2,0.2-3c1.2,0.1,1.9,0.9,2.7,1.7c1.9,2,3.9,3.8,6,5.6c0.4,0.4,0.8,0.6,1.3,0.2
		c0.1,0.3,0.1,0.6,0.2,0.9c-0.1,0.9-0.1,1.7-0.2,2.6c-1.8-0.1-2.7-1.6-3.9-2.5c-2.1-1.5-4.1-3.3-6.1-4.9
		C210.9,186.2,210.8,186,210.8,185.8z"/>
	<path class="st0" d="M220.9,193.8c0.1-0.9,0.1-1.7,0.2-2.6c2.4,1.4,4.8,2.8,7.4,3.7c0.4,0.1,0.8,0.2,1.3,0.3
		c0.1,0.3,0.2,0.5,0.3,0.8c-0.4,0.7,0,1.6-0.3,2.3c-2.6-0.1-5-0.8-7.1-2.4c-0.5-0.4-1.1-0.6-1.7-1
		C221.1,194.6,221,194.2,220.9,193.8z"/>
	<path class="st0" d="M254,193.8c-3.3-0.7-6.8-1.2-9.7-3.2c0.6,0.1,1.3,0.2,1.9,0.4c1.7,0.4,3.1,0.1,4.2-1.5c0.7-1.1,1.7-1.8,3-1.9
		C253.6,189.7,254.1,191.8,254,193.8z"/>
	<path class="st0" d="M237.7,189c-0.7,1.1-0.3,2.3-0.4,3.5c-0.5-0.1-0.9-0.4-1.3-0.7c-0.8-0.8-1.1-1.8-0.6-2.5
		C236,188.4,236.8,188.4,237.7,189z"/>
	<path class="st0" d="M256.1,124.5c3.5-3.5,7-2.4,9.2-0.6c0.3,0.3,0.7,0.5,0.6,1.1c-0.7,0.6-1.2-0.1-1.5-0.4c-1.9-1.5-4-1-6-0.4
		c-0.6,0.2-1.2,0.5-1.8,0.8C256.4,124.8,256.2,124.6,256.1,124.5z"/>
	<path class="st0" d="M260.1,138.9c0,0.5,0.4,0.4,0.6,0.5c-0.1,0.1-0.1,0.2,0,0.3c-1.4,0.2-2.8-0.1-4-0.6c-2.3-0.9-3.6-2.6-4-5.2
		c0.9,0.2,0.9,0.9,1.3,1.4C255.5,137.4,257.4,138.9,260.1,138.9L260.1,138.9z"/>
	<path class="st5" d="M264.1,138c-0.3,0.8-1,0.9-1.7,0.9c-0.8,0-1.5,0-2.3,0l0,0c1-1.2,2.5-0.9,3.8-1.1L264.1,138z"/>
	<path class="st0" d="M261.2,126.6c0.9-0.1,1.6-0.5,1.9,0.5c0.1,0.2,0,0.6-0.1,0.6C262.2,127.9,261.9,127.2,261.2,126.6z"/>
	<path class="st5" d="M267.2,132.3c0.1,0.8,0.1,1.5-1.2,2.1C266.5,133.4,266.6,132.7,267.2,132.3L267.2,132.3z"/>
	<path class="st5" d="M254.7,131.8c0.3,0.7,0.6,1.4,1.1,2.4C254.2,133.7,254.4,132.8,254.7,131.8z"/>
	<path class="st5" d="M256.4,131.2c-0.3-0.7-0.3-1.2,0.2-2C257.1,130.1,257.3,130.7,256.4,131.2z"/>
	<path class="st0" d="M265.3,130.2c0.3,0.8,0.3,1.3,0,2C264.7,131.4,264.9,130.9,265.3,130.2z"/>
	<path class="st5" d="M256.1,124.5c0.2,0.2,0.3,0.3,0.5,0.5c-0.3,0.4-0.7,0.7-1.2,0.8c-0.1-0.1-0.1-0.1-0.2-0.2
		C255.3,125,255.6,124.7,256.1,124.5z"/>
	<path class="st1" d="M258.6,133.8c-0.1,0.2-0.2,0.2-0.4,0.1c-0.1-0.1-0.2-0.2-0.2-0.4s0.1-0.2,0.3-0.1
		C258.5,133.5,258.5,133.7,258.6,133.8z"/>
	<path class="st5" d="M267.2,132.3c0.1-0.2,0.1-0.5,0.2-0.7c0,0.1,0.1,0.1,0.1,0.2C267.5,132,267.4,132.2,267.2,132.3L267.2,132.3z"
		/>
	<path class="st5" d="M256.2,135.8c0.5-0.1,1-0.2,1.3,0.4l0,0C257,136.4,256.5,136.4,256.2,135.8L256.2,135.8z"/>
	<path class="st5" d="M260.8,139.7c-0.1-0.1-0.1-0.2,0-0.3c0.3-0.1,0.7-0.1,0.9,0.2C261.4,139.8,261.1,139.8,260.8,139.7z"/>
	<path class="st5" d="M257.5,136.2c0.2,0.1,0.3,0.2,0.5,0.2c-0.1,0-0.1,0.1-0.2,0.1C257.6,136.5,257.4,136.5,257.5,136.2
		L257.5,136.2z"/>
	<path class="st5" d="M256.2,135.8c-0.1,0-0.3-0.1-0.4-0.1C256.1,135.4,256.1,135.7,256.2,135.8L256.2,135.8z"/>
	<path class="st5" d="M264,137.8c0.1-0.2,0.3-0.3,0.5-0.1c-0.1,0.1-0.2,0.2-0.3,0.2C264.1,138,264,137.8,264,137.8z"/>
	<path class="st5" d="M255.4,125.7c-0.1,0.2-0.2,0.4-0.4,0.2c-0.2-0.2,0-0.3,0.2-0.4C255.3,125.6,255.3,125.7,255.4,125.7z"/>
	<path class="st5" d="M183.2,143.2c0.8,0.7,0.3,1.7,0.5,2.6c-0.6,0-1.3,0.2-2-0.1C181.9,144.7,181.9,143.6,183.2,143.2z"/>
	<path class="st5" d="M292.8,208.3c-6.2,3.4-13,5.1-19.9,6.2c-0.4-1-0.3-2.1-0.3-3.2c0.1-6.3,0.3-12.5,0.4-18.8c0-0.7,0-1.4-0.1-2.2
		c0.1-0.1,0.2-0.3,0.2-0.4c1.1-0.3,1.8-1.1,2.5-2c2.3-3,4.4-6.1,6.4-9.3c1.2-2,2.9-3.4,5.3-3.8c0.1,0.1,0.3,0.2,0.4,0.2
		c0.4,4.6,1.3,9.1,2,13.6c0.9,6,1.9,11.9,2.8,17.9C292.7,207.1,292.7,207.7,292.8,208.3z"/>
	<path class="st0" d="M287.4,174.8c-2.4,0.4-4.1,1.8-5.3,3.8c-2,3.2-4.1,6.3-6.4,9.3c-0.7,0.9-1.4,1.7-2.5,2
		c0.2-3.9,0.1-7.8,0.6-11.8c1.9,0.8,1.9,0.8,1.8,2.7c-0.1,1.1-0.3,2.2-0.6,3.2c-0.2,0.5-0.4,1,0.3,1.3c0.7,0.3,1-0.1,1.3-0.7
		c0.6-1.2,0.1-2.9,1.8-3.6c0.1,0,0.1-0.3,0.1-0.4c0.2-2,0.5-4,0.7-6.1c0.2-0.4,0.3-0.9,0.5-1.3c0.7-0.3,1.2-0.8,1.8-1.2
		c1.7-1.2,3.3-2.7,5.1-3.7C287,170.4,287.5,172.6,287.4,174.8z"/>
	<path class="st5" d="M286.5,168.3c-1.9,1-3.4,2.5-5.1,3.7c-0.6,0.4-1.1,1-1.8,1.2c0.3-1.9,0.6-3.9,0.9-5.8c1.1-0.2,2-0.8,2.8-1.6
		c0.9-0.8,1.6-1.9,2.7-2.4c0.2,1.4,0.5,2.7,0.7,4.1C286.6,167.7,286.6,168,286.5,168.3z"/>
	<path class="st0" d="M285.9,163.4c-1.1,0.6-1.8,1.6-2.7,2.4c-0.8,0.7-1.6,1.4-2.8,1.6c-0.1-1.2-0.8-2.4-0.4-3.7
		c1.3-1,2.6-2,3.9-3.1c0.5-0.4,0.9-0.7,1.5-0.7c0.2,1,0.1,2.1,0.5,3.1C286,163.1,285.9,163.2,285.9,163.4z"/>
	<path class="st5" d="M240.2,193.9c2.5,0.2,4.3,1.9,6.3,3.2c0.4,0.2,0.7,0.5,1.1,0.7c0.6,0.7,1.4,0.8,2.3,0.7
		c0.9-0.2,1.8-0.6,2.7-0.6c1-0.1,1.4-0.7,1.8-1.5c0.6,6.4,0.5,12.9,0.4,19.4c-3.5-0.3-6.9-0.3-10.4-0.9c-0.6-0.1-1.2-0.1-1.7,0
		c-2,0.1-3.9-0.2-5.8-0.5c1.9-2.3,3-4.8,3.1-7.8c0.3-0.4,0.3-0.9,0.2-1.4c0.4-1.4-0.1-2.8,0.3-4.2c0.9,0.1,1.9,0.2,3.3,0.4
		c-1.4-0.6-2.4-1-3.4-1.5C240.4,198,240.3,195.9,240.2,193.9z"/>
	<path class="st5" d="M221.2,194.9c0.6,0.3,1.2,0.6,1.7,1c2.1,1.6,4.5,2.3,7.1,2.4c0.1,0.1,0.2,0.3,0.3,0.4
		c-0.4,1.7-0.1,3.5-0.2,5.2c-0.3,3.3-2.5,5-5.7,4.2c-1.9-0.5-3-1.7-3.1-4C221,201.1,220.9,198,221.2,194.9z"/>
	<path class="st3" d="M230.2,198.7c-0.1-0.1-0.2-0.3-0.3-0.4c0.2-0.8-0.1-1.6,0.3-2.3c1.6-0.1,2.8,0.9,4.1,1.5
		c1.7,0.7,3.6,1.2,5.1,2.4c-0.3,0.8-0.8,0.6-1.3,0.5c-2-0.5-4.1-1-6.1-1.5C231.3,198.6,230.7,198.6,230.2,198.7z"/>
	<path class="st0" d="M240.4,200c1,0.4,1.9,0.8,3.4,1.5c-1.4-0.2-2.4-0.3-3.3-0.4C240.3,200.7,240.3,200.3,240.4,200z"/>
	<path class="st3" d="M240.2,205.3c0.1,0.5,0.1,0.9-0.2,1.4C239.9,206.1,239.8,205.7,240.2,205.3z"/>
	<path class="st5" d="M210.9,206.6c-0.4-0.3-0.4-0.6,0-0.9C210.9,206,210.9,206.3,210.9,206.6z"/>
	<path class="st5" d="M210.8,185.8c0.1,0.2,0.1,0.3,0.2,0.5c-0.1,0.1-0.1,0.3-0.2,0.4c-0.3-0.3-0.3-0.7-0.3-1.1
		C210.6,185.7,210.7,185.7,210.8,185.8z"/>
	<path class="st5" d="M266.1,215.4c-1-0.1-1.9,0.1-2.5,1c-0.7-1.1-0.9-2.4-0.9-3.7c0-0.8,0.3-1.7-0.2-2.3c-1.3-1.8-1.4-3.8-1.4-5.8
		c0-2.7,0.1-5.4,0.1-8.1c0.2-0.3,0.2-0.5,0.1-0.8c0.1-0.3,0.1-0.6,0-0.9c0.1-0.1,0.2-0.1,0.3-0.1c0.8-0.3,1.7-0.5,2.5-0.8
		c0.7,2.3,0.8,4.8,1.1,7.1c0.5,4.1,0.9,8.3,1.1,12.5C266.3,214.1,266.2,214.7,266.1,215.4z"/>
	<path class="st3" d="M279.1,174.5c-0.2,2-0.5,4-0.7,6.1c0,0.1,0,0.4-0.1,0.4c-1.7,0.7-1.2,2.4-1.8,3.6c-0.3,0.6-0.6,1.1-1.3,0.7
		c-0.6-0.3-0.4-0.8-0.3-1.3c0.3-1,0.6-2.1,0.6-3.2c0.1-1.9,0.1-1.9-1.8-2.7c-0.5,3.9-0.4,7.9-0.6,11.8c-0.1,0.1-0.2,0.3-0.2,0.4
		c-0.4,0-0.8,0-1.2,0c-0.1-0.1-0.2-0.1-0.3,0c0.2-3.5,0.4-7,0.5-10.6c0.1-0.3,0.1-0.6,0.2-0.9c0.9,0,1.2-0.6,1.3-1.5
		c0-0.6,0.1-1.3,1-0.7c0.6,0.4,0.7-0.1,0.8-0.6c0-1,0-2,0-3.1c0.6,0.4,0.4,0.9,0.5,1.3c0.4,1.4,0.6,1.5,1.9,0.6
		C278,174.6,278.5,174.4,279.1,174.5z"/>
	<path class="st0" d="M264.1,193.8c-0.8,0.3-1.7,0.5-2.5,0.8c0-0.3-0.1-0.6-0.1-0.8c0-1.7,0.2-1.8,1.5-2.1c1.5-0.3,1,1.1,1.3,1.7
		C264.2,193.5,264.1,193.7,264.1,193.8z"/>
	<path class="st1" d="M267.5,192.5c0-0.6,0.1-1.2,0.1-1.9c0.6,0.5,0.3,1.2,0.7,1.5c0.1,1.1-0.2,2.2-0.6,3.6
		C267.7,194.4,267.6,193.5,267.5,192.5z"/>
	<path class="st1" d="M269.7,220.4c0.6-0.1,1.2-0.2,1.4,0.6c0.1,0.2-0.1,0.4-0.3,0.5C270,221.5,269.8,221,269.7,220.4z"/>
	<path class="st5" d="M270.9,191.6c0-0.4,0-0.8,0-1.2c0.2-0.2,0.3-0.3,0.5,0c0.1-0.1,0.2-0.1,0.3,0c-0.1,0.4-0.2,0.8-0.3,1.2
		c0,0.2-0.1,0.3-0.2,0.5C271.1,191.9,271,191.7,270.9,191.6z"/>
	<path class="st2" d="M216.2,228.6c-0.2-0.1-0.3-0.2-0.2-0.3c0.1-0.1,0.2,0,0.3,0.1C216.3,228.5,216.2,228.6,216.2,228.6z"/>
	<path class="st4" d="M261.3,194.7c0.1,0.3,0.1,0.6,0,0.9c-0.3,0.2-0.3,0.5-0.1,0.8c0,2.7-0.1,5.4-0.1,8.1c0,2.1,0.1,4.1,1.4,5.8
		c0.5,0.7,0.3,1.6,0.2,2.3c-0.1,1.3,0.2,2.6,0.9,3.7c0.1,1.1-0.2,1.9-1.6,1.5c-0.8-0.2-2,0.7-2.4-0.8c-0.1-0.2-0.1-0.3-0.2-0.1
		c-0.1,0.1-0.1,0.3-0.1,0.4c-0.1,0.4-0.1,0.9-0.7,0.9c-0.5,0-0.9-0.2-1-0.7c0-1.2-0.7-1.2-1.6-1.1c-0.5,0-1-0.2-1.2-0.7
		c0.1-6.5,0.2-12.9-0.4-19.4c0-0.7,0-1.4,0-2.2c2.3,0.1,2.3,0.1,3,2c0.8,0.1,0.6-1.4,1.5-1.1h0.2c0.1,1.1,0.2,2.2,0.4,3.3
		c0,0.3-0.2,0.7,0.2,0.9c0.1,0,0.3,0,0.3-0.1c0.1-0.3-0.1-0.5-0.3-0.6c0-1.1,0.3-2.3,0.1-3.4h0.1C260.3,195,260.8,194.8,261.3,194.7
		z M257.1,208.7c0.3-0.8,0.5-1.5-0.1-2.8C256.5,207.1,256.7,207.9,257.1,208.7z M257.3,204.3c-0.1-0.8,0.6-1.7-0.3-2.5
		C256.3,202.8,257.3,203.5,257.3,204.3z M259.1,211.4c0.3-0.8,0.3-1.5,0-2.5C258.8,209.9,258.8,210.6,259.1,211.4z"/>
	<path class="st0" d="M271.4,190.3c-0.2-0.2-0.4-0.1-0.5,0c-0.3-1.9,0-3.8,0.1-5.6c0.1-1.1,0.3-2.2,0.1-3.2c0.1-0.4,0.1-0.9,0.2-1.3
		c0.2-0.1,0.5-0.3,0.7-0.4C271.8,183.3,271.6,186.8,271.4,190.3z"/>
	<path class="st1" d="M265.3,178.7c0.2,1.8,0.4,3.7,0.7,5.5c-0.2,0-0.3,0-0.5,0.1C264.7,182.4,265.1,180.5,265.3,178.7z"/>
	<path class="st1" d="M266.6,171.8c0.3,0,0.5,0,0.8,0c0.2,0.7-0.2,1.4-0.3,2.1C266.7,173.2,266.6,172.5,266.6,171.8z"/>
	<path class="st3" d="M275.1,171.1c-0.3-2-1.2-3.9-0.8-6.4C275.1,167.1,275.5,169.1,275.1,171.1z"/>
	<path class="st3" d="M273.2,159.8c0,0.2-0.1,0.5-0.3,0.4c-0.5,0-0.4-0.5-0.5-0.8c0-0.2,0.1-0.5,0.3-0.5
		C273.1,159,273.1,159.5,273.2,159.8z"/>
	<path class="st0" d="M261.6,189.5c0.9,0,1.5,0.2,2.1,0.7C261.6,191.3,261.6,191.3,261.6,189.5z"/>
	<path class="st0" d="M258.9,195.1c0-0.7-0.1-1.4-0.1-2.1c0-0.3,0.1-0.5,0.5-0.5s0.4,0.3,0.5,0.6c0,0.7,0,1.4,0.1,2.1h-0.1
		c-0.2,0-0.4,0-0.7,0L258.9,195.1z"/>
	<path class="st0" d="M258.6,189.6c0.3,0.6,0.8,1.1,0.6,1.7c0,0.1-0.3,0.2-0.3,0.1C258.2,190.9,258.4,190.2,258.6,189.6z"/>
	<path class="st5" d="M258.2,188.8c0-0.1-0.1-0.3-0.1-0.4s0.1-0.3,0.1-0.4c0,0.1,0.1,0.3,0.1,0.4S258.2,188.6,258.2,188.8z"/>
	<path class="st0" d="M249.9,198.5c-0.9,0-1.7,0-2.3-0.7C248.3,198,249.4,197.3,249.9,198.5z"/>
	<path class="st3" d="M261.2,196.4c-0.2-0.3-0.2-0.6,0.1-0.8C261.4,195.9,261.4,196.1,261.2,196.4z"/>
	<path class="st1" d="M257.1,208.7c-0.4-0.8-0.6-1.6-0.1-2.8C257.6,207.1,257.4,207.9,257.1,208.7z"/>
	<path class="st5" d="M259,195.1c0.2,0,0.4,0,0.7,0c0.2,1.1-0.1,2.3-0.1,3.4c0-0.1-0.1-0.1-0.2-0.1
		C259.3,197.3,259.1,196.2,259,195.1z"/>
	<path class="st3" d="M257.3,204.3c0-0.8-1-1.5-0.3-2.5C258,202.6,257.3,203.5,257.3,204.3z"/>
	<path class="st3" d="M259.1,211.4c-0.3-0.7-0.3-1.4,0-2.5C259.4,209.9,259.3,210.6,259.1,211.4z"/>
	<path class="st3" d="M259.4,198.4c0.1,0,0.2,0.1,0.2,0.1c0.2,0.1,0.4,0.3,0.3,0.6c0,0.1-0.3,0.1-0.3,0.1
		C259.2,199.1,259.3,198.7,259.4,198.4z"/>
</g>
</svg>
