<?xml version="1.0" encoding="utf-8"?>
<!-- Generator: Adobe Illustrator 22.0.0, SVG Export Plug-In . SVG Version: 6.00 Build 0)  -->
<svg version="1.1" id="Livello_1" xmlns="http://www.w3.org/2000/svg" xmlns:xlink="http://www.w3.org/1999/xlink" x="0px" y="0px"
	 viewBox="0 0 451 445" style="enable-background:new 0 0 451 445;" xml:space="preserve">
<style type="text/css">
	.st0{fill:#2C3E50;stroke:#000000;stroke-miterlimit:10;}
	.st1{fill:#FFF312;}
	.st2{fill:#FFD72E;}
	.st3{fill:#5CA336;}
	.st4{fill:#FDE449;}
	.st5{fill:#0F9328;}
	.st6{fill:#FF900B;}
	.st7{fill:#2C3E50;}
	.st8{fill:#FFFFFF;}
	.st9{fill:#FFFFFF;stroke:url(#);stroke-miterlimit:10;}
	.st10{fill:none;}
	.st11{fill:#FFFFFF;stroke:#000000;stroke-miterlimit:10;}
	.st12{fill:none;stroke:#000000;stroke-miterlimit:10;}
	.st13{fill:#F9D10D;}
	.st14{fill:none;stroke:#FFFFFF;stroke-width:2;stroke-miterlimit:10;}
</style>
<rect x="-45.9" y="-492.7" class="st0" width="2398.6" height="1127.1"/>
<g>
	<path class="st8" d="M161,79.5l0.1,0.1c1.7,3,2.1,5.7,1.3,8c-0.8,2.4-2.7,4.3-5.6,5.9c-3,1.6-5.9,2-8.7,1.2c-2.7-0.8-5-2.9-6.8-6.2
		l-4.5-8.4c-1.8-3.3-2.3-6.3-1.5-9c0.8-2.7,2.6-4.9,5.5-6.5c3.1-1.7,5.9-2.2,8.3-1.6c2.5,0.6,4.5,2.4,6.1,5.5l0,0.1l-5.3,2.9
		c-1-1.8-2-2.9-3-3.3s-2.3-0.2-3.8,0.6c-1.4,0.7-2.1,1.8-2.3,3.1c-0.2,1.4,0.3,3.1,1.4,5.1l4.5,8.4c1.1,2.1,2.3,3.4,3.6,4
		s2.6,0.5,4.1-0.3c1.4-0.7,2.1-1.6,2.3-2.6c0.2-1-0.2-2.5-1.2-4.3L161,79.5z"/>
	<path class="st8" d="M185.6,68.4c1.3,3.5,1.3,6.7,0,9.4c-1.3,2.7-3.6,4.7-6.9,5.9c-3.3,1.2-6.3,1.2-9-0.1c-2.7-1.3-4.7-3.6-6-7.2
		l-3.1-8.4c-1.3-3.5-1.3-6.6-0.1-9.4c1.2-2.7,3.5-4.7,6.8-5.9c3.3-1.2,6.3-1.2,9.1,0.1c2.7,1.3,4.7,3.7,6,7.2L185.6,68.4z
		 M176.7,62.1c-0.8-2.2-1.9-3.7-3.1-4.5s-2.8-0.9-4.5-0.3c-1.7,0.6-2.8,1.6-3.2,3.1c-0.4,1.4-0.3,3.2,0.5,5.4l3.1,8.4
		c0.8,2.2,1.9,3.7,3.1,4.5s2.7,0.9,4.4,0.3s2.8-1.6,3.2-3.1s0.3-3.3-0.5-5.5L176.7,62.1z"/>
	<path class="st8" d="M204.7,67.5l0.1,0l1.4-24.4l8-1.5l6,31.4l-6,1.2l-3.8-19.8l-0.1,0l-1.9,20.9l-4.1,0.8l-9.4-18.6l-0.1,0
		l3.7,19.6l-6.1,1.2l-6-31.4l7.9-1.5L204.7,67.5z"/>
	<path class="st8" d="M245.3,40.2l0.6,20.9c0.1,3.6-0.9,6.5-2.9,8.6c-2,2.1-4.7,3.2-8.1,3.3c-3.3,0.1-6.1-0.9-8.2-2.8
		c-2.1-2-3.2-4.8-3.3-8.4l-0.6-20.9l6.2-0.2l0.6,20.9c0.1,2.2,0.6,3.8,1.5,5c0.9,1.1,2.2,1.7,3.8,1.6c1.6,0,2.8-0.6,3.7-1.8
		c0.9-1.2,1.3-2.8,1.2-5l-0.6-20.9L245.3,40.2z"/>
	<path class="st8" d="M272.3,75.1l-6.2-0.7l-7.6-21.5l-0.1,0l-2.4,20.2l-6.2-0.7l3.8-31.8l6.2,0.7l7.6,21.5l0.1,0l2.4-20.3l6.2,0.7
		L272.3,75.1z"/>
	<path class="st8" d="M282.6,77.7l-6-1.4l7.2-31.2l6,1.4L282.6,77.7z"/>
	<path class="st8" d="M313.2,58.7l-7.1-2.3l-8.4,25.8l-5.9-1.9l8.4-25.8l-7-2.3l1.5-4.6l20,6.5L313.2,58.7z"/>
	<path class="st8" d="M321,84.4l-7.3-3.4l-4.6,5.5l-5.9-2.7L325,58.6l5.8,2.7l-5.3,32.8l-5.9-2.7L321,84.4z M316.9,77.1l4.9,2.3
		l1.9-10.3l-0.1-0.1L316.9,77.1z"/>
	<path class="st8" d="M343.6,74.8l-4.7,4.2l-2.6-1.5l2.9-5.2l2.9-5l4.4,2.6L343.6,74.8z"/>
</g>
<g>
	<path class="st8" d="M160.1,372.8l-8.7-4.5l-4.2,8.3l10.4,5.3l-2.2,4.3l-15.9-8.2l14.6-28.5l15.9,8.1l-2.2,4.3l-10.4-5.3l-3.7,7.3
		l8.7,4.5L160.1,372.8z"/>
	<path class="st8" d="M161.3,388.9l10.9-30.1l9.3,3.3c3.1,1.1,5.3,3.2,6.5,6.3c1.2,3.1,1.1,6.5-0.2,10.2l-1.8,5
		c-1.3,3.7-3.4,6.3-6.3,7.9c-2.9,1.6-5.9,1.8-9.1,0.7L161.3,388.9z M176.3,365.5l-7.6,21l3.5,1.2c1.5,0.5,3,0.2,4.4-0.9
		c1.5-1.2,2.6-2.9,3.5-5.3l1.8-5c0.8-2.3,1.1-4.4,0.7-6.2c-0.4-1.8-1.3-3-2.8-3.5L176.3,365.5z"/>
	<path class="st8" d="M216.7,371.4l-4.3,20.5c-0.7,3.6-2.3,6.1-4.8,7.7c-2.5,1.6-5.3,2-8.6,1.3c-3.3-0.7-5.7-2.2-7.3-4.7
		c-1.6-2.4-2.1-5.4-1.3-9l4.3-20.5l6,1.3l-4.3,20.5c-0.4,2.1-0.3,3.9,0.3,5.2c0.7,1.3,1.7,2.1,3.3,2.4c1.6,0.3,2.9,0,4-0.9
		c1.1-0.9,1.9-2.5,2.3-4.6l4.3-20.5L216.7,371.4z"/>
	<path class="st8" d="M239.2,395.1l0,0.1c-0.2,3.4-1.2,5.9-3.1,7.5c-1.9,1.6-4.6,2.3-7.9,2c-3.4-0.2-6.1-1.4-8-3.6
		c-1.9-2.2-2.7-5.1-2.4-8.8l0.6-9.5c0.3-3.7,1.4-6.5,3.5-8.4c2.1-1.9,4.8-2.8,8.1-2.5c3.5,0.2,6.1,1.3,7.9,3.1
		c1.8,1.8,2.5,4.4,2.2,7.9l-0.1,0.1l-6-0.4c0.1-2-0.1-3.5-0.8-4.4c-0.7-0.9-1.8-1.4-3.5-1.5c-1.5-0.1-2.7,0.4-3.6,1.4
		c-0.9,1.1-1.4,2.8-1.5,5.1l-0.6,9.5c-0.2,2.3,0.1,4.1,0.9,5.2c0.8,1.2,2,1.8,3.7,1.9c1.5,0.1,2.7-0.2,3.4-1
		c0.7-0.8,1.2-2.2,1.3-4.3L239.2,395.1z"/>
	<path class="st8" d="M258.8,397.2l-8,0.5l-1.4,7l-6.4,0.4l7.1-32.5l6.4-0.4l11.1,31.4L261,404L258.8,397.2z M251.8,392.8l5.4-0.3
		l-3.3-10l-0.1,0L251.8,392.8z"/>
	<path class="st8" d="M295.1,398.3l-6.1,1.2l-14-18l-0.1,0l4.1,20l-6.1,1.2l-6.4-31.3l6.1-1.2l14,18l0.1,0l-4.1-20l6.1-1.2
		L295.1,398.3z"/>
	<path class="st8" d="M311,364.3l-7.1,2.5l8.8,25.7l-5.9,2l-8.8-25.7l-6.9,2.4l-1.6-4.6l19.9-6.9L311,364.3z"/>
	<path class="st8" d="M333.1,368.1l-8.8,4.3l4,8.4l10.5-5.1l2.1,4.4l-16.1,7.8L310.9,359l16.1-7.8l2.1,4.4l-10.5,5.1l3.6,7.4
		l8.8-4.3L333.1,368.1z"/>
</g>
<path class="st6" d="M120.7,246.8c0,0-30.9-85-42.4-103.9c32.9-1.6,48.5,23.5,117.5,30.8c64.2,6.7,164.5,5.9,205.7-27
	c-15.9,63.3-45.9,134.2-45.9,134.2l-89.7,48.3L238.1,295l-43.9,30.2L120.7,246.8z"/>
<path class="st3" d="M193.2,265.6c36.7,4.5,25.8,8.8,74.9-0.8c-14.2,23.1-6.5,43.8-2.2,64.3c-26.3-14.4-47.1-7.4-76.7,1.9
	C200.7,306.1,204.1,290.9,193.2,265.6z"/>
<ellipse class="st6" cx="256.1" cy="142.4" rx="38.2" ry="27.9"/>
<ellipse class="st4" cx="151.4" cy="204.3" rx="15.9" ry="14.7"/>
<ellipse class="st3" cx="230.7" cy="249.7" rx="15.9" ry="14.7"/>
<ellipse transform="matrix(0.6082 -0.7938 0.7938 0.6082 -118.2286 122.5346)" class="st3" cx="65" cy="181" rx="17.7" ry="17"/>
<ellipse transform="matrix(0.1728 -0.985 0.985 0.1728 29.6624 483.2051)" class="st4" cx="302.5" cy="223.9" rx="14.7" ry="15.9"/>
<ellipse transform="matrix(0.3376 -0.9413 0.9413 0.3376 102.5465 472.8071)" class="st3" cx="387.2" cy="163.5" rx="17.6" ry="19.1"/>
<path class="st3" d="M336.9,175.2c31.6,11.8,61.2,25,98.6,17.7c-33,41.2-56,83.2-51.3,117.8c-19.3-16.9-51.9-8.1-66.6-2.8
	C335.6,266.7,353.7,209.3,336.9,175.2z"/>
<path class="st3" d="M16.7,210.6c29.5,3.6,63.1-2.7,101.3-26.1c-11.2,48.8,5.1,85,22.4,124.2c-25.7-4.7-56,17.1-85.5,26.5
	C61.5,280.6,27.6,235.9,16.7,210.6z"/>
<path class="st4" d="M108.2,225.4c29.5,3.6,54-1.8,91.4-9.1c-18.9,32.7-10.1,74.3-5.4,108.9c-26.3-14.4-53.6-10-83.2-0.6
	C129.1,283.4,119.1,250.7,108.2,225.4z"/>
<path class="st4" d="M264.1,240.2c29.5,3.6,47.6,7.1,85-0.2c-18.9,32.7-24.5,63-19.8,97.6c-18.9-8.2-49.2-12.7-64-7.4
	C283.4,289,275,265.5,264.1,240.2z"/>
</svg>
