<?xml version="1.0" encoding="utf-8"?>
<!-- Generator: Adobe Illustrator 22.0.0, SVG Export Plug-In . SVG Version: 6.00 Build 0)  -->
<svg version="1.1" id="Livello_1" xmlns="http://www.w3.org/2000/svg" xmlns:xlink="http://www.w3.org/1999/xlink" x="0px" y="0px"
	 viewBox="0 0 451 445" style="enable-background:new 0 0 451 445;" xml:space="preserve">
<style type="text/css">
	.st0{fill:#2C3E50;stroke:#000000;stroke-miterlimit:10;}
	.st1{fill:#FFF312;}
	.st2{fill:#FFD72E;}
	.st3{fill:#5CA336;}
	.st4{fill:#FDE449;}
	.st5{fill:#0F9328;}
	.st6{fill:#FF900B;}
	.st7{fill:#2C3E50;}
	.st8{fill:#FFFFFF;}
	.st9{fill:#FFFFFF;stroke:url(#);stroke-miterlimit:10;}
	.st10{fill:none;}
	.st11{fill:#FFFFFF;stroke:#000000;stroke-miterlimit:10;}
	.st12{fill:none;stroke:#000000;stroke-miterlimit:10;}
	.st13{fill:#F9D10D;}
	.st14{fill:none;stroke:#FFFFFF;stroke-width:2;stroke-miterlimit:10;}
</style>
<rect x="-920.2" y="-252.5" class="st0" width="2398.6" height="1127.1"/>
<g>
	<path class="st8" d="M118,84.1l-7.9,5.8l5.5,7.5l9.4-6.9l2.9,3.9L113.5,105l-19-25.8l14.4-10.6l2.9,3.9l-9.4,6.9l4.8,6.6l7.9-5.8
		L118,84.1z"/>
	<path class="st8" d="M138.7,78.6c-0.6-1.1-1.4-1.8-2.3-2.2c-0.9-0.3-2.3-0.4-4.1-0.2c-3.4,0.6-6.2,0.7-8.4,0.2
		c-2.2-0.5-3.9-1.9-5.2-4.2c-1.3-2.3-1.5-4.6-0.7-7c0.8-2.4,2.5-4.3,5.1-5.7c2.7-1.5,5.3-2,7.8-1.4c2.5,0.6,4.5,2.2,5.8,4.8l0,0.1
		l-5.3,2.9c-0.8-1.4-1.7-2.4-2.8-2.7s-2.2-0.2-3.4,0.4c-1,0.6-1.7,1.4-1.8,2.4c-0.2,1,0,2,0.6,3c0.5,0.9,1.3,1.5,2.3,1.8
		s2.5,0.3,4.5,0.1c3.2-0.6,5.9-0.6,8,0c2.2,0.6,3.9,2,5.2,4.4c1.3,2.4,1.6,4.7,0.7,7c-0.9,2.3-2.6,4.2-5.3,5.7c-2.6,1.5-5.3,2-8,1.6
		c-2.7-0.4-4.9-2.2-6.5-5.2l0-0.1l5.3-2.9c1,1.8,2,2.8,3.2,3.2s2.4,0.2,3.8-0.6c1.2-0.7,1.9-1.5,2.1-2.4
		C139.5,80.6,139.3,79.6,138.7,78.6z"/>
	<path class="st8" d="M152.4,68.5l4.2,10.8l-5.8,2.3l-11.7-29.8l10-3.9c3-1.2,5.7-1.2,8.1-0.2c2.4,1.1,4.2,3,5.3,5.8
		c1.1,2.8,1.2,5.5,0.1,7.9c-1.1,2.4-3.1,4.2-6.1,5.4L152.4,68.5z M150.6,64l4.2-1.7c1.3-0.5,2.1-1.4,2.4-2.6
		c0.3-1.2,0.2-2.5-0.4-3.9c-0.6-1.5-1.4-2.5-2.4-3.2c-1-0.7-2.2-0.8-3.5-0.3l-4.2,1.7L150.6,64z"/>
	<path class="st8" d="M176.4,59l3,12.5l-6,1.5l-7.6-31.1l9.3-2.3c3.1-0.8,5.7-0.5,7.9,0.6s3.6,3.2,4.3,6.1c0.4,1.6,0.4,3.1-0.1,4.5
		c-0.5,1.4-1.3,2.6-2.5,3.6c1.8,0.1,3.1,0.8,4.2,1.8c1,1.1,1.8,2.6,2.2,4.4l0.6,2.3c0.2,0.9,0.5,1.8,1,2.7c0.4,0.9,1,1.5,1.6,1.8
		l0.1,0.4l-6.2,1.5c-0.6-0.3-1.1-1-1.5-2c-0.4-1-0.7-2-1-3l-0.5-2.2c-0.4-1.6-1-2.7-1.9-3.4s-1.9-0.9-3.1-0.6L176.4,59z M175.2,54.3
		l3.2-0.8c1.3-0.3,2.2-0.9,2.7-1.9c0.5-0.9,0.6-2.1,0.2-3.5c-0.4-1.5-1-2.5-1.8-3.2c-0.9-0.7-2-0.9-3.2-0.6l-3.3,0.8L175.2,54.3z"/>
	<path class="st8" d="M211,51.8l-9.7,1.1l1,9.2l11.6-1.3l0.5,4.8l-17.8,2l-3.6-31.8l17.8-2l0.5,4.8L199.8,40l0.9,8.1l9.7-1.1
		L211,51.8z"/>
	<path class="st8" d="M231.7,57.3c0-1.3-0.3-2.3-0.9-3c-0.6-0.8-1.8-1.5-3.5-2.2c-3.3-1.2-5.7-2.6-7.3-4.1c-1.6-1.5-2.4-3.6-2.4-6.2
		c0-2.6,1-4.7,2.9-6.4c1.9-1.6,4.3-2.4,7.3-2.4c3.1,0.1,5.6,1,7.5,2.8c1.9,1.8,2.7,4.2,2.6,7.1l0,0.1l-6-0.1c0-1.7-0.3-2.9-1-3.8
		c-0.7-0.9-1.8-1.3-3.2-1.3c-1.2,0-2.1,0.4-2.8,1.1c-0.7,0.8-1,1.7-1,2.9c0,1.1,0.3,2,1.1,2.7c0.7,0.7,2,1.5,3.8,2.4
		c3.1,1.1,5.4,2.4,7,4c1.6,1.6,2.3,3.7,2.3,6.4c0,2.7-1,4.9-2.9,6.4c-1.9,1.5-4.4,2.3-7.4,2.2c-3,0-5.6-0.9-7.7-2.7
		c-2.1-1.7-3.1-4.3-3-7.8l0-0.1l6,0.1c0,2,0.4,3.5,1.1,4.3c0.8,0.9,2,1.4,3.6,1.4c1.3,0,2.3-0.3,3-1
		C231.3,59.5,231.6,58.6,231.7,57.3z"/>
	<path class="st8" d="M256,59.8c0.2-1.3,0-2.3-0.5-3.1c-0.5-0.8-1.6-1.7-3.2-2.6c-3.1-1.6-5.3-3.3-6.8-4.9c-1.4-1.7-2-3.8-1.6-6.4
		c0.4-2.6,1.6-4.6,3.7-5.9c2.1-1.4,4.6-1.8,7.5-1.4c3.1,0.4,5.4,1.7,7,3.7c1.6,2,2.2,4.5,1.7,7.4l-0.1,0.1l-6-0.9
		c0.2-1.6,0-2.9-0.6-3.9c-0.6-1-1.6-1.5-3-1.7c-1.2-0.2-2.1,0.1-2.9,0.8s-1.2,1.6-1.4,2.8c-0.2,1.1,0.1,2,0.7,2.8
		c0.6,0.8,1.8,1.7,3.5,2.8c2.9,1.5,5,3.1,6.4,4.8c1.4,1.8,1.8,4,1.5,6.6c-0.4,2.7-1.6,4.7-3.7,6c-2.1,1.3-4.6,1.7-7.7,1.3
		c-3-0.4-5.4-1.6-7.3-3.6c-1.9-2-2.6-4.7-2-8.1l0.1-0.1l6,0.9c-0.3,2-0.1,3.5,0.6,4.5c0.7,1,1.8,1.6,3.4,1.8c1.3,0.2,2.4,0,3.1-0.7
		S255.8,61,256,59.8z"/>
	<path class="st8" d="M270.4,71.4l-6-1.5l7.6-31.1l6,1.5L270.4,71.4z"/>
	<path class="st8" d="M300.1,69.2c-1.3,3.5-3.3,5.9-6,7.2s-5.7,1.3-9.1,0.1c-3.3-1.2-5.6-3.1-6.9-5.8s-1.3-5.8,0-9.4l3-8.4
		c1.3-3.5,3.3-5.9,6-7.2c2.7-1.3,5.7-1.3,9-0.1c3.3,1.2,5.6,3.2,6.9,5.9c1.3,2.7,1.3,5.9,0,9.4L300.1,69.2z M297.4,58.6
		c0.8-2.2,0.9-4,0.5-5.4c-0.5-1.4-1.6-2.5-3.2-3.1c-1.7-0.6-3.2-0.5-4.4,0.3c-1.3,0.8-2.3,2.3-3.1,4.5l-3.1,8.5
		c-0.8,2.2-1,4.1-0.5,5.5s1.5,2.4,3.2,3.1c1.7,0.6,3.2,0.5,4.5-0.3c1.3-0.8,2.3-2.3,3.1-4.5L297.4,58.6z"/>
	<path class="st8" d="M319.1,92.1l-5.5-2.9l0.8-22.8l-0.1,0l-9.7,17.9l-5.5-2.9l15.2-28.2l5.5,2.9L319,78.9l0.1,0l9.7-18l5.5,2.9
		L319.1,92.1z"/>
	<path class="st8" d="M343.6,92.3l-7.9-5.8l-5.5,7.5l9.5,6.9l-2.8,3.9l-14.5-10.5l18.8-25.9L355.6,79l-2.9,3.9l-9.4-6.9l-4.8,6.6
		l7.9,5.8L343.6,92.3z"/>
</g>
<g>
	<path class="st8" d="M136.8,381.3l0,0.1c-1.5,3.1-3.5,5-5.8,5.7c-2.4,0.7-5.1,0.3-8.1-1.2c-3.1-1.6-5-3.7-5.9-6.4
		c-0.9-2.7-0.5-5.8,1.2-9.1l4.3-8.5c1.7-3.3,3.9-5.4,6.6-6.4c2.7-0.9,5.5-0.6,8.5,0.9c3.1,1.6,5.1,3.6,6,5.9
		c0.9,2.4,0.5,5.1-1.1,8.1l-0.1,0.1l-5.4-2.7c0.9-1.8,1.3-3.3,1-4.3c-0.3-1.1-1.2-2-2.7-2.8c-1.4-0.7-2.7-0.7-3.9-0.1
		c-1.2,0.6-2.3,2-3.4,4.1l-4.3,8.5c-1.1,2.1-1.5,3.8-1.2,5.2s1.1,2.5,2.6,3.2c1.4,0.7,2.5,0.8,3.5,0.4s1.9-1.6,2.9-3.4L136.8,381.3z
		"/>
	<path class="st8" d="M148.5,382.7l-4.3,12.1l-5.8-2.1l10.7-30.1l9,3.2c3,1.1,5.1,2.7,6.2,4.8c1.2,2.2,1.3,4.6,0.3,7.4
		c-0.6,1.6-1.4,2.8-2.5,3.7c-1.1,0.9-2.5,1.4-4.1,1.6c1.4,1.1,2.2,2.4,2.5,3.8c0.3,1.5,0.1,3.1-0.6,4.9l-0.8,2.2
		c-0.3,0.8-0.5,1.8-0.6,2.8c-0.1,1,0,1.8,0.3,2.4l-0.2,0.4l-6-2.1c-0.3-0.6-0.4-1.4-0.2-2.5c0.2-1,0.5-2.1,0.9-3.1l0.7-2.1
		c0.5-1.5,0.6-2.8,0.3-3.9c-0.3-1.1-1.1-1.8-2.3-2.2L148.5,382.7z M150.1,378.1l3.1,1.1c1.3,0.4,2.3,0.4,3.3-0.1s1.6-1.5,2.1-2.9
		c0.5-1.4,0.6-2.6,0.2-3.7c-0.4-1.1-1.2-1.8-2.4-2.2l-3.2-1.1L150.1,378.1z"/>
	<path class="st8" d="M170.2,402.5l-6-1.5l7.7-31.1l6,1.5L170.2,402.5z"/>
	<path class="st8" d="M192.4,398.1c0.2-1.3,0-2.3-0.5-3.1s-1.6-1.7-3.2-2.7c-3.1-1.6-5.3-3.3-6.8-5c-1.4-1.7-1.9-3.8-1.6-6.4
		c0.4-2.6,1.6-4.6,3.7-5.9c2.1-1.4,4.6-1.8,7.5-1.4c3.1,0.5,5.4,1.7,7,3.7c1.6,2,2.2,4.5,1.7,7.4l-0.1,0.1l-6-0.9
		c0.2-1.6,0.1-2.9-0.5-3.9s-1.6-1.5-3-1.7c-1.2-0.2-2.1,0.1-2.9,0.8c-0.8,0.7-1.2,1.6-1.4,2.8c-0.2,1.1,0.1,2,0.7,2.8
		c0.6,0.8,1.8,1.8,3.5,2.8c2.9,1.5,5,3.1,6.4,4.9c1.3,1.8,1.8,4,1.4,6.6c-0.4,2.7-1.6,4.7-3.7,6c-2.1,1.3-4.6,1.7-7.7,1.2
		c-3-0.4-5.4-1.7-7.3-3.6c-1.9-2-2.5-4.7-2-8.1l0.1-0.1l6,0.9c-0.3,2-0.1,3.5,0.6,4.5s1.8,1.6,3.4,1.8c1.3,0.2,2.4,0,3.1-0.7
		C191.7,400.2,192.2,399.3,192.4,398.1z"/>
	<path class="st8" d="M223.7,381l-7.5-0.2l-0.6,27.1l-6.2-0.1l0.6-27.1l-7.3-0.2l0.1-4.9l21,0.5L223.7,381z"/>
	<path class="st8" d="M234.3,407.2l-6.2,0.4l-2.1-31.9l6.2-0.4L234.3,407.2z"/>
	<path class="st8" d="M254.8,397.5l-7.9,1.3l-0.6,7.1l-6.4,1.1l3.7-33l6.3-1.1l14.2,30.1l-6.4,1.1L254.8,397.5z M247.4,393.8
		l5.4-0.9l-4.3-9.6l-0.1,0L247.4,393.8z"/>
	<path class="st8" d="M291,394.8l-5.9,1.9l-15.8-16.4l-0.1,0.1l6.1,19.4l-5.9,1.9l-9.6-30.5l5.9-1.9l15.8,16.4l0.1-0.1l-6.1-19.5
		l5.9-1.9L291,394.8z"/>
	<path class="st8" d="M308.4,379.3l-7.2,3.5l1.4,7l-5.8,2.8l-5.7-32.8l5.8-2.8l22.1,24.9l-5.8,2.8L308.4,379.3z M300.2,377.8
		l4.9-2.4l-6.8-8l-0.1,0.1L300.2,377.8z"/>
</g>
<polygon class="st3" points="160.5,144.1 128.6,182.7 191.4,167.6 "/>
<path class="st3" d="M134.1,185.7l53.3-8.5c0,0,2.5,93.5,4.5,98.6c2,5,13.5,39,13.5,39l-74.8,21l6-128.1L134.1,185.7z"/>
<polygon class="st6" points="178,224.2 248.7,193.2 303.1,224.2 174,233.2 "/>
<line class="st14" x1="160.5" y1="151.7" x2="159.8" y2="106.3"/>
<line class="st14" x1="148.8" y1="122.1" x2="171.2" y2="117.8"/>
<path class="st8" d="M156.2,224.3l16.2-3.6c0,0-2.8-24.9-9.1-23.8C157,198.1,156.2,224.3,156.2,224.3z"/>
<path class="st6" d="M297.6,229.2l-116.1,7l3.5,88.5c0,0,15.8-3.6,36.2-8.2c0.4-16.2,3.3-48.3,19.9-51.1c9.8-1.7,19.5,26.2,24,41.1
	c19.1-4.4,35.9-8.2,42.5-9.8C308.5,287.7,297.6,229.2,297.6,229.2z"/>
<path class="st8" d="M241,265.4c-16.5,2.8-19.5,34.9-19.9,51.1c13.7-3.1,29.4-6.7,43.9-10C260.6,291.6,250.9,263.8,241,265.4z"/>
</svg>
