<?xml version="1.0" encoding="utf-8"?>
<!-- Generator: Adobe Illustrator 22.0.0, SVG Export Plug-In . SVG Version: 6.00 Build 0)  -->
<svg version="1.1" id="Livello_1" xmlns="http://www.w3.org/2000/svg" xmlns:xlink="http://www.w3.org/1999/xlink" x="0px" y="0px"
	 viewBox="0 0 451 445" style="enable-background:new 0 0 451 445;" xml:space="preserve">
<style type="text/css">
	.st0{fill:#2C3E50;stroke:#000000;stroke-miterlimit:10;}
	.st1{fill:#FFF312;}
	.st2{fill:#FFD72E;}
	.st3{fill:#5CA336;}
	.st4{fill:#FDE449;}
	.st5{fill:#0F9328;}
	.st6{fill:#FF900B;}
	.st7{fill:#2C3E50;}
	.st8{fill:#FFFFFF;}
	.st9{fill:#FFFFFF;stroke:url(#);stroke-miterlimit:10;}
	.st10{fill:none;}
	.st11{fill:#FFFFFF;stroke:#000000;stroke-miterlimit:10;}
	.st12{fill:none;stroke:#000000;stroke-miterlimit:10;}
	.st13{fill:#F9D10D;}
	.st14{fill:none;stroke:#FFFFFF;stroke-width:2;stroke-miterlimit:10;}
</style>
<rect x="-1783.3" y="-143.7" class="st0" width="2398.6" height="1127.1"/>
<g>
	<path class="st8" d="M159.2,74.7l4.9,11.9l-5.7,2.4l-12.2-29.5l8.8-3.7c2.9-1.2,5.6-1.4,7.9-0.6c2.3,0.8,4,2.6,5.2,5.3
		c0.6,1.5,0.8,3,0.6,4.4c-0.2,1.4-0.9,2.7-2,4c1.8-0.1,3.2,0.3,4.4,1.2s2.1,2.3,2.9,4l0.9,2.2c0.3,0.8,0.8,1.7,1.4,2.5
		c0.6,0.8,1.2,1.4,1.8,1.6l0.2,0.4l-5.9,2.5c-0.7-0.2-1.2-0.8-1.8-1.7s-1-1.9-1.4-2.9l-0.9-2.1c-0.6-1.5-1.4-2.5-2.4-3.1
		s-2-0.6-3.2-0.1L159.2,74.7z M157.4,70.2l3.1-1.3c1.2-0.5,2-1.3,2.4-2.3s0.2-2.2-0.3-3.5c-0.6-1.4-1.3-2.3-2.3-2.9
		c-1-0.5-2.1-0.6-3.3-0.1l-3.1,1.3L157.4,70.2z"/>
	<path class="st8" d="M192.5,69.7l-7.7,2l0,7.2l-6.2,1.6l0.6-33.2l6.2-1.6l16.9,28.6l-6.3,1.6L192.5,69.7z M184.7,66.7l5.3-1.4
		l-5.2-9.1l-0.1,0L184.7,66.7z"/>
	<path class="st8" d="M203.8,74.1L200,42.4l9.8-1.2c3.3-0.4,6.2,0.5,8.7,2.7s3.9,5.3,4.4,9.2l0.6,5.3c0.5,3.9-0.2,7.2-2.1,9.9
		c-1.9,2.7-4.5,4.3-7.8,4.7L203.8,74.1z M206.8,46.5l2.6,22.1l3.6-0.4c1.6-0.2,2.8-1.1,3.6-2.8c0.8-1.7,1-3.8,0.7-6.3l-0.6-5.3
		c-0.3-2.5-1-4.4-2.2-5.9c-1.2-1.5-2.5-2.1-4.1-1.9L206.8,46.5z"/>
	<path class="st8" d="M235.2,71.6l-6.2,0.1l-0.6-32l6.2-0.1L235.2,71.6z"/>
	<path class="st8" d="M261.5,63.2l0,0.1c-0.2,3.4-1.3,5.9-3.2,7.5c-1.9,1.6-4.6,2.2-7.9,1.9c-3.4-0.3-6.1-1.5-7.9-3.7
		c-1.9-2.2-2.6-5.1-2.3-8.9l0.8-9.5c0.3-3.7,1.5-6.5,3.6-8.4c2.1-1.9,4.8-2.7,8.1-2.4c3.5,0.3,6.1,1.3,7.8,3.2
		c1.7,1.8,2.4,4.5,2.1,7.9l-0.1,0.1l-6-0.5c0.2-2-0.1-3.5-0.7-4.4c-0.7-0.9-1.8-1.4-3.5-1.5c-1.5-0.1-2.8,0.3-3.6,1.4
		c-0.9,1.1-1.4,2.7-1.6,5l-0.8,9.5c-0.2,2.3,0.1,4.1,0.8,5.3c0.7,1.2,2,1.8,3.6,2c1.5,0.1,2.7-0.2,3.4-0.9c0.7-0.8,1.2-2.2,1.4-4.2
		L261.5,63.2z"/>
	<path class="st8" d="M278.9,69.9l-7.8-1.7l-3.2,6.4l-6.3-1.4l15.7-29.3l6.3,1.4l2,33.2l-6.3-1.4L278.9,69.9z M273.4,63.7l5.3,1.2
		l-0.4-10.5l-0.1,0L273.4,63.7z"/>
	<path class="st8" d="M311.4,58.9l-7.1-2.4l-8.8,25.7l-5.9-2l8.8-25.7l-6.9-2.4l1.6-4.6l19.9,6.8L311.4,58.9z"/>
	<path class="st8" d="M310.7,88.4l-5.6-2.5l13.1-29.2l5.6,2.5L310.7,88.4z"/>
</g>
<g>
	<path class="st8" d="M96.9,368.4l-4.6-4.1l6.1-22l-0.1-0.1l-13.6,15.2l-4.6-4.1l21.3-23.8l4.6,4.1l-6.1,22l0.1,0.1l13.6-15.2
		l4.6,4.1L96.9,368.4z"/>
	<path class="st8" d="M124.1,370.3l-8.1-5.5l-5.2,7.7l9.7,6.6l-2.7,4L103,372.9l18.1-26.4l14.7,10.1l-2.7,4l-9.6-6.6l-4.6,6.7
		l8.1,5.5L124.1,370.3z"/>
	<path class="st8" d="M130.9,384.8l10.6,5.6l-2.2,4.3l-16-8.4l14.9-28.3l5.5,2.9L130.9,384.8z"/>
	<path class="st8" d="M181.7,381.3l-7.1-2.3l-8.4,25.8l-5.9-1.9l8.4-25.8l-7-2.3l1.5-4.6l20,6.5L181.7,381.3z"/>
	<path class="st8" d="M197,397.6l-9.6-1.9l-1.8,9.1l11.5,2.3l-0.9,4.7l-17.6-3.5l6.2-31.4l17.5,3.5l-0.9,4.8l-11.4-2.3l-1.6,8
		l9.6,1.9L197,397.6z"/>
	<path class="st8" d="M209.6,400.4l-0.9,12.8l-6.2-0.4l2.3-31.9l9.6,0.7c3.2,0.2,5.6,1.2,7.3,3c1.7,1.8,2.4,4.1,2.2,7.1
		c-0.1,1.7-0.6,3.1-1.5,4.2c-0.9,1.2-2,2-3.5,2.7c1.6,0.7,2.8,1.7,3.4,3c0.6,1.3,0.9,3,0.7,4.9l-0.2,2.3c-0.1,0.9,0,1.8,0.1,2.8
		c0.1,1,0.4,1.7,0.9,2.2l0,0.5l-6.4-0.5c-0.5-0.5-0.7-1.3-0.8-2.4s-0.1-2.1,0-3.2l0.2-2.2c0.1-1.6-0.1-2.9-0.7-3.8
		c-0.6-0.9-1.5-1.5-2.8-1.5L209.6,400.4z M209.9,395.5l3.3,0.2c1.3,0.1,2.4-0.2,3.1-1c0.8-0.7,1.2-1.8,1.3-3.3
		c0.1-1.5-0.2-2.7-0.8-3.6c-0.6-0.9-1.6-1.4-2.9-1.5l-3.4-0.2L209.9,395.5z"/>
	<path class="st8" d="M235.3,401l0.7,12.8l-6.2,0.4l-1.9-31.9l9.6-0.6c3.2-0.2,5.7,0.5,7.6,2s3,3.8,3.1,6.8c0.1,1.7-0.2,3.1-0.9,4.4
		c-0.7,1.3-1.8,2.3-3.2,3.1c1.7,0.5,3,1.3,3.8,2.6c0.8,1.2,1.3,2.8,1.4,4.8l0.1,2.3c0.1,0.9,0.2,1.8,0.5,2.8s0.7,1.7,1.2,2.1l0,0.5
		l-6.4,0.4c-0.5-0.4-0.9-1.2-1.1-2.2c-0.2-1.1-0.3-2.1-0.4-3.2l-0.1-2.2c-0.1-1.6-0.5-2.9-1.2-3.7c-0.7-0.9-1.7-1.2-3-1.2L235.3,401
		z M235,396.2l3.3-0.2c1.3-0.1,2.3-0.5,3-1.4c0.6-0.8,0.9-2,0.8-3.4c-0.1-1.5-0.5-2.7-1.2-3.5s-1.8-1.2-3.1-1.1l-3.4,0.2L235,396.2z
		"/>
	<path class="st8" d="M263,411l-6.1,1l-4.9-31.6l6.1-1L263,411z"/>
	<path class="st8" d="M281.4,379l-7.3,1.8l6.5,26.3l-6,1.5l-6.5-26.3l-7.1,1.8l-1.2-4.7l20.4-5.1L281.4,379z"/>
	<path class="st8" d="M309.7,384.9c1.4,3.5,1.4,6.6,0.2,9.4s-3.5,4.7-6.8,6c-3.3,1.3-6.3,1.3-9,0.1c-2.7-1.2-4.8-3.6-6.1-7.1
		l-3.2-8.3c-1.4-3.5-1.4-6.6-0.3-9.4c1.2-2.7,3.4-4.8,6.7-6c3.3-1.3,6.3-1.3,9.1-0.1c2.8,1.2,4.8,3.6,6.2,7.1L309.7,384.9z
		 M300.7,378.8c-0.8-2.2-1.9-3.6-3.2-4.4c-1.3-0.8-2.8-0.8-4.5-0.2c-1.7,0.7-2.7,1.7-3.1,3.1c-0.4,1.4-0.2,3.2,0.6,5.4l3.3,8.4
		c0.9,2.2,1.9,3.7,3.2,4.5c1.3,0.8,2.8,0.8,4.4,0.2c1.7-0.7,2.7-1.7,3.2-3.1c0.4-1.4,0.2-3.3-0.6-5.5L300.7,378.8z"/>
	<path class="st8" d="M319.4,378.3l6.3,11.2l-5.4,3l-15.6-27.9l8.4-4.7c2.8-1.5,5.4-2,7.8-1.5c2.4,0.6,4.3,2.1,5.8,4.7
		c0.8,1.4,1.2,2.9,1.1,4.3c-0.1,1.4-0.6,2.8-1.5,4.2c1.7-0.3,3.2-0.1,4.5,0.7c1.3,0.8,2.4,2,3.3,3.7l1.1,2c0.4,0.8,1,1.5,1.6,2.3
		s1.3,1.2,2,1.3l0.2,0.4l-5.6,3.1c-0.7-0.2-1.3-0.7-2-1.5c-0.6-0.9-1.2-1.8-1.7-2.7l-1.1-2c-0.8-1.4-1.7-2.4-2.7-2.8
		s-2.1-0.4-3.2,0.2L319.4,378.3z M317.1,374.1l2.9-1.6c1.2-0.6,1.9-1.5,2.1-2.5s0-2.2-0.7-3.5c-0.7-1.3-1.6-2.2-2.6-2.6
		c-1-0.4-2.1-0.3-3.3,0.3l-3,1.6L317.1,374.1z"/>
	<path class="st8" d="M348.7,375.2l-5.1,3.5l-18.2-26.3l5.1-3.5L348.7,375.2z"/>
	<path class="st8" d="M364.5,347.5c2.4,2.9,3.6,5.8,3.3,8.8c-0.2,3-1.7,5.6-4.4,7.9s-5.5,3.3-8.5,3.1s-5.7-1.8-8.1-4.6l-5.8-6.8
		c-2.4-2.8-3.6-5.8-3.3-8.8c0.2-3,1.7-5.6,4.3-7.9s5.5-3.3,8.5-3.1c3,0.2,5.7,1.8,8.2,4.6L364.5,347.5z M353.9,344.7
		c-1.5-1.8-3-2.8-4.5-3.1s-2.9,0.2-4.3,1.3c-1.4,1.2-2,2.5-1.9,4c0.1,1.5,0.9,3.1,2.4,4.9l5.8,6.8c1.5,1.8,3,2.9,4.5,3.2
		c1.5,0.3,2.9-0.1,4.3-1.3c1.4-1.2,2-2.5,2-4c-0.1-1.5-0.9-3.2-2.4-5L353.9,344.7z"/>
</g>
<path id="path4_1_" class="st4" d="M352.2,126.7c-6.2-5.6-32.5-3.2-37.1,1.2c-1.2,1.1-1.3,5.3-0.9,6.4c0.4,1.1,0.7,4,0,5.4
	c0,0-7.2,16.3-13.5,24.7l0-0.6c0,0.1,0.1,0.3,0.1,0.4c-14.3-3.2-26.4,1.4-38.2,13.3c0,0-5.2,0.3-8.5,5c-1.3,1.7-3,6.7-4.6,8.5
	c-9.8,5.2-13.2,13.6-18.9-2.7c-5.4-15.5-6.5-15.8,3.5-26.8c1-3.9,1.2-8.4,0.3-12.6c0.5,0.1-0.8-1.8-1-2.6c-1-2.7,0.4-4.2,1.3-7
	c0.8-2.5,0.7-3.4-0.1-5.9c-1.1-3.5-1.1-6.2-4.6-7.6c-15.3-3.1-26.3,0.5-34.4,11.3c-11.3,15.1-40.3-4.3-55.9-0.7
	c-7.1,1.6-21.2,11.3-16.9,9.4v0.1c0,0-1-0.2-1.2,0.1c-7.6,8.8-5.4,17-14.8,18.9c-0.2-1-0.4-1-0.5,0.1c-2.4-1.2-4.1-0.1-5,2.3v0.5
	c8.8,36.8-1.9,41.9-10.8,86c-1.7,8.4,5.5,7.7,7.3,15.9c1,4.5,2.6,6.4,0.7,10.7c-1,2.2-2.6,2-2.6,3.9c0,14.9,10.9,28.5,29.7,17.6
	c5.8-3.2,11.8-9.1,18.4-8.1c1.5,0.2,2.6,4.2,4.4,4.4c9.5,1,25.7,6.4,24.2,14.7c-0.2,0.9-2.2,5.4-1.6,6.6c5.9,12,24.3,12.4,25,10
	c0.9-2.9,18.9-1,23.9,3.8c1.1-0.6,2.1-1.2,3-2c2.5-6.4,18.7-44.6,20-45.6c2.9-2.4,8.4-7.1,9.7-8.7c1.1-1.4,10.6-5.6,10.8-7.7
	c1.1-9.6,12.3-14,29.2-16c8.5-2.3,21.8,7.4,22.3,11.7c11.8,0,14.3-4.9,7.4-14.3c1.4-3.7,5.4-16.7,6.5-18.2c2.1-3.7,5.5-5,9.8-4
	c0,0,11.1,1.3,12.7-0.7c0,0,13.5-2.7,15.7-7.3c3.4-2.4,5.1-5.7,5.2-9.9c9.6-1.2-0.5-2-3.4-11.9c-0.8-2.6,4.4-3.8,3.8-6.3
	c-1.6-6.3-24.4-11.8-25.9-25.2c-0.1-0.8,0-2.7,1.2-4.7C347.8,162,363,138.1,352.2,126.7L352.2,126.7z"/>
<path class="st6" d="M144.8,171c16.7,1.9,26.9,3.8,48-0.1c-19,17.4-21.9,27.4-11.2,51.5c-10.7-4.3-28.6,0.9-37,3.7
	C154.9,204.4,151,184.4,144.8,171z"/>
<ellipse transform="matrix(9.432475e-02 -0.9955 0.9955 9.432475e-02 -10.241 313.6048)" class="st6" cx="167.2" cy="162.4" rx="8.3" ry="9.6"/>
<path class="st7" d="M171.8,248.5c16.7,1.9,26.9,3.8,48-0.1c-10.7,17.3-13.9,33.3-11.2,51.5c-10.7-4.3-31.5-7-39.8-4.2
	C184.2,277.8,178,261.8,171.8,248.5z"/>
<ellipse transform="matrix(9.432475e-02 -0.9955 0.9955 9.432475e-02 -60.8223 411.5363)" class="st7" cx="195.8" cy="239.2" rx="9" ry="10.9"/>
<path class="st3" d="M299.5,204.4c-16.7,1.9-27,3.8-48.3-0.2c10.7,17.7,8.9,36.3,6.2,54.9c10.7-4.4,25.4-12.5,41.4-6.2
	C288.6,230.7,289.1,219.6,299.5,204.4z"/>
<ellipse transform="matrix(0.9955 -9.432478e-02 9.432478e-02 0.9955 -17.2194 26.911)" class="st3" cx="276.1" cy="195.6" rx="11.3" ry="8.6"/>
</svg>
