<?xml version="1.0" encoding="utf-8"?>
<!-- Generator: Adobe Illustrator 22.0.0, SVG Export Plug-In . SVG Version: 6.00 Build 0)  -->
<svg version="1.1" id="Livello_1" xmlns="http://www.w3.org/2000/svg" xmlns:xlink="http://www.w3.org/1999/xlink" x="0px" y="0px"
	 viewBox="0 0 451 445" style="enable-background:new 0 0 451 445;" xml:space="preserve">
<style type="text/css">
	.st0{fill:#2C3E50;stroke:#000000;stroke-miterlimit:10;}
	.st1{fill:#FFF312;}
	.st2{fill:#FFD72E;}
	.st3{fill:#5CA336;}
	.st4{fill:#FDE449;}
	.st5{fill:#0F9328;}
	.st6{fill:#FF900B;}
	.st7{fill:#2C3E50;}
	.st8{fill:#FFFFFF;}
	.st9{fill:#FFFFFF;stroke:url(#);stroke-miterlimit:10;}
	.st10{fill:none;}
	.st11{fill:#FFFFFF;stroke:#000000;stroke-miterlimit:10;}
	.st12{fill:none;stroke:#000000;stroke-miterlimit:10;}
	.st13{fill:#F9D10D;}
	.st14{fill:none;stroke:#FFFFFF;stroke-width:2;stroke-miterlimit:10;}
</style>
<path class="st10" d="M243.9,266c60.4-9.7,89.1-20.5,100.8-31H115.9C120.1,258.4,146.4,281.6,243.9,266z"/>
<g>
	<path d="M101.4,110.2l-7.1,7.3l9.6,9.4l-4.3,4.4l-22.9-22.4l12.8-13.1l3.5,3.4l-8.4,8.6l6.4,6.2l7.1-7.3L101.4,110.2z"/>
	<path d="M117.9,95.4l-7.6,6.1l5.8,7.2l9.1-7.4l3,3.8l-13.9,11.2L94.3,91.5l13.9-11.2l3,3.8l-9.1,7.3l5.1,6.4l7.6-6.1L117.9,95.4z"
		/>
	<path d="M130.7,103.4L114,76.1l8.4-5.2c2.8-1.7,5.9-2.1,9-1.1c3.2,1,5.8,3.1,7.8,6.5l2.8,4.5c2.1,3.3,2.8,6.6,2.2,9.9
		c-0.6,3.3-2.3,5.8-5.1,7.5L130.7,103.4z M121.8,77l11.7,19l3.1-1.9c1.4-0.8,2-2.2,2.1-4s-0.6-3.9-2-6l-2.8-4.6
		c-1.3-2.1-2.8-3.6-4.4-4.4c-1.7-0.8-3.2-0.8-4.5,0L121.8,77z"/>
	<path d="M160.8,71.3l-8.9,4l3.8,8.5l10.7-4.8l2,4.4L152,90.7L139,61.5l16.3-7.3l2,4.4l-10.6,4.8l3.3,7.5l8.9-4L160.8,71.3z"/>
	<path d="M177.3,80.4l-0.8,7.5l-3.9,1.4l-1-7l-1.7-4.9l5.7-2L177.3,80.4z"/>
	<path d="M209.1,63l0.1,0.1c0.7,3.4,0.3,6-1.2,8c-1.5,2-3.9,3.3-7.2,3.9c-3.4,0.6-6.3,0.1-8.6-1.5c-2.4-1.6-3.9-4.3-4.5-8l-1.7-9.3
		c-0.7-3.7-0.2-6.7,1.3-9c1.6-2.4,4-3.8,7.2-4.4c3.4-0.6,6.2-0.3,8.4,1.1c2.1,1.3,3.5,3.7,4.1,7.1l0,0.1l-5.9,1.1
		c-0.4-2-1-3.4-1.8-4s-2.1-0.9-3.8-0.6c-1.5,0.3-2.6,1-3.1,2.3c-0.6,1.2-0.6,3-0.2,5.3l1.7,9.4c0.4,2.3,1.1,3.9,2.2,4.9
		c1,1,2.4,1.3,4,1c1.5-0.3,2.5-0.9,3-1.8c0.5-0.9,0.6-2.4,0.2-4.5L209.1,63z"/>
	<path d="M234.8,39.6l0.8,20.9c0.1,3.6-0.8,6.5-2.8,8.6c-2,2.1-4.7,3.2-8,3.4c-3.3,0.1-6.1-0.8-8.2-2.7c-2.2-2-3.3-4.7-3.5-8.4
		l-0.8-20.9l6.2-0.2l0.8,20.9c0.1,2.2,0.6,3.8,1.6,4.9c1,1.1,2.2,1.6,3.8,1.6c1.6-0.1,2.8-0.7,3.7-1.9c0.9-1.2,1.2-2.9,1.2-5.1
		l-0.8-20.9L234.8,39.6z"/>
	<path d="M246.4,67.6l11.9,1.1l-0.4,4.8l-18.1-1.6l2.9-31.9l6.2,0.6L246.4,67.6z"/>
	<path d="M278.6,49.8l-7.4-1.3l-4.8,26.7l-6.1-1.1l4.8-26.7l-7.2-1.3l0.9-4.8l20.7,3.7L278.6,49.8z"/>
	<path d="M306.9,53.4l-6.4,19.9c-1.1,3.5-3,5.8-5.6,7.1s-5.5,1.4-8.7,0.4c-3.2-1-5.4-2.8-6.8-5.4s-1.5-5.6-0.4-9l6.4-19.9l5.9,1.9
		l-6.4,19.9c-0.7,2.1-0.7,3.8-0.2,5.2s1.5,2.3,3,2.8c1.5,0.5,2.9,0.3,4.1-0.5s2.1-2.3,2.8-4.4l6.4-19.9L306.9,53.4z"/>
	<path d="M311.6,76.5L306,88l-5.6-2.7l14-28.7l8.6,4.2c2.9,1.4,4.7,3.2,5.7,5.5c0.9,2.3,0.7,4.8-0.6,7.4c-0.7,1.5-1.7,2.6-2.9,3.4
		c-1.2,0.8-2.6,1.1-4.3,1.2c1.3,1.2,1.9,2.6,2,4.1s-0.3,3.1-1.1,4.8l-1,2.1c-0.4,0.8-0.7,1.7-1,2.7c-0.2,1-0.2,1.8,0,2.4l-0.2,0.4
		l-5.8-2.8c-0.3-0.6-0.2-1.5,0.1-2.5c0.3-1,0.7-2,1.2-2.9l1-2c0.7-1.5,1-2.7,0.7-3.8c-0.2-1.1-0.9-1.9-2-2.5L311.6,76.5z
		 M313.7,72.1l3,1.5c1.2,0.6,2.3,0.7,3.3,0.3c1-0.4,1.8-1.3,2.4-2.6c0.7-1.3,0.9-2.6,0.6-3.7s-0.9-1.9-2.1-2.5l-3-1.5L313.7,72.1z"
		/>
	<path d="M337.4,98.1l-6.7-4.4l-5.3,4.8l-5.4-3.6l25.3-21.6l5.3,3.6l-10.2,31.6l-5.4-3.6L337.4,98.1z M334.5,90.3l4.5,3l3.4-9.9
		l-0.1-0.1L334.5,90.3z"/>
	<path d="M346.6,114l-4.7-3.9l3.5-4.3l4.7,3.9L346.6,114z"/>
	<path d="M355.1,121.7l-4.5-4.2l3.8-4.1l4.5,4.2L355.1,121.7z"/>
	<path d="M363.1,129.9l-4.2-4.5l4.1-3.8l4.2,4.5L363.1,129.9z"/>
</g>
<g>
	<path d="M139.9,400.8l-5.6-2.4l2.2-5.1l5.6,2.4L139.9,400.8z"/>
	<path d="M152.3,405.4l-5.8-2l1.8-5.2l5.8,2L152.3,405.4z"/>
	<path d="M165,409.3l-5.9-1.7l1.5-5.3l5.9,1.7L165,409.3z"/>
	<path d="M180.5,413.2c-3.1-0.6-5.3-2.1-6.6-4.6c-1.3-2.5-1.6-5.4-1-8.7l0.2-0.9c0.7-3.5,2-6.2,4.1-8.1c2.1-1.9,4.6-2.6,7.5-2
		c2.7,0.5,4.7,1.9,5.8,4c1.1,2.2,1.4,4.9,0.7,8.1l-0.6,3.3l-11.8-2.2c-0.2,1.7-0.1,3.2,0.4,4.3c0.5,1.2,1.4,1.9,2.9,2.1
		c1.2,0.2,2.2,0.3,3.1,0.2c0.9-0.1,1.8-0.4,2.9-0.8l0.9,4.1c-1,0.6-2.2,1-3.7,1.3C183.7,413.6,182.1,413.5,180.5,413.2z
		 M183.9,393.7c-1-0.2-1.9,0.1-2.5,0.9c-0.7,0.8-1.2,2-1.6,3.5l5.8,1.1l0.1-0.5c0.3-1.4,0.3-2.6,0-3.4
		C185.4,394.4,184.8,393.9,183.9,393.7z"/>
	<path d="M215.5,408.1l0.2,1.3l0.1,0l0.3-1.3l5.9-23.8l6.5,0.1l-9.7,31.8l-6.4-0.1l-8.6-32.1l6.5,0.1L215.5,408.1z"/>
	<path d="M239.2,415.4l-6.2,0.5l-2.6-31.9l6.2-0.5L239.2,415.4z"/>
	<path d="M260,384.9l-7.4,1.3l4.5,26.8l-6.1,1l-4.5-26.8l-7.2,1.2l-0.8-4.8l20.8-3.5L260,384.9z"/>
	<path d="M279.7,400.1l-7.7,2.2l0.2,7.1l-6.2,1.8l-0.3-33.3l6.2-1.8l17.7,28.1l-6.2,1.8L279.7,400.1z M271.9,397.3l5.2-1.5l-5.4-9
		l-0.1,0L271.9,397.3z"/>
	<path d="M295.4,389.9l-5.8,2.3l-7.8-19.4l5.8-2.3L295.4,389.9z M299.5,400.2l-5.7,2.3l-2.1-5.2l5.7-2.3L299.5,400.2z"/>
</g>
<path class="st5" d="M135.5,201.7c0,0-75.5,5.5-84.1,8.6c7.1,26.7,18.9,123.4,18.9,123.4s263.3-37.7,289.2-38.5
	c-1.6-55.8-11.8-125-11.8-125L135.5,201.7z"/>
<path class="st11" d="M82.8,307.1c-3.1-47.2-17.3-92.7-13.4-113.2c51.1-14.1,114-14.1,131.3-11.8c24.4-12.6,110-29.1,128.9-28.3
	c2.4,25.2,14.1,110,14.1,117.1c-39.3-3.1-104.5,22-120.3,33C195.2,298.4,100.9,300,82.8,307.1z"/>
<line class="st11" x1="201.5" y1="189.9" x2="218.8" y2="291.3"/>
<path class="st12" d="M94.2,214.3c0.5-0.9,9.2-1.4,10.9-1.9c6.2-1.7,8.5-0.6,14.4-1.2c3.9-0.4,6.9-3.7,10.3-4
	c3.5-0.3,6.7,1,10.4,0.6c5.4-0.7,10.7-1,15.8-1.8c8.9-1.3,13.8,4.8,22.9,1.5"/>
<path class="st12" d="M94.5,223.1c0.5-0.9,9.2-1.4,10.9-1.9c6.2-1.7,8.5-0.6,14.4-1.2c3.9-0.4,6.9-3.7,10.3-4
	c3.5-0.3,6.7,1,10.4,0.6c5.4-0.7,10.7-1,15.8-1.8c8.9-1.3,13.8,4.8,22.9,1.5"/>
<path class="st12" d="M94.7,232c1-1.7,12.5-2.4,14.6-2.7c3.6-0.5,7.2,0.2,10.8-0.4c4-0.7,7-3.7,11.1-4.1c4.2-0.4,8.3,0.7,12.6,0.2
	c4.5-0.5,9.1-1.2,13.7-1.5c7.6-0.5,14.4,4.3,22,1.6"/>
<path class="st12" d="M102,261.7c0.5-0.9,9.2-1.4,10.9-1.9c6.2-1.7,8.5-0.6,14.4-1.2c3.9-0.4,6.9-3.7,10.3-4c3.5-0.3,6.7,1,10.4,0.6
	c5.4-0.7,10.7-1,15.8-1.8c8.9-1.3,13.8,4.8,22.9,1.5"/>
<path class="st12" d="M102.5,270.3c0.5-0.9,9.2-1.4,10.9-1.9c6.2-1.7,8.5-0.6,14.4-1.2c3.9-0.4,6.9-3.7,10.3-4
	c3.5-0.3,6.7,1,10.4,0.6c5.4-0.7,10.7-1,15.8-1.8c8.9-1.3,13.8,4.8,22.9,1.5"/>
<path class="st12" d="M104.5,279.8c0.5-0.9,9.2-1.4,10.9-1.9c6.2-1.7,8.5-0.6,14.4-1.2c3.9-0.4,6.9-3.7,10.3-4
	c3.5-0.3,6.7,1,10.4,0.6c5.4-0.7,10.7-1,15.8-1.8c8.9-1.3,13.8,4.8,22.9,1.5"/>
<path class="st12" d="M98,241.5c0.5-0.9,9.2-1.4,10.9-1.9c6.2-1.7,8.5-0.6,14.4-1.2c3.9-0.4,6.9-3.7,10.3-4c3.5-0.3,6.7,1,10.4,0.6
	c5.4-0.7,10.7-1,15.8-1.8c8.9-1.3,13.8,4.8,22.9,1.5"/>
<path class="st12" d="M319.5,241.1c-0.4,1-8.8,3-10.4,3.8c-5.8,2.8-8.3,2.1-14,3.8c-3.8,1.1-6.1,4.9-9.4,5.8
	c-3.4,0.9-6.8,0.2-10.4,1.3c-5.2,1.6-10.4,2.9-15.2,4.6c-8.5,2.8-14.5-2.2-22.8,2.6"/>
<path class="st12" d="M311.6,191.9c-0.4,1-8.8,3-10.4,3.8c-5.8,2.8-8.3,2.1-14,3.8c-3.8,1.1-6.1,4.9-9.4,5.8
	c-3.4,0.9-6.8,0.2-10.4,1.3c-5.2,1.6-10.4,2.9-15.2,4.6c-8.5,2.8-14.5-2.2-22.8,2.6"/>
<path class="st12" d="M315,223.1c-0.4,1-8.8,3-10.4,3.8c-5.8,2.8-8.3,2.1-14,3.8c-3.8,1.1-6.1,4.9-9.4,5.8
	c-3.4,0.9-6.8,0.2-10.4,1.3c-5.2,1.6-10.4,2.9-15.2,4.6c-8.5,2.8-14.5-2.2-22.8,2.6"/>
<path class="st12" d="M100.5,251.6c0.5-0.9,9.2-1.4,10.9-1.9c6.2-1.7,8.5-0.6,14.4-1.2c3.9-0.4,6.9-3.7,10.3-4
	c3.5-0.3,6.7,1,10.4,0.6c5.4-0.7,10.7-1,15.8-1.8c8.9-1.3,13.8,4.8,22.9,1.5"/>
<path class="st12" d="M317.5,233.9c-1.4,3.5-29.2,11.1-34.1,12.5c-13.6,3.9-36.7,0.8-48.6,7.2"/>
<path class="st12" d="M314.3,215.1c-1.5,3.7-26.6,9.1-29.7,10c-15,4.2-39.9,2.7-53,9.8"/>
<path class="st12" d="M313.4,204.6c-0.4,1-8.9,2.8-10.5,3.6c-5.9,2.7-8.3,1.9-14.1,3.4c-3.8,1-6.3,4.8-9.5,5.6
	c-3.4,0.8-6.8,0-10.4,1.1c-5.2,1.5-10.4,2.7-15.3,4.2c-8.6,2.6-14.4-2.6-22.9,2"/>
<path class="st6" d="M297.8,183.1c8.4-45.1,25.6-76.3,36.9-74.6c9.2,1.4,1.5,66.8,3,75.4c24.2-1.1,93.4,12,93.9,21.3
	c0.5,9.3-88.1,14.1-98.4,14.5c-6.4,25-23.7,151.4-44.3,147.9c-22.6-3.9,1.8-148.5,1.8-148.5c-20.1-2-73.6-3.2-73.4-17.1
	C217.5,186.9,279.7,180.5,297.8,183.1z"/>
<g>
	<circle class="st1" cx="98" cy="289.3" r="49.5"/>
	<path class="st2" d="M89.8,219.7c-4.2,0.4-10,17.9-7.6,16.7c3-1.4,14.9-2.9,18.7-2.5C104.3,234.3,94.2,219.3,89.8,219.7z"/>
	<path class="st2" d="M125.7,225.2c-3.8-1.7-17.6,10.5-15,10.7c3.3,0.2,14.3,5,17.4,7.2C131,245.1,129.7,227,125.7,225.2z"/>
	<path class="st2" d="M154,247.9c-2.5-3.4-20.5,0.3-18.3,1.8c2.7,1.8,9.9,11.5,11.5,14.9C148.7,267.7,156.6,251.4,154,247.9z"/>
	<path class="st2" d="M167.2,281.7c-0.4-4.2-17.9-10-16.7-7.6c1.4,3,2.9,14.9,2.5,18.7C152.7,296.2,167.7,286,167.2,281.7z"/>
	<path class="st2" d="M161.7,317.6c1.7-3.8-10.5-17.6-10.7-15c-0.2,3.3-5,14.3-7.2,17.4C141.9,322.9,160,321.6,161.7,317.6z"/>
	<path class="st2" d="M139.1,345.9c3.4-2.5-0.3-20.5-1.8-18.3c-1.8,2.7-11.5,9.9-14.9,11.5C119.3,340.6,135.5,348.5,139.1,345.9z"/>
	<path class="st2" d="M105.2,359.1c4.2-0.4,10-17.9,7.6-16.7c-3,1.4-14.9,2.9-18.7,2.5C90.8,344.6,100.9,359.6,105.2,359.1z"/>
	<path class="st2" d="M69.4,353.6c3.8,1.7,17.6-10.5,15-10.7c-3.3-0.2-14.3-5-17.4-7.2C64.1,333.8,65.4,351.9,69.4,353.6z"/>
	<path class="st2" d="M41.1,330.9c2.5,3.4,20.5-0.3,18.3-1.8c-2.7-1.8-9.9-11.5-11.5-14.9C46.4,311.1,38.5,327.4,41.1,330.9z"/>
	<path class="st2" d="M27.9,297.1c0.4,4.2,17.9,10,16.7,7.6c-1.4-3-2.9-14.9-2.5-18.7C42.4,282.6,27.4,292.8,27.9,297.1z"/>
	<path class="st2" d="M33.4,261.3c-1.7,3.8,10.5,17.6,10.7,15c0.2-3.3,5-14.3,7.2-17.4C53.2,256,35.1,257.3,33.4,261.3z"/>
	<path class="st2" d="M56,232.9c-3.4,2.5,0.3,20.5,1.8,18.3c1.8-2.7,11.5-9.9,14.9-11.5C75.8,238.3,59.5,230.4,56,232.9z"/>
</g>
</svg>
