<?xml version="1.0" encoding="utf-8"?>
<!-- Generator: Adobe Illustrator 22.0.0, SVG Export Plug-In . SVG Version: 6.00 Build 0)  -->
<svg version="1.1" id="Livello_1" xmlns="http://www.w3.org/2000/svg" xmlns:xlink="http://www.w3.org/1999/xlink" x="0px" y="0px"
	 viewBox="0 0 451 445" style="enable-background:new 0 0 451 445;" xml:space="preserve">
<style type="text/css">
	.st0{fill:#2C3E50;stroke:#000000;stroke-miterlimit:10;}
	.st1{fill:#FFF312;}
	.st2{fill:#FFD72E;}
	.st3{fill:#5CA336;}
	.st4{fill:#FDE449;}
	.st5{fill:#0F9328;}
	.st6{fill:#FF900B;}
	.st7{fill:#2C3E50;}
	.st8{fill:#FFFFFF;}
	.st9{fill:#FFFFFF;stroke:url(#);stroke-miterlimit:10;}
	.st10{fill:none;}
	.st11{fill:#FFFFFF;stroke:#000000;stroke-miterlimit:10;}
	.st12{fill:none;stroke:#000000;stroke-miterlimit:10;}
	.st13{fill:#F9D10D;}
	.st14{fill:none;stroke:#FFFFFF;stroke-width:2;stroke-miterlimit:10;}
</style>
<g>
	<path d="M75.7,144.6c3.1,2.1,4.9,4.7,5.4,7.6c0.5,2.9-0.2,5.9-2.2,8.8c-2,2.9-4.5,4.6-7.4,5.2c-2.9,0.5-6-0.3-9-2.4l-7.3-5.1
		c-3.1-2.1-4.9-4.7-5.5-7.6s0.2-5.9,2.2-8.8c2-2.9,4.5-4.6,7.5-5.2c3-0.5,6,0.3,9.1,2.4L75.7,144.6z M64.8,144.6
		c-1.9-1.3-3.6-1.9-5.1-1.8c-1.5,0.1-2.8,0.9-3.8,2.4c-1,1.5-1.3,2.9-0.9,4.4c0.5,1.4,1.6,2.8,3.6,4.1l7.4,5.1c2,1.3,3.7,2,5.2,1.9
		c1.5-0.1,2.8-0.9,3.8-2.3c1-1.5,1.3-2.9,0.9-4.4c-0.4-1.4-1.6-2.8-3.6-4.2L64.8,144.6z"/>
	<path d="M88.5,127.6l-6.8,7.5l9.9,9l-4.2,4.6l-23.7-21.5L76,113.6l3.6,3.3l-8.1,9l6.6,6l6.8-7.5L88.5,127.6z"/>
	<path d="M105.2,112.5l-7.7,6.7l8.8,10.1l-4.7,4.1l-21-24.1l13.8-12l3.2,3.7l-9.1,7.9l5.9,6.7l7.7-6.7L105.2,112.5z"/>
	<path d="M122.8,99.1l-8.1,5.5l5.2,7.7l9.7-6.6l2.7,4l-14.8,10.1l-18-26.4l14.8-10.1l2.7,4l-9.6,6.6l4.6,6.8l8.1-5.5L122.8,99.1z"/>
	<path d="M134.6,93.8l5.8,11.4l-5.5,2.8l-14.6-28.5l8.5-4.4c2.8-1.4,5.4-1.8,7.8-1.2c2.4,0.6,4.2,2.3,5.6,4.9
		c0.8,1.5,1.1,2.9,0.9,4.4c-0.1,1.4-0.7,2.8-1.6,4.1c1.7-0.3,3.2,0,4.5,0.8c1.2,0.8,2.3,2.1,3.2,3.8l1.1,2.1
		c0.4,0.8,0.9,1.6,1.6,2.4c0.6,0.8,1.3,1.3,2,1.4l0.2,0.4l-5.7,2.9c-0.7-0.2-1.3-0.7-1.9-1.6c-0.6-0.9-1.2-1.8-1.6-2.7l-1-2
		c-0.7-1.4-1.6-2.4-2.6-2.9c-1-0.5-2.1-0.4-3.2,0.1L134.6,93.8z M132.4,89.5l3-1.5c1.2-0.6,1.9-1.4,2.2-2.5c0.3-1,0.1-2.2-0.6-3.5
		c-0.7-1.3-1.5-2.2-2.5-2.7c-1-0.5-2.1-0.4-3.3,0.2l-3,1.5L132.4,89.5z"/>
	<path d="M163.4,66l-7,2.6l9.4,25.5l-5.8,2.2l-9.4-25.5l-6.9,2.5l-1.7-4.6l19.7-7.3L163.4,66z"/>
	<path d="M185.5,81.4l-7.8,1.9l-0.1,7.2l-6.3,1.5l1.4-33.2l6.2-1.5l16.2,29l-6.3,1.5L185.5,81.4z M177.8,78.2l5.3-1.3l-4.9-9.3
		l-0.1,0L177.8,78.2z"/>
	<path d="M221.9,70.7l-10.1,0.5l0.7,13.4l-6.2,0.3L204.6,53l18.3-1l0.3,4.8L211,57.5l0.5,8.9l10.1-0.5L221.9,70.7z"/>
	<path d="M250.6,74.2c-0.3,3.8-1.6,6.6-3.9,8.5s-5.2,2.8-8.7,2.5c-3.5-0.3-6.2-1.5-8.2-3.8c-1.9-2.3-2.8-5.3-2.5-9l0.7-8.9
		c0.3-3.7,1.6-6.6,3.8-8.6c2.3-2,5.2-2.8,8.7-2.5c3.5,0.3,6.3,1.6,8.2,3.8c2,2.3,2.8,5.3,2.5,9L250.6,74.2z M245.2,64.8
		c0.2-2.3-0.2-4.1-1-5.4c-0.9-1.3-2.2-2-3.9-2.1c-1.8-0.1-3.2,0.3-4.2,1.4s-1.6,2.8-1.8,5.2l-0.7,9c-0.2,2.4,0.1,4.2,1,5.4
		c0.8,1.3,2.1,2,3.9,2.1c1.8,0.1,3.2-0.3,4.2-1.5c1-1.1,1.6-2.8,1.8-5.2L245.2,64.8z"/>
	<path d="M261.8,75.1L259,87.6l-6-1.3l6.9-31.2l9.4,2.1c3.1,0.7,5.4,2,6.8,4c1.4,2,1.8,4.5,1.2,7.3c-0.4,1.6-1,2.9-2.1,4
		c-1,1-2.3,1.7-3.9,2.1c1.5,0.9,2.5,2.1,2.9,3.5c0.4,1.4,0.4,3.1,0,5l-0.5,2.3c-0.2,0.9-0.3,1.8-0.3,2.8c0,1,0.2,1.8,0.6,2.3
		l-0.1,0.5l-6.3-1.4c-0.4-0.6-0.6-1.4-0.5-2.5c0.1-1.1,0.3-2.1,0.5-3.1l0.5-2.2c0.4-1.6,0.3-2.9-0.2-3.9s-1.3-1.7-2.5-1.9
		L261.8,75.1z M262.9,70.4l3.3,0.7c1.3,0.3,2.4,0.1,3.2-0.5c0.9-0.6,1.4-1.7,1.8-3.1c0.3-1.5,0.2-2.7-0.2-3.7
		c-0.5-1-1.4-1.7-2.7-1.9l-3.3-0.7L262.9,70.4z"/>
	<path d="M292.1,88.8l0.1,0L306.5,69l7.5,3l-11.7,29.8l-5.7-2.3l7.4-18.7l-0.1-0.1l-12.8,16.6l-3.9-1.5l2-20.7l-0.1,0l-7.3,18.6
		l-5.7-2.3l11.7-29.8l7.5,3L292.1,88.8z"/>
	<path d="M321.5,105.1l-6.9-4.1l-5.1,5l-5.6-3.3l24.1-22.9l5.5,3.3l-8.5,32.1l-5.6-3.3L321.5,105.1z M318.2,97.4l4.7,2.8l2.9-10.1
		l-0.1-0.1L318.2,97.4z"/>
	<path d="M355.8,104.8l-6-4.5l-16.4,21.6l-5-3.8l16.4-21.6l-5.8-4.4l2.9-3.9l16.8,12.7L355.8,104.8z"/>
	<path d="M345.9,132.6l-4.6-4.2l21.6-23.6l4.6,4.2L345.9,132.6z"/>
	<path d="M361.9,137.3l-0.8,1.1l0.1,0.1l1.1-0.7l21.5-11.8l4.4,4.9l-29.9,14.6l-4.3-4.8l17.7-28.2l4.4,4.9L361.9,137.3z"/>
	<path d="M378,160.1l-4.6-6.6l-6.7,2.5l-3.7-5.3l31.5-10.7l3.7,5.3L377,170.9l-3.7-5.3L378,160.1z M378.2,151.8l3.1,4.5l6.8-8
		l-0.1-0.1L378.2,151.8z"/>
</g>
<g>
	<path d="M136.6,399.8l0,0.1c-1.5,3.1-3.5,5-5.9,5.7c-2.4,0.7-5.1,0.3-8.1-1.3c-3.1-1.6-5-3.7-5.9-6.5c-0.9-2.7-0.5-5.8,1.3-9.1
		l4.3-8.4c1.7-3.3,3.9-5.4,6.6-6.4s5.5-0.6,8.5,0.9c3.1,1.6,5.1,3.6,6,6c0.9,2.4,0.5,5.1-1.1,8.1l-0.1,0.1l-5.4-2.8
		c0.9-1.8,1.3-3.3,1-4.3c-0.3-1.1-1.2-2-2.7-2.8c-1.4-0.7-2.7-0.7-3.9-0.1c-1.2,0.6-2.3,2-3.4,4.1l-4.4,8.5
		c-1.1,2.1-1.5,3.8-1.2,5.2c0.2,1.4,1.1,2.5,2.6,3.2c1.4,0.7,2.5,0.8,3.5,0.4s1.9-1.5,2.9-3.4L136.6,399.8z"/>
	<path d="M163.4,407.9c-1.2,3.6-3.2,6-5.9,7.3s-5.7,1.4-9,0.2c-3.3-1.2-5.6-3.1-6.9-5.8c-1.3-2.7-1.3-5.8-0.1-9.4l2.9-8.4
		c1.2-3.5,3.2-6,5.9-7.3c2.7-1.3,5.7-1.4,9-0.2c3.3,1.2,5.7,3.1,7,5.8c1.3,2.7,1.3,5.8,0.1,9.4L163.4,407.9z M160.6,397.4
		c0.8-2.2,0.9-4,0.4-5.4s-1.6-2.4-3.3-3c-1.7-0.6-3.2-0.5-4.4,0.3c-1.2,0.8-2.3,2.3-3,4.5l-3,8.5c-0.8,2.2-0.9,4.1-0.5,5.5
		c0.5,1.4,1.6,2.4,3.3,3c1.7,0.6,3.2,0.5,4.5-0.3s2.3-2.3,3.1-4.6L160.6,397.4z"/>
	<path d="M182,415.2l0.1,0l10.1-22.3l8,1.4l-5.6,31.5l-6.1-1.1l3.5-19.8l-0.1,0l-9.2,18.8l-4.1-0.7l-2.1-20.7l-0.1,0l-3.5,19.7
		l-6.1-1.1l5.6-31.5l7.9,1.4L182,415.2z"/>
	<path d="M209,414.8l-0.3,11.6l-6.2-0.1l0.7-32l10.7,0.2c3.2,0.1,5.7,1.1,7.6,3c1.8,1.9,2.7,4.4,2.6,7.5c-0.1,3.1-1.1,5.5-3,7.3
		c-1.9,1.8-4.5,2.7-7.7,2.6L209,414.8z M209.1,410l4.5,0.1c1.4,0,2.5-0.4,3.2-1.4c0.7-1,1.1-2.2,1.2-3.8c0-1.6-0.3-2.9-1-3.9
		s-1.7-1.6-3.1-1.6l-4.5-0.1L209.1,410z"/>
	<path d="M235.7,420.9l11.9-1.2l0.5,4.8l-18,1.8l-3.2-31.8l6.2-0.6L235.7,420.9z"/>
	<path d="M266.6,406.3l-9.6,2.1l2,9.1l11.4-2.5l1,4.7l-17.5,3.8l-6.8-31.3l17.5-3.8l1,4.7l-11.4,2.5l1.8,8l9.6-2.1L266.6,406.3z"/>
	<path d="M286.9,386l-7.1,2.5l8.9,25.6l-5.9,2l-8.9-25.6l-6.9,2.4l-1.6-4.6l19.9-6.9L286.9,386z"/>
	<path d="M308.9,397.8l-7.2,3.5l1.4,7l-5.8,2.8l-5.8-32.8l5.8-2.8l22.1,24.8l-5.8,2.8L308.9,397.8z M300.7,396.4l4.9-2.4l-6.8-8
		l-0.1,0.1L300.7,396.4z"/>
</g>
<path class="st6" d="M262.9,195.4c71.2,20.5,82.9,13.6,126.9-4.8c-37.4,70.5-48.7,89.7-47.7,135.5c-44.9-14.3-65.8-10.5-104,14.3
	C275.5,270.8,284.8,249.8,262.9,195.4z"/>
<path class="st5" d="M155.9,217.3c38.7,13.2,65.6,18.9,109.7,0.5c-27,33.9-55,73.9-54,119.7c-23.3-19.1-42.4-28.1-66.2-25.4
	C159.1,280.9,166,250.2,155.9,217.3z"/>
<path class="st4" d="M77.1,279c24.4,2.8,33.5-1.9,64.4-7.5c-15.6,25.3-5.6,48.3-1.6,75c-21.7-11.2-43.6-1.8-68,5.4
	C94.8,323.7,86.1,298.5,77.1,279z"/>
<ellipse transform="matrix(0.9958 -9.138596e-02 9.138596e-02 0.9958 -14.672 30.9698)" class="st6" cx="330.8" cy="175.7" rx="27.4" ry="24.6"/>
<ellipse transform="matrix(0.9958 -9.138598e-02 9.138598e-02 0.9958 -17.8273 20.0277)" class="st5" cx="209.8" cy="204.7" rx="20.4" ry="18.4"/>
<ellipse transform="matrix(0.9958 -9.138592e-02 9.138592e-02 0.9958 -23.186 10.7518)" class="st4" cx="105.8" cy="258.6" rx="15" ry="13.4"/>
</svg>
