<?xml version="1.0" encoding="utf-8"?>
<!-- Generator: Adobe Illustrator 22.0.0, SVG Export Plug-In . SVG Version: 6.00 Build 0)  -->
<svg version="1.1" id="Livello_1" xmlns="http://www.w3.org/2000/svg" xmlns:xlink="http://www.w3.org/1999/xlink" x="0px" y="0px"
	 viewBox="0 0 451 445" style="enable-background:new 0 0 451 445;" xml:space="preserve">
<style type="text/css">
	.st0{fill:#2C3E50;stroke:#000000;stroke-miterlimit:10;}
	.st1{fill:#FFF312;}
	.st2{fill:#FFD72E;}
	.st3{fill:#5CA336;}
	.st4{fill:#FDE449;}
	.st5{fill:#0F9328;}
	.st6{fill:#FF900B;}
	.st7{fill:#2C3E50;}
	.st8{fill:#FFFFFF;}
	.st9{fill:#FFFFFF;stroke:url(#);stroke-miterlimit:10;}
	.st10{fill:none;}
	.st11{fill:#FFFFFF;stroke:#000000;stroke-miterlimit:10;}
	.st12{fill:none;stroke:#000000;stroke-miterlimit:10;}
	.st13{fill:#F9D10D;}
	.st14{fill:none;stroke:#FFFFFF;stroke-width:2;stroke-miterlimit:10;}
</style>
<g>
	<path d="M160.8,82.1c-0.5-1.2-1.2-2-2.1-2.4c-0.9-0.4-2.2-0.7-4.1-0.7c-3.5,0.2-6.3-0.1-8.3-0.8c-2.1-0.7-3.6-2.3-4.6-4.7
		c-1-2.4-0.9-4.8,0.2-7c1.1-2.2,3-3.9,5.7-5c2.9-1.2,5.5-1.3,7.9-0.4c2.4,0.9,4.2,2.7,5.2,5.5l0,0.1l-5.6,2.3
		c-0.6-1.5-1.5-2.6-2.5-3.1c-1-0.5-2.2-0.5-3.4,0c-1.1,0.5-1.8,1.2-2.1,2.1c-0.3,1-0.2,2,0.2,3.1c0.4,1,1.1,1.7,2.1,2.1
		s2.4,0.6,4.4,0.7c3.2-0.2,5.9,0.1,8,0.9c2.1,0.8,3.6,2.5,4.6,4.9c1,2.5,1,4.9-0.1,7s-3.1,3.8-5.9,5c-2.8,1.2-5.5,1.4-8.2,0.6
		s-4.6-2.7-5.8-6l0-0.1l5.6-2.3c0.8,1.9,1.7,3,2.8,3.5c1.1,0.5,2.4,0.5,3.8-0.2c1.2-0.5,2-1.2,2.4-2.2
		C161.4,84.2,161.3,83.2,160.8,82.1z"/>
	<path d="M184.4,68.7l-9.4,2.6l2.4,9l11.3-3.1l1.3,4.7l-17.3,4.7l-8.4-30.9l17.2-4.7l1.3,4.7l-11.3,3.1l2.1,7.9l9.4-2.6L184.4,68.7z
		"/>
	<path d="M197.3,67.7l1.8,12.7l-6.1,0.9l-4.4-31.7l9.5-1.3c3.1-0.4,5.7,0,7.8,1.4c2,1.4,3.3,3.5,3.7,6.5c0.2,1.6,0,3.1-0.5,4.4
		c-0.6,1.3-1.6,2.4-2.9,3.3c1.7,0.3,3,1.1,4,2.2s1.5,2.7,1.8,4.6l0.3,2.3c0.1,0.9,0.4,1.8,0.7,2.7c0.3,0.9,0.8,1.6,1.4,2l0.1,0.5
		l-6.4,0.9c-0.6-0.4-1-1.1-1.3-2.1c-0.3-1-0.5-2.1-0.6-3.1l-0.3-2.2c-0.2-1.6-0.7-2.8-1.5-3.6c-0.8-0.8-1.8-1.1-3.1-0.9L197.3,67.7z
		 M196.6,62.9l3.3-0.5c1.3-0.2,2.3-0.7,2.8-1.6c0.6-0.9,0.8-2.1,0.6-3.5c-0.2-1.5-0.7-2.6-1.5-3.4c-0.8-0.8-1.9-1.1-3.2-0.9
		l-3.4,0.5L196.6,62.9z"/>
	<path d="M225.6,70l0.3,1.3l0.1,0l0.2-1.3l5.1-24L238,46l-8.6,32.1l-6.4,0.1l-9.6-31.8l6.5-0.1L225.6,70z"/>
	<path d="M247,79.2l-6.1-0.6l2.9-31.9l6.1,0.6L247,79.2z"/>
	<path d="M258.1,75.9l11.4,2.1l-0.9,4.8l-18.1-3.3l0.6-3.1l15.5-21.6l-11.2-2.1l0.9-4.8l17.9,3.3l-0.5,3L258.1,75.9z"/>
	<path d="M278,85.5l-5.9-1.7l8.6-30.8l5.9,1.7L278,85.5z"/>
	<path d="M307.7,84.2c-1.4,3.5-3.5,5.8-6.2,7c-2.8,1.2-5.8,1.1-9.1-0.2s-5.5-3.3-6.7-6.1c-1.2-2.7-1.1-5.9,0.3-9.4l3.3-8.3
		c1.4-3.5,3.4-5.8,6.2-7c2.7-1.2,5.8-1.2,9,0.1s5.5,3.3,6.7,6.1c1.2,2.8,1.1,5.9-0.3,9.4L307.7,84.2z M305.3,73.5
		c0.9-2.2,1.1-4,0.6-5.4c-0.4-1.5-1.5-2.5-3.2-3.2c-1.7-0.7-3.2-0.6-4.4,0.1s-2.4,2.2-3.2,4.4l-3.3,8.4c-0.9,2.2-1.1,4-0.7,5.5
		s1.5,2.5,3.1,3.2c1.7,0.7,3.2,0.6,4.5-0.1c1.3-0.8,2.4-2.2,3.3-4.4L305.3,73.5z"/>
</g>
<g>
	<path d="M76.6,344.5l-9.3,8.9l-4.3-4.5l23.1-22.1l6.6,6.9c2.2,2.3,3.3,4.7,3.4,7.1s-1,4.7-3.1,6.8c-1.2,1.1-2.5,1.9-3.9,2.1
		c-1.4,0.3-2.9,0.2-4.4-0.4c0.8,1.6,0.9,3.1,0.5,4.5c-0.4,1.4-1.3,2.8-2.7,4.1l-1.7,1.6c-0.6,0.6-1.3,1.3-1.8,2.2
		c-0.6,0.8-0.8,1.6-0.8,2.3l-0.3,0.3l-4.4-4.6c0-0.7,0.3-1.5,1-2.3c0.7-0.8,1.4-1.6,2.1-2.3l1.6-1.5c1.2-1.1,1.9-2.2,2-3.3
		s-0.2-2.1-1-3L76.6,344.5z M80.1,341.2l2.3,2.4c0.9,1,1.9,1.4,3,1.4c1.1,0,2.1-0.6,3.2-1.6c1.1-1,1.7-2.1,1.9-3.2
		c0.2-1.1-0.2-2.1-1.1-3.1l-2.3-2.4L80.1,341.2z"/>
	<path d="M103.6,367.4l-7.6-6.2l-5.9,7.2l9.1,7.4l-3.1,3.7l-13.9-11.3l20.2-24.8l13.8,11.3l-3.1,3.8l-9-7.4l-5.2,6.3l7.6,6.2
		L103.6,367.4z"/>
	<path d="M117.7,383.8c0.7-1.1,0.9-2.1,0.8-3.1c-0.2-1-0.8-2.2-1.8-3.7c-2.2-2.7-3.5-5.2-4.2-7.3c-0.6-2.1-0.2-4.3,1.2-6.5
		c1.4-2.2,3.3-3.5,5.8-3.9c2.5-0.4,5,0.2,7.4,1.8c2.6,1.7,4.3,3.7,4.9,6.2c0.7,2.5,0.2,5-1.4,7.5l-0.1,0.1l-5.1-3.2
		c0.9-1.4,1.2-2.7,1.1-3.8c-0.2-1.1-0.8-2-2-2.8c-1-0.6-2-0.8-3-0.5c-1,0.3-1.8,1-2.4,2c-0.6,0.9-0.7,1.9-0.5,2.9s0.9,2.3,2,4
		c2.1,2.5,3.4,4.9,3.9,7c0.5,2.2,0.1,4.4-1.4,6.6c-1.5,2.3-3.4,3.6-5.8,4c-2.4,0.3-4.9-0.3-7.5-2c-2.6-1.6-4.3-3.7-5.2-6.3
		c-0.9-2.6-0.4-5.3,1.5-8.2l0.1-0.1l5.1,3.2c-1.1,1.7-1.5,3.1-1.3,4.3c0.2,1.2,1,2.2,2.3,3c1.1,0.7,2.2,0.9,3.1,0.7
		C116.2,385.5,117,384.8,117.7,383.8z"/>
	<path d="M134.8,389.3l-4.8,10.5l-5.6-2.6l13.4-29.1l9.7,4.5c2.9,1.3,4.8,3.3,5.7,5.8c0.9,2.5,0.7,5.1-0.5,7.9
		c-1.3,2.8-3.2,4.6-5.6,5.5c-2.5,0.9-5.2,0.7-8.1-0.6L134.8,389.3z M136.8,384.9l4.1,1.9c1.3,0.6,2.4,0.6,3.5,0
		c1.1-0.6,1.9-1.6,2.6-3c0.7-1.4,0.9-2.8,0.6-4c-0.2-1.2-1-2.1-2.2-2.7l-4.1-1.9L136.8,384.9z"/>
	<path d="M174.9,404c-1.1,3.6-2.9,6.1-5.6,7.5s-5.7,1.6-9,0.6c-3.4-1-5.8-2.8-7.2-5.5c-1.4-2.6-1.6-5.7-0.5-9.3l2.6-8.5
		c1.1-3.6,2.9-6.1,5.6-7.5s5.6-1.6,9-0.6s5.8,2.9,7.2,5.5c1.4,2.7,1.6,5.8,0.5,9.4L174.9,404z M171.6,393.6c0.7-2.2,0.7-4,0.2-5.5
		c-0.6-1.4-1.7-2.4-3.4-2.9c-1.7-0.5-3.2-0.3-4.4,0.5c-1.2,0.9-2.2,2.4-2.8,4.7l-2.6,8.6c-0.7,2.3-0.8,4.1-0.2,5.5
		c0.5,1.4,1.7,2.4,3.4,2.9c1.7,0.5,3.2,0.3,4.4-0.5s2.2-2.4,2.9-4.7L171.6,393.6z"/>
	<path d="M201.1,419.9L195,419l-7.1-21.7l-0.1,0l-3,20.2l-6.1-0.9l4.7-31.7l6.1,0.9l7.1,21.7l0.1,0l3-20.2l6.1,0.9L201.1,419.9z"/>
	<path d="M222.9,412.2c0-1.3-0.3-2.3-0.9-3c-0.6-0.8-1.8-1.5-3.5-2.2c-3.3-1.2-5.7-2.6-7.3-4.1c-1.6-1.5-2.4-3.6-2.4-6.2
		c0-2.6,1-4.7,2.9-6.4s4.3-2.4,7.3-2.4c3.1,0.1,5.6,1,7.4,2.8c1.9,1.8,2.7,4.2,2.6,7.1l0,0.1l-6-0.1c0-1.7-0.3-2.9-1-3.8
		c-0.7-0.9-1.8-1.3-3.2-1.3c-1.2,0-2.1,0.4-2.8,1.1c-0.7,0.8-1,1.7-1,2.9c0,1.1,0.3,2,1.1,2.7c0.7,0.7,2,1.5,3.8,2.4
		c3.1,1.1,5.4,2.4,7,4c1.6,1.6,2.3,3.7,2.3,6.4c0,2.7-1,4.9-2.9,6.4s-4.4,2.3-7.4,2.2c-3,0-5.6-0.9-7.7-2.7s-3.1-4.3-3-7.8l0-0.1
		l6,0.1c0,2,0.4,3.5,1.1,4.3c0.8,0.9,2,1.4,3.6,1.4c1.3,0,2.3-0.3,3-1C222.5,414.4,222.9,413.4,222.9,412.2z"/>
	<path d="M248.9,411.6l-7.9,1l-1,7.1l-6.4,0.8l5.2-32.8l6.4-0.8l12.8,30.7l-6.4,0.8L248.9,411.6z M241.7,407.6l5.4-0.7l-3.9-9.8
		l-0.1,0L241.7,407.6z"/>
	<path d="M263.2,416.4l-8-31l8.9-2.3c3.2-0.8,5.9-0.8,8.1,0.2c2.2,0.9,3.6,2.8,4.3,5.6c0.4,1.5,0.4,2.8,0,4.2
		c-0.4,1.3-1.1,2.4-2.3,3.3c1.8-0.1,3.3,0.4,4.5,1.5c1.2,1.1,2,2.5,2.5,4.2c0.8,3,0.5,5.4-0.8,7.4c-1.3,2-3.6,3.4-6.8,4.2
		L263.2,416.4z M264.5,396.9l3.1-0.8c1.3-0.4,2.2-1,2.7-1.8s0.6-2,0.2-3.3c-0.4-1.5-1-2.5-1.9-3c-0.9-0.5-2-0.6-3.5-0.2l-2.9,0.7
		L264.5,396.9z M265.6,401.1l2.3,9l4.4-1.1c1.3-0.3,2.2-1,2.7-1.9c0.5-0.9,0.5-2.1,0.2-3.5c-0.4-1.5-1-2.5-1.8-3.2
		c-0.8-0.7-1.9-0.8-3.2-0.5L270,400L265.6,401.1z"/>
	<path d="M295.3,406.7l-5.8,2.1l-11-30l5.8-2.1L295.3,406.7z"/>
	<path d="M305.5,397.2l10.8-5.1l2.1,4.4l-16.4,7.7l-13.7-28.9l5.6-2.6L305.5,397.2z"/>
	<path d="M328.7,390.3l-5.3,3.1l-16.2-27.6l5.3-3.1L328.7,390.3z"/>
	<path d="M334.1,353.8l-6.1,4.4l15.7,22.1l-5.1,3.6l-15.7-22.1l-6,4.2l-2.8-4l17.2-12.2L334.1,353.8z"/>
	<path d="M358.6,359l-5.9,5.4l3.3,6.3l-4.8,4.3l-14.7-29.8l4.8-4.3l28.2,17.7l-4.8,4.3L358.6,359z M350.3,359.8l4-3.6l-8.8-5.8
		l-0.1,0.1L350.3,359.8z"/>
	<path d="M355.6,334.4l3,5.6l-2.1,2.2l-4.4-4l-4.2-3.9l3.5-3.7L355.6,334.4z"/>
</g>
<path class="st6" d="M95.3,179.1c39.5-6.2,105-22.9,140.3-56.1c-14.6,66.5-24.9,123.7-13.5,145.5c-38.5,2.1-68.6,26-78,36.4
	C150.4,241.5,95.3,179.1,95.3,179.1z"/>
<path class="st4" d="M275.1,127.2c25.7,7.8,94.1,30.2,85.5,58.9c-2.9,9.6-14.3,19.8-38.7,30.5c1,50.9-32.2,107.1-32.2,107.1
	s22.9-49.9-23.9-89.4C282.3,181.2,275.1,127.2,275.1,127.2z"/>
<path class="st5" d="M145.5,201.3c56.9,16.4,110.9,19.4,146.1,4.7c-29.9,56.3-51,85.7-18.2,144.3c-57.5-19.4-98.6-23.5-142-17
	C161.3,277.5,172.5,279.3,145.5,201.3z"/>
<ellipse transform="matrix(0.935 -0.3546 0.3546 0.935 -38.5927 64.7806)" class="st6" cx="157.5" cy="137.7" rx="21.9" ry="19.7"/>
<ellipse transform="matrix(0.9958 -9.138596e-02 9.138596e-02 0.9958 -16.3078 20.8673)" class="st5" cx="219.7" cy="188.5" rx="21.9" ry="19.7"/>
<ellipse transform="matrix(0.5573 -0.8303 0.8303 0.5573 21.1046 347.9678)" class="st13" cx="336.9" cy="154.2" rx="22.7" ry="23.3"/>
<path class="st13" d="M321.8,216.5c1,50.9-32.2,107.1-32.2,107.1s68.2-80,71-137.5C357.7,195.6,346.3,205.9,321.8,216.5z"/>
</svg>
