<?xml version="1.0" encoding="utf-8"?>
<!-- Generator: Adobe Illustrator 22.0.0, SVG Export Plug-In . SVG Version: 6.00 Build 0)  -->
<svg version="1.1" id="Livello_1" xmlns="http://www.w3.org/2000/svg" xmlns:xlink="http://www.w3.org/1999/xlink" x="0px" y="0px"
	 viewBox="0 0 451 445" style="enable-background:new 0 0 451 445;" xml:space="preserve">
<style type="text/css">
	.st0{fill:#2C3E50;stroke:#000000;stroke-miterlimit:10;}
	.st1{fill:#FFF312;}
	.st2{fill:#FFD72E;}
	.st3{fill:#5CA336;}
	.st4{fill:#FDE449;}
	.st5{fill:#0F9328;}
	.st6{fill:#FF900B;}
	.st7{fill:#2C3E50;}
	.st8{fill:#FFFFFF;}
	.st9{fill:#FFFFFF;stroke:url(#);stroke-miterlimit:10;}
	.st10{fill:none;}
	.st11{fill:#FFFFFF;stroke:#000000;stroke-miterlimit:10;}
	.st12{fill:none;stroke:#000000;stroke-miterlimit:10;}
	.st13{fill:#F9D10D;}
	.st14{fill:none;stroke:#FFFFFF;stroke-width:2;stroke-miterlimit:10;}
</style>
<path class="st2" d="M123,197.7c-17.5,10.8-80.6,120.8,117.1,96.1C445.9,268,372.9,201.8,330.4,191c11.6,16.2,72.6,49.4-86.5,74.9
	C69.4,293.9,123,197.7,123,197.7z"/>
<path class="st6" d="M379.8,180.1c0,0-40.6,28.8-59.8,28.8c-22.5,40-38.6,77.1-61.1,138.8c-21.7-74.2-4.8-152.5-4.8-152.5
	s-6.1-37.6-10.2-63.5C293.9,163.5,306.4,169.3,379.8,180.1z"/>
<path class="st5" d="M91.3,167.6c0,0,130.2,67.8,159.3-44.2c-23.9,92-5.2,134.9,64,180.7c-80.9-0.8-127.4-7.3-149.9,39.4
	C169.7,221.8,143,214.3,91.3,167.6z"/>
<ellipse transform="matrix(0.9901 -0.1405 0.1405 0.9901 -18.7129 26.1225)" class="st5" cx="175.7" cy="145.6" rx="29.2" ry="25.9"/>
<ellipse transform="matrix(0.3069 -0.9517 0.9517 0.3069 81.531 388.9246)" class="st6" cx="307.8" cy="138.5" rx="20.5" ry="24.7"/>
<path class="st10" d="M243.9,266c60.4-9.7,89.1-20.5,100.8-31H115.9C120.1,258.4,146.4,281.6,243.9,266z"/>
<path class="st4" d="M243.9,266c-97.5,15.6-123.8-7.5-128-31h-14.8c-8,33.6,9.8,75,139,58.8c106-13.2,138-37.2,138.4-58.8h-33.8
	C333,245.5,304.3,256.3,243.9,266z"/>
<g>
	<path class="st8" d="M86.7,106.8c-1-0.8-2-1.2-3-1.1s-2.3,0.5-3.9,1.4c-2.9,1.9-5.5,3-7.7,3.4c-2.2,0.4-4.3-0.2-6.4-1.9
		c-2.1-1.6-3.2-3.7-3.3-6.2c-0.1-2.5,0.7-4.9,2.5-7.2c1.9-2.4,4.2-3.9,6.7-4.3c2.5-0.4,5,0.3,7.3,2.2l0.1,0.1L75.3,98
		c-1.3-1-2.5-1.5-3.6-1.5c-1.1,0.1-2.1,0.6-3,1.7c-0.7,0.9-1,1.9-0.8,2.9c0.2,1,0.8,1.9,1.7,2.6c0.9,0.7,1.8,0.9,2.8,0.8
		s2.4-0.7,4.2-1.6c2.7-1.8,5.2-2.8,7.4-3.1c2.2-0.3,4.4,0.4,6.4,2c2.2,1.7,3.3,3.8,3.3,6.2s-0.8,4.9-2.7,7.3
		c-1.9,2.4-4.1,3.9-6.8,4.5c-2.7,0.6-5.3-0.1-8-2.3l-0.1-0.1l3.7-4.7c1.6,1.2,3,1.8,4.2,1.7s2.3-0.8,3.3-2c0.8-1,1.2-2.1,1-3
		C88.2,108.4,87.6,107.5,86.7,106.8z"/>
	<path class="st8" d="M107.2,83.1l0.1,0.1c2.4,2.4,3.6,4.9,3.5,7.4c-0.1,2.5-1.4,4.9-3.8,7.2c-2.5,2.4-5.1,3.6-8,3.5
		c-2.9,0-5.6-1.4-8.2-4.1l-6.6-6.8c-2.6-2.7-3.9-5.4-3.9-8.3s1.2-5.4,3.5-7.7c2.5-2.4,5-3.7,7.6-3.8c2.5-0.1,5,1.1,7.3,3.6l0.1,0.1
		l-4.3,4.2c-1.4-1.5-2.7-2.2-3.8-2.3s-2.2,0.5-3.5,1.7c-1.1,1.1-1.6,2.3-1.3,3.6c0.2,1.3,1.1,2.8,2.8,4.5l6.6,6.8
		c1.6,1.7,3.1,2.6,4.5,2.8s2.7-0.3,3.9-1.4c1.1-1.1,1.6-2.1,1.5-3.2c-0.1-1.1-0.8-2.3-2.3-3.8L107.2,83.1z"/>
	<path class="st8" d="M115.5,49.3l12.3,16.9c2.1,2.9,3,5.8,2.5,8.7c-0.5,2.9-2.1,5.3-4.8,7.3c-2.7,2-5.5,2.7-8.4,2.3
		c-2.9-0.4-5.4-2.1-7.5-5L97.3,62.6l5-3.6l12.3,16.9c1.3,1.8,2.6,2.8,4,3.2c1.4,0.4,2.8,0.1,4-0.8c1.3-0.9,2-2.1,2-3.6
		c0.1-1.5-0.6-3.1-1.9-4.8L110.5,53L115.5,49.3z"/>
	<path class="st8" d="M152.1,52.5c1.8,3.3,2.2,6.4,1.3,9.3c-0.9,2.9-2.9,5.1-6,6.8c-3.1,1.6-6.1,2-9,1.1c-2.8-0.9-5.2-3-6.9-6.3
		l-4.2-7.9c-1.7-3.3-2.2-6.4-1.3-9.3c0.9-2.9,2.9-5.1,6-6.8c3.1-1.6,6.1-2,9-1.1c2.9,0.9,5.2,3,6.9,6.3L152.1,52.5z M142.5,47.4
		c-1.1-2.1-2.3-3.4-3.7-4c-1.4-0.6-2.9-0.5-4.5,0.3c-1.6,0.8-2.5,2-2.8,3.5c-0.3,1.5,0.2,3.2,1.3,5.3l4.2,8c1.1,2.1,2.3,3.5,3.7,4.1
		c1.4,0.6,2.8,0.5,4.4-0.3c1.6-0.8,2.5-2,2.8-3.5s-0.1-3.3-1.3-5.4L142.5,47.4z"/>
	<path class="st8" d="M164.8,54.8l11.2-4.1l1.7,4.5l-17,6.2l-11-30l5.8-2.1L164.8,54.8z"/>
	<path class="st8" d="M193,44.5l-7.8,1.8l-0.2,7.1l-6.3,1.4l1.8-33.2l6.3-1.4l15.9,29.2l-6.3,1.4L193,44.5z M185.4,41.2l5.3-1.2
		l-4.8-9.3l-0.1,0L185.4,41.2z"/>
	<path class="st8" d="M220.5,48l-6.2,0.4l-2.2-31.9l6.2-0.4L220.5,48z"/>
	<path class="st8" d="M247.7,48.4l-6.2-0.2l-9.4-20.8l-0.1,0l-0.8,20.4l-6.2-0.2l1.2-32l6.2,0.2l9.4,20.8l0.1,0l0.8-20.4l6.2,0.2
		L247.7,48.4z"/>
	<path class="st8" d="M273.9,42.8l0,0.1c-0.6,3.4-1.9,5.8-4,7.1c-2.1,1.4-4.8,1.7-8.1,1.1c-3.4-0.6-5.9-2.1-7.5-4.5s-2.1-5.4-1.4-9
		l1.7-9.3c0.7-3.7,2.1-6.3,4.4-8c2.3-1.7,5.1-2.2,8.3-1.6c3.4,0.6,5.9,1.9,7.5,3.9c1.5,2,2,4.7,1.3,8.1l-0.1,0.1l-5.9-1.1
		c0.4-2,0.3-3.5-0.3-4.4c-0.6-0.9-1.7-1.6-3.4-1.9c-1.5-0.3-2.8,0.1-3.7,1s-1.7,2.6-2.1,4.9l-1.7,9.4c-0.4,2.3-0.3,4.1,0.3,5.3
		s1.8,2,3.4,2.3c1.5,0.3,2.7,0.1,3.5-0.6c0.8-0.7,1.4-2,1.8-4.1L273.9,42.8z"/>
	<path class="st8" d="M282.4,50.7l11.4,3.6l-1.5,4.6L275,53.5l9.7-30.5l5.9,1.9L282.4,50.7z"/>
	<path class="st8" d="M327.5,39.8l-8.8,19c-1.5,3.3-3.7,5.4-6.4,6.4s-5.6,0.8-8.7-0.7c-3-1.4-5.1-3.5-6.1-6.2c-1-2.7-0.8-5.7,0.7-9
		l8.8-19l5.6,2.6l-8.8,19c-0.9,2-1.2,3.7-0.9,5.1c0.3,1.4,1.2,2.5,2.6,3.1c1.4,0.7,2.8,0.7,4.1,0s2.4-2,3.3-4l8.8-19L327.5,39.8z"/>
	<path class="st8" d="M333.6,71.3c0.7-1.1,1-2.1,0.8-3.1c-0.1-1-0.7-2.2-1.8-3.7c-2.1-2.8-3.5-5.2-4.1-7.3c-0.6-2.1-0.2-4.3,1.2-6.5
		c1.4-2.2,3.4-3.5,5.9-3.8s5,0.3,7.4,1.8c2.6,1.7,4.2,3.8,4.9,6.3c0.6,2.5,0.1,5-1.5,7.4l-0.1,0.1l-5.1-3.3c0.9-1.4,1.3-2.6,1.1-3.8
		c-0.2-1.1-0.8-2.1-2-2.8c-1-0.6-2-0.8-3-0.5c-1,0.3-1.8,0.9-2.4,1.9c-0.6,0.9-0.8,1.9-0.5,2.9s0.9,2.3,2,4c2,2.5,3.3,4.9,3.8,7.1
		c0.5,2.2,0,4.4-1.4,6.6c-1.5,2.3-3.4,3.6-5.8,3.9c-2.4,0.3-4.9-0.4-7.5-2c-2.5-1.6-4.3-3.8-5.2-6.3c-0.9-2.6-0.4-5.3,1.6-8.2
		l0.1-0.1l5.1,3.3c-1.1,1.7-1.5,3.1-1.3,4.3s1,2.2,2.3,3.1c1.1,0.7,2.2,1,3.1,0.7C332.1,73,332.9,72.4,333.6,71.3z"/>
	<path class="st8" d="M341.9,87.9l-4.8-3.8L356.9,59l4.8,3.8L341.9,87.9z"/>
	<path class="st8" d="M358.2,91.6l-0.7,1.1l0.1,0.1l1.1-0.7l20.6-13.3l4.7,4.5L355,99.9l-4.6-4.5l15.7-29.3l4.7,4.5L358.2,91.6z"/>
	<path class="st8" d="M375.8,113.2l-5-6.2l-6.5,2.9l-4-5l30.6-12.9l4,5L375.6,124l-4.1-5.1L375.8,113.2z M375.4,104.9l3.4,4.3
		l6.3-8.4l-0.1-0.1L375.4,104.9z"/>
</g>
<g>
	<path class="st8" d="M30.1,241.8c1.3-0.1,2.3-0.5,3-1.2c0.7-0.7,1.3-1.9,1.9-3.6c1-3.3,2.1-5.9,3.5-7.6c1.4-1.7,3.4-2.7,6-2.9
		c2.6-0.2,4.8,0.6,6.6,2.4c1.8,1.8,2.7,4.1,2.9,7.1c0.2,3.1-0.5,5.6-2.2,7.6c-1.6,2-3.9,3.1-6.9,3.2l-0.1,0l-0.4-6
		c1.7-0.1,2.9-0.6,3.7-1.3c0.8-0.8,1.2-1.9,1.1-3.2c-0.1-1.2-0.5-2.1-1.3-2.7c-0.8-0.6-1.8-0.9-3-0.8c-1.1,0.1-2,0.5-2.6,1.3
		c-0.7,0.8-1.3,2.1-2.1,4c-0.8,3.1-2,5.6-3.4,7.2s-3.5,2.6-6.2,2.8c-2.7,0.2-4.9-0.6-6.6-2.4c-1.7-1.8-2.6-4.2-2.8-7.2
		c-0.2-3,0.5-5.7,2-7.9s4.1-3.5,7.5-3.6l0.1,0l0.4,6c-2,0.1-3.4,0.6-4.2,1.5c-0.8,0.9-1.2,2.1-1.1,3.7c0.1,1.3,0.5,2.3,1.3,2.9
		C27.9,241.6,28.8,241.9,30.1,241.8z"/>
	<path class="st8" d="M58.8,270.8l-20.5,4.1c-3.6,0.7-6.5,0.2-9-1.4c-2.4-1.6-3.9-4.1-4.6-7.4c-0.7-3.3-0.2-6.1,1.4-8.6
		c1.6-2.4,4.2-4,7.7-4.7l20.5-4.1l1.2,6.1L35,258.9c-2.1,0.4-3.7,1.2-4.6,2.3c-0.9,1.1-1.3,2.4-1,4c0.3,1.6,1.1,2.7,2.4,3.3
		c1.3,0.7,3,0.8,5.2,0.3l20.5-4.1L58.8,270.8z"/>
	<path class="st8" d="M42.4,286.3l-10.9,3.8l-2.1-5.8l30.2-10.6l3.5,10.1c1.1,3,1,5.7-0.1,8.1c-1.2,2.4-3.2,4.1-6,5.1
		c-2.9,1-5.5,0.9-7.9-0.2s-4.1-3.2-5.2-6.3L42.4,286.3z M47,284.7l1.5,4.2c0.5,1.3,1.3,2.1,2.5,2.5c1.2,0.4,2.5,0.3,3.9-0.2
		c1.5-0.5,2.6-1.3,3.3-2.3c0.7-1,0.9-2.2,0.4-3.5l-1.5-4.3L47,284.7z"/>
	<path class="st8" d="M58.9,318.1l-4.4-8.8l-8.3,4.1l5.2,10.5l-4.3,2.2l-8-16l28.6-14.3l8,16l-4.3,2.2l-5.2-10.4l-7.3,3.6l4.4,8.8
		L58.9,318.1z"/>
	<path class="st8" d="M64.4,329.8l-10.7,7.1l-3.4-5.2l26.6-17.7l5.3,8c1.8,2.6,2.5,5.2,2.1,7.6c-0.4,2.4-1.8,4.5-4.3,6.1
		c-1.4,0.9-2.8,1.4-4.2,1.4s-2.9-0.4-4.3-1.2c0.5,1.7,0.4,3.2-0.3,4.5c-0.7,1.3-1.8,2.5-3.4,3.6l-1.9,1.3c-0.7,0.5-1.5,1.1-2.2,1.8
		s-1.1,1.4-1.2,2.1l-0.4,0.3l-3.5-5.3c0.1-0.7,0.6-1.4,1.4-2.1c0.8-0.7,1.7-1.3,2.5-1.9l1.9-1.2c1.4-0.9,2.2-1.9,2.6-2.9
		c0.4-1.1,0.2-2.1-0.5-3.2L64.4,329.8z M68.4,327.1l1.8,2.8c0.7,1.1,1.6,1.7,2.7,1.9c1,0.1,2.2-0.2,3.4-1c1.2-0.8,2-1.8,2.4-2.8
		s0.2-2.1-0.6-3.2l-1.9-2.8L68.4,327.1z"/>
	<path class="st8" d="M80.4,360.5l-5.3-6l-6.4,3.2l-4.2-4.9l30.1-14.2l4.2,4.8l-18.1,27.9l-4.3-4.9L80.4,360.5z M79.7,352.2l3.6,4.1
		l5.9-8.7l-0.1-0.1L79.7,352.2z"/>
	<path class="st8" d="M100.6,378l0.1,0.1l19.9-14.3l6.2,5.2l-20.6,24.5l-4.7-4l13-15.4l-0.1-0.1l-17.4,11.7l-3.2-2.7l8.5-19
		l-0.1-0.1l-12.9,15.3l-4.7-4l20.6-24.5l6.2,5.2L100.6,378z"/>
	<path class="st8" d="M133.7,394.1l-8.3-5.2l-4.9,7.9l10,6.2l-2.5,4.1l-15.2-9.4l16.9-27.2l15.2,9.4l-2.6,4.1l-9.9-6.1l-4.3,6.9
		l8.3,5.2L133.7,394.1z"/>
	<path class="st8" d="M154.3,419.6l-5.6-2.5l-0.9-22.8l-0.1,0l-8.4,18.6l-5.6-2.5l13.2-29.2l5.6,2.5l0.9,22.8l0.1,0l8.4-18.6
		l5.6,2.5L154.3,419.6z"/>
	<path class="st8" d="M187.1,401.5l-7.2-2.2l-7.9,26l-6-1.8l7.9-26l-7-2.1l1.4-4.6l20.1,6.1L187.1,401.5z"/>
	<path class="st8" d="M208.4,421c-0.6,3.7-2.2,6.4-4.6,8.2c-2.4,1.7-5.4,2.3-8.9,1.7c-3.5-0.6-6.1-2.1-7.8-4.5s-2.3-5.5-1.7-9.2
		l1.5-8.8c0.6-3.7,2.1-6.4,4.6-8.2c2.4-1.8,5.4-2.3,8.9-1.8c3.5,0.6,6.1,2.1,7.8,4.6c1.8,2.5,2.3,5.5,1.7,9.2L208.4,421z
		 M203.8,411.1c0.4-2.3,0.2-4.1-0.5-5.4s-2-2.1-3.7-2.4c-1.8-0.3-3.2,0.1-4.3,1.1c-1.1,1-1.8,2.7-2.2,5l-1.5,8.9
		c-0.4,2.3-0.2,4.2,0.5,5.5s1.9,2.1,3.7,2.4c1.8,0.3,3.2-0.1,4.3-1.1s1.9-2.7,2.3-5L203.8,411.1z"/>
	<path class="st8" d="M224.5,433.5l-0.8-32l9.9-0.2c3.3-0.1,6.1,1.1,8.4,3.5s3.4,5.6,3.5,9.5l0.1,5.3c0.1,3.9-0.9,7.2-3,9.7
		s-4.8,3.8-8.2,3.9L224.5,433.5z M230,406.2l0.6,22.3l3.7-0.1c1.6,0,2.9-0.9,3.8-2.5s1.4-3.7,1.3-6.2l-0.1-5.3
		c-0.1-2.5-0.6-4.5-1.6-6c-1-1.6-2.3-2.3-3.9-2.3L230,406.2z"/>
	<path class="st8" d="M266.5,415.9l-9.7,1.5l1.4,9.2l11.6-1.8l0.7,4.8l-17.7,2.7l-4.8-31.6l17.7-2.7l0.7,4.8l-11.5,1.8l1.2,8.1
		l9.7-1.5L266.5,415.9z"/>
	<path class="st8" d="M281.3,421.9l11.5-3.2l1.3,4.7l-17.5,4.8l-8.4-30.9l6-1.6L281.3,421.9z"/>
	<path class="st8" d="M303.7,414.6l11.1-4.5l1.8,4.5l-16.8,6.8l-12-29.7l5.7-2.3L303.7,414.6z"/>
	<path class="st8" d="M329.3,391.9l-8.6,4.7l4.5,8.2l10.3-5.6l2.3,4.2l-15.7,8.6l-15.3-28.1l15.7-8.6l2.3,4.3l-10.2,5.6l3.9,7.2
		l8.6-4.7L329.3,391.9z"/>
	<path class="st8" d="M352.3,393.7l-20.1-24.9l7.7-6.2c2.6-2.1,5.5-2.9,8.8-2.3c3.3,0.6,6.1,2.4,8.6,5.4l3.3,4.1
		c2.5,3.1,3.6,6.2,3.5,9.5c-0.1,3.3-1.5,6-4.1,8.1L352.3,393.7z M340.1,368.7l14,17.4l2.9-2.3c1.2-1,1.7-2.4,1.5-4.3
		c-0.2-1.8-1.1-3.7-2.7-5.7l-3.4-4.2c-1.6-1.9-3.2-3.2-5-3.8c-1.8-0.6-3.3-0.4-4.5,0.6L340.1,368.7z"/>
	<path class="st8" d="M378.1,371.2l-4.4,4.3l-22.5-22.8l4.4-4.3L378.1,371.2z"/>
	<path class="st8" d="M383.2,353.4l1.2,0.7l0.1-0.1l-0.8-1l-14.8-19.6l4.2-5l18.7,27.5l-4.1,4.9l-30.4-13.5l4.2-5L383.2,353.4z"/>
	<path class="st8" d="M403.7,339.6l-3.5,5.1l-26.4-18l3.5-5.1L403.7,339.6z"/>
	<path class="st8" d="M407.3,317.2c-1.1-0.6-2.2-0.8-3.1-0.6c-1,0.2-2.2,0.9-3.6,2c-2.6,2.3-4.9,3.9-7,4.6c-2.1,0.7-4.3,0.5-6.6-0.8
		c-2.3-1.3-3.7-3.1-4.2-5.6c-0.5-2.4-0.1-5,1.3-7.5c1.5-2.7,3.5-4.5,5.9-5.3c2.5-0.8,5-0.5,7.5,1l0.1,0.1l-2.9,5.3
		c-1.5-0.8-2.7-1.1-3.8-0.8c-1.1,0.2-2,1-2.7,2.2c-0.6,1-0.7,2-0.3,3c0.4,1,1.1,1.7,2.1,2.3c1,0.5,1.9,0.6,2.9,0.3
		c1-0.3,2.3-1.1,3.9-2.3c2.4-2.2,4.6-3.6,6.8-4.3c2.1-0.6,4.4-0.3,6.7,1c2.4,1.3,3.8,3.2,4.3,5.6c0.5,2.4,0,4.9-1.5,7.6
		c-1.5,2.7-3.4,4.5-6,5.6s-5.3,0.7-8.3-1l-0.1-0.1l2.9-5.3c1.8,1,3.2,1.3,4.4,1c1.2-0.3,2.1-1.1,2.9-2.5c0.6-1.2,0.8-2.2,0.5-3.2
		C409.1,318.5,408.4,317.8,407.3,317.2z"/>
	<path class="st8" d="M422.4,304.3L420,310l-29.4-12.6l2.4-5.7L422.4,304.3z"/>
	<path class="st8" d="M421.1,272.4c3.6,1.1,6.1,3,7.5,5.7c1.4,2.7,1.5,5.7,0.5,9c-1.1,3.4-2.9,5.7-5.5,7.1s-5.8,1.5-9.4,0.4
		l-8.5-2.7c-3.6-1.1-6.1-3-7.5-5.6c-1.4-2.6-1.6-5.6-0.5-9s2.9-5.8,5.6-7.2c2.7-1.4,5.8-1.5,9.4-0.4L421.1,272.4z M410.7,275.6
		c-2.2-0.7-4-0.8-5.5-0.2s-2.4,1.7-2.9,3.4c-0.5,1.7-0.4,3.2,0.5,4.4c0.9,1.2,2.4,2.2,4.6,2.9l8.6,2.7c2.3,0.7,4.1,0.8,5.5,0.3
		s2.4-1.6,2.9-3.4c0.5-1.7,0.4-3.2-0.5-4.4c-0.9-1.2-2.4-2.2-4.7-2.9L410.7,275.6z"/>
	<path class="st8" d="M437.3,246.4l-1,6.1l-21.7,6.8l0,0.1l20.1,3.2l-1,6.1l-31.6-5l1-6.1l21.8-6.8l0-0.1l-20.2-3.2l1-6.1
		L437.3,246.4z"/>
	<path class="st8" d="M438,232.9l-0.3,6.2l-31.9-1.7l0.3-6.2L438,232.9z"/>
</g>
</svg>
