<?xml version="1.0" encoding="utf-8"?>
<!-- Generator: Adobe Illustrator 22.0.1, SVG Export Plug-In . SVG Version: 6.00 Build 0)  -->
<svg version="1.1" id="Layer_1" xmlns="http://www.w3.org/2000/svg" xmlns:xlink="http://www.w3.org/1999/xlink" x="0px" y="0px"
	 viewBox="0 0 841.9 595.3" style="enable-background:new 0 0 841.9 595.3;" xml:space="preserve">
<style type="text/css">
	.st0{fill:#FECC40;}
	.st1{fill:#FAB42B;}
	.st2{fill:#5B271C;}
	.st3{fill:#3C1711;}
	.st4{fill:#FCD29F;}
	.st5{fill:#EDBA7E;}
</style>
<g>
	<path class="st0" d="M586.9,250.2c0,82.2-66.6,148.8-148.8,148.8c-82.2,0-148.8-66.6-148.8-148.8c0-82.2,66.6-148.8,148.8-148.8
		C520.3,101.4,586.9,168,586.9,250.2z"/>
	<path class="st1" d="M438.2,101.4C438.2,101.4,438.2,101.4,438.2,101.4c-82.2,0-148.9,66.6-148.9,148.8
		c0,82.2,66.6,148.8,148.8,148.8c0,0,0,0,0.1,0V101.4z"/>
	<path class="st2" d="M436.2,151.2c-43.9,0-79.5,42.3-79.5,94.5v182.5h158.9V245.7C515.7,193.5,480.1,151.2,436.2,151.2z"/>
	<path class="st3" d="M438.1,151.3c-0.6,0-1.3-0.1-2-0.1c-43.9,0-79.5,42.3-79.5,94.5v182.5h81.4V151.3z"/>
	<path class="st4" d="M438.2,327.9c0,0-29.9,1-20.3,21c1.5,0.7,3,1.4,4.3,1.8c1.5,0.5,4,1,6.9,1.2c0.8-0.2,1.5-0.5,2.2-1.2
		c2.9-2.9,6.8-2.3,6.8-2.3s3.9-0.5,6.8,2.3c0.6,0.6,1.4,1,2.2,1.2c2.9-0.2,5.3-0.7,6.9-1.2c1.3-0.5,2.8-1.1,4.3-1.7
		C468.2,328.8,438.2,327.9,438.2,327.9z"/>
	<path class="st4" d="M438.1,185v132.6c0,0,0.1,0,0.1,0s16.4,2,25.8,10.5c5,4.6,6.4,8.9,10,11.9c0.3-0.3,0.6-0.5,0.9-0.8
		c9.9-11.3,6.5-23.1,16.7-36.9c7.7-10.5,7.6-51.5,7.6-51.5C499.1,210.7,471.8,185,438.1,185z"/>
	<path class="st5" d="M438.1,185v132.6c0,0-0.1,0-0.1,0s-16.4,2-25.8,10.5c-5,4.6-6.4,8.9-10,11.9c-0.3-0.3-0.6-0.5-0.9-0.8
		c-9.9-11.3-6.5-23.1-16.7-36.9c-7.7-10.5-7.6-51.5-7.6-51.5C377.1,210.7,404.5,185,438.1,185z"/>
	<path class="st5" d="M379.8,428.2h58.4v-54.1c0,0-1.7,0-5.1,0.2c-3.4,0.2-13.9,3-20.3-4.3c-4.6-5.4-13.5-12.6-22.2-22.1
		c0,0,3.1,34.4,1.8,43.9C391,402.5,379.8,428.2,379.8,428.2z"/>
	<path class="st4" d="M496.6,428.2h-58.4v-54.1c0,0,1.7,0,5.1,0.2c3.4,0.2,13.9,3,20.3-4.3c4.6-5.4,13.5-12.6,22.2-22.1
		c0,0-3.1,34.4-1.8,43.9C485.3,402.5,496.6,428.2,496.6,428.2z"/>
	<path class="st2" d="M491.5,248.6c0,0-5-8.3-20.7-8.3c-15.7,0-27.5,10.1-27.5,20c0,9.9,0.8,34.3,3.2,42c0,0-3.2-40.9,4-48.8
		C457.1,246.4,473,239.5,491.5,248.6z"/>
	<path class="st3" d="M430.6,251c0,0-7.2-10.7-23.1-10.7c-16,0-22.6,10.7-22.6,10.7s8.3-7.3,22.9-7.2c14.6,0.1,20.7,11.6,20.7,11.6
		L430.6,251z"/>
	<path class="st2" d="M445.2,309.4c-1.8,2.1-2.3,4.4-7,4.4c-4.7,0-5.2-2.3-7-4.4c-1.8-2.1-5.4,0-5.4,0s3.7-1.6,6.2,2.9
		c2.2,3.9,6.2,3.8,6.2,3.8s4,0.1,6.2-3.8c2.5-4.4,6.2-2.9,6.2-2.9S447,307.4,445.2,309.4z"/>
	<path class="st3" d="M438.1,313.8c-4.6,0-5.1-2.3-6.9-4.4c-1.8-2.1-5.4,0-5.4,0s3.7-1.6,6.2,2.9c2.1,3.7,5.8,3.8,6.1,3.8V313.8z"/>
	<path class="st5" d="M438.1,327.9c-1.2,0-29.6,1.4-20.2,21c1.5,0.7,3,1.4,4.3,1.8c1.5,0.5,4,1,6.9,1.2c0.8-0.2,1.5-0.5,2.2-1.2
		c2.8-2.7,6.4-2.4,6.7-2.3V327.9z"/>
</g>
</svg>
