<?xml version="1.0" encoding="utf-8"?>
<!-- Generator: Adobe Illustrator 22.0.0, SVG Export Plug-In . SVG Version: 6.00 Build 0)  -->
<svg version="1.1" id="Livello_1" xmlns="http://www.w3.org/2000/svg" xmlns:xlink="http://www.w3.org/1999/xlink" x="0px" y="0px"
	 viewBox="0 0 784.9 561.8" style="enable-background:new 0 0 784.9 561.8;" xml:space="preserve">
<style type="text/css">
	.st0{fill:#FFFFFF;}
</style>
<g>
	<path class="st0" d="M149.4,283.1c0-87.1,0-174.3-0.1-261.4c0-3.3,0.5-4.2,4-4.1c161.6,0.1,323.3,0.1,484.9,0.1
		c4.2,0,4.2,0,4.2,4.3c0,174.5,0,348.9,0,523.4c0,0.8-0.1,1.7,0,2.5c0.2,1.4-0.1,2.1-1.7,1.8c-1-0.1-2,0-3,0
		c-161.1,0-322.3,0-483.4,0c-1.2,0-2.4-0.1-3.5,0c-1.5,0.3-1.5-0.5-1.4-1.6c0.1-1,0-2,0-3C149.4,457.7,149.4,370.4,149.4,283.1z
		 M291.3,183.6l-0.1-0.1c-1.8,2.8-0.6,4.7,1.8,6.2c2.2,1.3,4.6,1.5,6.3-0.6c1.8-2.1,1.2-4.6-0.3-6.4c-0.9-1.1-2.8-1.5-4.3-1.8
		c-1.5-0.2-2.4-0.4-2.3-2.3c0.1-1.2-0.6-2.5-0.8-3.8c-0.5-3.4-4.4-6.7-7.6-5.9c-2,0.5-2.1-0.2-2.6-1.6c-1-3.2-1.9-3.4-4.4-1.3
		c-1.4,1.1-2.1,2.4-4.4,1.1c-2.5-1.4-4.2,0.2-4.6,3.1c-0.2,1.5-1,2.9-1.3,4.4c-0.3,1.1-0.7,2.4-0.4,3.4c1.1,3.3-0.5,3.6-3.2,3.8
		c-1,0.1-2.9,1.5-2.8,1.8c0.4,1.4,1.2,3,2.3,3.9c0.7,0.5,3.2,0.1,3.4-0.5c0.8-2.2-1.4-1.4-2.4-1.8c-0.4-0.1-0.7-0.5-1.5-1
		c2.1-0.5,3.8-1,5.4-1.4c2.9-0.6,3.4,0,3.1,2.9c-0.3,3-0.5,6-0.4,8.9c0.2,3.7,3,6.7,6.4,7.4c4,0.8,8.8-0.8,10.1-3.8
		c1.7-4,2.3-8.2,0.7-12.4l0.1,0.1C288.2,184,288.4,181.6,291.3,183.6z M335.4,78.6l0.1,0.1c0.6-3.4,1.2-6.8,2-10.2
		c0.1-0.5,1.1-1,1.7-1.2c3-0.6,4.3-2.2,3.8-5.2c-0.2-1.1-1.1-2.2-1-3.3c0.2-2.6-0.4-4.2-2.9-5.6c-2.1-1.2-3.4-3.8-6.3-1.5
		c-0.3,0.3-1.3-0.5-1.9-0.3c-1.3,0.3-2.5,0.9-3.7,1.5c-0.8,0.4-1.4,1.2-2.3,1.4c-4.2,1.2-5.3,4.6-2.9,8.5c0.8,1.3,1.2,3.3,0.8,4.7
		c-1.3,4.9-0.7,9.2,3.6,13c-2.3,0.5-4.1,0.8-5.8,1.3c-1.1,0.3-2.9,0.7-3,1.4c-0.4,2.4-1.6,1.7-3.1,1.4c-1.9-0.3-5.4,3.2-5.1,5
		c0.5,2.7,2.8,2.3,4.7,2.6c1.7,0.2,3.3,0.6,5,0.9c1.6,0.3,3.3,1.1,4.9,0.9c3.4-0.6,2.9,1,2.7,3.3c-0.6,5.6-1.1,11.1-1.4,16.7
		c-0.1,2.3-0.1,4.5,2.6,5.9c2.1,1.1,1.5,2.7-0.6,3.8c-1.2,0.6-2.8,1.5-3.1,2.6c-0.5,1.8-1.4,2-2.8,1.9c-3.2-0.2-6.3-0.4-9.5-0.4
		c-9.3-0.2-9.9,0.4-9.2,10.1c0,0.2,0,0.3,0,0.5c0.5,8.3-0.3,8.1,7.8,10.1c6,1.4,7.1,4.9,4.6,10.5c-1.2,2.6-1.9,5.7-1.9,8.6
		c0.1,5.6,3.2,8,8.7,8.2c3.4,0.1,7,0.4,10.1,1.7c4.4,1.9,8.4,4.6,12.3,7.3c4,2.7,5.8,10.2,3.3,14.4c-2.7,4.5-5.3,9.5-9.1,13
		c-5.2,4.8-5.6,10.1-4.4,16.3c0.8,4,0.7,4.1-3.5,4.2c-16.6,0.3-33.3,0.5-49.9,0.8c-2.6,0.1-3.6-0.9-3.7-3.4c-0.1-1.4-0.3-3-1.2-4.1
		c-2.5-3.2-2.3-7.5,1-9.5c3.8-2.4,5.3-6.1,6.1-10.2c0.2-0.9-0.8-2-1.2-3c-0.6,0.7-1.2,1.4-1.8,2.1c-1.5,2.3-2.7,4.8-4.6,6.7
		c-1.3,1.3-3.5,1.6-5.3,2.3c-0.4-1.3-1-2.5-1.3-3.8c-0.3-1.3-0.1-2.7-0.5-3.9c-0.2-0.7-1.1-1.7-1.5-1.7c-0.8,0.1-2.1,0.8-2.2,1.4
		c-0.3,2.3-0.2,4.6-0.2,6.9c0.1,5.6,0.2,11.3,0.2,16.9c0,2.3-0.9,3.7-3.6,3.5c-4.5-0.2-9-0.1-13.5-0.3c-0.9,0-2.3-0.8-2.4-1.4
		c-0.5-3.2-0.8-6.5-0.9-9.8c-0.1-3.8,0.9-4.8,4.6-4.6c2.8,0.1,5.6,0.8,8.4,0.9c1.6,0.1,3.2-0.3,4.8-0.7c0.4-0.1,1-1.2,0.8-1.5
		c-0.3-0.6-1.1-1.4-1.7-1.4c-1.9-0.1-3.8-0.1-5.7,0.2c-3.8,0.7-7.2-0.7-10.1-2.5c-2.4-1.4-3.1-0.5-3.4,1.3c-0.4,2.4-0.1,5-0.5,7.4
		c-0.1,0.9-1.2,1.6-1.8,2.4c-0.5-0.8-1.3-1.6-1.4-2.5c-0.4-4.1-0.5-8.3-0.9-12.4c-0.2-1.9,0.3-4.8-2.3-4.8c-2.8-0.1-2.8,3-2.9,5
		c-0.2,4.6,0.2,9.3,0,14c-0.1,2.8-1,5.7-1.7,8.4c-0.1,0.4-1.4,0.7-2.1,0.8c-2.6,0.1-5.3,0.2-7.9,0.2c-7-0.2-13.9-0.4-20.9-0.7
		c-9.1-0.3-18.2-0.7-27.4-0.9c-5.5-0.1-11,0.1-16.4,0.5c-1.2,0.1-2.2,1.4-3.4,2.2c0.7,1,1.2,2.2,2.1,3c2.2,1.7,4.7,3.1,7,4.8
		c6.6,4.7,13.1,9.6,19.7,14.3c3.3,2.3,3.5,2.3-0.1,4.5c-9,5.4-15.7,13.3-22.9,20.6c-0.6,0.7-1.1,1.6-1.6,2.3c1,0.3,2,1,3,1
		c7.6-0.1,15.3-0.4,22.9-0.5c5.1-0.1,10.3,0.2,15.4,0.1c4.1-0.1,8.3-0.7,12.4-0.8c13.9-0.4,27.9-0.5,41.8-0.9
		c10.3-0.3,20.6-0.8,30.9-1.3c15.6-0.7,31.2-1.3,46.8-2c6.1-0.3,12.3-0.8,18.4-1.2c2.2-0.2,3.9,0.3,4.4,2.9
		c1.4,7.6,2.1,15.3-0.7,22.7c-4,10.6-11.6,18.6-20.4,25.3c-8.4,6.5-18.3,9.9-28.7,12.2c-1.2,0.3-2.7,1.4-3.3,2.5
		c-1.9,4-3.8,8.1-4.9,12.4c-1.4,5.9,0.2,8.9,5.9,11.6c2.9,1.4,6.2,2.3,9.5,2.7c7.3,0.9,14.6,1.3,21.8,2.1c5.7,0.7,11.9,2.1,14.3,7.7
		c2.7,6.3,3.5,13.4-0.4,19.7c-3.3,5.3-7.4,10.2-11.3,15.2c-1.8,2.3-4.2,3.6-7.4,3.4c-5.1-0.4-10.3-0.3-15.5-0.6
		c-2.1-0.1-3.7,0.1-3.8,2.6l0.2-0.2c-1.7-1.2-3.1-1.5-3.4,1.2c-0.1,1,0,2-0.1,3c-0.5,5.8-0.5,5.8-6.2,5.9c-1,0-2,0-3,0
		c-15.9,0.8-31.9-2.3-47.8-0.2c-2.4,0.3-2.9-0.1-1.9-2.9c1-2.6,0.5-5.9,0.2-8.9c-0.1-1-1.6-2.5-2.4-2.5c-1.7,0-3.8,0.3-4.9,1.4
		c-1.9,1.8,0.2,9.8,2.7,11.8c-4.6,0-4.6,0-4.7-4c-0.1-2.3-0.2-4.7-0.3-7c-0.3-4.8-0.2-5,4.8-4.8c7.6,0.3,15.3,1,22.9,1.1
		c12.5,0.3,24.9,0.1,37.4,0.4c8.8,0.3,17.6,1.2,26.4,1.6c1.2,0.1,2.5-0.8,3.7-1.2c-1.3-0.6-2.5-1.5-3.8-1.6
		c-5.5-0.3-11-0.3-16.5-0.5c-8.3-0.3-16.6-0.7-24.9-1.1c-1.1-0.1-2.9-0.1-1.7-1.8c3.1-4.2,1.8-9,1.9-13.5c0.2-5.6-2.2-9.7-7.1-12.2
		c-4.5-2.2-5.8-5.7-5.9-10.5c-0.1-4.9-0.9-10-2.2-14.7c-1.9-6.5-7.8-7.6-12-2.2c-4,5.1-8.3,10.3-10.7,16.1
		c-4.1,9.9-7.3,20.4-3.2,31.4c0.6,1.5,1.3,3,1.9,4.5c0.3-1.7,0.6-3.4,0.9-5.1c1-7.9-2.2-16,1.8-23.9c3.6-7.1,6.1-14.8,11.6-20.8
		c3-3.3,5.8-2.7,6.9,1.5c0.8,3.3,1.2,6.9,0.9,10.3c-0.7,7.9,0.2,14.6,8.5,18.3c1.8,0.8,3.2,3.3,4.2,5.3c1.8,3.9,0.7,7.8-0.7,11.6
		c-2.3,5.8-3,6-9.3,5.6c-10.6-0.6-21.2-1.1-31.9-1.4c-5.7-0.1-7.1,1.4-7.5,6.8c-0.3,4.3-0.2,8.6-0.4,13c-0.1,2.3,1.1,3.7,3.2,3.4
		c3.4-0.3,3.5,1.6,3.9,4.2c1.2,6.5,2.5,13.1,6.3,18.7c0.5,0.8,0.7,1.8,1,2.7c-0.9,0.2-1.9,0.5-2.8,0.4c-11.3-1.3-20.4,3.7-28.8,10.2
		c-1.3,1-2.5,2.8-3,4.4c-0.9,3.4-1.5,6.8-1.6,10.3c-0.1,3.6-1.3,5-5,4.9c-1.9-0.1-4,0.6-5.8,1.2c-5.6,2-10.1,5.2-10.9,11.7
		c-0.4,3.8-0.4,7.6-0.8,11.4c-0.3,3,0.6,5.3,3.1,6.8c3.3,1.9,6.6,4,10.1,5.4c11.7,4.8,24.2,6,36.6,7.2c16.2,1.6,32.5,2.2,48.8,1.4
		c14.6-0.7,29.3-0.3,43.9-0.3c4.1,0,8.3,0,12.4-0.1c8.3-0.1,16.6-0.4,24.9-0.4c7,0,13.9,0.2,20.9,0.3c1.7,0,3.3,0.1,5-0.1
		c8.7-0.9,17.5-2,26.2-2.7c14.1-1.1,28.2-2.2,42.3-3c16.6-0.9,33.2-1.4,49.8-2c13.8-0.5,26.9-4.1,39.4-10c3.2-1.5,5.9-3.8,6.1-7.3
		c0.3-4.9-0.1-9.9-0.5-14.8c-0.1-1.7-0.8-3.9-2-4.8c-3.3-2.5-6.9-4.7-10.6-6.6c-3.2-1.7-4.4-2.8-5.2-6.5c-0.1-0.5-0.3-1.3-0.5-1.4
		c-4.2-0.4-2.9-4.3-4.2-6.5c-0.9-1.5-2.3-3-3.8-3.8c-7.9-3.7-15.4-8.7-24.7-8.3c-2,0.1-2.6-0.3-1.3-2.5c3.5-6.2,6.9-12.5,9.8-19
		c1.4-3.3,1.7-7.1,2.4-10.7c0.5-2.5,1.1-4.2,4.1-2.4c2.2,1.3,3.2-0.1,3.1-2c-0.1-4.3-0.4-8.6-0.9-12.9c-0.1-0.8-1.6-2-2.5-2.2
		c-2.5-0.3-5-0.2-7.5-0.2c-2.7,0-2.7-0.9-1.2-2.8c2.7-3.5,4.4-7.6,4-12.1c-1-13.8-6.1-26.5-12-38.8c-0.8-1.6-3.4-3.4-4.9-3.2
		c-1.6,0.2-3.5,2.5-4.1,4.3c-1.1,3.8-1.9,7.8-2,11.7c-0.2,7.6-1.2,14.6-7.9,19.4c-0.9,0.7-1.6,1.7-2.2,2.7
		c-2.6,4.6-5.7,8.9-3.5,14.8c1.6,4,1.3,4.1-3,4.6c-2,0.2-4,0.4-6,0.5c-8.8,0.3-17.6,0.6-26.4,1c-2.1,0.1-5.7-0.6-5,2.9
		c0.5,3.1,3.7,1.1,5.5,1c9.3-0.6,18.5-1.5,27.8-2.2c6.3-0.5,12.8,1.8,19.1-0.4c0.4-0.2,1,0,1.5,0.1c8.1,0.1,16.3,0.4,24.4,0.2
		c2.6-0.1,3.3,0.4,3.2,2.8c-0.1,1.5,0.2,3.1-0.2,4.5c-0.2,0.8-1.3,1.9-2.1,2c-4.1,0.5-8.2,0.9-12.4,1c-5.6,0.3-11.3,0.2-16.9,0.5
		c-8.3,0.4-16.6,1-24.9,1.6c-2.2,0.1-3.3-0.3-2.9-3c0.6-4.3-0.2-4.9-4.5-4.2c-1,0.1-2,0.3-2.9,0.5c-5.1,1.2-10.1,1.8-14.7-1.7
		c-1-0.8-2.4-1.1-3.6-1.7c-8.5-4.6-17.1-8.9-25.3-13.8c-5.5-3.3-6.1-10.3-1.1-14.6c4.9-4.2,10.1-8.4,15.9-11
		c10.2-4.5,21-7.2,32.2-8.2c1.9-0.2,4.3-0.6,5.4-1.9c5.2-6.2,5.4-16.9,0.6-23.4c-0.7-1-2.1-1.7-3.2-2c-4.5-1.1-9.1-2.1-13.7-2.8
		c-10.5-1.6-20.3-5.2-29.7-10c-2-1-4.1-2.4-5.6-4c-8.1-9.2-12.6-19.8-10.9-32.3c0.2-1.8,0.7-3.6,0.6-5.5c-0.1-3.2,1.1-4.2,4.4-4.2
		c14.5,0.1,29,0,43.5-0.2c5.7-0.1,11.3-0.5,17-0.6c4.5,0,9,0.6,13.4,0.5c19.4-0.4,38.9-0.8,58.3-1.5c12.8-0.5,25.6-1.4,38.3-2.2
		c9.8-0.5,19.6-1.1,29.4-1.5c5.5-0.2,11,0,16.5-0.3c1.2,0,3.1-0.9,3.2-1.6c0.2-1.2-0.4-3-1.3-3.8c-3.3-2.8-6.9-5.2-10.3-7.9
		c-3.7-2.9-7.2-5.9-10.8-8.8c-1.5-1.2-1.6-2.3,0.1-3.5c4.2-2.9,8.5-5.9,12.7-8.8c2.9-2,5.9-3.7,8.6-5.9c1.1-0.9,2.1-2.7,2-4.1
		c0-0.8-2.1-2-3.4-2.2c-4.6-0.7-9.2-1.4-13.9-1.5c-9.8-0.1-19.4,3.1-29.2,1.7c-0.6-0.1-1.3,0.2-2,0.2c-9.5,0.2-18.9,0.5-28.4,0.4
		c-3.8,0-6.4-3-6.8-6.6c-0.5-5-0.3-5.3,5.4-7.3c0,1.6-0.2,3.1,0,4.5c0.4,2.3,1.1,4.5,1.8,6.7c0.1,0.3,0.8,0.5,1.2,0.7
		c0.2-0.4,0.6-0.8,0.6-1.2c-0.1-4.1-0.2-8.2-0.5-12.3c-0.2-3.8-0.4-4-3.4-1.9c-6.1,4.4-12.5,4.8-19.4,2c-4.6-1.9-4.6-1.8-5.4,3
		c-0.7,4.5-0.2,9.3-2.9,12.7c-1-4.6-1.9-9.6-3.3-14.5c-0.6-1.9-2.3-3.5-3.8-5.1c-2-2.1-4.6-3.8-6.4-6.1c-3.3-4.2-7.4-6.7-12.7-6.9
		c-2.2-0.1-4.5,0-7.3,0c1.7-1.7,3.9-3.2,3.7-3.7c-0.9-2.4-2.7-0.5-4.2-0.3c-1.1,0.1-2.1-0.1-3.2-0.1c0.7-1,1.2-2.2,2.1-3
		c0.7-0.6,1.8-0.9,2.7-1.1c4.5-1.1,7.6-4,10.1-7.7c1.4-2.1,2.3-4.7,5.6-2.2c0.6,0.4,2.5-0.6,3.6-1.2c1.2-0.7,2.2-1.6,3.8-2.9
		c-0.8,8.2,2.5,13.8,8.3,18.3c2.7,2.2,5.3,3.8,8.9,3.6c2.5-0.1,5,0.3,7.5,0.3c5.1,0.1,10.3,0.9,15.3,0.1c7.8-1.2,14.5-4.3,15.8-13.5
		c0.1-0.6,0.5-1.2,0.7-1.9c1.2-3.8,1.4-3.9,4.9-2.3c0.5,0.2,0.8,1.8,0.7,1.9c-1.8,1.1-2.4,2.1-0.6,3.9c0.2,0.2-0.4,1.8-1,2.4
		c-0.7,0.6-2,0.6-2.7,1.3c-0.5,0.5-0.9,1.8-0.6,2.3c2.3,3.6,2.4,3.6-1.6,4.2c-2,0.3-3.9,0.3-2.5,3.3c0.2,0.4-1.1,2-2,2.4
		c-0.7,0.3-1.9-0.4-2.8-0.5c-1.4-0.1-3.1-0.8-1.8,2.1c1.6,3.4,2.6,7.5-0.7,10.6c-3.7,3.5-3.7,7.7-3,12c0.2,1.1,1.7,1.9,2.6,2.9
		c0.3-1.1,0.8-2.3,0.9-3.4c0.3-2.9-0.4-6.2,0.8-8.6c1.6-3.1,2.7-5.9,2.5-9.4c-0.1-1.1,0.1-2.7,0.7-3.1c2.8-1.9,5.9-3.6,8.9-5.1
		c4.1-2,0.6-8.5,5.9-9.9c0.4-0.1,0.9-2.1,0.5-2.7c-1.7-3,1.1-8.2-4.3-9.6c-0.4-0.1-0.5-1.4-0.6-2.2c-0.2-1.3-0.1-2.8-0.7-3.9
		c-0.8-1.6-2.1-3-3.1-4.5c-0.6,1.6-1.4,3.2-1.7,4.8c-0.9,4.4-1,9-2.4,13.2c-2,6.3-9.1,11.8-14.3,11.4c-7.8-0.5-15.6-1.2-23.3-2.2
		c-6.6-0.9-9.8-4.4-10.9-11.1c-0.6-3.7-1.4-7.4-2.1-11.2c-0.1-0.6-0.5-1.2-0.8-1.7c-0.6,0.5-1.3,0.9-1.8,1.4c-1.4,1.7-2.7,3.4-4,5.1
		c-0.9-2-0.6-3.6-0.9-5c-0.3-1.2-1.2-2.4-1.8-3.5c-0.7,1-1.5,1.9-2.1,3c-0.7,1.5-0.8,3.3-1.8,4.5c-2.4,2.9-4.9,5.7-7.8,8.1
		c-2.3,1.9-5.2,2.9-7.7,4.5s-4.7,3.4-3.7,6.9c0.8,2.8,4.4,5.8,7.2,5.9c1.8,0.1,3.7,0.1,5.5-0.2c4.8-0.9,7.9,1.2,10.7,4.8
		c2.3,2.8,5,5.3,7.5,8c0.5,0.6,1.1,1.8,0.8,2.2c-2.4,3.5-0.8,7.1-0.4,10.7c0.1,1,1.4,1.8,2.2,2.8c0.1-1.1,0.3-2.2,0.4-3.3
		c0.1-1,0-2,0-3.1c1,2.3,1.4,4.8,2.1,7.1c0.7,2.3-0.4,2.6-2.2,2.6c-3,0-6,0-8.9,0.1c-6.3,0.2-12.6,0.4-18.9,0.8
		c-5.6,0.3-11.2,1-16.8,1.2c-9,0.4-17.9,0.6-26.9,0.8c-6.3,0.2-12.6,0.3-18.9,0.4c-2,0-4,0-1.8-2.8c3.9-5,3.3-10.2,0-15.3
		c-2-3.1-3.9-6.2-6-9.2c-2.8-3.9-3.1-8.3-1.1-12.3c5.3-10.4,13.4-17.3,25.6-18.3c3.3-0.3,6.6-0.1,9.9-0.5c1.1-0.1,2.5-1,3.1-1.9
		c4.2-6.6,0.3-15.2-7.3-16.1c-2.6-0.3-2.4-1.3-1.9-3.3c1.4-5.2,4.7-8.5,9.9-9.2c2.8-0.4,3.2-1.7,3.2-3.9c-0.1-3.5-0.1-6.9-0.4-10.4
		c-0.2-2-1.3-2.6-3.5-2.4c-4.3,0.4-8.6,0.3-13,0.4c-1.3,0-2.8,0.2-2.7-1.9c0-3.4-2.1-4-4.7-3c-2.6,1.1-2.7-0.2-2.7-2.2
		c0.1-4.7-0.3-9.5,5.8-11.1c1.2-0.3,2.6-1.5,0.9-2.9c-4.4-3.9-3.8-9.3-4.5-14.4c-0.3-1.9,0.1-2.7,2.4-2.3c2,0.3,4.2-0.1,6.3-0.4
		c0.4-0.1,0.6-1,0.9-1.5c-0.4-0.2-0.9-0.4-1.3-0.5c-1.8-0.3-3.9,0-5.3-0.8s-3.4-3.6-3-4.1c2.6-3.9,2.9-8.1,2.9-12.4
		c0-1.5,0.5-2,2.1-1.7c1.9,0.4,3.9,0.7,5.9,0.4c1.6-0.2,2.9-2.7,1.5-3.1c-3.8-1-3-4.4-4.5-6.5c-0.9-1.3-2.6-2.9-4-3
		s-3.2,1.4-4.4,2.6c-0.8,0.9-0.8,2.6-1.5,3.6c-0.7,0.9-1.9,1.7-3,1.7c-0.6,0-1.4-1.4-2-2.3c-0.6-0.9-1-2.8-1.5-2.9
		c-1.5,0-3.5,0.2-4.4,1.2c-2.5,2.8-4.8,5.5-8.8,6.1c-0.7,0.1-1.6,1.5-1.5,2.2c0,0.7,1.2,1.9,1.9,1.9c2.8-0.1,5.8,0.2,8.2-1
		c2.8-1.4,2.9-0.7,3.1,1.8c0.2,3.8-1.3,8.1,2.3,11.3c0.2,0.2-0.1,1.2-0.3,1.8c-1.8,4-5.3,5.5-9.4,4.1c-0.7-0.3-1.5-0.2-2.3-0.4
		c0.5,0.8,0.9,1.8,1.6,2.2c3.7,2.3,7.3,1.6,11.4-1.7c-0.6,2.8-0.6,5-1.5,6.5c-2.3,3.8-5.1,7.3-7.6,11c-0.9,1.3-1.5,2.8-2.2,4.2
		c1.4,0.5,2.9,1.6,4.3,1.5c3.2-0.2,4.3,1,3.8,4c-0.2,1.1-0.2,2.3-0.2,3.5c0,2-0.2,3.3-2.9,3.5c-1.6,0.1-3.8,1.9-4.2,3.4
		c-0.6,2.3-1.5,2.8-3.6,3c-14.4,1.5-28.8,2.9-43.3,1.8c-1.8-0.1-3-0.5-3.8-2.4c-3-6.8-3.7-13.5,0.8-19.9c2.2-3.2,3.2-6.6,2.4-10.4
		c-0.8-3.7-1.4-7.8-3.5-10.7c-3.8-5.4-4.3-9.7,1.1-14c0.3-0.2,0.6-0.5,0.6-0.8c0.1-0.7,0.3-1.9,0-2.2c-0.7-0.5-1.9-0.8-2.6-0.5
		c-7.2,3.7-8.5,13.5-2.7,19.1c1,1,2.3,2.2,2.6,3.5c1.3,5.4,1.7,11-1.2,16c-2.5,4.4-3.6,8.8-2.8,13.9c0.4,2.6,0.4,5.3,0.5,8
		c-3,0.1-6,0.2-9,0.1c-0.8,0-2.2-0.6-2.3-1.2c-0.7-4-3.3-2.9-5.7-2.4c-1,0.2-2,0-3.1,0c0.3-1.5,0.1-4.1,0.8-4.4
		c4.5-1.5,3.3-4.7,2.6-7.7c-0.8-3.6-2-7.1-2.7-10.6c-0.5-2.2-0.5-4.6-0.5-6.9c-0.1-1.8,0.9-2.7,2.8-2.5c2.3,0.3,4.6,0.6,6.9,0.7
		c3.8,0.2,4.8-1.6,4-5.2c-1-4.3-4.9-4.6-7.6-6.1C342.9,79.4,338.9,79.4,335.4,78.6z M364.8,50.3c0.1,0,0.2,0,0.3,0
		c0,1.8-0.2,3.7,0.1,5.5c0.3,1.9,0.9,3.9,1.5,5.7c1.9,5.2,5.4,7,9.9,4.2c3.3-2,4-0.3,4.8,1.9c0.6,1.5,0.5,3.3,1,4.8
		c0.6,2,0.9,4.9,2.3,5.8c5.5,3.7,4.3,8.4,2.6,13.3c-1,2.7-2.2,5.2-3.4,7.8c-1.1,2.1-2.3,4.1,1.5,4.6c0.5,0.1,1.1,1.4,1.2,2.2
		c0.5,4.9,0.9,9.9,1.4,14.8c0.1,1.1,0.8,2.2,1.3,3.3c0.4-1.2,1-2.3,1-3.5c0.3-5.1,0.4-10.3,0.5-15.5c0-0.8,0.1-2-0.3-2.4
		c-3.1-3-0.7-5.7,0.3-8.5c0.7-1.9,1.6-3.7,2.1-5.6c1.2-4.4,0.3-8.7-2.6-9.8c-4.4-1.7-4.9-4.7-4.8-8.7c0-3.2-0.5-6.3-4.1-7.9
		c-0.7-0.3-1.1-1.8-1.1-2.8c0.3-4.9-0.2-9.9,2.6-14.5c0.8-1.3,0.9-3.2,0.8-4.9c0-1.2-0.8-2.4-1.4-3.5c-0.7-1.4-1.3-2.7-2.1-4
		c-0.8-1.3-1.7-3.3-2.8-3.6c-1.2-0.3-3,1-4.1,2c-1.3,1.2-2,3.5-3.4,4c-2.9,1.1-3.7,3.2-4.1,5.7C365.3,44,365.1,47.1,364.8,50.3z
		 M312.3,285.2c-7.5,0.6-13.1,1.7-17,5.9c-4.9,5.4-9.5,11-13.7,17c-7.6,10.8-12.9,22.8-15.3,35.9c-0.2,1.1,0.4,2.3,0.6,3.4
		c1-0.7,2.5-1.2,2.8-2.1c1-2.6,1.6-5.4,2.3-8.1c2.8-10.7,8.1-20.3,13.7-29.7c4.4-7.5,10.9-12.9,18.2-16.5c8.5-4.3,11.3-2.3,14.7,5.1
		c1,2.3,1.8,4.7,3,6.9c0.4,0.8,1.8,1.1,2.7,1.6c0.3-1,1-2.2,0.7-3c-1.6-3.8-3.2-7.7-5.4-11.2C317.6,287.2,314.7,284.8,312.3,285.2z
		 M500.7,338.5c-0.2-0.9-0.3-1.4-0.4-1.9c-2.1-6.3-4-12.7-6.4-18.8c-1.6-4-4.4-7.5-6.1-11.4c-3.7-8.8-10-15.2-18-20.1
		c-9.8-6.1-26.1,0.3-29.2,11.4c-0.2,0.7,0.2,1.5,0.3,2.3c0.9-0.2,2.1-0.1,2.5-0.7c1.3-1.5,2.3-3.3,3.3-5c2.7-4.4,6.4-6.3,11.6-6.1
		c7.3,0.3,13.1,3,17.8,8.6c6.7,7.9,12.6,16.3,15.9,26.3c1.7,5.2,3.2,10.5,5,15.6c0.3,0.8,1.5,1.3,2.3,1.9
		C499.9,339.8,500.4,339.1,500.7,338.5z M264.8,193.4c0.8-0.4,1.6-0.7,2.5-1.1c-0.8-0.9-1.5-2-2.4-2.8c-0.4-0.3-1.3,0.1-1.9,0.1
		c-5.2,0.1-10.1-1.4-15-2.7c-2.5-0.7-6.1-2.1-7.5-1c-4.1,3.2-12.5,2.7-11.1,11.3c0,0.2-0.4,0.5-0.5,0.8c-0.8,2.3-2,4.6-2.2,7
		c-0.3,2.7,0.2,5.6,0.7,8.3c0.1,0.7,1.3,1.3,2,1.9c0.4-0.8,1.1-1.5,1-2.3c-0.1-2.1-1.1-4.4-0.5-6.3c0.9-2.7-1.3-6.4,2.7-8.1
		c0.3-0.1,0.7-1.3,0.5-1.6c-1-1.5-1-2.7,0.7-3.7c1.3-0.9,2.4-2.8,3.7-2.9c4.7-0.2,9.8-0.9,14.1,0.5
		C255.9,192.5,260,193.3,264.8,193.4z M410.5,85.5c0.2-4-2-4.6-4.2-4.7c-1.9-0.1-3.3,1-3,3.1c0.4,3,2.9,3.5,5.2,3.5
		C409.4,87.4,410.2,85.8,410.5,85.5z M329.7,313.4c-1-1.9-1.9-3.7-3-5.5c-0.1-0.1-1.6,0.5-1.6,0.6c0.3,2,0.6,4,1.2,5.9
		c0.2,0.5,1.3,1.1,1.9,1C328.7,315.3,329,314.3,329.7,313.4z M440.2,315.6c-1.5-0.5-2.7-1.3-3.3-1c-1,0.5-1.8,1.7-2.2,2.7
		c-0.2,0.5,0.9,1.4,1.5,2.2C437,318.6,437.9,317.8,440.2,315.6z M445.4,80.9c-0.8,0.6-1.1,0.9-1.4,1.1c0.4,0.2,1,0.3,1.1,0.6
		c0.3,0.6,0.5,1.3,0.4,1.9c-0.1,0.6-0.5,1.2-0.7,1.8c0.8,0,1.9,0.3,2.3-0.1c0.7-0.7,1.6-2.2,1.3-2.8
		C447.7,82.4,446.4,81.7,445.4,80.9z M439.3,305.9c-0.7-0.7-1.2-1.2-1.6-1.7c-0.6,0.9-1.4,1.7-1.7,2.7c-0.1,0.4,0.7,1.1,1.1,1.7
		C437.8,307.8,438.4,307,439.3,305.9z M333.9,321.9c-2.2-1.9-3-2.6-3.8-3.2c-0.4,0.6-1.3,1.4-1.2,1.7c0.5,0.9,1.2,1.8,2.1,2.3
		C331.5,323,332.5,322.3,333.9,321.9z"/>
	<path d="M308.3,419.7c0.1-2.5,1.7-2.7,3.8-2.6c5.1,0.3,10.3,0.3,15.5,0.6c3.2,0.2,5.6-1,7.4-3.4c3.9-5,8-9.9,11.3-15.2
		c3.9-6.3,3.1-13.4,0.4-19.7c-2.4-5.6-8.5-7.1-14.3-7.7c-7.3-0.8-14.6-1.2-21.8-2.1c-3.2-0.4-6.5-1.4-9.5-2.7
		c-5.7-2.7-7.3-5.6-5.9-11.6c1-4.3,3-8.4,4.9-12.4c0.5-1.1,2-2.3,3.3-2.5c10.3-2.3,20.2-5.7,28.7-12.2c8.8-6.8,16.4-14.8,20.4-25.3
		c2.8-7.4,2.1-15.1,0.7-22.7c-0.5-2.6-2.2-3-4.4-2.9c-6.1,0.4-12.3,1-18.4,1.2c-15.6,0.7-31.2,1.3-46.8,2c-10.3,0.4-20.6,1-30.9,1.3
		c-13.9,0.4-27.9,0.6-41.8,0.9c-4.1,0.1-8.3,0.7-12.4,0.8c-5.1,0.1-10.3-0.2-15.4-0.1c-7.6,0.1-15.3,0.4-22.9,0.5c-1,0-2-0.6-3-1
		c0.5-0.8,0.9-1.7,1.6-2.3c7.2-7.4,13.9-15.3,22.9-20.6c3.6-2.2,3.4-2.2,0.1-4.5c-6.7-4.7-13.1-9.5-19.7-14.3
		c-2.3-1.6-4.8-3.1-7-4.8c-0.9-0.7-1.4-2-2.1-3c1.1-0.8,2.2-2.1,3.4-2.2c5.5-0.4,11-0.6,16.4-0.5c9.1,0.2,18.3,0.6,27.4,0.9
		c7,0.2,13.9,0.5,20.9,0.7c2.6,0.1,5.3,0,7.9-0.2c0.7,0,2-0.4,2.1-0.8c0.7-2.8,1.5-5.6,1.7-8.4c0.2-4.6-0.2-9.3,0-14
		c0.1-2,0.1-5.1,2.9-5c2.6,0.1,2.1,3,2.3,4.8c0.4,4.1,0.5,8.3,0.9,12.4c0.1,0.9,0.9,1.7,1.4,2.5c0.6-0.8,1.7-1.5,1.8-2.4
		c0.3-2.4,0.1-5,0.5-7.4c0.3-1.8,0.9-2.7,3.4-1.3c3,1.7,6.4,3.1,10.1,2.5c1.9-0.3,3.8-0.3,5.7-0.2c0.6,0,1.4,0.8,1.7,1.4
		c0.2,0.3-0.4,1.4-0.8,1.5c-1.6,0.4-3.2,0.8-4.8,0.7c-2.8-0.1-5.6-0.8-8.4-0.9c-3.7-0.2-4.7,0.8-4.6,4.6c0.1,3.3,0.4,6.6,0.9,9.8
		c0.1,0.6,1.6,1.4,2.4,1.4c4.5,0.2,9,0,13.5,0.3c2.7,0.1,3.6-1.3,3.6-3.5c0-5.6-0.2-11.3-0.2-16.9c0-2.3-0.1-4.6,0.2-6.9
		c0.1-0.6,1.4-1.3,2.2-1.4c0.4-0.1,1.3,1,1.5,1.7c0.3,1.3,0.2,2.7,0.5,3.9c0.3,1.3,0.8,2.5,1.3,3.8c1.8-0.7,4-1.1,5.3-2.3
		c1.9-1.9,3-4.5,4.6-6.7c0.5-0.8,1.2-1.4,1.8-2.1c0.4,1,1.4,2.1,1.2,3c-0.8,4.1-2.3,7.8-6.1,10.2c-3.3,2.1-3.5,6.4-1,9.5
		c0.8,1,1.1,2.7,1.2,4.1c0.1,2.5,1.1,3.4,3.7,3.4c16.6-0.3,33.3-0.5,49.9-0.8c4.3-0.1,4.3-0.1,3.5-4.2c-1.2-6.2-0.8-11.5,4.4-16.3
		c3.8-3.5,6.4-8.5,9.1-13c2.5-4.1,0.7-11.6-3.3-14.4c-4-2.7-8-5.4-12.3-7.3c-3-1.3-6.7-1.6-10.1-1.7c-5.5-0.2-8.6-2.5-8.7-8.2
		c0-2.9,0.7-5.9,1.9-8.6c2.5-5.6,1.4-9.1-4.6-10.5c-8.1-1.9-7.2-1.7-7.8-10.1c0-0.2,0-0.3,0-0.5c-0.7-9.7-0.1-10.3,9.2-10.1
		c3.2,0.1,6.3,0.3,9.5,0.4c1.4,0.1,2.4-0.1,2.8-1.9c0.3-1.1,1.9-2,3.1-2.6c2.1-1.1,2.6-2.7,0.6-3.8c-2.7-1.4-2.8-3.6-2.6-5.9
		c0.3-5.6,0.8-11.2,1.4-16.7c0.3-2.3,0.7-3.9-2.7-3.3c-1.5,0.3-3.2-0.5-4.9-0.9c-1.7-0.3-3.3-0.7-5-0.9c-1.9-0.3-4.2,0.1-4.7-2.6
		c-0.3-1.8,3.2-5.3,5.1-5c1.5,0.2,2.7,0.9,3.1-1.4c0.1-0.6,1.9-1,3-1.4c1.7-0.5,3.5-0.8,5.8-1.3c-4.3-3.8-5-8.1-3.6-13
		c0.4-1.4,0-3.4-0.8-4.7c-2.4-3.8-1.4-7.2,2.9-8.5c0.8-0.2,1.5-1,2.3-1.4c1.2-0.6,2.4-1.1,3.7-1.5c0.6-0.2,1.6,0.6,1.9,0.3
		c2.9-2.4,4.2,0.3,6.3,1.5c2.5,1.4,3.1,3,2.9,5.6c-0.1,1.1,0.8,2.2,1,3.3c0.4,3-0.9,4.6-3.8,5.2c-0.6,0.1-1.6,0.7-1.7,1.2
		c-0.8,3.4-1.4,6.8-2,10.2c-4.4,1.4-8,5.1-13,5c-3.1-0.1-3.2,1.9-3.3,4.3c-0.1,2.8,1,4,3.6,4.1c1.1,0,2.4,0,3.4-0.5
		c2.8-1.4,2.7,0.4,2.6,2.2c0,1.2-0.2,2.3-0.4,3.5c-0.7,5.2,0.3,6.2,5.8,5.8c1.9-0.2,3.1-0.6,2.8-3c-0.2-2.3,0-4.6,0.1-7
		c0.2-2.7,1.4-4.4,4.4-4.2c1.6,0.1,3.4,0.8,3.6-1.9c0.2-2.2-0.3-3.6-2.7-4.5c-2.6-0.9-4.9-2.6-7.3-3.9c3.6,0.8,7.5,0.8,10.5,2.5
		c2.7,1.5,6.6,1.9,7.6,6.1c0.8,3.6-0.1,5.4-4,5.2c-2.3-0.1-4.6-0.4-6.9-0.7c-1.9-0.2-2.9,0.7-2.8,2.5c0.1,2.3,0.1,4.6,0.5,6.9
		c0.7,3.6,1.9,7.1,2.7,10.6c0.7,3,1.9,6.2-2.6,7.7c-0.7,0.2-0.6,2.8-0.8,4.4c1,0,2.1,0.2,3.1,0c2.5-0.4,5.1-1.5,5.7,2.4
		c0.1,0.5,1.5,1.1,2.3,1.2c3,0.1,6,0,9-0.1c-0.2-2.7-0.1-5.3-0.5-8c-0.8-5,0.4-9.5,2.8-13.9c2.8-5,2.4-10.6,1.2-16
		c-0.3-1.3-1.6-2.5-2.6-3.5c-5.8-5.6-4.4-15.4,2.7-19.1c0.6-0.3,1.9,0,2.6,0.5c0.3,0.2,0.1,1.4,0,2.2c0,0.3-0.3,0.6-0.6,0.8
		c-5.3,4.3-4.9,8.7-1.1,14c2.1,2.9,2.7,7,3.5,10.7s-0.2,7.1-2.4,10.4c-4.5,6.4-3.8,13.1-0.8,19.9c0.8,1.9,2,2.2,3.8,2.4
		c14.5,1.1,28.9-0.3,43.3-1.8c2-0.2,3-0.7,3.6-3c0.4-1.4,2.7-3.2,4.2-3.4c2.7-0.2,2.9-1.5,2.9-3.5c0-1.2,0-2.3,0.2-3.5
		c0.5-3-0.6-4.2-3.8-4c-1.4,0.1-2.9-1-4.3-1.5c0.7-1.4,1.3-2.9,2.2-4.2c2.5-3.7,5.3-7.2,7.6-11c0.9-1.6,0.9-3.7,1.5-6.5
		c-4.1,3.3-7.7,4-11.4,1.7c-0.7-0.4-1.1-1.5-1.6-2.2c0.8,0.1,1.6,0.1,2.3,0.4c4.1,1.4,7.7-0.1,9.4-4.1c0.2-0.6,0.6-1.6,0.3-1.8
		c-3.6-3.2-2.1-7.5-2.3-11.3c-0.1-2.5-0.2-3.2-3.1-1.8c-2.3,1.1-5.4,0.9-8.2,1c-0.6,0-1.8-1.2-1.9-1.9s0.9-2.1,1.5-2.2
		c4-0.6,6.3-3.3,8.8-6.1c0.9-1,2.9-1.2,4.4-1.2c0.5,0,0.9,1.9,1.5,2.9c0.6,0.9,1.3,2.3,2,2.3c1,0,2.3-0.8,3-1.7
		c0.8-1,0.7-2.7,1.5-3.6c1.2-1.2,2.9-2.6,4.4-2.6c1.4,0.1,3.1,1.7,4,3c1.5,2.1,0.7,5.5,4.5,6.5c1.4,0.4,0.1,2.9-1.5,3.1
		c-1.9,0.2-3.9,0-5.9-0.4c-1.6-0.3-2.1,0.2-2.1,1.7c0,4.4-0.3,8.6-2.9,12.4c-0.4,0.5,1.6,3.3,3,4.1s3.5,0.6,5.3,0.8
		c0.5,0.1,0.9,0.3,1.3,0.5c-0.3,0.5-0.6,1.5-0.9,1.5c-2.1,0.3-4.3,0.7-6.3,0.4c-2.3-0.3-2.6,0.4-2.4,2.3c0.7,5,0.1,10.4,4.5,14.4
		c1.6,1.5,0.3,2.6-0.9,2.9c-6.1,1.6-5.7,6.4-5.8,11.1c0,1.9,0,3.2,2.7,2.2c2.6-1.1,4.7-0.4,4.7,3c0,2.1,1.4,1.9,2.7,1.9
		c4.3-0.1,8.7,0,13-0.4c2.2-0.2,3.3,0.4,3.5,2.4c0.3,3.5,0.3,6.9,0.4,10.4c0.1,2.2-0.4,3.5-3.2,3.9c-5.2,0.7-8.6,4-9.9,9.2
		c-0.5,1.9-0.7,2.9,1.9,3.3c7.6,0.9,11.5,9.5,7.3,16.1c-0.6,0.9-2,1.8-3.1,1.9c-3.3,0.4-6.6,0.2-9.9,0.5c-12.1,1-20.2,7.9-25.6,18.3
		c-2,4-1.7,8.4,1.1,12.3c2.1,3,4,6.1,6,9.2c3.4,5.1,3.9,10.2,0,15.3c-2.2,2.9-0.3,2.9,1.8,2.8c6.3-0.1,12.6-0.3,18.9-0.4
		c9-0.2,17.9-0.4,26.9-0.8c5.6-0.2,11.2-0.9,16.8-1.2c6.3-0.4,12.6-0.5,18.9-0.8c3-0.1,6-0.1,8.9-0.1c1.8,0,2.9-0.3,2.2-2.6
		c-0.7-2.3-1.1-4.8-2.1-7.1c0,1,0.1,2,0,3.1c-0.1,1.1-0.3,2.2-0.4,3.3c-0.8-0.9-2.1-1.8-2.2-2.8c-0.3-3.5-1.9-7.2,0.4-10.7
		c0.3-0.4-0.3-1.7-0.8-2.2c-2.4-2.7-5.2-5.1-7.5-8c-2.8-3.5-5.9-5.7-10.7-4.8c-1.8,0.4-3.7,0.3-5.5,0.2c-2.8-0.1-6.4-3.1-7.2-5.9
		c-0.9-3.4,1.2-5.3,3.7-6.9s5.4-2.6,7.7-4.5c2.9-2.4,5.4-5.2,7.8-8.1c1-1.2,1.1-3.1,1.8-4.5c0.5-1.1,1.4-2,2.1-3
		c0.6,1.2,1.5,2.3,1.8,3.5c0.3,1.4,0.1,3,0.9,5c1.3-1.7,2.6-3.5,4-5.1c0.5-0.6,1.2-1,1.8-1.4c0.3,0.6,0.7,1.1,0.8,1.7
		c0.8,3.7,1.5,7.4,2.1,11.2c1.1,6.7,4.2,10.2,10.9,11.1c7.7,1,15.5,1.7,23.3,2.2c5.2,0.4,12.3-5.1,14.3-11.4
		c1.3-4.2,1.5-8.8,2.4-13.2c0.3-1.7,1.1-3.2,1.7-4.8c1.1,1.5,2.3,2.9,3.1,4.5c0.6,1.1,0.4,2.6,0.7,3.9c0.1,0.8,0.3,2.1,0.6,2.2
		c5.4,1.4,2.6,6.5,4.3,9.6c0.4,0.6-0.1,2.6-0.5,2.7c-5.3,1.4-1.8,7.9-5.9,9.9c-3.1,1.5-6.1,3.2-8.9,5.1c-0.7,0.4-0.8,2.1-0.7,3.1
		c0.2,3.5-0.9,6.3-2.5,9.4c-1.2,2.4-0.5,5.7-0.8,8.6c-0.1,1.2-0.6,2.3-0.9,3.4c-0.9-1-2.4-1.8-2.6-2.9c-0.7-4.3-0.7-8.5,3-12
		c3.3-3.1,2.3-7.2,0.7-10.6c-1.4-3,0.3-2.2,1.8-2.1c1,0.1,2.1,0.8,2.8,0.5c0.9-0.4,2.2-1.9,2-2.4c-1.4-3,0.6-3,2.5-3.3
		c4-0.6,4-0.6,1.6-4.2c-0.3-0.5,0.1-1.8,0.6-2.3c0.7-0.6,2-0.6,2.7-1.3c0.6-0.6,1.2-2.2,1-2.4c-1.8-1.7-1.2-2.8,0.6-3.9
		c0.1-0.1-0.2-1.7-0.7-1.9c-3.6-1.6-3.7-1.5-4.9,2.3c-0.2,0.6-0.6,1.2-0.7,1.9c-1.3,9.1-8.1,12.3-15.8,13.5c-5,0.7-10.2,0-15.3-0.1
		c-2.5-0.1-5-0.4-7.5-0.3c-3.6,0.2-6.2-1.4-8.9-3.6c-5.8-4.6-9-10.1-8.3-18.3c-1.6,1.3-2.7,2.2-3.8,2.9c-1.1,0.6-3,1.7-3.6,1.2
		c-3.3-2.5-4.2,0.1-5.6,2.2c-2.5,3.7-5.6,6.5-10.1,7.7c-1,0.2-2,0.5-2.7,1.1c-0.9,0.8-1.4,2-2.1,3c1.1,0.1,2.2,0.2,3.2,0.1
		c1.5-0.1,3.3-2,4.2,0.3c0.2,0.5-1.9,2-3.7,3.7c2.9,0,5.1-0.1,7.3,0c5.3,0.3,9.4,2.7,12.7,6.9c1.8,2.3,4.4,4,6.4,6.1
		c1.4,1.5,3.2,3.2,3.8,5.1c1.4,4.9,2.3,9.9,3.3,14.5c2.7-3.3,2.2-8.2,2.9-12.7c0.8-4.9,0.8-4.9,5.4-3c6.8,2.7,13.3,2.4,19.4-2
		c2.9-2.1,3.1-2,3.4,1.9c0.2,4.1,0.3,8.2,0.5,12.3c0,0.4-0.4,0.8-0.6,1.2c-0.4-0.2-1.1-0.4-1.2-0.7c-0.7-2.2-1.3-4.4-1.8-6.7
		c-0.3-1.4,0-2.9,0-4.5c-5.7,2-5.9,2.3-5.4,7.3c0.3,3.6,2.9,6.6,6.8,6.6c9.5,0.1,18.9-0.2,28.4-0.4c0.7,0,1.3-0.3,2-0.2
		c9.9,1.4,19.5-1.8,29.2-1.7c4.6,0.1,9.3,0.8,13.9,1.5c1.3,0.2,3.3,1.4,3.4,2.2c0.1,1.3-0.9,3.2-2,4.1c-2.7,2.2-5.7,3.9-8.6,5.9
		c-4.2,2.9-8.4,5.9-12.7,8.8c-1.7,1.2-1.6,2.3-0.1,3.5c3.6,2.9,7.2,5.9,10.8,8.8c3.4,2.7,7,5.1,10.3,7.9c0.9,0.8,1.5,2.6,1.3,3.8
		c-0.1,0.7-2.1,1.5-3.2,1.6c-5.5,0.2-11,0-16.5,0.3c-9.8,0.4-19.6,0.9-29.4,1.5c-12.8,0.7-25.6,1.7-38.3,2.2
		c-19.4,0.7-38.9,1.1-58.3,1.5c-4.5,0.1-9-0.5-13.4-0.5c-5.7,0-11.3,0.5-17,0.6c-14.5,0.1-29,0.3-43.5,0.2c-3.3,0-4.5,1-4.4,4.2
		c0.1,1.8-0.3,3.6-0.6,5.5c-1.7,12.6,2.8,23.1,10.9,32.3c1.5,1.7,3.6,3,5.6,4c9.4,4.8,19.2,8.4,29.7,10c4.6,0.7,9.2,1.7,13.7,2.8
		c1.2,0.3,2.5,1,3.2,2c4.7,6.5,4.5,17.2-0.6,23.4c-1.1,1.3-3.5,1.7-5.4,1.9c-11.2,1-22.1,3.7-32.2,8.2c-5.8,2.6-11,6.8-15.9,11
		c-5,4.3-4.4,11.3,1.1,14.6c8.2,4.9,16.8,9.3,25.3,13.8c1.2,0.6,2.6,0.9,3.6,1.7c4.6,3.6,9.6,2.9,14.7,1.7c1-0.2,2-0.4,2.9-0.5
		c4.4-0.7,5.2-0.1,4.5,4.2c-0.4,2.7,0.7,3.2,2.9,3c8.3-0.6,16.6-1.2,24.9-1.6c5.6-0.3,11.3-0.2,16.9-0.5c4.1-0.2,8.3-0.5,12.4-1
		c0.8-0.1,1.9-1.2,2.1-2c0.4-1.4,0.1-3,0.2-4.5c0.1-2.4-0.6-2.9-3.2-2.8c-8.1,0.2-16.3-0.1-24.4-0.2c-0.5,0-1-0.2-1.5-0.1
		c-6.3,2.2-12.7-0.1-19.1,0.4c-9.3,0.7-18.5,1.6-27.8,2.2c-1.9,0.1-5,2.2-5.5-1c-0.6-3.5,2.9-2.8,5-2.9c8.8-0.4,17.6-0.7,26.4-1
		c2-0.1,4-0.3,6-0.5c4.3-0.5,4.6-0.6,3-4.6c-2.3-5.8,0.9-10.2,3.5-14.8c0.6-1,1.3-2,2.2-2.7c6.7-4.9,7.7-11.9,7.9-19.4
		c0.1-3.9,0.9-7.9,2-11.7c0.5-1.8,2.5-4.1,4.1-4.3c1.5-0.2,4.2,1.6,4.9,3.2c5.9,12.3,11,25,12,38.8c0.3,4.5-1.3,8.5-4,12.1
		c-1.5,1.9-1.5,2.8,1.2,2.8c2.5,0,5-0.2,7.5,0.2c1,0.1,2.4,1.3,2.5,2.2c0.5,4.3,0.8,8.6,0.9,12.9c0,1.9-0.9,3.4-3.1,2
		c-3-1.8-3.7-0.1-4.1,2.4c-0.7,3.6-0.9,7.4-2.4,10.7c-2.9,6.5-6.3,12.8-9.8,19c-1.3,2.2-0.7,2.6,1.3,2.5c9.3-0.4,16.8,4.6,24.7,8.3
		c1.5,0.7,2.9,2.3,3.8,3.8c1.3,2.2,0,6.1,4.2,6.5c0.2,0,0.3,0.9,0.5,1.4c0.8,3.7,2.1,4.9,5.2,6.5c3.7,1.9,7.3,4.1,10.6,6.6
		c1.2,0.9,1.9,3.1,2,4.8c0.4,4.9,0.8,9.9,0.5,14.8c-0.2,3.5-2.9,5.8-6.1,7.3c-12.5,5.9-25.5,9.5-39.4,10c-16.6,0.6-33.2,1.2-49.8,2
		c-14.1,0.7-28.2,1.8-42.3,3c-8.8,0.7-17.5,1.8-26.2,2.7c-1.6,0.2-3.3,0.1-5,0.1c-7-0.1-13.9-0.4-20.9-0.3c-8.3,0-16.6,0.3-24.9,0.4
		c-4.1,0.1-8.3,0.1-12.4,0.1c-14.7,0.1-29.3-0.4-43.9,0.3c-16.3,0.8-32.6,0.2-48.8-1.4c-12.4-1.2-24.9-2.4-36.6-7.2
		c-3.5-1.4-6.8-3.5-10.1-5.4c-2.5-1.5-3.5-3.8-3.1-6.8c0.4-3.8,0.4-7.6,0.8-11.4c0.7-6.5,5.3-9.6,10.9-11.7c1.9-0.7,3.9-1.3,5.8-1.2
		c3.6,0.1,4.9-1.3,5-4.9c0.1-3.4,0.7-6.9,1.6-10.3c0.4-1.6,1.6-3.4,3-4.4c8.5-6.6,17.5-11.6,28.8-10.2c0.9,0.1,1.9-0.3,2.8-0.4
		c-0.3-0.9-0.5-1.9-1-2.7c-3.8-5.7-5.1-12.2-6.3-18.7c-0.5-2.5-0.5-4.5-3.9-4.2c-2.2,0.2-3.3-1.1-3.2-3.4c0.2-4.3,0-8.7,0.4-13
		c0.4-5.4,1.9-6.9,7.5-6.8c10.6,0.2,21.3,0.7,31.9,1.4c6.3,0.4,7,0.2,9.3-5.6c1.5-3.8,2.5-7.7,0.7-11.6c-0.9-2-2.3-4.5-4.2-5.3
		c-8.4-3.7-9.3-10.4-8.5-18.3c0.3-3.4-0.1-7-0.9-10.3c-1.1-4.3-3.9-4.8-6.9-1.5c-5.5,6-8,13.7-11.6,20.8c-4,7.9-0.8,16-1.8,23.9
		c-0.2,1.7-0.6,3.4-0.9,5.1c-0.6-1.5-1.3-2.9-1.9-4.5c-4.1-11-0.9-21.4,3.2-31.4c2.4-5.9,6.7-11,10.7-16.1c4.2-5.4,10.2-4.3,12,2.2
		c1.4,4.7,2.1,9.8,2.2,14.7c0.1,4.8,1.4,8.3,5.9,10.5c4.9,2.4,7.3,6.5,7.1,12.2c-0.2,4.6,1.1,9.3-1.9,13.5c-1.3,1.8,0.6,1.8,1.7,1.8
		c8.3,0.4,16.6,0.8,24.9,1.1c5.5,0.2,11,0.2,16.5,0.5c1.3,0.1,2.5,1.1,3.8,1.6c-1.2,0.4-2.5,1.2-3.7,1.2c-8.8-0.5-17.6-1.4-26.4-1.6
		c-12.5-0.4-24.9-0.2-37.4-0.4c-7.7-0.2-15.3-0.8-22.9-1.1c-5-0.2-5.1,0-4.8,4.8c0.1,2.3,0.2,4.7,0.3,7c0.1,4,0.1,4,4.7,4
		c-2.5-1.9-4.6-10-2.7-11.8c1.1-1.1,3.3-1.5,4.9-1.4c0.9,0,2.3,1.6,2.4,2.5c0.3,2.9,0.8,6.2-0.2,8.9c-1,2.8-0.5,3.2,1.9,2.9
		c16-2.1,31.9,1,47.8,0.2c1-0.1,2,0,3,0c5.6-0.1,5.6-0.1,6.2-5.9c0.1-1,0-2,0.1-3c0.3-2.7,1.7-2.3,3.4-1.2c0.1,3.5,0,6.9,0.4,10.4
		c0.1,0.7,1.8,1.2,2.7,1.8c0.1-0.7,0.2-1.4,0.2-2.2c0.1-3-1.5-6.3,2-8.4c2.7,0.1,3.2,1.9,3.2,4c0,1.3,0,2.8-0.5,3.9
		c-1,2.3-0.2,2.7,2,2.7c12.4-0.3,24.9-0.3,37.3-0.9c10.8-0.5,21.5-1.7,32.3-2.2c21.1-0.9,42.1-1.5,63.2-2.3c4.8-0.2,4.8-0.2,5.5-4.8
		c0.7-4.5,0.7-4.5-3.6-4.7c-9.3-0.4-18.4,2.1-27.7,0.8c-0.2,0-0.3,0.1-0.5,0.1c-9.1,0.5-18.2,1.4-27.2,1.5
		c-15.1,0.2-30.2-0.1-45.3,0c-11.4,0-22.8,0.3-34.3,0.5c-1.4,0-2.8,0.8-4.2,1.3C312,420.6,310.1,420.2,308.3,419.7z M421.1,60.3
		c-0.3,0.4-0.6,0.7-1,1.1c-0.1,0.1-0.2,0.1-0.3,0.2c0.1-0.1,0.1-0.2,0.2-0.3c0.3-0.4,0.6-0.8,1-1.1c0.3,0,0.6,0,0.8-0.1
		C421.6,60.2,421.3,60.2,421.1,60.3z M224.4,467.6c3.9-1,7.8-2.1,11.8-3.1c-4.7-1.4-8.7-0.6-11.7,3.2c-0.8,0.2-1.6,0.3-2.4,0.5
		c-1.4,0.8-2.9,1.5-4.3,2.5c-3.1,2.2-2.9,4.8,0.4,6.4c2.1,1,4.3,1.9,6.5,2.6c12.3,3.9,25.1,4.7,37.9,5c13.4,0.3,26.9,0.1,40.3,0.1
		c6.1,0,12.3,0.1,18.4,0.1c0.6,0,1.8-0.9,1.8-1.3c-0.4-3.3-4.8-6.5-8.2-6.5c-6.1-0.1-12.3-0.1-18.4-0.6s-12.2-2-18.3-2
		c-9.2,0-16.8-3.8-23.8-9c-2.9-2.2-5.6-3.2-9.1-2.8c-1.8,0.2-3.6,0.3-5.4,0.4c2.1,0.4,4.3,0.4,6.4,0.7c1.1,0.1,2,0.8,3.1,1.3
		c-0.6,1-1,2.5-1.9,3.1c-5.9,3.6-11.9,7.2-18,10.5c-2.8,1.5-8.4-0.6-10.3-3.4c-2.2-3.3,1.5-4.1,2.6-6c0.2-0.3,0.1-0.6,0.1-1
		C222.8,467.9,223.6,467.7,224.4,467.6z M438.4,62.5c0,0.1,0,0.3,0.1,0.4c0,0.1,0.2,0,0.3,0c-0.2-0.1-0.3-0.2-0.5-0.4
		c-0.3-1.8-0.5-3.6-1-5.3c-0.1-0.5-1.6-1.2-1.7-1.1c-1,1.1-2,2.2-2.5,3.5c-0.1,0.4,1.1,1.6,2,2C436.1,62.3,437.3,62.3,438.4,62.5z
		 M319.8,171.1c0.3,0,0.6,0,0.9,0c0.5-0.1,0.9-0.2,1.4-0.3c-0.5,0-0.9,0-1.4,0C320.4,170.9,320.1,171,319.8,171.1
		c-0.1-0.9,0.1-2-0.2-2.8c-1.4-4.5-0.3-7.5,3.7-9.3c0.8-0.3,2.1-0.4,2.7,0.1c0.6,0.4,0.9,2.3,0.6,2.5c-3.4,2.5-1.1,4.9-0.7,7.7
		c0.5,3.5,2.4,2.9,4.3,2.8c3-0.1,5.9-0.9,8.9-0.9c11.3,0.1,22.6,0.6,33.9,0.5c9.8-0.1,19.6-0.9,29.3-1.2c5.1-0.2,10.3,0.1,15.4-0.1
		c9.7-0.4,19.1-3.9,29-2.6c3.7,0.5,4.5-1.1,4-4.9c-0.6-4.4-1.1-4.9-5.8-5c-7.1-0.1-14.3,0.3-21.4,0.2c-10.8-0.1-21.5-0.5-32.3-0.7
		c-12.3-0.2-24.6-0.4-36.9-0.3c-10.1,0-20.3,0.2-30.4,0.7c-5.7,0.3-7.8,3.9-6.2,9.3C318.2,168.6,319.1,169.8,319.8,171.1z
		 M199.5,518.6c-0.2-0.1-0.4-0.2-0.7-0.3c0.3,0.1,0.5,0.1,0.8,0.2c1,0.7,2,1.6,3.1,2.2c6.1,3.3,12.9,4.3,19.6,5.4
		c8.7,1.3,17.4,3.4,26.1,3.8c13.3,0.7,26.6,0.2,39.9,0.2c9.6,0,19.3,0.1,28.9,0.1c9,0,17.9,0.1,26.9,0c12.1-0.1,24.2-0.4,36.3-0.6
		c6.7-0.1,13.6,0.3,20.2-0.8c18.8-3,37.8-2.9,56.7-4.2c8.6-0.6,17.3-0.8,25.9-1.3c12.9-0.8,25.9-2,38.8-2.6c9.5-0.4,18.3-3.1,26.8-7
		c4.1-1.9,5.7-4.9,5.4-9.1c0-0.3-0.1-0.7-0.1-1c-0.2-5.2-0.1-5.1-4.5-2.7c-5,2.7-10,5.3-15.2,7.5c-8.3,3.5-17.1,5-26.1,5.1
		c-6,0.1-11.9,1.1-17.9,1.4c-5.6,0.3-11.3,0.1-16.9,0.2c-5,0.1-10,0.6-14.9,0.6c-6.8-0.1-13.6-0.8-20.4-0.9c-12-0.2-23.9,0-35.9-0.1
		c-10-0.1-20-1.1-29.9-0.2c-11.5,1.1-22.8,0.7-34.3,0.5c-10.6-0.2-21.2-0.5-31.9-0.5c-14.1-0.1-28.2,0.3-42.2,0
		c-7-0.2-13.9-1.4-20.8-2.1c-6.9-0.6-13.9-1.3-20.9-1.6c-9.9-0.5-19.5-1.9-29.1-6.1c-0.3,3.1-0.7,6.1-1,9.1c0.5,0.1,1,0.1,1.6,0.2
		c0.2-1.4,0.2-2.8,0.6-4.1c0.2-0.8,1.3-2.1,1.5-2c2.2,0.9,5,1.5,6.2,3.2c1,1.4,0.2,4.1-0.2,6.2C201.8,517.9,200.3,518.2,199.5,518.6
		z M438.4,243.7c0,1.6-0.1,3,0.1,4.3c0.1,0.6,0.8,1.6,1.2,1.6c3.1-0.3,6.3,0.1,8.7-2.7c2.3-2.8,3.9-7.2,2.6-8.5
		c-2.7-2.6-5.6-0.9-8.3,0.2c-2.5,1-6.3,1,11-4.7c0.5,2.8,1.5,5.5,1.2,8.1c-0.3,2.5-1.6,5.1-2.9,7.3c-0.9,1.5-1.1,2.3,0.2,3.7
		c3.6,4,4.4,9.2,5,14.4c0.1,0.9-0.8,1.9-1.2,2.9c-0.8-0.8-2-1.6-2.3-2.6c-0.8-3-0.9-6.3-1.9-9.3c-1.4-4.3-7.6-6.8-11.5-4.7
		c-0.5,0.3-0.9,1.7-0.7,2.4c1,3.3,2.1,6.7,3.5,9.8c1.4,3.1,0.8,4.6-2.6,4.7c-3,0.1-4.7-1.2-4.9-4.4c-0.4-7.8-0.9-15.6-1.1-23.4
		c-0.1-2.6-1-3.2-3.3-2.7c-2.6,0.5-5.2,1.1-7.8,1.4c-2.4,0.2-3.1,1.1-2.7,3.5c1.3,7.2,2.4,14.4,3.5,21.7c0.2,1.1-0.1,3.3-0.5,3.4
		c-1.7,0.4-3.5,0.4-5.2,0c-0.4-0.1-0.6-2-0.7-3c-0.2-5.1-0.1-10.2-0.4-15.3c-0.2-2.6-0.9-5.2-1.3-7.8c-2.5,0.6-5,1.3-7.5,2
		c-0.3,0.1-0.6,0.3-0.9,0.3c-2.1,0.4-4,0.3-4.7-2.3c-0.7-3.2,0.3-5,3.2-5.4c2.6-0.4,5.3-0.7,7.9-0.8c6.3-0.2,12.6-0.2,18.9-0.2
		c1.7,0,4.3-2.5,4.9,1.5c0,0.1,0.6,0.2,0.7,0.1c0.9-1.8,1.8-3.6,2.8-5.5c-3,0-6.2-0.1-9.3,0c-6.1,0.3-12.3,0.9-18.4,1
		c-14.6,0.2-29.3-0.3-43.9,0.3c-11.3,0.5-22.4,2.2-33.8,1.9c-17-0.5-33.9,0-50.9-0.1c-13.6-0.1-27.3-1-40.9-0.6
		c-17.3,0.6-34.6,0.3-51.8-1.8c-1.1-0.1-2.3-0.1-3.5-0.1c-8.6,0.3-17.2,0.7-25.9,1c-0.9,0-1.7,0.2-3.3,0.4
		c8.9,6.4,17,12.5,25.3,18.2c4.3,2.9,4.7,4.9,0.6,8.2c-1.2,0.9-2.5,1.7-3.6,2.6c-5.7,5-11.3,10.1-16.9,15.1c3.3,0.8,6.1,0.9,8.9,0.8
		c4.7-0.1,9.3-0.3,14-0.5c4.1-0.2,8.2-0.7,12.4-0.7c3,0,6,0.7,8.9,0.6c18.9-1,37.9,0.1,56.8-2.5c6-0.8,12.3,0,18.4-0.3
		c5.3-0.2,10.6-1,15.9-1.4c7.6-0.5,15.2-0.6,22.9-1.1c11.1-0.7,22.2-2,33.4-2c15.8,0,31.6-0.3,47.4-0.5c13-0.2,25.9-0.4,38.9-0.6
		c15.6-0.2,31.3,0.5,46.8-0.8c11.5-1,22.9-0.6,34.3-1.1c11.4-0.5,22.9,0.1,34.4,0c4.8-0.1,9.6-1,14.4-1.2
		c14.7-0.8,29.5-1.4,45.1-2.1c-6.2-6.9-11.9-13-19.2-17.4c-1.3-0.8-3.1-2.5-2.9-3.4c0.3-1.5,1.8-3.4,3.2-3.8
		c7.9-2.2,13.3-8,19.6-12.6c0.8-0.6,1.2-1.7,1.8-2.6c-1-0.3-2.1-1-3.1-0.9c-3.3,0.2-6.6,0.9-9.9,1c-13.6,0.4-27.2,0.5-40.8,0.8
		c-9.6,0.2-19.3,0.6-28.9,1.1c-9.4,0.6-18.9,1.5-28.3,2.3c-0.8,0.1-1.9,0.7-2.1,1.3c-0.8,2.1-1.6,4.4-1.7,6.6c-0.2,6,0,12,0.1,18
		c0,2.2,0.2,4.3,0,6.5c-0.1,0.8-0.9,1.9-1.5,2.1c-0.6,0.1-1.8-0.6-2.2-1.3c-1.8-2.8-3.4-5.7-5.2-8.5c-2.7-4.2-5.5-8.3-8.2-12.5
		c-0.9,1.8-0.9,3.2-0.9,4.5c0,6,0.2,12,0.1,18c0,1.3-0.8,3.3-1.8,3.6c-1.4,0.5-3.5,0.2-4.7-0.6c-0.7-0.4-0.6-2.7-0.2-3.9
		c2.9-9.2,4.3-18.4,2.4-28c-0.1-0.5,0.1-1.5,0.4-1.7c0.7-0.3,1.8-0.5,2.3-0.1c0.9,0.7,1.3,1.8,2,2.7c4.4,5.6,8.8,11.2,13.1,16.9
		c0.9-6.6,0.8-12.9,1-19.2c0.1-4.8,0.2-4.9-4.8-4.6c-4.8,0.3-9.6,0.4-14.4,0.8C472.8,232.3,462.9,233.1,438.4,243.7z M394.3,432.3
		c0-0.1,0-0.1,0-0.2c-2.3,0-4.7,0-7,0c-9.3,0.2-18.6,0.2-27.9,0.8c-10.1,0.6-20.2,1.7-30.3,2.6c-4.8,0.4-9.6,0.7-14.4,1.3
		c-1.2,0.1-3.1,1.4-3.1,2.2c-0.1,11,0.2,22,7.5,31.3c3.2,4.1,7.2,7.9,7.9,13.5c0,0.4,0.9,1,1.4,1c2.5-0.1,5-0.3,7.4-0.5
		c-1.3-1.8-2.5-3.6-3.8-5.4c-0.4-0.5-0.9-0.9-1.4-1.4c-7.9-9.1-14.1-18.9-12.3-31.8c0.7-4.6,0.4-4.6,4.9-4.7
		c6.6-0.1,13.4,0.3,19.9-0.7c3.2-0.5,3.7,0.5,4.2,2.7c0.3,1.1,0.3,2.3,0.3,3.5c-0.4,5.5,0.7,10.7,3.3,15.4
		c3.6,6.7,7.9,13.1,11.5,19.8c1.3,2.4,2.8,2.9,5.3,2.9c8-0.1,16-0.4,23.9,0.5c9.5,1.2,18.9,0.2,28.3,0.4c7.3,0.2,11.9-3.4,15.9-8.6
		c9.9-12.9,14.1-28,16.3-43.8c0.3-2.2-0.9-2.5-2.6-2.5c-6.3,0.1-12.6-0.1-18.9,0.2C418.6,431.3,406.4,431.8,394.3,432.3z M433,485.8
		c2.1,0.3,3.3,0.6,4.6,0.6c4.7,0.1,9.3,0.1,14,0c18.3-0.2,36.5-0.5,54.8-0.7c8.2-0.1,15.7-2.5,22.5-7.1c3.8-2.5,4.5-8.3,1-11.1
		c-3.1-2.4-6.7-4.3-10.3-5.8c-3.2-1.4-6.7-1.9-10-3c-4.2-1.4-8-1.2-11.8,1.4c-3.4,2.3-7,4.5-10.8,6.2c-9.9,4.4-20.6,4.6-31.3,5.2
		c-1.1,0.1-2.4-0.1-3.4-0.4c-1.2-0.4-2.3-1.1-3.4-1.7c1.2-0.6,2.4-1.6,3.6-1.7c7.3-0.6,14.6-0.9,21.9-1.3c7.6-0.4,14.4-3.3,20.2-7.7
		c10.1-7.6,15.2-18.8,18.9-30.5c2.5-7.8,2-8.1-6.1-7.6c-5.8,0.4-11.6,1.1-17.4,1.3c-8.8,0.3-17.6,0.2-26.4,0.4c-1,0-2.7,1.1-2.9,1.9
		c-0.7,2.8-0.9,5.6-4.1,6.8c-0.5,0.2-0.5,1.5-0.7,2.3c-1.5,6.4-3,12.9-4.4,19.3c-0.5,2.3-0.3,4.9-1.3,6.8
		C445.2,468.5,442.3,478.8,433,485.8z M536.3,477.4c-4.3,4.9-9,7.8-15,8.9c-12.7,2.4-25.3,5.9-38.5,3.4c-0.6-0.1-1.3,0.1-2,0.1
		c-11.1,0.2-22.3,0.4-33.4,0.5c-9.8,0-19.6,0-29.3-0.2c-7.8-0.2-15.6-1-23.4-1.1c-7.1-0.2-14.3,0.3-21.4,0.2
		c-5.6-0.1-11.2-1.1-16.8-1.2c-10.1-0.1-20.2,0.2-30.3,0.3c-7.5,0-14.9-0.2-22.4-0.1c-5.3,0.1-10.6,0.8-15.9,0.7
		c-13.3-0.4-26.6-0.8-39.8-2.1c-9.9-0.9-19.7-3-29.4-5.1c-4.3-0.9-4.2-1.5-4.9,2.8c-0.2,1.3-0.4,2.7-0.2,4c0.1,0.8,1,1.5,1.5,2.2
		c0.1-0.8,0.2-1.5,0.4-2.3c0.4-1.5,0.4-3.8,1.3-4.2c3.9-1.7,8.5,2,7.6,6.2c-0.5,2.5,0,3.2,2.4,3.4c7.7,0.7,14.9,4.7,22.9,3.9
		c0.8-0.1,1.6,0.4,2.4,0.5c9.4,1.3,18.7,2.8,28.1,3.6c8.4,0.7,16.9,0.6,25.3,0.9c9.6,0.3,19.3,0.8,28.9,0.8c10,0,19.9-0.4,29.9-0.6
		c7.8-0.1,15.6-0.1,23.4-0.2c13.1-0.2,26.2-0.7,39.3-0.8c8-0.1,16,0.4,23.9,0.3c6.3-0.1,12.6-0.8,18.9-1c9.5-0.3,18.9-0.1,28.4-0.5
		c8.6-0.4,17.3-0.5,25.5-3.8C535.5,492,536.3,491,536.3,477.4z M424.2,173.4c-4,0-8-0.1-11.9,0c-11.5,0.3-22.9,0.9-34.4,1.1
		c-7.8,0.2-15.7,0-23.5,0c-0.8,0-1.5,0.4-2.3,0.6c0.3,0.7,0.5,1.5,0.9,2.1c1.2,1.6,2.7,3,3.8,4.6c6.3,9.7,6,19.5-0.9,28.2
		c-1,1.3-2.4,2.5-3.9,3c-1,0.4-2.4-0.5-3.6-0.8c0.3-0.9,0.4-2,0.9-2.7c2.8-4.2,5.2-8.5,5-13.8c-0.2-8.2-4.6-14-10.2-19.2
		c-0.8-0.8-2.3-0.8-4-1.4c3,3.2,5.6,5.5,7.6,8.3c5,7.1,7.5,17.5-1.5,25.7c-1.4,1.2-2.8,2.5-3.8,4c-2.1,3.3-4.4,6.7-5.7,10.3
		c-1.3,3.5,0,5.6,3.1,7.6c-0.3-4.3-2.1-9,3.1-11.9c0.3-5.9,4.9-4.2,8.1-4.3c3.6-0.2,7.3,0.3,11,0.3c15.4-0.2,30.9-0.5,46.3-0.7
		c0.7,0,1.4,0,2,0.2c0.4,0.1,0.8,0.7,0.8,1.1s-0.3,1-0.7,1.2c-0.7,0.3-1.6,0.5-2.4,0.6c-6.3,0.3-12.6,0.7-18.9,0.9
		c-12.4,0.4-24.9,0.7-37.3,1.1c-4.5,0.1-5.6,1.7-4.1,5.9c0.7,1.8,0.9,4.3,2.2,5c1.7,0.9,4.2,0.4,6.4,0.5c0.5,0,1-0.1,1.5-0.1
		c8.8-0.3,17.6-0.7,26.4-0.7c9.1,0,18.3,0.5,27.4,0.4c7.8-0.1,12.8-8.8,9.1-15.6c-1.6-2.9-3.6-5.6-6-8c-7.6-7.7-5.5-16.1-1.1-22.2
		C416.5,180.7,420.4,177.4,424.2,173.4z M317.9,340.5c4.6,0,8.6-0.5,12.4,0.1c11.2,1.6,22.3,0.2,33.4-0.3
		c13.3-0.5,26.6-1.2,39.9-1.7c3.2-0.1,6.3,0.1,9.5,0c10.6-0.4,21.2-0.8,31.9-1.2c3.3-0.1,6.5-0.5,9.8-0.8c-9-2.5-18-4.3-26.9-6.4
		c-14.3-3.3-24.8-11.5-28.5-26.1c-1.9-7.6-2.2-15.7-2.8-23.7c-0.3-4,0-4.2-4.1-4.1c-8.1,0.3-16.3,0.9-24.4,1.2
		c-2,0.1-2.6,0.9-2.1,2.9c0.3,1,0.4,2,0.6,2.9c2.9,15.9-0.7,30-11.6,42.1c-2.8,3.1-5.6,6.2-8.5,9.1c-4.4,4.5-10.9,6-17.9,4.2
		c0.9-0.7,1.6-1.5,2.4-1.9c7.7-4,13.5-10.3,19.2-16.5c9.5-10.2,9.1-23.1,7.8-35.8c-0.1-1.3-0.7-2.5-1-3.7c-0.3,3.8-0.5,7.4-0.3,11.1
		c0.6,16.6-7.3,28.6-20.2,37.8C330.8,333.6,324.7,336.6,317.9,340.5z M319.2,345c0-0.1,0-0.1,0-0.2c-4,0-8-0.1-12,0
		c-1.3,0-2.8,0.3-3.7,1.1c-3.5,3-4.9,11.5-3,15.8c0.9,2,1.9,3.3,4.6,2.5c1.8-0.6,3.9-0.4,5.9-0.4c7.8,0,15.6,0.1,23.3,0.2
		c4,0.1,7.9,0.4,11.9,0.4c3.8,0,7.6-0.1,11.4-0.4c3.1-0.2,6.3-0.6,9.4-0.9c3.6-0.3,7.3-0.3,10.9-0.6c3.3-0.2,6.6-0.6,9.9-0.9
		c2.8-0.2,5.6-0.4,8.4-0.6c11.1-0.8,22.2-1.6,33.3-2.3c9.3-0.6,18.6-1,27.8-1.7c3.7-0.3,5.9-3,6-6.8c0.1-2,0-4-0.3-6
		c-0.7-4.2-1.5-4.8-5.9-4.7c-13.3,0.3-26.6,0.7-39.8,1.1c-8.6,0.2-17.3,0.6-25.9,0.8c-11.5,0.3-22.9,0.5-34.4,1
		C344.4,343.1,331.8,344.1,319.2,345z M335.9,368.8c2.1,0.8,4.2,1.7,6.3,2.5c6.1,2.5,9.6,7.2,10.4,13.5c1.5,11.1-3.8,19.5-11.2,26.9
		c-1.8,1.8-4,3.3-6.8,5.5c6.5,0,11.8,0.2,17.1,0c20.4-0.8,40.8-1.7,61.3-2.6c2.7-0.1,5.3-0.1,8-0.1c2.8,0,5.6,0.3,8.3,0.1
		c2.6-0.2,5.2-0.9,8.7-1.5c-1.6-0.8-2.3-1.3-3.1-1.4c-10.1-2.4-18.4-8.2-26.7-14.2c-6.7-4.8-7.6-9.3-2.9-16
		c3.9-5.6,9.2-9.6,15.2-12.5c4-1.9,8-3.8,12.6-6c-10.4,0.5-20,0.7-29.6,1.3c-14.7,0.9-29.4,2.1-44.1,3.1c-2,0.1-2.4,0.6-1.3,2.3
		c0.9,1.2,1.7,2.5,2.6,3.6c3.3,4,4.7,8.6,4.7,13.8c0.1,7.5-2.6,13.9-6,20.3c-3.4,6.3-6,7.6-12.9,6c-2.6-0.6-2.8-1.5-1.2-3.7
		c3.1-4.3,6.1-8.7,9.3-12.9c4.7-6.4,4-13.4-0.1-19.1C350.5,371.6,344.7,366.7,335.9,368.8z M479.6,511.5c0-0.1,0-0.2,0-0.2
		c4.6-0.3,9.3-0.4,13.9-0.8c11.6-1,23.2-1.8,34.7-3.3c9.3-1.2,16.4-6.9,23.3-12.7c2-1.6,2.1-3.6-0.1-4.9c-2.9-1.8-6-3.3-9.1-4.9
		c-1.7-0.9-2.8-0.4-2.8,1.8c-0.1,3.7-1.9,6.3-4.8,8.8c-4.8,4.2-10.4,5.3-16.2,6.8c-11,2.8-22.1,2.8-33.2,3.4c-9,0.5-18,0-26.9,0
		c-7,0-14,0-21,0.1c-11.6,0.2-23.2,0.7-34.8,0.9c-10.8,0.2-21.6,0-32.4,0.1c-3,0-6,0.3-9,0.2c-6.3-0.1-12.6-0.5-18.9-0.4
		c-13.1,0.1-26.2,0.8-39.3,0.5c-10.2-0.2-20.5-0.9-30.7-2.3c-10.6-1.6-21.7-0.6-32-4.7c-0.7-0.3-1.6-0.2-2.5-0.2
		c-2.6-0.2-5.4,0-7.8-0.7c-6.3-1.9-12.5-4.3-18.8-6.5c-0.9-0.3-1.9-0.5-2.8-0.3c-3.7,0.7-7.4,1.7-11.2,2.5c-2.5,0.5-3.4,2.5-3.3,4.4
		c0.1,1.2,1.6,3,2.8,3.4c4.6,1.4,9.2,2.8,13.9,3.4c9.7,1.1,19.5,1.7,29.3,2.5c11.8,0.9,23.5,2.1,35.3,2.4
		c15.6,0.4,31.2,0.1,46.8,0.2c0.2,0,0.3,0,0.5,0c13,0.2,25.9,0.7,38.9,0.7c11.6,0,23.2-0.7,34.9-0.7c17.4,0.1,34.9,0.6,52.3,0.9
		c2.5,0,5-0.1,7.5-0.1C464,511.5,471.8,511.5,479.6,511.5z M315.1,473.5c-2.1-4.7-4.7-8.6-5.6-12.9c-1.2-5.6-1.8-11.5-1.6-17.3
		c0.2-4.3-3.4-6.5-4.4-10c-0.3-0.9-4.2-0.7-6.5-0.9c-1.3-0.1-2.7,0-4,0c-14.6,0-29.2,1.2-43.8-0.6c-1.3-0.2-2.6,0.1-4,0.2
		c-1.8,0.1-1.9,1-1.8,2.6c0.2,8.4,3.3,15.5,8.7,21.7c4.6,5.3,9.7,9.6,16.6,12.2C283.8,474.2,299.4,472.9,315.1,473.5z M325.1,143
		c1.2,3.1,2.9,5.5,2.8,7.9c-0.1,3.3,0.9,4,3.8,3.6c1.6-0.2,3.3-0.2,5-0.2c10.3-0.3,20.6-1,30.8-0.8c21.5,0.4,43.1,1.1,64.6,0.3
		c2.3-0.1,4.7-0.2,7-0.6c0.8-0.1,1.9-0.8,2.1-1.5c1.1-3.1,1.9-6.4,2.7-9.6c0.1-0.4-0.6-1.4-1-1.4c-6-0.1-12-0.3-17.9,0
		c-7.3,0.3-14.6,1.8-21.9,1.5c-8.1-0.3-16.1,1-24.3,0.5c-12-0.7-24.2,0.6-36.3,0.9C336.7,143.6,330.9,143.2,325.1,143z M438.6,136.1
		c0,0.1,0,0.3,0,0.4c3.8,0,7.7-0.1,11.5,0c2.2,0,3.3-0.4,2.9-3.1c-0.4-3-1.3-4.3-4.6-4.2c-15.1,0.6-30.2,1-45.3,1.3
		c-22.6,0.4-45.2,0.6-67.9,0.8c-5.1,0-10.3-0.5-15.4-0.6c-2.3,0-4.5,0.5-6.8,0.7c0.4,1.6,1.3,3.3,1.2,4.9c-0.1,2.7,1.2,3.5,3.5,3.5
		c5.6-0.1,11.3-0.1,16.9-0.2c4.8-0.1,9.6-0.3,14.4-0.4c7.1-0.1,14.3-0.2,21.4-0.2c6.4-0.1,12.9-0.2,19.3-0.3c3.7,0,7.3,0.1,11-0.1
		C413.4,137.9,426,137,438.6,136.1z M512.6,387.8c-0.3-13.9-6-24.6-11-35.4c-0.8-1.8-2.1-1.7-2.5,0.3c-0.7,4.1-2.2,8.3-1.6,12.3
		c1.2,8.5-1.5,14.6-8.4,19.2c-0.4,0.3-0.7,0.7-1.1,1c-5.6,4.2-4.8,10.1-4.1,15.9c0.2,1.6,0.9,2.6,2.9,2.5c5.8-0.2,11.6-0.1,17.3-0.3
		c0.9,0,2.2-0.4,2.5-1.1C509.3,397.3,513.5,392.7,512.6,387.8z M531.6,225.8C531.6,225.7,531.6,225.7,531.6,225.8
		c1.2-0.1,2.3-0.1,3.5-0.3c1.9-0.3,3.9-0.7,5.8-1.1c-0.4-1.3-0.9-2.7-1.3-4c-0.1-0.3,0-0.7,0-1c0-2.1,0.8-5.5-0.1-6
		c-1.8-1-4.5-0.3-6.7-0.6c-2.3-0.2-4.5-0.6-6.8-1c-0.1,2.3-0.2,4.5-0.3,6.8c0,0.7-0.2,1.3-0.3,2c-1.1,5.5-1.1,5.5,4.3,5.1
		C530.3,225.7,531,225.8,531.6,225.8z M429.4,84.2c-0.4,0-0.9,0-1.3,0.1c-0.1,0.6-0.2,1.2-0.2,1.8c0.1,6.6-2.7,11.8-7.4,16.2
		c-1,0.9-2.1,1.7-2.9,2.7c-0.3,0.3,0.2,1.7,0.3,1.7c4.9-0.3,9.8-0.5,14.7-1c1.6-0.1,1.8-1.2,0.8-2.4c-3-3.6-2.7-8.1-3-12.3
		C430.2,88.7,429.8,86.4,429.4,84.2z M333.8,107.9c0.4,0,0.8-0.1,1.2-0.1c0.2,0.6,0.6,1.2,0.7,1.8c0.2,1.8,0.5,3.7,0.3,5.5
		c-0.2,2.4,0.7,2.9,2.8,2.7c2.4-0.3,3.9-0.9,2.9-3.8c-0.4-1.2-0.4-2.6-0.6-3.9c-0.9-5.1-0.9-5-5.9-4.7c-1.5,0.1-3,0-4.4-0.3
		c-1.9-0.4-2.4,0.4-2.4,2c-0.1,2.8-0.1,5.7-0.5,8.5c-0.4,2.6,1.1,2.6,2.8,2.9c2.3,0.4,2.9-0.7,2.9-2.7
		C333.5,113.1,333.7,110.5,333.8,107.9z M339.3,58.8c0.4-0.2,0.7-0.4,1.1-0.6c-0.5-0.9-1.2-2.6-1.6-2.6c-1.7,0.3-3.6-3.5-5.2,0
		c-0.1,0.3-1.4,0.5-1.6,0.3c-1.2-1.4-1.7-1.1-2.3,0.4c-0.2,0.4-1.5,0.7-2.2,0.6c-2.7-0.5-3.5,0.2-3.2,2.7c0.5,2.9,4.2,4.9,7.3,4.1
		c0.7-0.2,1.9,0,2.4,0.4c1.2,1.2,1.8,1.2,2.5-0.4c0.2-0.4,1.1-0.6,1.6-0.5c0.9,0.1,1.9,0.5,2.8,0.7c-0.2-1.1-0.3-2.2-0.6-3.2
		C340,60.1,339.6,59.5,339.3,58.8z M335.2,70.9c0.3-2.9-0.8-3.6-6.8-4c-3.3-0.2-3.5,2.5-3.9,4.6c-0.5,3.5,1.6,6.6,4.7,7
		C332.3,79,334.6,76,335.2,70.9z M433.8,69.7c-0.4-1-0.6-2.8-1.2-2.9c-2.2-0.6-4.5-0.7-6.8-0.8c-0.3,0-0.9,0.9-0.9,1.4
		c-0.2,2.1-0.2,4.3-0.3,6.4c-0.1,2.2,1,3.4,3,4c2.1,0.5,3.7-0.2,4.4-2.2C432.8,73.7,433.2,71.8,433.8,69.7z M424.5,118
		c0,2.4-0.1,4.1,0.1,5.7c0.1,0.6,0.8,1.8,1.1,1.7c3-0.5,6-1.2,9-2c0.3-0.1,0.3-1,0.5-1.6c-0.5-0.1-1-0.4-1.3-0.2
		c-0.8,0.3-1.4,0.8-2.1,1.2c-2.8,1.7-3.1,1.6-3.1-1.9c0-3,0.4-5.9,0.6-8.9c0.1-1.4,0.5-3.4-1.8-3.2c-0.8,0.1-2,1.5-2.2,2.5
		C424.6,113.8,424.6,116.3,424.5,118z M311.4,143.9c4.9,2.6,10.5,3.7,9.4,10.5c0,0.2,1,0.8,1.5,0.7c0.5-0.1,1.3-0.7,1.4-1.1
		c0.1-0.9-0.1-2-0.4-2.9c-0.9-3.1-5.1-4.2-4.9-8c0,0-1.2-0.3-1.8-0.2C315.1,143,313.7,143.4,311.4,143.9z M332.2,125.5
		c0.3,0.3,1.1,1.7,2.1,1.9c2,0.4,4.2-0.2,3.6-3.1c-0.3-1.6-1-3.9-2-4.3C333.5,119.3,332.2,121.1,332.2,125.5z M311.4,90.1
		c2.6-0.3,4.2-0.5,5.8-0.7c-0.2-0.9-0.1-2.2-0.6-2.6C314.3,85.4,313.5,87.7,311.4,90.1z M271.1,223.5c0-2.3,0-4.3,0-6.3
		c0-0.1-0.5-0.2-0.8-0.3c-0.1,2-0.2,4-0.3,6C270,223,270.2,223.1,271.1,223.5z M242.8,230.3c-0.6-1-1.2-1.9-1.8-2.8
		c-0.3,0.8-1,1.6-0.9,2.3c0.2,1.1,0.9,2,1.4,3.1C242,232.1,242.3,231.4,242.8,230.3z M272.7,233.1c0.4,0,0.8,0,1.2,0
		c0-1.6,0-3.3,0-4.9c0-0.1-0.5-0.1-0.8-0.2c-0.2,1.5-0.4,3.1-0.6,4.6C272.5,232.8,272.7,233,272.7,233.1z M340.9,127.1
		c0.1,0.2,0.2,0.5,0.2,0.7c1.6-0.6,3.2-1.2,4.9-1.8c-0.2-0.2-0.4-0.7-0.5-0.7C344,125.8,342.5,126.5,340.9,127.1z M307.3,136.5
		c-0.4,0.1-0.8,0.2-1.1,0.4c0.4,1.1,0.7,2.2,1.1,3.3c0.4-0.2,0.9-0.3,1.3-0.5C308.2,138.6,307.8,137.5,307.3,136.5z M350.6,90.8
		c0.3-0.7,0.8-1.4,0.7-1.5c-0.8-0.6-1.7-1.2-2.5-1.7c-0.2,0.4-0.7,0.9-0.6,1C348.7,89.3,349.4,89.8,350.6,90.8z M422.9,122.7
		c-2.1-0.4-2.9-0.8-3.7-0.7c-0.3,0-0.6,0.9-0.9,1.3c0.7,0.1,1.5,0.4,2.2,0.4C420.9,123.8,421.4,123.4,422.9,122.7z M268.3,228.8
		c-0.3,0-0.6,0-0.8,0c0.3,1.2,0.6,2.4,0.9,3.6c0,0.1,0.4,0,0.6,0C268.7,231.3,268.5,230,268.3,228.8z M237.2,230.9
		c-0.7-0.7-1.2-1.1-1.8-1.6c-0.4,0.5-1.1,1-1,1.4c0.1,0.6,0.8,1.1,1.2,1.7C236.1,232,236.5,231.6,237.2,230.9z M327.7,124.9
		c-0.2,1-0.5,1.5-0.4,1.9c0.2,0.5,0.6,0.9,1,1.2c0.1,0.1,1-0.5,0.9-0.6C329.1,126.9,328.7,126.4,327.7,124.9z M221.5,492.1
		c-0.3-0.1-0.6-0.3-0.9-0.3c-0.2,0-0.5,0.2-0.7,0.3c0.3,0.1,0.6,0.3,0.9,0.3C221,492.4,221.3,492.2,221.5,492.1z M306.9,132.1
		l0.2-0.4h-0.3L306.9,132.1z"/>
	<path d="M364.8,50.3c0.3-3.1,0.5-6.3,1-9.4c0.4-2.5,1.2-4.6,4.1-5.7c1.4-0.5,2.1-2.8,3.4-4c1.2-1,2.9-2.3,4.1-2
		c1.1,0.2,2,2.3,2.8,3.6s1.5,2.7,2.1,4c0.5,1.1,1.3,2.3,1.4,3.5c0.1,1.6,0,3.6-0.8,4.9c-2.8,4.5-2.3,9.6-2.6,14.5
		c-0.1,0.9,0.4,2.5,1.1,2.8c3.6,1.6,4.1,4.7,4.1,7.9c0,4,0.5,7,4.8,8.7c2.9,1.1,3.8,5.4,2.6,9.8c-0.5,1.9-1.4,3.7-2.1,5.6
		c-1,2.8-3.4,5.4-0.3,8.5c0.5,0.5,0.4,1.6,0.3,2.4c-0.1,5.2-0.3,10.3-0.5,15.5c-0.1,1.2-0.7,2.4-1,3.5c-0.4-1.1-1.2-2.2-1.3-3.3
		c-0.6-4.9-0.9-9.9-1.4-14.8c-0.1-0.8-0.7-2.1-1.2-2.2c-3.8-0.5-2.6-2.4-1.5-4.6c1.3-2.5,2.5-5.1,3.4-7.8c1.7-4.9,2.9-9.5-2.6-13.3
		c-1.4-1-1.7-3.8-2.3-5.8c-0.5-1.6-0.4-3.3-1-4.8c-0.8-2.2-1.6-3.9-4.8-1.9c-4.5,2.8-8,0.9-9.9-4.2c-0.7-1.9-1.2-3.8-1.5-5.7
		c-0.3-1.8-0.1-3.6-0.1-5.5C365,50.3,364.9,50.3,364.8,50.3z M377.2,55.8c0.2-5.1-0.1-5.4-4.3-4.9c-5.7,0.7-6.1,1.3-4.5,6.8
		c0.3,1.1,0.7,2.2,0.9,3.4c0.3,2.1,1.1,3.5,3.5,3.4c2.3-0.1,3.2-1.6,3.5-3.5C376.7,59.1,377,57.1,377.2,55.8z"/>
	<path d="M287.5,185.7c1.6,4.2,1,8.4-0.7,12.4c-1.3,3-6.1,4.6-10.1,3.8c-3.3-0.7-6.2-3.7-6.4-7.4c-0.2-3,0.1-6,0.4-8.9
		c0.3-3-0.2-3.5-3.1-2.9c-1.7,0.4-3.4,0.8-5.4,1.4c0.7,0.5,1.1,0.9,1.5,1c1,0.4,3.2-0.5,2.4,1.8c-0.2,0.5-2.7,1-3.4,0.5
		c-1.1-0.8-1.9-2.4-2.3-3.9c-0.1-0.3,1.8-1.8,2.8-1.8c2.6-0.1,4.3-0.5,3.2-3.8c-0.3-1,0.1-2.3,0.4-3.4c0.4-1.5,1.1-2.9,1.3-4.4
		c0.4-3,2.1-4.6,4.6-3.1c2.4,1.3,3.1,0,4.4-1.1c2.5-2.1,3.4-1.9,4.4,1.3c0.5,1.4,0.6,2.1,2.6,1.6c3.3-0.8,7.1,2.5,7.6,5.9
		c0.2,1.3,0.9,2.6,0.8,3.8c-0.1,1.9,0.7,2.1,2.3,2.3c1.5,0.2,3.4,0.7,4.3,1.8c1.5,1.8,2.1,4.4,0.3,6.4c-1.8,2.1-4.1,1.9-6.3,0.6
		c-2.4-1.5-3.6-3.4-1.8-6.2c0.4,0,0.9,0,1.3,0.1c0.7,0.9,1.2,2,2.1,2.6c0.6,0.4,1.7,0,2.5-0.1c-0.4-0.9-0.7-2.3-1.4-2.6
		c-0.9-0.4-2.2,0.1-3.3,0.2c-0.4,0-0.7,0-1.1-0.1c-2.9-1.9-3.1,0.5-3.6,2.3c-2.9-0.1-5.8-0.2-8.7-0.4c-5.3-0.3-6,0.3-5.8,5.7
		c0,0.8,0,1.7,0.2,2.5c0.9,3.3,4,5.7,7.3,5.6c3.2-0.1,4.9-1.7,5.7-5.7C286.9,190.9,287.2,188.3,287.5,185.7z M287.7,176
		c-2.6-0.4-3.8-1.9-2.6-5c-6.1,3.9-6.1,3.9-6.7-1.3c0-0.2-0.4-0.3-0.6-0.4c-0.9,1.2-1.6,2.7-2.8,3.2c-0.8,0.3-2.3-0.8-3.5-1.2
		c-0.6,2.2,2.6,5.1-1.7,5.6c0.4,1,0.7,3,1.2,3c2.3,0.2,4.3,0.7,6.1,2.2c0.3,0.2,1.2,0.2,1.3,0.1c1.1-2.6,2.4-1.6,4.2-0.7
		c1,0.4,2.9,0.5,3.4-1.8c0.3-1.3,1.3-2.5,2-3.8c0-0.1-0.1-0.2-0.1-0.2C287.8,175.7,287.7,175.8,287.7,176z"/>
	<path d="M312.3,285.2c2.3-0.4,5.2,2,7.2,5.1c2.2,3.5,3.8,7.4,5.4,11.2c0.3,0.8-0.4,2-0.7,3c-0.9-0.5-2.3-0.8-2.7-1.6
		c-1.2-2.2-1.9-4.6-3-6.9c-3.4-7.3-6.2-9.4-14.7-5.1c-7.2,3.7-13.8,9.1-18.2,16.5c-5.6,9.5-10.9,19-13.7,29.7
		c-0.7,2.7-1.3,5.5-2.3,8.1c-0.4,0.9-1.8,1.4-2.8,2.1c-0.2-1.1-0.8-2.4-0.6-3.4c2.5-13.1,7.7-25.1,15.3-35.9
		c4.2-5.9,8.8-11.6,13.7-17C299.3,286.9,304.8,285.8,312.3,285.2z"/>
	<path d="M500.7,338.5c-0.3,0.5-0.8,1.3-1.3,2.1c-0.8-0.6-2.1-1.1-2.3-1.9c-1.8-5.2-3.3-10.4-5-15.6c-3.3-10-9.1-18.4-15.9-26.3
		c-4.7-5.5-10.5-8.3-17.8-8.6c-5.2-0.2-9,1.7-11.6,6.1c-1,1.7-2,3.4-3.3,5c-0.5,0.5-1.7,0.5-2.5,0.7c-0.1-0.8-0.5-1.6-0.3-2.3
		c3.2-11.1,19.4-17.5,29.2-11.4c8,4.9,14.3,11.2,18,20.1c1.7,4,4.5,7.5,6.1,11.4c2.5,6.2,4.3,12.5,6.4,18.8
		C500.4,337.2,500.5,337.7,500.7,338.5z"/>
	<path d="M264.8,193.4c-4.8-0.1-8.8-0.9-13.2-2.4c-4.3-1.5-9.4-0.8-14.1-0.5c-1.3,0.1-2.4,2-3.7,2.9c-1.7,1.1-1.7,2.2-0.7,3.7
		c0.2,0.3-0.1,1.4-0.5,1.6c-4,1.6-1.8,5.4-2.7,8.1c-0.6,1.8,0.4,4.1,0.5,6.3c0,0.8-0.7,1.5-1,2.3c-0.7-0.6-1.9-1.2-2-1.9
		c-0.5-2.7-1-5.6-0.7-8.3c0.2-2.4,1.4-4.7,2.2-7c0.1-0.3,0.5-0.6,0.5-0.8c-1.4-8.6,7-8.1,11.1-11.3c1.4-1.1,5,0.4,7.5,1
		c4.9,1.3,9.8,2.8,15,2.7c0.7,0,1.6-0.4,1.9-0.1c0.9,0.8,1.6,1.8,2.4,2.8C266.4,192.7,265.6,193.1,264.8,193.4z"/>
	<path d="M410.5,85.5c-0.3,0.3-1.2,1.9-2,1.9c-2.3,0-4.8-0.5-5.2-3.5c-0.3-2.1,1.1-3.2,3-3.1C408.5,80.9,410.7,81.5,410.5,85.5z
		 M407.9,84c-0.3-0.1-0.5-0.3-0.8-0.3c-0.1,0-0.2,0.2-0.3,0.3c0.2,0.1,0.4,0.4,0.6,0.4C407.5,84.4,407.7,84.1,407.9,84z"/>
	<path d="M329.7,313.4c-0.7,0.9-1,1.9-1.5,2c-0.6,0.1-1.7-0.5-1.9-1c-0.6-1.9-0.9-3.9-1.2-5.9c0-0.1,1.6-0.7,1.6-0.6
		C327.8,309.7,328.7,311.5,329.7,313.4z"/>
	<path d="M440.2,315.6c-2.3,2.2-3.1,3-4,3.9c-0.5-0.7-1.6-1.7-1.5-2.2c0.3-1.1,1.2-2.2,2.2-2.7C437.4,314.2,438.6,315,440.2,315.6z"
		/>
	<path d="M445.4,80.9c1,0.9,2.4,1.5,2.9,2.6c0.3,0.6-0.6,2-1.3,2.8c-0.4,0.4-1.5,0.1-2.3,0.1c0.3-0.6,0.7-1.2,0.7-1.8
		c0.1-0.6-0.1-1.3-0.4-1.9c-0.2-0.3-0.7-0.4-1.1-0.6C444.3,81.7,444.6,81.5,445.4,80.9z"/>
	<path d="M439.3,305.9c-0.9,1.1-1.6,1.9-2.3,2.7c-0.4-0.6-1.2-1.3-1.1-1.7c0.3-1,1.1-1.8,1.7-2.7
		C438.2,304.6,438.7,305.1,439.3,305.9z"/>
	<path d="M333.9,321.9c-1.4,0.4-2.4,1.1-2.9,0.8c-0.9-0.4-1.6-1.4-2.1-2.3c-0.2-0.3,0.7-1.2,1.2-1.7
		C330.9,319.4,331.7,320,333.9,321.9z"/>
	<path class="st0" d="M453.6,233.8c9.4-0.7,19.2-1.5,29.1-2.3c4.8-0.3,9.6-0.5,14.4-0.8c5-0.3,4.9-0.3,4.8,4.6
		c-0.1,6.3,0,12.6-1,19.2c-4.4-5.6-8.8-11.2-13.1-16.9c-0.7-0.9-1.2-2.1-2-2.7c-0.5-0.4-1.6-0.2-2.3,0.1c-0.3,0.1-0.5,1.1-0.4,1.7
		c1.9,9.6,0.5,18.8-2.4,28c-0.4,1.2-0.5,3.5,0.2,3.9c1.3,0.8,3.3,1.1,4.7,0.6c0.9-0.3,1.7-2.3,1.8-3.6c0.1-6,0-12-0.1-18
		c0-1.3,0-2.6,0.9-4.5c2.7,4.2,5.5,8.3,8.2,12.5c1.8,2.8,3.4,5.7,5.2,8.5c0.4,0.7,1.6,1.4,2.2,1.3c0.7-0.2,1.5-1.3,1.5-2.1
		c0.2-2.1,0.1-4.3,0-6.5c-0.1-6-0.3-12-0.1-18c0.1-2.2,0.9-4.5,1.7-6.6c0.2-0.6,1.4-1.2,2.1-1.3c9.4-0.8,18.9-1.7,28.3-2.3
		c9.6-0.6,19.3-0.9,28.9-1.1c13.6-0.3,27.2-0.5,40.8-0.8c3.3-0.1,6.6-0.8,9.9-1c1-0.1,2.1,0.6,3.1,0.9c-0.6,0.9-1,2-1.8,2.6
		c-6.3,4.6-11.7,10.4-19.6,12.6c-1.4,0.4-2.9,2.4-3.2,3.8c-0.2,0.9,1.6,2.6,2.9,3.4c7.3,4.4,13,10.5,19.2,17.4
		c-15.6,0.7-30.4,1.4-45.1,2.1c-4.8,0.2-9.6,1.1-14.4,1.2c-11.5,0.1-22.9-0.5-34.4,0c-11.4,0.5-22.9,0.1-34.3,1.1
		c-15.5,1.3-31.2,0.6-46.8,0.8c-13,0.2-25.9,0.4-38.9,0.6c-15.8,0.2-31.6,0.5-47.4,0.5c-11.2,0-22.3,1.3-33.4,2
		c-7.6,0.5-15.2,0.6-22.9,1.1c-5.3,0.3-10.6,1.1-15.9,1.4c-6.1,0.3-12.4-0.5-18.4,0.3c-18.9,2.6-37.9,1.5-56.8,2.5
		c-3,0.2-6-0.6-8.9-0.6c-4.1,0.1-8.2,0.5-12.4,0.7c-4.6,0.2-9.3,0.4-14,0.5c-2.8,0.1-5.6,0-8.9-0.8c5.6-5,11.3-10.1,16.9-15.1
		c1.1-1,2.5-1.7,3.6-2.6c4.1-3.3,3.7-5.3-0.6-8.2c-8.4-5.7-16.4-11.7-25.3-18.2c1.6-0.2,2.4-0.3,3.3-0.4c8.6-0.4,17.2-0.7,25.9-1
		c1.2,0,2.3,0,3.5,0.1c17.2,2,34.4,2.4,51.8,1.8c13.6-0.5,27.3,0.5,40.9,0.6c17,0.1,34-0.4,50.9,0.1c11.4,0.3,22.5-1.4,33.8-1.9
		c14.6-0.6,29.2-0.1,43.9-0.3c6.1-0.1,12.3-0.7,18.4-1c3.1-0.1,6.3,0,9.3,0c-0.9,1.9-1.8,3.7-2.8,5.5c0,0.1-0.7,0-0.7-0.1
		c-0.5-4-3.2-1.5-4.9-1.5c-6.3,0-12.6,0.1-18.9,0.2c-2.7,0.1-5.3,0.4-7.9,0.8c-2.9,0.4-3.9,2.3-3.2,5.4c0.6,2.7,2.5,2.7,4.7,2.3
		c0.3-0.1,0.6-0.3,0.9-0.3c2.5-0.7,5-1.3,7.5-2c0.5,2.6,1.2,5.2,1.3,7.8c0.3,5.1,0.3,10.2,0.4,15.3c0,1.1,0.3,2.9,0.7,3
		c1.7,0.4,3.6,0.4,5.2,0c0.4-0.1,0.7-2.2,0.5-3.4c-1.1-7.2-2.2-14.5-3.5-21.7c-0.5-2.5,0.3-3.3,2.7-3.5c2.6-0.3,5.2-0.9,7.8-1.4
		c2.3-0.5,3.2,0.1,3.3,2.7c0.2,7.8,0.7,15.6,1.1,23.4c0.2,3.1,1.9,4.5,4.9,4.4c3.4-0.1,4-1.5,2.6-4.7s-2.5-6.5-3.5-9.8
		c-0.2-0.7,0.2-2.1,0.7-2.4c3.9-2.1,10.1,0.4,11.5,4.7c0.9,3,1.1,6.2,1.9,9.3c0.3,1,1.5,1.7,2.3,2.6c0.4-1,1.3-2,1.2-2.9
		c-0.6-5.1-1.4-10.3-5-14.4c-1.3-1.4-1.1-2.2-0.2-3.7c1.3-2.2,2.6-4.8,2.9-7.3C455,239.3,454,236.6,453.6,233.8z M289.5,267.5
		c0.3,2-1.2,5.2,2.8,5s7.9-0.6,11.8-1.3c2.4-0.5,5-1.4,5-4.6c0.1-4,0.3-8-0.1-12c-0.4-4.5-2.6-6.4-7.2-6.8c-2.1-0.2-4.3,0.1-6.5-0.1
		c-1-0.1-2.6-0.9-2.7-1.5c-0.1-1.1,0.4-2.7,1.2-3.5c0.8-0.8,2.3-1.2,3.6-1.4c2.5-0.3,5-0.3,7.4-0.6c0.6-0.1,1.2-0.8,1.8-1.3
		c-0.5-0.3-1-0.9-1.5-1c-2.8-0.4-5.6-1-8.3-0.9c-4.1,0.1-7.2,3.3-7.2,6.8c0,4,1.8,6,6.9,5.8c10.8-0.3,9.2,2.3,9.3,10.1
		c0,4.9-1.4,6.5-6.2,6.9c-1.6,0.1-3.3-0.4-4.9-0.3C292.9,266.9,291.2,267.3,289.5,267.5c0-1,0.2-2,0.1-3c-0.4-3-1.1-3.2-3.9-1.7
		c-2,1.1-4.1,2.3-6.1,3.5c-6.9,4.1-7.5,3.8-7.6-4.1c-0.1-3.3-1.3-7.1,4.1-7.6c0.8-0.1,1.4-1.9,2.1-2.9c-1-0.5-1.9-1-2.9-1.4
		c-1.1-0.4-3.2-0.5-3.3-1c-0.4-2.1-0.6-4.4,0.1-6.2c0.3-0.7,3.3-0.6,5-0.5c1.1,0.1,2.1,1,3.2,1.2c1.1,0.2,3,0.6,3.4,0.1
		c1-1.4,1.6-3.2,1.7-4.9c0-0.4-2.4-1.5-3.7-1.5c-3.1-0.1-6.3,0.3-9.5,0.4c-4.3,0.1-4.5,0-4.4,4.4c0.2,6.6,0.4,13.3,0.8,19.9
		c0.1,2.2-0.4,3.4-2.7,3.7c-3.3,0.5-6.5,1.1-9.8,1.9c-4,0.9-4,1-3.9-3.2c0.1-7.1,0.3-14.3,0.4-21.4c0-4.2-0.6-4.8-3.9-4.8
		c-3.6-0.1-3.5,2.3-3.2,4.7c0.8,8.6,1.8,17.2,2.5,25.8c0.2,3,1.4,4.2,4.4,3.6c0.6-0.1,1.3-0.1,2-0.1c5.6,0,11.2-3.4,16.7,0.3
		c0.5,0.3,1.6-0.2,2.4-0.4c2.4-0.5,4.9-1,7.3-1.7C283.7,269.7,286.6,268.5,289.5,267.5z M232.9,257.6c2,0.1,2.8,0.2,3.7,0.2
		c4.1,0.2,4.5,0.7,3.6,4.8c-0.6,2.4-1.6,4.7-2.1,7.2c-0.2,1,0.6,2.2,1,3.3c1.1-0.7,2.4-1.2,3.4-2.1c0.5-0.5,0.5-1.6,0.5-2.4
		c0.4-5.1,0.9-10.3,1.2-15.4c0.3-5.3-2-9.7-5-13.8c-0.8-1-2.4-1.7-3.8-1.9c-6.6-1-11.6,3.4-11.6,11.1c0,7.8,1.1,15.5,1.8,23.3
		c0.2,2,1.4,2.9,3.4,2.8c2.3-0.2,3.4-1.8,3-3.7c-0.3-1.9-1.7-3.6-2.2-5.4c-0.7-2.3-1-4.7-1.5-7.1
		C230.3,258.2,232.2,257.8,232.9,257.6z M356.5,256.1c-0.4,0.2-0.8,0.4-1.2,0.6c-3.9-5.2-7.8-10.5-11.7-15.7
		c-0.3-0.4-0.9-0.7-1.3-1.1c-0.3,0.5-0.8,1-0.8,1.6c-0.2,1.8-0.2,3.6-0.2,5.5c0,5.8,0.1,11.6,0.1,17.4c0,1.7-0.3,3.4,0.1,5
		c0.2,0.8,1.5,1.8,2.4,1.8s2.2-0.8,2.6-1.6c0.5-0.9,0.4-2.3,0.3-3.4c-0.4-3.8-1.1-7.5-1.5-11.3c-0.1-1.2,0.4-2.4,0.7-3.7
		c0.9,0.7,1.9,1.3,2.5,2.1c3.5,4.9,6.8,9.8,10.3,14.7c0.5,0.7,1.5,1,2.2,1.5c0.4-0.8,1-1.6,1.1-2.4s-0.2-1.6-0.2-2.5
		c-0.5-7-1-13.9-1.5-20.9c-0.1-1.3,0.4-3.3-0.3-3.9c-1.3-1.1-3.4-2.1-5-1.9c-1.9,0.1-1.3,1.7-0.9,3.4
		C355.4,246.2,357,251.1,356.5,256.1z M564.2,248.2C564.3,248.2,564.3,248.2,564.2,248.2c0-1.5,0-3-0.2-4.5
		c-1-6.2-6.5-11.1-12.3-11.2c-5.5-0.1-11.7,4.9-12.8,10.7c-0.5,2.7-0.4,5.6-0.8,8.4c-0.6,3.9,1,6.9,3.9,9.1
		c4.4,3.4,9.6,4.1,14.6,2.3c5-1.7,7-6.3,7.5-11.4C564.4,250.5,564.2,249.4,564.2,248.2z M218.7,262.8c0.2,8.8-0.4,9.2-9,7.6
		c-0.7-0.1-1.3-0.3-2-0.3c-2.6-0.2-5.3-0.4-7.9-0.4c-0.8,0-1.5,1-2.3,1.5c0.6,0.7,1,1.8,1.7,2.1c1.5,0.7,3.1,1.3,4.7,1.4
		c3.6,0.4,7.2,0.6,10.9,0.8c5.1,0.3,7.6-2.1,7.4-7.4c-0.1-4-0.6-8-1.1-11.9c-0.5-4-1.6-5.1-5.8-5.3c-3.1-0.2-6.3,0-9.5-0.2
		c-1.2-0.1-3.1-0.7-3.3-1.4c-0.2-1.2,0.3-3.2,1.2-3.9c4.5-3.4,9.4-5.8,15.2-3.4c1.6,0.6,2.8,0.8,3-0.8c0.1-0.9-1.1-2.8-1.8-2.8
		c-6.9-0.4-13.7,0.6-19.1,5.2c-1.3,1.1-1.6,4.3-1.2,6.3c0.3,1.4,2.6,2.8,4.3,3.4c2,0.7,4.2,0.6,6.4,0.8c2.4,0.3,5.8-0.4,6.9,0.9
		C218.7,256.9,218.3,260.1,218.7,262.8z M334.8,261.5c0.1,2.3,0.1,4.7,0.5,6.9c0.2,0.8,1.5,1.4,2.3,2.1c0.7-0.8,1.6-1.5,1.9-2.3
		c0.3-0.9,0.2-2,0.1-2.9c-0.7-5.3-1.3-10.5-2.3-15.8c-0.3-1.9-1.2-3.8-2.2-5.5c-2.6-4.6-5.7-6.6-9.1-5.4c-3.8,1.4-4.8,4.8-4.9,8.5
		c-0.2,4.6-0.2,9.2-0.1,13.9c0,2.8-0.1,5.7,0.4,8.4c0.2,1.1,2.1,2.7,3.2,2.7c1.6,0,1.3-1.5,1-3c-0.6-3.7-0.8-7.6-0.9-11.4
		c0-1,1-2.8,1.6-2.8c2.6-0.3,5.4-0.5,7.8,0.3c0.8,0.3,0.4,3.8,0.5,5.9C334.9,261.2,334.8,261.4,334.8,261.5z M466.8,234.9
		c-1-0.1-2-0.1-3-0.2c-4.7-0.2-4.9,0.2-4.6,4.9c0.4,6.3,0.4,12.6,0.5,18.9c0,2.5-0.3,5-0.3,7.5c0,1.8,0.5,3.4,2.7,3.4
		c3.8-0.1,7.7-0.2,11.5-0.6c2.8-0.3,2.4-2.9,2.6-4.7c0.2-1.3-0.3-2.7-0.5-4.1c-1.1,0.9-2.2,1.7-3.2,2.6c-0.4,0.3-0.8,0.9-1.2,0.9
		c-2.7,0.1-6.9,1.2-7.8-0.1c-1.5-2-1.2-5.7-1-8.6c0.1-0.8,2.6-1.3,3.9-2.1c0.6-0.4,1.1-1,1.6-1.5c-0.5-0.4-1-1-1.5-1
		c-4.2,0.3-4.3-2.2-4.1-5.3c0.2-5.9,2.5-7.8,8.3-6.2c0.5,0.1,0.9,0.4,1.3,0.7c1.9,1.2,2.3,0,2.4-1.6c0.2-2.3-0.7-3.5-3.1-3.3
		C469.7,234.6,468.3,234.7,466.8,234.9z M523.4,248.8h0.1c0,1.2,0,2.3,0,3.5c0,1.3,0,2.7-0.2,4c-0.3,1.5-0.8,3.1-1.6,4.5
		c-1.3,2.3-1.1,3.1,1.4,3.6c3.8,0.7,5-0.7,4.8-4.6c-0.4-6-0.7-11.9-0.7-17.9c0-4.9,0.2-4.9,4.9-5.3c1.2-0.1,2.4,0,3.5-0.3
		c1.3-0.4,2.6-1.1,3.8-1.6c-1.2-0.6-2.4-1.6-3.6-1.7c-4.1-0.2-8.3,0-12.4,0.1c-3.4,0.1-6.8,2.2-10.1-0.2c-0.3-0.2-1.3,0.1-1.3,0.3
		c-0.3,1.4-0.8,2.9-0.6,4.3c0.1,0.6,1.7,1.4,2.6,1.5c2.3,0.2,4.6,0,6.9-0.1c2.1-0.1,3.1,0.8,2.9,3
		C523.6,244.2,523.5,246.5,523.4,248.8z M365.4,252.3c0,4.6-0.2,8.5,0.1,12.5c0.2,3,2.2,4.4,5.1,4.1c3.4-0.4,2.6-2.9,2.2-4.9
		c-1.4-7.4-2.8-14.8-4.4-22.1c-0.2-0.7-1.3-1.3-1.9-1.9c-0.6,0.9-1.7,1.7-1.6,2.6C364.8,246,365.1,249.4,365.4,252.3z M317.4,263.8
		c0.1,0,0.1,0,0.2,0c-0.5-6.6-0.8-13.2-1.4-19.8c-0.1-1.2-1.2-2.3-1.8-3.5c-0.4,1.1-1.2,2.3-1.2,3.4c-0.2,8.6-0.3,17.1-0.4,25.7
		c0,0.2,0,0.4,0.1,0.5c0.9,0.8,1.8,1.6,2.6,2.4c0.7-0.9,1.8-1.8,1.9-2.8C317.6,267.8,317.4,265.8,317.4,263.8z"/>
	<path class="st0" d="M394.3,432.3c12.1-0.5,24.2-1.1,36.4-1.4c6.3-0.2,12.6-0.1,18.9-0.2c1.7,0,2.9,0.2,2.6,2.5
		c-2.2,15.8-6.4,30.9-16.3,43.8c-4,5.2-8.6,8.8-15.9,8.6c-9.4-0.2-18.8,0.7-28.3-0.4c-7.9-1-15.9-0.6-23.9-0.5c-2.6,0-4-0.4-5.3-2.9
		c-3.6-6.7-7.9-13.1-11.5-19.8c-2.6-4.7-3.7-9.9-3.3-15.4c0.1-1.1,0-2.3-0.3-3.5c-0.5-2.2-1-3.2-4.2-2.7c-6.5,1-13.3,0.6-19.9,0.7
		c-4.5,0-4.3,0.1-4.9,4.7c-1.8,13,4.3,22.7,12.3,31.8c0.4,0.5,1,0.9,1.4,1.4c1.3,1.8,2.6,3.6,3.8,5.4c-2.5,0.2-5,0.4-7.4,0.5
		c-0.5,0-1.3-0.6-1.4-1c-0.7-5.6-4.7-9.4-7.9-13.5c-7.3-9.3-7.6-20.3-7.5-31.3c0-0.8,1.9-2,3.1-2.2c4.8-0.6,9.6-0.8,14.4-1.3
		c10.1-0.9,20.2-2,30.3-2.6c9.3-0.6,18.6-0.6,27.9-0.8c2.3-0.1,4.7,0,7,0C394.3,432.2,394.3,432.3,394.3,432.3z"/>
	<path class="st0" d="M199.5,518.6c0.9-0.4,2.4-0.8,2.5-1.3c0.4-2.1,1.2-4.9,0.2-6.2c-1.2-1.7-4-2.4-6.2-3.2c-0.2-0.1-1.3,1.2-1.5,2
		c-0.4,1.3-0.4,2.7-0.6,4.1c-0.5-0.1-1-0.1-1.6-0.2c0.3-3,0.7-6,1-9.1c9.6,4.1,19.2,5.6,29.1,6.1c7,0.3,13.9,1,20.9,1.6
		c7,0.6,13.9,1.9,20.8,2.1c14.1,0.3,28.2-0.1,42.2,0c10.6,0.1,21.3,0.4,31.9,0.5c11.4,0.2,22.8,0.5,34.3-0.5
		c9.9-0.9,19.9,0.1,29.9,0.2c12,0.1,23.9-0.1,35.9,0.1c6.8,0.1,13.6,0.8,20.4,0.9c5,0.1,10-0.4,14.9-0.6c5.6-0.1,11.3,0.1,16.9-0.2
		c6-0.3,11.9-1.4,17.9-1.4c9.1-0.1,17.8-1.6,26.1-5.1c5.2-2.2,10.2-4.8,15.2-7.5c4.4-2.4,4.3-2.5,4.5,2.7c0,0.3,0.1,0.7,0.1,1
		c0.3,4.3-1.3,7.3-5.4,9.1c-8.5,3.9-17.3,6.6-26.8,7c-12.9,0.5-25.9,1.8-38.8,2.6c-8.6,0.5-17.3,0.7-25.9,1.3
		c-18.9,1.4-37.9,1.2-56.7,4.2c-6.6,1.1-13.5,0.6-20.2,0.8c-12.1,0.3-24.2,0.5-36.3,0.6c-9,0.1-17.9,0.1-26.9,0
		c-9.6,0-19.3-0.1-28.9-0.1c-13.3,0-26.6,0.5-39.9-0.2c-8.8-0.4-17.4-2.5-26.1-3.8c-6.7-1-13.5-2.1-19.6-5.4
		c-1.1-0.6-2.1-1.4-3.1-2.2L199.5,518.6z"/>
	<path class="st0" d="M433,485.8c9.3-7,12.2-17.3,17.1-26.2c1-1.9,0.8-4.5,1.3-6.8c1.4-6.5,2.9-12.9,4.4-19.3
		c0.2-0.8,0.3-2.1,0.7-2.3c3.2-1.2,3.5-4,4.1-6.8c0.2-0.8,1.9-1.9,2.9-1.9c8.8-0.2,17.6-0.1,26.4-0.4c5.8-0.2,11.6-0.9,17.4-1.3
		c8.1-0.6,8.6-0.3,6.1,7.6c-3.8,11.6-8.8,22.8-18.9,30.5c-5.9,4.4-12.6,7.4-20.2,7.7c-7.3,0.3-14.6,0.7-21.9,1.3
		c-1.2,0.1-2.4,1.1-3.6,1.7c1.1,0.6,2.2,1.3,3.4,1.7c1.1,0.3,2.3,0.5,3.4,0.4c10.6-0.5,21.3-0.8,31.3-5.2c3.8-1.7,7.4-3.8,10.8-6.2
		c3.8-2.6,7.6-2.8,11.8-1.4c3.3,1.1,6.8,1.6,10,3c3.6,1.6,7.2,3.4,10.3,5.8c3.5,2.7,2.8,8.5-1,11.1c-6.8,4.5-14.3,7-22.5,7.1
		c-18.3,0.2-36.5,0.5-54.8,0.7c-4.7,0.1-9.3,0.1-14,0C436.3,486.4,435.1,486.1,433,485.8z"/>
	<path class="st0" d="M536.3,477.4c0,13.6-0.8,14.6-12.6,19.4c-8.2,3.4-16.9,3.4-25.5,3.8c-9.4,0.4-18.9,0.2-28.4,0.5
		c-6.3,0.2-12.6,0.9-18.9,1c-8,0.1-16-0.4-23.9-0.3c-13.1,0.1-26.2,0.6-39.3,0.8c-7.8,0.1-15.6,0.1-23.4,0.2
		c-10,0.2-19.9,0.6-29.9,0.6c-9.6,0-19.3-0.5-28.9-0.8c-8.4-0.3-16.9-0.2-25.3-0.9c-9.4-0.8-18.7-2.4-28.1-3.6
		c-0.8-0.1-1.6-0.6-2.4-0.5c-8,0.9-15.2-3.2-22.9-3.9c-2.3-0.2-2.9-0.9-2.4-3.4c0.8-4.2-3.8-7.9-7.6-6.2c-0.9,0.4-0.9,2.8-1.3,4.2
		c-0.2,0.7-0.3,1.5-0.4,2.3c-0.5-0.7-1.4-1.4-1.5-2.2c-0.2-1.3,0-2.7,0.2-4c0.7-4.2,0.6-3.7,4.9-2.8c9.7,2.1,19.5,4.1,29.4,5.1
		c13.2,1.3,26.5,1.6,39.8,2.1c5.3,0.2,10.6-0.6,15.9-0.7c7.5-0.1,14.9,0.2,22.4,0.1c10.1,0,20.2-0.4,30.3-0.3
		c5.6,0.1,11.2,1,16.8,1.2c7.1,0.2,14.3-0.3,21.4-0.2c7.8,0.2,15.6,0.9,23.4,1.1c9.8,0.3,19.6,0.3,29.3,0.2
		c11.1-0.1,22.3-0.3,33.4-0.5c0.7,0,1.4-0.2,2-0.1c13.2,2.5,25.8-1,38.5-3.4C527.3,485.2,532.1,482.4,536.3,477.4z"/>
	<path class="st0" d="M424.2,173.4c-3.9,4-7.7,7.3-10.6,11.2c-4.4,6.1-6.5,14.5,1.1,22.2c2.3,2.3,4.4,5.1,6,8
		c3.8,6.8-1.3,15.5-9.1,15.6c-9.1,0.1-18.3-0.5-27.4-0.4c-8.8,0-17.6,0.5-26.4,0.7c-0.5,0-1,0.2-1.5,0.1c-2.2-0.1-4.7,0.4-6.4-0.5
		c-1.3-0.7-1.6-3.3-2.2-5c-1.5-4.2-0.5-5.7,4.1-5.9c12.4-0.4,24.9-0.7,37.3-1.1c6.3-0.2,12.6-0.6,18.9-0.9c0.8,0,1.6-0.3,2.4-0.6
		c0.4-0.2,0.7-0.8,0.7-1.2c0-0.4-0.4-0.9-0.8-1.1c-0.6-0.2-1.3-0.2-2-0.2c-15.4,0.2-30.9,0.5-46.3,0.7c-3.7,0-7.3-0.5-11-0.3
		c-3.2,0.2-7.8-1.6-8.1,4.3c-5.2,2.9-3.3,7.6-3.1,11.9c-3.2-2-4.4-4-3.1-7.6c1.3-3.7,3.6-7,5.7-10.3c1-1.5,2.4-2.7,3.8-4
		c9.1-8.2,6.5-18.5,1.5-25.7c-2-2.8-4.6-5.1-7.6-8.3c1.7,0.6,3.2,0.6,4,1.4c5.6,5.2,10,11.1,10.2,19.2c0.1,5.3-2.2,9.6-5,13.8
		c-0.5,0.8-0.6,1.8-0.9,2.7c1.2,0.3,2.6,1.2,3.6,0.8c1.5-0.6,2.9-1.8,3.9-3c6.9-8.8,7.2-18.5,0.9-28.2c-1.1-1.7-2.6-3-3.8-4.6
		c-0.5-0.6-0.6-1.4-0.9-2.1c0.8-0.2,1.5-0.6,2.3-0.6c7.8,0,15.7,0.2,23.5,0c11.5-0.2,22.9-0.8,34.4-1.1
		C416.3,173.3,420.2,173.4,424.2,173.4z"/>
	<path class="st0" d="M317.9,340.5c6.7-3.9,12.9-6.9,18.4-10.8c13-9.1,20.9-21.2,20.2-37.8c-0.1-3.6,0-7.3,0.3-11.1
		c0.4,1.2,0.9,2.5,1,3.7c1.3,12.8,1.8,25.6-7.8,35.8c-5.7,6.2-11.5,12.5-19.2,16.5c-0.8,0.4-1.5,1.2-2.4,1.9
		c7,1.8,13.4,0.3,17.9-4.2c2.9-2.9,5.7-6,8.5-9.1c10.9-12.1,14.5-26.2,11.6-42.1c-0.2-1-0.3-2-0.6-2.9c-0.6-1.9,0.1-2.8,2.1-2.9
		c8.1-0.4,16.3-1,24.4-1.2c4.1-0.1,3.7,0.1,4.1,4.1c0.6,7.9,0.9,16,2.8,23.7c3.7,14.6,14.2,22.8,28.5,26.1
		c8.9,2.1,17.8,3.8,26.9,6.4c-3.3,0.3-6.5,0.6-9.8,0.8c-10.6,0.5-21.2,0.9-31.9,1.2c-3.2,0.1-6.3-0.1-9.5,0
		c-13.3,0.5-26.6,1.2-39.9,1.7c-11.1,0.5-22.2,1.8-33.4,0.3C326.5,340,322.5,340.5,317.9,340.5z"/>
	<path class="st0" d="M319.2,345c12.6-0.8,25.2-1.9,37.8-2.5c11.4-0.6,22.9-0.7,34.4-1c8.6-0.3,17.3-0.6,25.9-0.8
		c13.3-0.4,26.6-0.7,39.8-1.1c4.4-0.1,5.2,0.5,5.9,4.7c0.3,2,0.4,4,0.3,6c-0.1,3.8-2.3,6.5-6,6.8c-9.3,0.7-18.6,1.1-27.8,1.7
		c-11.1,0.7-22.2,1.5-33.3,2.3c-2.8,0.2-5.6,0.4-8.4,0.6c-3.3,0.3-6.6,0.7-9.9,0.9c-3.6,0.3-7.3,0.3-10.9,0.6
		c-3.1,0.2-6.3,0.7-9.4,0.9c-3.8,0.2-7.6,0.4-11.4,0.4c-4,0-7.9-0.4-11.9-0.4c-7.8-0.1-15.6-0.2-23.3-0.2c-2,0-4.1-0.2-5.9,0.4
		c-2.6,0.8-3.7-0.4-4.6-2.5c-1.9-4.3-0.4-12.7,3-15.8c0.9-0.8,2.4-1.1,3.7-1.1c4-0.1,8,0,12,0C319.2,344.8,319.2,344.9,319.2,345z
		 M310,346.3c-3.7-0.5-5.9,1.5-7.3,4.3c-1.5,3.1-1.8,6.4,0.1,9.5c1.4,2.2,6.5,3.1,8.4,1.4c0.6-0.5,1-2,0.7-2.5
		c-1.8-2.7-1-4.9,0.8-7.2c0.8-1.1,1.6-3,1.1-3.9S311.3,346.8,310,346.3z"/>
	<path class="st0" d="M335.9,368.8c8.7-2.1,14.6,2.8,18.8,8.9c4,5.8,4.8,12.7,0.1,19.1c-3.2,4.3-6.2,8.7-9.3,12.9
		c-1.6,2.2-1.4,3.1,1.2,3.7c7,1.6,9.5,0.3,12.9-6c3.4-6.4,6.1-12.8,6-20.3c-0.1-5.3-1.4-9.8-4.7-13.8c-0.9-1.2-1.8-2.4-2.6-3.6
		c-1.1-1.6-0.8-2.1,1.3-2.3c14.7-1,29.4-2.2,44.1-3.1c9.6-0.6,19.2-0.9,29.6-1.3c-4.6,2.2-8.6,4.1-12.6,6
		c-6.1,2.9-11.3,6.9-15.2,12.5c-4.7,6.7-3.9,11.2,2.9,16c8.3,5.9,16.5,11.7,26.7,14.2c0.8,0.2,1.5,0.7,3.1,1.4
		c-3.4,0.6-6.1,1.3-8.7,1.5c-2.8,0.2-5.5-0.1-8.3-0.1c-2.7,0-5.3,0-8,0.1c-20.4,0.9-40.8,1.8-61.3,2.6c-5.3,0.2-10.6,0-17.1,0
		c2.8-2.3,5-3.7,6.8-5.5c7.4-7.4,12.7-15.8,11.2-26.9c-0.9-6.4-4.3-11.1-10.4-13.5C340.1,370.5,338,369.7,335.9,368.8z"/>
	<path class="st0" d="M479.6,511.5c-7.8,0-15.6,0-23.4,0c-2.5,0-5,0.2-7.5,0.1c-17.4-0.3-34.9-0.8-52.3-0.9
		c-11.6,0-23.2,0.7-34.9,0.7c-13,0-25.9-0.4-38.9-0.7c-0.2,0-0.3,0-0.5,0c-15.6,0-31.2,0.3-46.8-0.2c-11.8-0.3-23.5-1.5-35.3-2.4
		c-9.8-0.7-19.5-1.4-29.3-2.5c-4.7-0.5-9.4-2-13.9-3.4c-1.2-0.4-2.8-2.2-2.8-3.4c-0.1-1.9,0.8-3.9,3.3-4.4c3.7-0.7,7.4-1.7,11.2-2.5
		c0.9-0.2,1.9,0,2.8,0.3c6.3,2.2,12.5,4.5,18.8,6.5c2.5,0.7,5.2,0.5,7.8,0.7c0.8,0.1,1.7-0.1,2.5,0.2c10.3,4.1,21.3,3.1,32,4.7
		c10.1,1.5,20.4,2.2,30.7,2.3c13.1,0.2,26.2-0.4,39.3-0.5c6.3-0.1,12.6,0.3,18.9,0.4c3,0,6-0.2,9-0.2c10.8,0,21.6,0.1,32.4-0.1
		c11.6-0.2,23.2-0.7,34.8-0.9c7-0.1,14-0.1,21-0.1c9,0,18,0.5,26.9,0c11.1-0.6,22.2-0.7,33.2-3.4c5.9-1.5,11.5-2.6,16.2-6.8
		c2.9-2.5,4.7-5.1,4.8-8.8c0.1-2.2,1.1-2.7,2.8-1.8c3.1,1.5,6.2,3,9.1,4.9c2.2,1.4,2,3.3,0.1,4.9c-6.9,5.8-14,11.5-23.3,12.7
		c-11.5,1.5-23.1,2.3-34.7,3.3c-4.6,0.4-9.3,0.6-13.9,0.8C479.6,511.4,479.6,511.5,479.6,511.5z M204.2,503.6c4.2,0,7.4-4.6,6.2-7.6
		c-0.2-0.6-1.3-1.4-1.8-1.3c-3.7,0.8-7.5,1.5-11,2.7c-2,0.7-2,2.7,0,3.7C200,502.4,202.6,503.1,204.2,503.6z"/>
	<path class="st0" d="M319.8,171.1c-0.7-1.3-1.6-2.5-2-3.9c-1.6-5.5,0.5-9,6.2-9.3c10.1-0.5,20.2-0.7,30.4-0.7
		c12.3,0,24.6,0.1,36.9,0.3c10.8,0.2,21.5,0.5,32.3,0.7c7.1,0.1,14.3-0.2,21.4-0.2c4.7,0,5.2,0.6,5.8,5c0.6,3.9-0.3,5.4-4,4.9
		c-9.9-1.3-19.3,2.2-29,2.6c-5.1,0.2-10.3,0-15.4,0.1c-9.8,0.3-19.6,1.1-29.3,1.2c-11.3,0.1-22.6-0.4-33.9-0.5c-3,0-5.9,0.7-8.9,0.9
		c-1.9,0.1-3.8,0.7-4.3-2.8c-0.4-2.8-2.8-5.3,0.7-7.7c0.3-0.2-0.1-2.1-0.6-2.5c-0.6-0.5-1.9-0.4-2.7-0.1c-4,1.8-5.1,4.8-3.7,9.3
		C319.9,169.2,319.7,170.2,319.8,171.1L319.8,171.1z"/>
	<path class="st0" d="M315.1,473.5c-15.7-0.7-31.3,0.7-46.4-5c-6.9-2.6-12-6.9-16.6-12.2c-5.4-6.2-8.5-13.3-8.7-21.7
		c0-1.6,0-2.6,1.8-2.6c1.3,0,2.7-0.3,4-0.2c14.6,1.8,29.2,0.6,43.8,0.6c1.3,0,2.7-0.1,4,0c2.3,0.2,6.3,0.1,6.5,0.9
		c1,3.5,4.5,5.7,4.4,10c-0.2,5.7,0.3,11.7,1.6,17.3C310.4,464.9,313,468.8,315.1,473.5z M258.4,435.5c-2.3,0.2-4.6,0.5-7,0.7
		c-2.6,0.2-3.2,1.4-3,3.9c0.4,4.6,1.7,8.8,4.9,12.2c1.8,2,3.4,4.1,5.2,6.1c6.5,7.1,15,9.4,24.1,10.2c0.5,0,1-0.2,1.5-0.3
		c2.6-0.4,3.1-2,1.8-3.9c-1.7-2.5-3.5-4.9-5.4-7.1c-4.2-4.9-8.6-9.6-11-15.9C267.5,436.6,263.6,434.6,258.4,435.5z"/>
	<path class="st0" d="M313.9,421.1c1.4-0.5,2.8-1.3,4.2-1.3c11.4-0.3,22.8-0.5,34.3-0.5c15.1-0.1,30.2,0.2,45.3,0
		c9.1-0.1,18.2-1,27.2-1.5c0.2,0,0.3-0.1,0.5-0.1c9.3,1.3,18.5-1.2,27.7-0.8c4.3,0.2,4.3,0.2,3.6,4.7c-0.7,4.6-0.7,4.6-5.5,4.8
		c-21.1,0.8-42.1,1.4-63.2,2.3c-10.8,0.5-21.5,1.7-32.3,2.2c-12.4,0.5-24.9,0.6-37.3,0.9c-2.2,0.1-3-0.4-2-2.7
		c0.5-1.2,0.4-2.6,0.5-3.9C317,422.9,316.5,421.1,313.9,421.1L313.9,421.1z"/>
	<path class="st0" d="M325.1,143c5.8,0.2,11.6,0.6,17.5,0.5c12.1-0.2,24.2-1.6,36.3-0.9c8.2,0.5,16.1-0.8,24.3-0.5
		c7.3,0.3,14.6-1.1,21.9-1.5c6-0.3,11.9-0.1,17.9,0c0.4,0,1.1,1,1,1.4c-0.8,3.2-1.6,6.4-2.7,9.6c-0.2,0.7-1.4,1.4-2.1,1.5
		c-2.3,0.3-4.6,0.5-7,0.6c-21.5,0.8-43.1,0.1-64.6-0.3c-10.3-0.2-20.6,0.5-30.8,0.8c-1.7,0-3.3,0-5,0.2c-2.8,0.3-3.9-0.3-3.8-3.6
		C328,148.5,326.3,146.1,325.1,143z"/>
	<path class="st0" d="M438.6,136.1c-12.6,0.9-25.2,1.8-37.8,2.6c-3.6,0.2-7.3,0-11,0.1c-6.4,0.1-12.9,0.2-19.3,0.3
		c-7.1,0.1-14.3,0.1-21.4,0.2c-4.8,0.1-9.6,0.3-14.4,0.4c-5.6,0.1-11.3,0.1-16.9,0.2c-2.3,0-3.6-0.8-3.5-3.5c0-1.6-0.8-3.3-1.2-4.9
		c2.3-0.3,4.5-0.8,6.8-0.7c5.1,0.1,10.3,0.6,15.4,0.6c22.6-0.2,45.3-0.4,67.9-0.8c15.1-0.3,30.2-0.7,45.3-1.3
		c3.3-0.1,4.2,1.2,4.6,4.2c0.4,2.7-0.7,3.1-2.9,3.1c-3.8-0.1-7.6,0-11.5,0C438.6,136.4,438.6,136.3,438.6,136.1z"/>
	<path class="st0" d="M222,468.1c0,0.3,0,0.7-0.1,1c-1.1,1.9-4.8,2.8-2.6,6c1.9,2.8,7.4,4.9,10.3,3.4c6.1-3.3,12.1-6.9,18-10.5
		c0.9-0.6,1.3-2,1.9-3.1c-1-0.4-2-1.1-3.1-1.3c-2.1-0.3-4.3-0.3-6.4-0.7c1.8-0.1,3.6-0.2,5.4-0.4c3.4-0.4,6.1,0.5,9.1,2.8
		c6.9,5.3,14.5,9,23.8,9c6.1,0,12.2,1.5,18.3,2s12.2,0.5,18.4,0.6c3.4,0,7.7,3.3,8.2,6.5c0.1,0.4-1.2,1.3-1.8,1.3
		c-6.1,0.1-12.3,0-18.4-0.1c-13.4,0-26.9,0.2-40.3-0.1c-12.8-0.3-25.6-1.1-37.9-5c-2.2-0.7-4.4-1.6-6.5-2.6
		c-3.3-1.6-3.4-4.2-0.4-6.4C219.1,469.7,220.6,469,222,468.1C222,468.2,222,468.1,222,468.1z"/>
	<path class="st0" d="M512.6,387.8c0.9,4.9-3.3,9.5-6,14.6c-0.3,0.6-1.7,1.1-2.5,1.1c-5.8,0.2-11.6,0.1-17.3,0.3
		c-2,0.1-2.7-0.9-2.9-2.5c-0.7-5.8-1.5-11.7,4.1-15.9c0.4-0.3,0.7-0.8,1.1-1c6.9-4.6,9.6-10.8,8.4-19.2c-0.6-3.9,0.9-8.2,1.6-12.3
		c0.4-2,1.7-2.1,2.5-0.3C506.6,363.2,512.3,373.9,512.6,387.8z"/>
	<path class="st0" d="M335.4,78.6c2.4,1.3,4.7,3,7.3,3.9c2.4,0.9,2.8,2.3,2.7,4.5c-0.2,2.7-2.1,2-3.6,1.9c-3-0.2-4.2,1.4-4.4,4.2
		c-0.1,2.3-0.4,4.7-0.1,7c0.2,2.4-0.9,2.8-2.8,3c-5.4,0.4-6.5-0.5-5.8-5.8c0.2-1.2,0.4-2.3,0.4-3.5c0.1-1.8,0.1-3.6-2.6-2.2
		c-1,0.5-2.3,0.5-3.4,0.5c-2.6,0-3.8-1.3-3.6-4.1c0.1-2.4,0.1-4.4,3.3-4.3c5,0.1,8.5-3.6,13-5L335.4,78.6z"/>
	<path class="st0" d="M531.6,225.8c-0.7,0-1.3,0-2,0c-5.4,0.3-5.4,0.3-4.3-5.1c0.1-0.6,0.3-1.3,0.3-2c0.1-2.3,0.2-4.5,0.3-6.8
		c2.3,0.3,4.5,0.8,6.8,1s5-0.5,6.7,0.6c0.9,0.5,0.1,3.9,0.1,6c0,0.3-0.1,0.7,0,1c0.4,1.4,0.9,2.7,1.3,4c-1.9,0.4-3.8,0.8-5.8,1.1
		C534,225.7,532.8,225.6,531.6,225.8C531.6,225.7,531.6,225.7,531.6,225.8z"/>
	<path class="st0" d="M429.4,84.2c0.3,2.2,0.7,4.5,0.9,6.7c0.4,4.3,0.1,8.7,3,12.3c1,1.2,0.8,2.3-0.8,2.4c-4.9,0.5-9.8,0.7-14.7,1
		c-0.1,0-0.5-1.4-0.3-1.7c0.8-1,1.9-1.8,2.9-2.7c4.7-4.4,7.5-9.6,7.4-16.2c0-0.6,0.1-1.2,0.2-1.8C428.5,84.2,429,84.2,429.4,84.2z"
		/>
	<path class="st0" d="M333.8,107.9c-0.1,2.6-0.4,5.1-0.4,7.7c0,2.1-0.6,3.2-2.9,2.7c-1.7-0.3-3.2-0.4-2.8-2.9
		c0.5-2.8,0.4-5.6,0.5-8.5c0.1-1.6,0.6-2.4,2.4-2c1.4,0.3,3,0.4,4.4,0.3c5-0.4,5-0.4,5.9,4.7c0.2,1.3,0.2,2.7,0.6,3.9
		c1,2.8-0.5,3.5-2.9,3.8c-2.1,0.2-3.1-0.3-2.8-2.7c0.2-1.8-0.1-3.6-0.3-5.5c-0.1-0.6-0.4-1.2-0.7-1.8
		C334.7,107.8,334.3,107.9,333.8,107.9z"/>
	<path class="st0" d="M438.4,243.7c-2.1-4.2,1.7-4.2,4.2-5.1c2.7-1.1,5.6-2.8,8.3-0.2c1.4,1.3-0.2,5.7-2.6,8.5s-5.6,2.5-8.7,2.7
		c-0.4,0-1.1-1-1.2-1.6C438.3,246.7,438.4,245.4,438.4,243.7z"/>
	<path class="st0" d="M339.3,58.8c0.3,0.7,0.8,1.3,1,2c0.3,1,0.4,2.1,0.6,3.2c-0.9-0.3-1.8-0.6-2.8-0.7c-0.5-0.1-1.5,0.2-1.6,0.5
		c-0.7,1.5-1.3,1.6-2.5,0.4c-0.5-0.5-1.7-0.6-2.4-0.4c-3.2,0.8-6.9-1.2-7.3-4.1c-0.4-2.5,0.5-3.1,3.2-2.7c0.7,0.1,2-0.1,2.2-0.6
		c0.7-1.5,1.2-1.9,2.3-0.4c0.2,0.2,1.4,0,1.6-0.3c1.7-3.6,3.5,0.3,5.2,0c0.4-0.1,1.1,1.7,1.6,2.6C340,58.4,339.6,58.6,339.3,58.8z"
		/>
	<path class="st0" d="M335.2,70.9c-0.6,5.1-2.9,8.1-5.9,7.7c-3-0.5-5.2-3.5-4.7-7c0.3-2.2,0.5-4.9,3.9-4.6
		C334.4,67.3,335.5,68,335.2,70.9z"/>
	<path class="st0" d="M433.8,69.7c-0.6,2.1-1.1,4-1.8,5.9c-0.8,2-2.4,2.7-4.4,2.2s-3.1-1.8-3-4c0.1-2.1,0.1-4.3,0.3-6.4
		c0-0.5,0.6-1.4,0.9-1.4c2.3,0.1,4.6,0.3,6.8,0.8C433.3,66.9,433.5,68.7,433.8,69.7z"/>
	<path class="st0" d="M424.5,118c0.1-1.7,0.2-4.2,0.6-6.6c0.2-1,1.4-2.4,2.2-2.5c2.3-0.2,1.9,1.7,1.8,3.2c-0.2,3-0.6,5.9-0.6,8.9
		c0,3.5,0.3,3.6,3.1,1.9c0.7-0.4,1.4-0.9,2.1-1.2c0.4-0.1,0.9,0.1,1.3,0.2c-0.2,0.5-0.2,1.5-0.5,1.6c-3,0.8-6,1.5-9,2
		c-0.3,0-1-1.1-1.1-1.7C424.4,122.1,424.5,120.5,424.5,118z"/>
	<path class="st0" d="M311.4,143.9c2.3-0.5,3.7-0.9,5.2-1.1c0.6-0.1,1.8,0.2,1.8,0.2c-0.2,3.9,4,4.9,4.9,8c0.3,0.9,0.5,2,0.4,2.9
		c0,0.4-0.8,1-1.4,1.1c-0.5,0.1-1.5-0.5-1.5-0.7C321.8,147.5,316.2,146.5,311.4,143.9z"/>
	<path class="st0" d="M308.3,419.7c1.9,0.5,3.7,1,5.6,1.5v-0.1c-3.5,2.1-1.9,5.5-2,8.4c0,0.7-0.1,1.4-0.2,2.2
		c-1-0.6-2.7-1.1-2.7-1.8c-0.4-3.4-0.3-6.9-0.4-10.4C308.4,419.5,308.3,419.7,308.3,419.7z"/>
	<path class="st0" d="M332.2,125.5c0-4.4,1.4-6.2,3.8-5.4c1,0.3,1.7,2.7,2,4.3c0.6,2.9-1.6,3.5-3.6,3.1
		C333.2,127.3,332.4,125.8,332.2,125.5z"/>
	<path class="st0" d="M438.4,62.5c-1.1-0.2-2.3-0.3-3.3-0.7c-0.8-0.4-2.1-1.6-2-2c0.5-1.3,1.5-2.4,2.5-3.5c0.1-0.1,1.5,0.6,1.7,1.1
		c0.5,1.7,0.7,3.5,1,5.3L438.4,62.5z"/>
	<path class="st0" d="M224.5,467.7c3-3.8,7-4.7,11.7-3.2c-3.9,1-7.8,2.1-11.8,3.1L224.5,467.7z"/>
	<path class="st0" d="M311.4,90.1c2.1-2.4,2.8-4.7,5.2-3.2c0.5,0.3,0.4,1.7,0.6,2.6C315.7,89.6,314.1,89.8,311.4,90.1z"/>
	<path class="st0" d="M271.1,223.5c-0.9-0.5-1.1-0.5-1.1-0.6c0.1-2,0.2-4,0.3-6c0.3,0.1,0.8,0.2,0.8,0.3
		C271.1,219.2,271.1,221.2,271.1,223.5z"/>
	<path class="st0" d="M242.8,230.3c-0.5,1.1-0.9,1.9-1.2,2.6c-0.5-1-1.3-2-1.4-3.1c-0.1-0.7,0.6-1.6,0.9-2.3
		C241.6,228.4,242.2,229.3,242.8,230.3z"/>
	<path class="st0" d="M272.7,233.1c-0.1-0.1-0.2-0.3-0.2-0.4c0.2-1.5,0.4-3.1,0.6-4.6c0.3,0.1,0.8,0.1,0.8,0.2c0,1.6,0,3.3,0,4.9
		C273.6,233.1,273.2,233.1,272.7,233.1z"/>
	<path class="st0" d="M340.9,127.1c1.5-0.6,3.1-1.3,4.6-1.8c0.1,0,0.3,0.5,0.5,0.7c-1.6,0.6-3.2,1.2-4.9,1.8
		C341.1,127.5,341,127.3,340.9,127.1z"/>
	<path class="st0" d="M307.3,136.5c0.4,1,0.9,2.1,1.3,3.1c-0.4,0.2-0.9,0.3-1.3,0.5c-0.4-1.1-0.7-2.2-1.1-3.3
		C306.6,136.7,307,136.6,307.3,136.5z"/>
	<path class="st0" d="M350.6,90.8c-1.2-1-1.9-1.5-2.5-2.2c-0.1-0.1,0.4-0.7,0.6-1c0.9,0.6,1.7,1.1,2.5,1.7
		C351.3,89.4,350.9,90.2,350.6,90.8z"/>
	<path class="st0" d="M422.9,122.7c-1.5,0.7-2,1-2.4,1c-0.7,0-1.5-0.3-2.2-0.4c0.3-0.5,0.6-1.3,0.9-1.3
		C420,122,420.8,122.3,422.9,122.7z"/>
	<path class="st0" d="M268.3,228.8c0.2,1.2,0.5,2.4,0.7,3.6c-0.2,0-0.6,0-0.6,0c-0.3-1.2-0.6-2.4-0.9-3.6
		C267.7,228.9,268,228.8,268.3,228.8z"/>
	<path class="st0" d="M237.2,230.9c-0.7,0.7-1.1,1.1-1.6,1.5c-0.4-0.6-1.1-1.1-1.2-1.7c-0.1-0.4,0.6-0.9,1-1.4
		C236,229.8,236.5,230.3,237.2,230.9z"/>
	<path class="st0" d="M327.7,124.9c1,1.6,1.4,2,1.6,2.5c0,0.1-0.8,0.7-0.9,0.6c-0.4-0.3-0.9-0.7-1-1.2
		C327.2,126.4,327.4,125.9,327.7,124.9z"/>
	<path class="st0" d="M221.5,492.1c-0.3,0.1-0.5,0.3-0.7,0.3c-0.3,0-0.6-0.2-0.9-0.3c0.2-0.1,0.5-0.3,0.7-0.3
		C220.9,491.8,221.2,492,221.5,492.1z"/>
	<path class="st0" d="M319.8,171.1c0.3-0.1,0.6-0.2,0.9-0.3c0.5-0.1,0.9,0,1.4,0c-0.5,0.1-0.9,0.2-1.4,0.3
		C320.4,171.1,320.1,171.1,319.8,171.1L319.8,171.1z"/>
	<path class="st0" d="M199.6,518.5c-0.3-0.1-0.5-0.1-0.8-0.2c0.2,0.1,0.4,0.2,0.7,0.3C199.5,518.6,199.6,518.5,199.6,518.5z"/>
	<path class="st0" d="M224.4,467.6c-0.8,0.2-1.6,0.4-2.4,0.5l0.1,0.1C222.9,468,223.7,467.9,224.4,467.6L224.4,467.6z"/>
	<polygon class="st0" points="306.9,132.1 306.7,131.6 307,131.7 	"/>
	<path class="st0" d="M420,61.3c-0.1,0.1-0.1,0.2-0.2,0.3c0.1-0.1,0.2-0.1,0.3-0.2C420.1,61.4,420,61.3,420,61.3z"/>
	<path class="st0" d="M421,60.2c-0.3,0.4-0.6,0.8-1,1.1l0.1,0.1c0.3-0.4,0.6-0.7,1-1.1L421,60.2z"/>
	<path class="st0" d="M421.1,60.3c0.2-0.1,0.5-0.1,0.7-0.2C421.5,60.1,421.2,60.1,421.1,60.3L421.1,60.3z"/>
	<path class="st0" d="M438.3,62.6c0.2,0.1,0.3,0.2,0.5,0.4c-0.1,0-0.3,0-0.3,0c-0.1-0.1-0.1-0.3-0.1-0.4H438.3z"/>
	<path class="st0" d="M377.2,55.8c-0.2,1.2-0.5,3.2-0.9,5.2s-1.2,3.5-3.5,3.5c-2.3,0.1-3.2-1.3-3.5-3.4c-0.2-1.1-0.6-2.2-0.9-3.4
		c-1.6-5.5-1.2-6.1,4.5-6.8C377.1,50.5,377.4,50.7,377.2,55.8z"/>
	<path class="st0" d="M287.5,185.7c-0.4,2.6-0.6,5.2-1.1,7.8c-0.8,4.1-2.4,5.7-5.7,5.7c-3.4,0.1-6.5-2.3-7.3-5.6
		c-0.2-0.8-0.2-1.6-0.2-2.5c-0.2-5.3,0.5-6,5.8-5.7c2.9,0.2,5.8,0.2,8.7,0.4C287.7,185.9,287.5,185.7,287.5,185.7z"/>
	<path class="st0" d="M287.8,175.8c-0.7,1.3-1.8,2.5-2,3.8c-0.5,2.2-2.4,2.2-3.4,1.8c-1.8-0.8-3.1-1.9-4.2,0.7
		c-0.1,0.1-1,0.1-1.3-0.1c-1.8-1.5-3.8-2-6.1-2.2c-0.5,0-0.8-1.9-1.2-3c4.4-0.5,1.1-3.5,1.7-5.6c1.2,0.5,2.6,1.6,3.5,1.2
		c1.2-0.5,1.9-2.1,2.8-3.2c0.2,0.1,0.6,0.3,0.6,0.4c0.6,5.3,0.6,5.3,6.7,1.3c-1.1,3,0,4.5,2.6,5L287.8,175.8z"/>
	<path class="st0" d="M292.4,183.6c1.1-0.1,2.4-0.6,3.3-0.2c0.7,0.3,0.9,1.7,1.4,2.6c-0.9,0-2,0.4-2.5,0.1c-0.9-0.6-1.4-1.7-2.1-2.6
		L292.4,183.6z"/>
	<path class="st0" d="M291.3,183.6c0.4,0,0.7,0,1.1,0.1l0.1-0.1c-0.4,0-0.9,0-1.3-0.1L291.3,183.6z"/>
	<path class="st0" d="M287.7,176c0-0.1,0-0.3,0-0.4c0,0.1,0.1,0.2,0.1,0.2L287.7,176z"/>
	<path class="st0" d="M407.9,84c-0.2,0.1-0.4,0.4-0.5,0.4c-0.2,0-0.4-0.3-0.6-0.4c0.1-0.1,0.2-0.3,0.3-0.3
		C407.4,83.7,407.6,83.9,407.9,84z"/>
	<path d="M289.5,267.5c-2.9,1-5.8,2.2-8.8,3c-2.4,0.7-4.8,1.2-7.3,1.7c-0.8,0.2-1.9,0.7-2.4,0.4c-5.6-3.7-11.2-0.3-16.7-0.3
		c-0.7,0-1.3,0-2,0.1c-2.9,0.6-4.1-0.5-4.4-3.6c-0.7-8.6-1.7-17.2-2.5-25.8c-0.2-2.4-0.4-4.8,3.2-4.7c3.2,0.1,3.9,0.6,3.9,4.8
		c0,7.1-0.3,14.3-0.4,21.4c-0.1,4.2-0.1,4.1,3.9,3.2c3.2-0.7,6.5-1.4,9.8-1.9c2.3-0.3,2.8-1.5,2.7-3.7c-0.4-6.6-0.7-13.3-0.8-19.9
		c-0.1-4.4,0-4.3,4.4-4.4c3.2-0.1,6.3-0.5,9.5-0.4c1.3,0,3.7,1,3.7,1.5c-0.1,1.7-0.7,3.5-1.7,4.9c-0.4,0.5-2.3,0.1-3.4-0.1
		s-2.1-1.2-3.2-1.2c-1.7-0.1-4.7-0.2-5,0.5c-0.7,1.8-0.5,4.2-0.1,6.2c0.1,0.5,2.2,0.6,3.3,1c1,0.4,2,0.9,2.9,1.4
		c-0.7,1-1.3,2.9-2.1,2.9c-5.5,0.5-4.2,4.3-4.1,7.6c0.2,7.9,0.8,8.2,7.6,4.1c2-1.2,4-2.3,6.1-3.5c2.8-1.6,3.4-1.3,3.9,1.7
		c0.1,1,0,2-0.1,3L289.5,267.5z"/>
	<path d="M232.9,257.6c-0.8,0.2-2.7,0.5-4.6,0.9c0.5,2.4,0.8,4.8,1.5,7.1c0.6,1.9,1.9,3.5,2.2,5.4c0.4,2-0.7,3.6-3,3.7
		c-2,0.1-3.2-0.8-3.4-2.8c-0.7-7.8-1.8-15.5-1.8-23.3c0-7.7,5-12.1,11.6-11.1c1.4,0.2,3,0.9,3.8,1.9c3,4,5.4,8.5,5,13.8
		c-0.3,5.1-0.8,10.3-1.2,15.4c-0.1,0.8,0,1.9-0.5,2.4c-0.9,0.9-2.2,1.4-3.4,2.1c-0.4-1.1-1.2-2.3-1-3.3c0.5-2.4,1.5-4.8,2.1-7.2
		c0.9-4.1,0.5-4.6-3.6-4.8C235.8,257.8,234.9,257.8,232.9,257.6z M234.5,254v-0.1c0.7,0,1.3,0.1,2,0.1c4.2,0.2,4.5,0,4.1-4.1
		c-0.1-0.8,0-1.8-0.4-2.4c-1.6-2-3.2-4.2-5.3-5.5c-0.6-0.4-3.1,2.1-4.6,3.5c-0.9,0.9-1.6,2.1-2.2,3.3c-1.8,3.7-0.7,5.4,3.4,5.3
		C232.5,254,233.5,254,234.5,254z"/>
	<path d="M356.5,256.1c0.5-5.1-1.1-9.9-2.3-14.7c-0.4-1.7-1-3.3,0.9-3.4c1.7-0.1,3.7,0.8,5,1.9c0.7,0.6,0.2,2.5,0.3,3.9
		c0.5,7,1,13.9,1.5,20.9c0.1,0.8,0.4,1.7,0.2,2.5c-0.2,0.9-0.7,1.6-1.1,2.4c-0.8-0.5-1.7-0.8-2.2-1.5c-3.5-4.9-6.8-9.8-10.3-14.7
		c-0.6-0.9-1.7-1.4-2.5-2.1c-0.2,1.2-0.8,2.5-0.7,3.7c0.4,3.8,1,7.5,1.5,11.3c0.1,1.1,0.2,2.5-0.3,3.4c-0.4,0.8-1.7,1.6-2.6,1.6
		c-0.8,0-2.2-1-2.4-1.8c-0.4-1.6-0.1-3.3-0.1-5c0-5.8-0.1-11.6-0.1-17.4c0-1.8,0-3.6,0.2-5.5c0-0.5,0.5-1.1,0.8-1.6
		c0.4,0.4,1,0.7,1.3,1.1c3.9,5.2,7.8,10.5,11.7,15.7C355.7,256.5,356.1,256.3,356.5,256.1z"/>
	<path d="M564.2,248.2c0,1.2,0.1,2.3,0,3.5c-0.6,5.1-2.5,9.6-7.5,11.4c-5,1.7-10.2,1.1-14.6-2.3c-2.9-2.2-4.5-5.2-3.9-9.1
		c0.5-2.8,0.3-5.6,0.8-8.4c1.1-5.7,7.3-10.7,12.8-10.7c5.8,0.1,11.2,5,12.3,11.2C564.3,245.2,564.2,246.7,564.2,248.2
		C564.3,248.2,564.3,248.2,564.2,248.2z M559.7,251.1c0.1-5.6-1.4-9.8-4.7-12.6c-3.3-2.9-7.3-2.9-10.3,0c-3.8,3.7-5,12.5-2.2,17.2
		c2.1,3.6,7.6,6.2,11,5.1C555.8,260,559.6,254,559.7,251.1z"/>
	<path d="M218.7,262.8c-0.4-2.6,0.1-5.9-1.4-7.6c-1.1-1.3-4.5-0.7-6.9-0.9c-2.1-0.2-4.4-0.1-6.4-0.8c-1.7-0.6-3.9-2-4.3-3.4
		c-0.5-2-0.1-5.2,1.2-6.3c5.4-4.6,12.2-5.7,19.1-5.2c0.7,0,2,1.9,1.8,2.8c-0.2,1.7-1.4,1.5-3,0.8c-5.8-2.4-10.7,0-15.2,3.4
		c-0.9,0.7-1.4,2.6-1.2,3.9c0.1,0.7,2.1,1.3,3.3,1.4c3.1,0.2,6.3,0,9.5,0.2c4.2,0.3,5.3,1.3,5.8,5.3c0.5,3.9,0.9,7.9,1.1,11.9
		c0.2,5.4-2.3,7.7-7.4,7.4c-3.6-0.2-7.3-0.4-10.9-0.8c-1.6-0.2-3.2-0.7-4.7-1.4c-0.7-0.3-1.1-1.4-1.7-2.1c0.8-0.5,1.5-1.5,2.3-1.5
		c2.6-0.1,5.3,0.2,7.9,0.4c0.7,0,1.3,0.2,2,0.3C218.3,272,218.8,271.5,218.7,262.8z"/>
	<path d="M334.8,261.5c0-0.2,0-0.3,0-0.5c-0.1-2,0.2-5.6-0.5-5.9c-2.4-0.8-5.2-0.6-7.8-0.3c-0.7,0.1-1.7,1.9-1.6,2.8
		c0.1,3.8,0.2,7.6,0.9,11.4c0.3,1.5,0.6,3-1,3c-1.1,0-3-1.6-3.2-2.7c-0.6-2.7-0.4-5.6-0.4-8.4c0-4.6-0.1-9.2,0.1-13.9
		c0.1-3.6,1.2-7.1,4.9-8.5c3.3-1.2,6.4,0.8,9.1,5.4c1,1.7,1.8,3.6,2.2,5.5c0.9,5.2,1.6,10.5,2.3,15.8c0.1,1,0.3,2.1-0.1,2.9
		c-0.3,0.9-1.3,1.6-1.9,2.3c-0.8-0.7-2.1-1.3-2.3-2.1C334.9,266.2,335,263.9,334.8,261.5z M330.6,251.8c0,0.2,0.1,0.3,0.1,0.5
		c1.2-0.5,2.4-0.9,3.7-1.4c-1.5-2.7-2.6-5.7-4.5-8c-1.1-1.3-3-0.7-3.9,1.3c-2.5,5.1-1.4,7.3,4.1,7.6
		C330.2,251.8,330.4,251.8,330.6,251.8z"/>
	<path d="M289.4,267.6c1.7-0.3,3.5-0.7,5.2-0.7c1.6-0.1,3.3,0.5,4.9,0.3c4.8-0.4,6.3-2.1,6.2-6.9c-0.1-7.8,1.5-10.4-9.3-10.1
		c-5.1,0.2-6.9-1.9-6.9-5.8c0-3.5,3.1-6.7,7.2-6.8c2.8-0.1,5.6,0.5,8.3,0.9c0.5,0.1,1,0.6,1.5,1c-0.6,0.5-1.2,1.2-1.8,1.3
		c-2.5,0.3-5,0.3-7.4,0.6c-1.3,0.2-2.7,0.5-3.6,1.4c-0.8,0.8-1.3,2.3-1.2,3.5c0.1,0.6,1.7,1.4,2.7,1.5c2.1,0.2,4.3-0.1,6.5,0.1
		c4.5,0.4,6.8,2.3,7.2,6.8c0.4,4,0.2,8,0.1,12c0,3.2-2.6,4.2-5,4.6c-3.9,0.7-7.9,1.1-11.8,1.3C288.2,272.8,289.8,269.6,289.4,267.6
		L289.4,267.6z"/>
	<path d="M466.8,234.8c1.5-0.1,3-0.2,4.5-0.3c2.4-0.2,3.3,1,3.1,3.3c-0.1,1.6-0.5,2.7-2.4,1.6c-0.4-0.3-0.9-0.5-1.3-0.7
		c-5.7-1.7-8,0.2-8.3,6.2c-0.1,3.2-0.1,5.7,4.1,5.3c0.5,0,1,0.7,1.5,1c-0.5,0.5-1,1.1-1.6,1.5c-1.3,0.8-3.9,1.3-3.9,2.1
		c-0.2,2.9-0.5,6.6,1,8.6c0.9,1.3,5.1,0.2,7.8,0.1c0.4,0,0.8-0.6,1.2-0.9c1.1-0.9,2.2-1.7,3.2-2.6c0.2,1.4,0.7,2.8,0.5,4.1
		c-0.3,1.8,0.1,4.4-2.6,4.7c-3.8,0.4-7.6,0.4-11.5,0.6c-2.3,0.1-2.7-1.6-2.7-3.4c0-2.5,0.3-5,0.3-7.5c-0.1-6.3-0.1-12.6-0.5-18.9
		c-0.3-4.7-0.1-5.1,4.6-4.9C464.8,234.7,465.8,234.8,466.8,234.8z"/>
	<path d="M523.4,248.8c0.1-2.3,0.2-4.6,0.4-7c0.2-2.2-0.7-3.1-2.9-3c-2.3,0.1-4.6,0.3-6.9,0.1c-0.9-0.1-2.5-0.8-2.6-1.5
		c-0.2-1.4,0.3-2.9,0.6-4.3c0-0.2,1-0.4,1.3-0.3c3.3,2.4,6.7,0.3,10.1,0.2c4.1-0.1,8.3-0.2,12.4-0.1c1.2,0.1,2.4,1.1,3.6,1.7
		c-1.3,0.6-2.5,1.3-3.8,1.6c-1.1,0.3-2.3,0.2-3.5,0.3c-4.7,0.3-4.9,0.3-4.9,5.3c0,6,0.3,12,0.7,17.9c0.3,3.8-1,5.2-4.8,4.6
		c-2.5-0.5-2.7-1.3-1.4-3.6c0.8-1.4,1.2-2.9,1.6-4.5c0.3-1.3,0.2-2.6,0.2-4c0-1.2,0-2.3,0-3.5C523.4,248.8,523.4,248.8,523.4,248.8z
		"/>
	<path d="M365.4,252.3c-0.2-2.9-0.6-6.3-0.6-9.8c0-0.9,1.1-1.7,1.6-2.6c0.7,0.6,1.8,1.2,1.9,1.9c1.6,7.4,3,14.7,4.4,22.1
		c0.4,2,1.2,4.5-2.2,4.9c-2.9,0.3-4.9-1.1-5.1-4.1C365.1,260.8,365.4,256.9,365.4,252.3z"/>
	<path d="M317.4,263.8c0,2,0.2,4-0.1,5.9c-0.2,1-1.2,1.9-1.9,2.8c-0.9-0.8-1.8-1.6-2.6-2.4c-0.1-0.1-0.1-0.3-0.1-0.5
		c0.1-8.6,0.2-17.1,0.4-25.7c0-1.2,0.8-2.3,1.2-3.4c0.6,1.2,1.7,2.3,1.8,3.5C316.7,250.6,317.1,257.2,317.4,263.8
		C317.5,263.8,317.5,263.8,317.4,263.8z"/>
	<path d="M310,346.3c1.3,0.5,3.3,0.7,3.8,1.7c0.5,0.9-0.3,2.8-1.1,3.9c-1.8,2.4-2.6,4.5-0.8,7.2c0.3,0.5-0.1,2-0.7,2.5
		c-2,1.7-7,0.8-8.4-1.4c-2-3.1-1.6-6.4-0.1-9.5C304.1,347.7,306.3,345.8,310,346.3z"/>
	<path d="M204.2,503.6c-1.6-0.6-4.2-1.2-6.5-2.4c-2-1-2.1-3,0-3.7c3.5-1.3,7.3-2,11-2.7c0.5-0.1,1.5,0.7,1.8,1.3
		C211.6,499.1,208.4,503.6,204.2,503.6z"/>
	<path d="M258.4,435.5c5.2-0.8,9.1,1.1,10.9,5.9c2.4,6.3,6.8,11,11,15.9c2,2.3,3.8,4.6,5.4,7.1c1.3,1.9,0.8,3.5-1.8,3.9
		c-0.5,0.1-1,0.3-1.5,0.3c-9.1-0.8-17.7-3.1-24.1-10.2c-1.8-2-3.4-4.1-5.2-6.1c-3.2-3.5-4.5-7.6-4.9-12.2c-0.2-2.5,0.4-3.8,3-3.9
		C253.8,436,256.1,435.7,258.4,435.5z"/>
	<path class="st0" d="M234.5,254c-1,0-2,0-3,0c-4.1,0.1-5.2-1.5-3.4-5.3c0.6-1.2,1.3-2.4,2.2-3.3c1.4-1.4,3.9-3.8,4.6-3.5
		c2.1,1.2,3.7,3.5,5.3,5.5c0.4,0.6,0.4,1.6,0.4,2.4c0.3,4.1,0.1,4.3-4.1,4.1c-0.7,0-1.3-0.1-2-0.1C234.5,253.9,234.5,254,234.5,254z
		"/>
	<path class="st0" d="M559.7,251.1c-0.1,3-3.9,8.9-6.2,9.6c-3.4,1.1-8.9-1.5-11-5.1c-2.8-4.7-1.6-13.5,2.2-17.2c3-2.9,7-2.9,10.3,0
		C558.2,241.3,559.8,245.5,559.7,251.1z"/>
	<path class="st0" d="M330.6,251.8c-0.2,0-0.3,0-0.5,0c-5.5-0.3-6.6-2.4-4.1-7.6c1-2,2.9-2.6,3.9-1.3c1.9,2.3,3.1,5.3,4.5,8
		c-1.2,0.5-2.4,0.9-3.7,1.4C330.6,252.1,330.6,252,330.6,251.8z"/>
</g>
</svg>
