<?xml version="1.0" encoding="UTF-8" standalone="no"?>
<!-- Generator: Adobe Illustrator 22.0.0, SVG Export Plug-In . SVG Version: 6.00 Build 0)  -->

<svg
   xmlns:dc="http://purl.org/dc/elements/1.1/"
   xmlns:cc="http://creativecommons.org/ns#"
   xmlns:rdf="http://www.w3.org/1999/02/22-rdf-syntax-ns#"
   xmlns:svg="http://www.w3.org/2000/svg"
   xmlns="http://www.w3.org/2000/svg"
   xmlns:sodipodi="http://sodipodi.sourceforge.net/DTD/sodipodi-0.dtd"
   xmlns:inkscape="http://www.inkscape.org/namespaces/inkscape"
   version="1.1"
   id="Livello_1"
   x="0px"
   y="0px"
   viewBox="0 0 599.99998 400.00001"
   xml:space="preserve"
   sodipodi:docname="sacra-famiglia.svg"
   width="600"
   height="400"
   inkscape:version="0.92.3 (2405546, 2018-03-11)"><metadata
   id="metadata5108"><rdf:RDF><cc:Work
       rdf:about=""><dc:format>image/svg+xml</dc:format><dc:type
         rdf:resource="http://purl.org/dc/dcmitype/StillImage" /><dc:title></dc:title></cc:Work></rdf:RDF></metadata><defs
   id="defs5106" /><sodipodi:namedview
   pagecolor="#ffffff"
   bordercolor="#666666"
   borderopacity="1"
   objecttolerance="10"
   gridtolerance="10"
   guidetolerance="10"
   inkscape:pageopacity="0"
   inkscape:pageshadow="2"
   inkscape:window-width="1366"
   inkscape:window-height="705"
   id="namedview5104"
   showgrid="false"
   inkscape:zoom="0.39643878"
   inkscape:cx="420.95001"
   inkscape:cy="297.64999"
   inkscape:window-x="-8"
   inkscape:window-y="-8"
   inkscape:window-maximized="1"
   inkscape:current-layer="Livello_1" />
<g
   id="g5101"
   transform="matrix(2.431107,0,0,2.5098672,-582.62353,-383.26341)">
	<path
   d="m 426.5,234.3 c -0.3,35.6 -28.8,62.8 -65.7,62.5 -33.5,-0.3 -61.6,-29.9 -61.2,-64.5 0.4,-35.7 28.8,-63 65.1,-62.7 34.2,0.4 62.1,29.5 61.8,64.7 z m -59.2,61.2 c 5.4,0.1 14.4,-1.8 22.7,-6.2 18.5,-9.9 31.7,-23.9 32.5,-46.3 0.8,-21.4 -14,-42.5 -34.2,-49.2 -2.4,-0.8 -4.2,-1.7 -4.6,2.4 -0.2,2 -2,4.4 -3.8,5.5 -2.2,1.4 -1.6,2.3 -0.8,4.1 2.2,4.9 4.7,9.7 6,14.9 3,11.8 1.9,23.1 -6.3,32.9 -2.8,3.4 -2.9,3.4 -5.2,-0.5 -2.3,-3.8 -4.1,-8.3 -10.1,-5.6 -0.5,0.2 -1.3,0.1 -1.8,-0.1 -3.4,-1.4 -5.3,0.2 -6.5,3.2 -0.3,0.7 -0.8,1.3 -1.1,2 -1.3,2.9 -2.9,3 -5.5,1.4 -9.6,-5.6 -13.6,-14.3 -13.8,-25 -0.1,-2.6 -0.6,-3.8 -3.5,-4.4 -2.2,-0.5 -4.6,-2.5 -5.8,-4.4 -1.3,-2 -2,-1.8 -3.2,-0.5 -1.1,1.2 -2.3,2.3 -3.2,3.7 -5.7,8.6 -8.4,18.1 -8.2,28.4 0.1,9 1.4,17.9 8.1,24.7 11.9,12.1 26.6,19 48.3,19 z m -7.4,-124.1 c -23.6,1.3 -41.3,12.5 -52,33.4 -9.5,18.5 -8.8,37.6 -0.1,56.4 0.3,-0.9 0.2,-1.9 0,-2.8 -3.3,-16.4 -0.2,-30.6 14.4,-40.6 2.5,-1.7 2.2,-3.3 0.8,-5.6 -2.7,-4.6 -1.9,-10.8 1.5,-14.7 3.7,-4.3 10.3,-5.9 16.2,-3.9 5.3,1.8 8.9,6.2 8.9,11.7 0,8.1 -3.9,14.1 -10.8,18 -2.4,1.4 -3,2.9 -2.5,5.4 1.3,7.5 4.7,13.6 10.5,18.5 4.1,3.4 3.9,3.2 7.6,-0.3 2.8,-2.6 0.8,-4 -0.6,-5.8 -6.5,-8 -3.3,-19.1 6.1,-21.6 6,-1.6 12,1 15.1,6.4 3,5.3 2.1,11.1 -2.3,15.8 -0.8,0.9 -2,2.8 -1.7,3.2 1.4,1.8 3.3,3.3 5,4.9 1.2,-1.5 2.4,-3.1 3.5,-4.6 0.3,-0.4 0.4,-0.9 0.6,-1.4 4.1,-11.1 3.3,-22.1 -0.3,-33.1 -0.8,-2.6 -1.7,-6 -3.7,-7.1 -3.5,-2.1 -7.8,-3.3 -11.9,-3.7 -5.9,-0.6 -10.9,-3.6 -12.9,-9.2 -2.9,-7.8 0.3,-14.6 8.6,-19.3 z m 63.2,48.2 c -5,-27.1 -28.5,-46.3 -54.2,-47.9 5.7,2.6 8,6.7 10.1,11.7 1.7,4.3 4.4,8.2 10.6,8.9 11.5,1.4 20.6,7.8 27.3,17.4 2,2.9 3.8,6 6.2,9.9 z m -55.7,-39.4 c -6,-0.1 -8.7,3.2 -7.4,9.1 1.4,5.9 8,11.6 14.2,12.2 6.1,0.7 9.7,-3.6 8.1,-9.6 -1.7,-6.1 -8.7,-11.6 -14.9,-11.7 z m -41.8,35.6 c -0.1,5.5 3.9,8.8 9.3,7.8 6,-1.2 11.2,-7 11.6,-13.1 0.4,-5.1 -2.9,-8.5 -7.8,-8.2 -6.8,0.3 -13,6.7 -13.1,13.5 z m 28.4,23.3 c 0.6,-5.9 3.8,-9 9.4,-8.8 5.2,0.1 8.4,3.1 9.1,8.6 4.1,-4.6 3.6,-10.5 -0.8,-14.8 -4.7,-4.6 -11.7,-5 -16.2,-0.9 -4.3,3.8 -5.1,11.3 -1.5,15.9 z m 23,-57 c -2,-6.8 -8.6,-10.4 -15.4,-9 -6.6,1.4 -10.7,7.5 -9.7,14.3 0.9,6.5 5.9,11 12,10.7 -3.9,-5 -8.7,-10.3 -3.8,-16.3 4.8,-5.8 10.9,-2.6 16.9,0.3 z m -29.1,24.3 c 0.3,-5.5 -2.8,-10.2 -8,-12 -5.4,-1.9 -11.1,-0.1 -14.6,4.7 -3.2,4.4 -3.4,9.1 -0.6,12.9 6,-12.1 17.1,-15.3 23.2,-5.6 z m 22.8,32.7 c 0,-4.4 -3.2,-7.7 -7.4,-7.7 -4.4,0.1 -7.7,3.3 -7.7,7.5 0,4 3.5,7.4 7.8,7.5 4.1,0.1 7.3,-3.1 7.3,-7.3 z"
   id="path5099"
   inkscape:connector-curvature="0" />
</g>
</svg>