<?xml version="1.0" encoding="UTF-8" standalone="no"?>
<!-- Generator: Adobe Illustrator 22.0.0, SVG Export Plug-In . SVG Version: 6.00 Build 0)  -->

<svg
   xmlns:dc="http://purl.org/dc/elements/1.1/"
   xmlns:cc="http://creativecommons.org/ns#"
   xmlns:rdf="http://www.w3.org/1999/02/22-rdf-syntax-ns#"
   xmlns:svg="http://www.w3.org/2000/svg"
   xmlns="http://www.w3.org/2000/svg"
   xmlns:sodipodi="http://sodipodi.sourceforge.net/DTD/sodipodi-0.dtd"
   xmlns:inkscape="http://www.inkscape.org/namespaces/inkscape"
   version="1.1"
   id="Livello_1"
   x="0px"
   y="0px"
   viewBox="0 0 595.29997 400.00001"
   xml:space="preserve"
   sodipodi:docname="sacro-cuore-small.svg"
   width="595.29999"
   height="400"
   inkscape:version="0.92.3 (2405546, 2018-03-11)"><metadata
   id="metadata828"><rdf:RDF><cc:Work
       rdf:about=""><dc:format>image/svg+xml</dc:format><dc:type
         rdf:resource="http://purl.org/dc/dcmitype/StillImage" /><dc:title></dc:title></cc:Work></rdf:RDF></metadata><defs
   id="defs826" /><sodipodi:namedview
   pagecolor="#ffffff"
   bordercolor="#666666"
   borderopacity="1"
   objecttolerance="10"
   gridtolerance="10"
   guidetolerance="10"
   inkscape:pageopacity="0"
   inkscape:pageshadow="2"
   inkscape:window-width="1366"
   inkscape:window-height="705"
   id="namedview824"
   showgrid="false"
   inkscape:zoom="0.80295651"
   inkscape:cx="420.95001"
   inkscape:cy="297.64999"
   inkscape:window-x="-8"
   inkscape:window-y="-8"
   inkscape:window-maximized="1"
   inkscape:current-layer="Livello_1" />
<style
   type="text/css"
   id="style815">
	.st0{fill:#CD1719;}
</style>


<path
   class="st0"
   d="m 400.40028,223.9947 c -16.87927,53.36024 -48.45981,81.12934 -48.45981,81.12934 l -9.80087,-8.16739 c 0,0 91.4747,-119.24379 22.32419,-151.36882 -29.40258,-5.44492 -29.40258,38.65894 -29.40258,38.65894 l -33.21402,-15.24579 c 0,0 -28.85809,-69.69498 -75.13994,-34.84749 -49.54879,37.56996 -2.72245,165.52563 87.66327,176.41547 -5.44494,14.1568 -12.52333,30.49157 -12.52333,30.49157 0,0 -86.57426,-33.21403 -109.44294,-108.35396 -22.32418,-75.13991 20.69071,-119.24378 43.01488,-125.23319 22.32419,-5.44493 60.98314,2.72246 75.13992,48.4598 15.24579,-26.13562 38.65896,-40.29242 59.89416,-32.12503 20.69069,9.25636 46.82632,46.82631 29.94707,100.18655 m 66.97253,-13.06781 c 0,-91.47469 -74.05094,-165.525613 -165.52562,-165.525613 -91.4747,0 -165.52564,74.050923 -165.52564,165.525613 0,91.47468 74.05094,165.52563 165.52564,165.52563 91.47468,0 165.52562,-74.05095 165.52562,-165.52563"
   id="path821"
   inkscape:connector-curvature="0"
   style="fill:#cd1719;stroke-width:5.44492149" />
</svg>