<?xml version="1.0" encoding="UTF-8" standalone="no"?>
<!-- Generator: Adobe Illustrator 22.0.0, SVG Export Plug-In . SVG Version: 6.00 Build 0)  -->

<svg
   xmlns:dc="http://purl.org/dc/elements/1.1/"
   xmlns:cc="http://creativecommons.org/ns#"
   xmlns:rdf="http://www.w3.org/1999/02/22-rdf-syntax-ns#"
   xmlns:svg="http://www.w3.org/2000/svg"
   xmlns="http://www.w3.org/2000/svg"
   xmlns:sodipodi="http://sodipodi.sourceforge.net/DTD/sodipodi-0.dtd"
   xmlns:inkscape="http://www.inkscape.org/namespaces/inkscape"
   version="1.1"
   id="Livello_1"
   x="0px"
   y="0px"
   viewBox="0 0 599.99998 100"
   xml:space="preserve"
   sodipodi:docname="sacro-cuore.svg"
   width="600"
   height="100"
   inkscape:version="0.92.3 (2405546, 2018-03-11)"><metadata
   id="metadata15"><rdf:RDF><cc:Work
       rdf:about=""><dc:format>image/svg+xml</dc:format><dc:type
         rdf:resource="http://purl.org/dc/dcmitype/StillImage" /><dc:title></dc:title></cc:Work></rdf:RDF></metadata><defs
   id="defs13" /><sodipodi:namedview
   pagecolor="#ffffff"
   bordercolor="#666666"
   borderopacity="1"
   objecttolerance="10"
   gridtolerance="10"
   guidetolerance="10"
   inkscape:pageopacity="0"
   inkscape:pageshadow="2"
   inkscape:window-width="1366"
   inkscape:window-height="705"
   id="namedview11"
   showgrid="false"
   inkscape:zoom="0.39643878"
   inkscape:cx="420.95001"
   inkscape:cy="297.64999"
   inkscape:window-x="-8"
   inkscape:window-y="-8"
   inkscape:window-maximized="1"
   inkscape:current-layer="Livello_1" />
<style
   type="text/css"
   id="style2">
	.st0{fill:#CD1719;}
</style>


<g
   id="g828"
   transform="translate(-112,-50)"><path
     inkscape:connector-curvature="0"
     id="path4"
     d="m 615.8,104.70001 h 16 v -4.1 h -11.4 v -4.399998 h 9.9 v -4.1 h -9.9 v -4.4 h 11.3 v -4.1 H 615.8 Z M 600.1,93.800012 v -6.1 h 4.6 c 2.3,0 3.6,1 3.6,3 v 0.1 c 0,1.8 -1.3,3 -3.6,3 z m -4.6,10.899998 h 4.6 v -6.699998 h 3.6 0.1 l 4.5,6.699998 h 5.4 l -5.1,-7.499998 c 2.7,-1 4.5,-3.1 4.5,-6.5 v -0.1 c 0,-2 -0.6,-3.6 -1.8,-4.8 -1.4,-1.4 -3.5,-2.1 -6.1,-2.1 h -9.6 v 20.999998 z m -13.8,-3.9 c -3.7,0 -6.4,-2.999998 -6.4,-6.599998 v -0.1 c 0,-3.6 2.6,-6.6 6.3,-6.6 3.7,0 6.4,3 6.4,6.6 v 0.1 c 0,3.6 -2.6,6.599998 -6.3,6.599998 m 0,4.2 c 6.5,0 11.2,-4.9 11.2,-10.899998 v -0.1 c 0,-6 -4.7,-10.8 -11.2,-10.8 -6.5,0 -11.2,4.9 -11.2,10.9 v 0.1 c 0,5.999998 4.7,10.799998 11.2,10.799998 m -22.7,0 c 5.7,0 9.2,-3.1 9.2,-9.499998 v -11.9 h -4.6 v 12.1 c 0,3.3 -1.7,5.099998 -4.5,5.099998 -2.8,0 -4.5,-1.799998 -4.5,-5.199998 v -11.9 H 550 v 12 c -0.2,6.099998 3.3,9.299998 9,9.299998 m -19.7,0 c 4.1,0 6.5,-1.4 8.6,-3.8 l -3,-2.999998 c -1.7,1.5 -3.1,2.499998 -5.5,2.499998 -3.6,0 -6.1,-2.999998 -6.1,-6.599998 v -0.1 c 0,-3.6 2.6,-6.6 6.1,-6.6 2.1,0 3.8,0.9 5.4,2.4 l 2.9,-3.4 c -2,-1.9 -4.3,-3.3 -8.3,-3.3 -6.5,0 -11,4.9 -11,10.9 v 0.1 c 0.1,6.099998 4.7,10.899998 10.9,10.899998 m -31.2,-4.2 c -3.7,0 -6.4,-2.999998 -6.4,-6.599998 v -0.1 c 0,-3.6 2.6,-6.6 6.3,-6.6 3.7,0 6.4,3 6.4,6.6 v 0.1 c 0.1,3.6 -2.5,6.599998 -6.3,6.599998 m 0,4.2 c 6.5,0 11.2,-4.9 11.2,-10.899998 v -0.1 c 0,-6 -4.7,-10.8 -11.2,-10.8 -6.5,0 -11.2,4.9 -11.2,10.9 v 0.1 c 0,5.999998 4.7,10.799998 11.2,10.799998 M 482.2,93.800012 v -6.1 h 4.6 c 2.3,0 3.6,1 3.6,3 v 0.1 c 0,1.8 -1.3,3 -3.6,3 z m -4.6,10.899998 h 4.6 v -6.699998 h 3.6 0.1 l 4.5,6.699998 h 5.4 l -5.1,-7.499998 c 2.7,-1 4.5,-3.1 4.5,-6.5 v -0.1 c 0,-2 -0.6,-3.6 -1.8,-4.8 -1.4,-1.4 -3.5,-2.1 -6.1,-2.1 h -9.6 v 20.999998 z m -10.9,0.3 c 4.1,0 6.5,-1.4 8.6,-3.8 l -3,-2.999998 c -1.7,1.5 -3.1,2.499998 -5.5,2.499998 -3.6,0 -6.1,-2.999998 -6.1,-6.599998 v -0.1 c 0,-3.6 2.6,-6.6 6.1,-6.6 2.1,0 3.8,0.9 5.4,2.4 l 2.9,-3.4 c -2,-1.9 -4.3,-3.3 -8.3,-3.3 -6.5,0 -11,4.9 -11,10.9 v 0.1 c 0.1,6.099998 4.7,10.899998 10.9,10.899998 m -24.3,-9.199998 2.8,-6.8 2.8,6.8 z m -8.3,8.899998 h 4.7 l 1.9,-4.7 h 8.9 l 1.9,4.7 h 4.8 l -9,-21.199998 H 443 Z m -8,0.3 c 4.5,0 7.7,-2.3 7.7,-6.499998 v -0.1 c 0,-3.7 -2.4,-5.2 -6.7,-6.3 -3.6,-0.9 -4.5,-1.4 -4.5,-2.8 v -0.1 c 0,-1 0.9,-1.8 2.7,-1.8 1.8,0 3.6,0.8 5.5,2.1 l 2.4,-3.5 c -2.1,-1.7 -4.8,-2.7 -7.8,-2.7 -4.3,0 -7.4,2.5 -7.4,6.4 v 0.1 c 0,4.2 2.7,5.4 7,6.4 3.5,0.9 4.2,1.5 4.2,2.7 v 0.1 c 0,1.199998 -1.1,1.999998 -3,1.999998 -2.4,0 -4.4,-1 -6.3,-2.599998 l -2.7,3.299998 c 2.5,2.2 5.7,3.3 8.9,3.3 m -28.8,-4.2 c -3.7,0 -6.4,-2.999998 -6.4,-6.599998 v -0.1 c 0,-3.6 2.6,-6.6 6.3,-6.6 3.7,0 6.4,3 6.4,6.6 v 0.1 c 0,3.6 -2.6,6.599998 -6.3,6.599998 m 0,4.2 c 6.5,0 11.2,-4.9 11.2,-10.899998 v -0.1 c 0,-6 -4.7,-10.8 -11.2,-10.8 -6.5,0 -11.2,4.9 -11.2,10.9 v 0.1 c 0,5.999998 4.7,10.799998 11.2,10.799998 m -22.5,-0.3 h 4.6 V 87.900012 h 6.4 v -4.3 h -17.5 v 4.3 h 6.4 v 16.799998 z m -17.3,0.3 c 5.7,0 9.2,-3.1 9.2,-9.499998 v -11.9 h -4.6 v 12.1 c 0,3.3 -1.7,5.099998 -4.5,5.099998 -2.8,0 -4.5,-1.799998 -4.5,-5.199998 v -11.9 h -4.6 v 12 c -0.2,6.099998 3.3,9.299998 9,9.299998 m -21.9,-0.3 h 4.6 V 87.900012 h 6.4 v -4.3 h -17.5 v 4.3 h 6.4 v 16.799998 z m -13.3,0 h 4.6 V 83.600012 h -4.6 z m -13.3,0 h 4.6 V 87.900012 h 6.4 v -4.3 h -17.5 v 4.3 h 6.4 v 16.799998 z m -14.8,0.3 c 4.5,0 7.7,-2.3 7.7,-6.499998 v -0.1 c 0,-3.7 -2.4,-5.2 -6.7,-6.3 -3.6,-0.9 -4.5,-1.4 -4.5,-2.8 v -0.1 c 0,-1 0.9,-1.8 2.7,-1.8 1.8,0 3.6,0.8 5.5,2.1 l 2.4,-3.5 c -2.1,-1.7 -4.8,-2.7 -7.8,-2.7 -4.3,0 -7.4,2.5 -7.4,6.4 v 0.1 c 0,4.2 2.7,5.4 7,6.4 3.5,0.9 4.2,1.5 4.2,2.7 v 0.1 c 0,1.199998 -1.1,1.999998 -3,1.999998 -2.4,0 -4.4,-1 -6.3,-2.599998 l -2.7,3.299998 c 2.5,2.2 5.7,3.3 8.9,3.3 m -15.9,-0.3 h 4.6 V 83.600012 h -4.6 z" /><path
     inkscape:connector-curvature="0"
     id="path6"
     d="m 626.9,121.80001 c -2.4,0 -4.2,-2 -4.2,-4.4 v 0 c 0,-2.4 1.7,-4.4 4.2,-4.4 2.4,0 4.2,2 4.2,4.4 v 0 c -0.1,2.5 -1.8,4.4 -4.2,4.4 m 0,0.7 c 3,0 4.9,-2.4 4.9,-5.1 0,0 0,0 0,0 0,-2.7 -1.9,-5 -4.9,-5 -3,0 -4.9,2.4 -4.9,5.1 v 0 c -0.1,2.6 1.9,5 4.9,5 m -11.3,-0.2 h 0.7 v -9.1 h 3.4 v -0.7 h -7.6 v 0.7 h 3.4 v 9.1 z m -15,0 h 0.7 v -8.7 l 6.9,8.7 h 0.5 v -9.8 H 608 v 8.5 l -6.8,-8.5 h -0.7 v 9.8 z m -10.6,0 h 7 v -0.7 h -6.3 v -3.9 h 5.6 v -0.7 h -5.6 v -3.9 h 6.2 v -0.7 h -7 v 9.9 z m -10.6,-4.7 v -4.4 h 3.3 c 1.8,0 2.8,0.8 2.8,2.1 v 0 c 0,1.4 -1.2,2.2 -2.9,2.2 h -3.2 z m -0.7,4.7 h 0.7 v -4.1 h 3.2 v 0 l 3.1,4.1 h 0.9 l -3.2,-4.2 c 1.7,-0.2 2.9,-1.2 2.9,-2.8 v 0 c 0,-0.7 -0.3,-1.4 -0.7,-1.8 -0.6,-0.6 -1.6,-1 -2.8,-1 h -4.1 z m -7.6,0 h 0.7 v -9.1 h 3.4 v -0.7 h -7.6 v 0.7 h 3.4 v 9.1 z m -20.3,0 h 0.7 v -8.7 l 6.9,8.7 h 0.5 v -9.8 h -0.7 v 8.5 l -6.8,-8.5 h -0.7 v 9.8 z m -5,0 h 0.7 v -9.8 h -0.7 z m -16.2,-3.4 2.6,-5.7 2.6,5.7 z m -2.4,3.4 h 0.8 l 1.2,-2.7 h 5.8 l 1.2,2.7 h 0.8 l -4.6,-9.9 h -0.7 z m -4,0 h 0.7 v -9.8 h -0.7 z m -10.7,-4.7 v -4.4 h 3.3 c 1.8,0 2.8,0.8 2.8,2.1 v 0 c 0,1.4 -1.2,2.2 -2.9,2.2 h -3.2 z m -0.8,4.7 h 0.7 v -4.1 h 3.2 v 0 l 3.1,4.1 h 0.9 l -3.2,-4.2 c 1.7,-0.2 2.9,-1.2 2.9,-2.8 v 0 c 0,-0.7 -0.3,-1.4 -0.7,-1.8 -0.6,-0.6 -1.6,-1 -2.8,-1 h -4.1 z m -10.8,-3.4 2.6,-5.7 2.6,5.7 z m -2.3,3.4 h 0.8 l 1.2,-2.7 h 5.8 l 1.2,2.7 h 0.8 l -4.6,-9.9 h -0.7 z m -5.4,0 h 0.7 v -9.1 h 3.4 v -0.7 h -7.6 v 0.7 h 3.4 v 9.1 z m -7.7,0 h 0.7 v -9.8 h -0.7 z m -10.7,-4.7 v -4.4 h 3.3 c 1.8,0 2.8,0.8 2.8,2.1 v 0 c 0,1.4 -1.2,2.2 -2.9,2.2 h -3.2 z m -0.7,4.7 h 0.7 v -4.1 h 3.2 v 0 l 3.1,4.1 h 0.9 l -3.2,-4.2 c 1.7,-0.2 2.9,-1.2 2.9,-2.8 v 0 c 0,-0.7 -0.3,-1.4 -0.7,-1.8 -0.6,-0.6 -1.6,-1 -2.8,-1 h -4.1 z m -10.8,-3.4 2.6,-5.7 2.6,5.7 z m -2.3,3.4 h 0.8 l 1.2,-2.7 h 5.8 l 1.2,2.7 h 0.8 l -4.6,-9.9 h -0.7 z m -8,-4.3 v -4.8 h 2.8 c 1.8,0 3,0.8 3,2.4 v 0 c 0,1.5 -1.2,2.4 -3.1,2.4 z m -0.7,4.3 h 0.7 v -3.6 h 2.6 c 2,0 3.8,-1.1 3.8,-3.1 v 0 c 0,-1.9 -1.5,-3 -3.6,-3 h -3.6 v 9.7 z m -16.2,-3.4 2.6,-5.7 2.6,5.7 z m -2.3,3.4 h 0.8 l 1.2,-2.7 h 5.8 l 1.2,2.7 h 0.8 l -4.6,-9.9 h -0.7 z m -6.3,0.2 c 1.7,0 2.9,-0.7 3.9,-1.7 l -0.5,-0.5 c -1,1 -2,1.5 -3.4,1.5 -2.3,0 -4.1,-1.9 -4.1,-4.4 v 0 c 0,-2.5 1.8,-4.4 4.1,-4.4 1.5,0 2.5,0.6 3.3,1.4 l 0.5,-0.5 c -1,-0.9 -2.1,-1.6 -3.8,-1.6 -2.8,0 -4.9,2.3 -4.9,5.1 v 0 c 0,2.9 2.1,5.1 4.9,5.1 m -9.3,-0.2 h 0.7 v -9.8 h -0.7 z m -10,0 h 6.5 v -0.7 h -5.8 v -9.1 h -0.7 z m -8.6,-0.5 c -2.4,0 -4.2,-2 -4.2,-4.4 v 0 c 0,-2.4 1.7,-4.4 4.2,-4.4 2.4,0 4.2,2 4.2,4.4 v 0 c 0,2.5 -1.8,4.4 -4.2,4.4 m 0,0.7 c 3,0 4.9,-2.4 4.9,-5.1 0,0 0,0 0,0 0,-2.7 -1.9,-5 -4.9,-5 -3,0 -4.9,2.4 -4.9,5.1 v 0 c 0,2.6 1.9,5 4.9,5 m -11.3,-0.2 h 0.7 v -9.1 h 3.4 v -0.7 h -7.6 v 0.7 h 3.4 v 9.1 z m -10.3,0 h 0.7 v -9.1 h 3.4 v -0.7 h -7.6 v 0.7 h 3.4 v 9.1 z m -12.2,-3.4 2.6,-5.7 2.6,5.7 z m -2.3,3.4 h 0.8 l 1.2,-2.7 h 5.8 l 1.2,2.7 h 0.8 l -4.6,-9.9 H 368 Z m -6.3,0.2 c 1.7,0 2.9,-0.7 3.9,-1.7 l -0.5,-0.5 c -1,1 -2,1.5 -3.4,1.5 -2.3,0 -4.1,-1.9 -4.1,-4.4 v 0 c 0,-2.5 1.8,-4.4 4.1,-4.4 1.5,0 2.5,0.6 3.3,1.4 l 0.5,-0.5 c -1,-0.9 -2.1,-1.6 -3.8,-1.6 -2.8,0 -4.9,2.3 -4.9,5.1 v 0 c 0,2.9 2.1,5.1 4.9,5.1 m -20.6,-3.6 2.6,-5.7 2.6,5.7 z m -2.3,3.4 h 0.8 l 1.2,-2.7 h 5.8 l 1.2,2.7 h 0.8 l -4.6,-9.9 h -0.7 z m -9,0 h 6.5 v -0.7 H 326 v -9.1 h -0.7 z m -8.6,-0.5 c -2.4,0 -4.2,-2 -4.2,-4.4 v 0 c 0,-2.4 1.7,-4.4 4.2,-4.4 2.4,0 4.2,2 4.2,4.4 v 0 c -0.1,2.5 -1.8,4.4 -4.2,4.4 m -0.1,0.7 c 3,0 4.9,-2.4 4.9,-5.1 0,0 0,0 0,0 0,-2.7 -1.9,-5 -4.9,-5 -3,0 -4.9,2.4 -4.9,5.1 v 0 c 0,2.6 2,5 4.9,5 m -12.4,0 c 2.4,0 4,-1.5 4,-4.3 v -5.6 h -0.7 v 5.7 c 0,2.4 -1.3,3.6 -3.3,3.6 -2.1,0 -3.3,-1.3 -3.3,-3.6 v -5.7 h -0.7 v 5.7 c 0,2.7 1.6,4.2 4,4.2 m -11,0 c 1.7,0 2.9,-0.7 3.9,-1.7 l -0.5,-0.5 c -1,1 -2,1.5 -3.4,1.5 -2.3,0 -4.1,-1.9 -4.1,-4.4 v 0 c 0,-2.5 1.8,-4.4 4.1,-4.4 1.5,0 2.5,0.6 3.3,1.4 l 0.5,-0.5 c -1,-0.9 -2.1,-1.6 -3.8,-1.6 -2.8,0 -4.9,2.3 -4.9,5.1 v 0 c 0,2.9 2.1,5.1 4.9,5.1 m -11.3,0 c 1.9,0 3.3,-1.1 3.3,-2.7 v 0 c 0,-1.4 -1,-2.2 -3.2,-2.7 -2.3,-0.5 -2.9,-1.1 -2.9,-2.1 v 0 c 0,-1 1,-1.8 2.4,-1.8 1.1,0 2,0.3 2.9,1.1 l 0.5,-0.6 c -1,-0.8 -1.9,-1.2 -3.4,-1.2 -1.8,0 -3.2,1.1 -3.2,2.6 v 0 c 0,1.5 1,2.3 3.3,2.8 2.2,0.4 2.8,1.1 2.8,2.1 v 0 c 0,1.1 -1,1.9 -2.5,1.9 -1.4,0 -2.4,-0.5 -3.5,-1.5 l -0.5,0.5 c 1.3,1 2.5,1.6 4,1.6" /><path
     style="fill:#cd1719"
     inkscape:connector-curvature="0"
     id="path8"
     d="m 258.3,105.60001 c -3.1,9.8 -8.9,14.9 -8.9,14.9 l -1.8,-1.5 c 0,0 16.8,-21.899998 4.1,-27.799998 -5.4,-1 -5.4,7.1 -5.4,7.1 l -6.1,-2.8 c 0,0 -5.3,-12.8 -13.8,-6.4 -9.1,6.9 -0.5,30.399998 16.1,32.399998 -1,2.6 -2.3,5.6 -2.3,5.6 0,0 -15.9,-6.1 -20.1,-19.9 -4.1,-13.799998 3.8,-21.899998 7.9,-22.999998 4.1,-1 11.2,0.5 13.8,8.9 2.8,-4.8 7.1,-7.4 11,-5.9 3.8,1.7 8.6,8.6 5.5,18.399998 m 12.3,-2.4 c 0,-16.799998 -13.6,-30.399998 -30.4,-30.399998 -16.8,0 -30.4,13.6 -30.4,30.399998 0,16.8 13.6,30.4 30.4,30.4 16.8,0 30.4,-13.6 30.4,-30.4"
     class="st0" /></g>
</svg>