<?xml version="1.0" encoding="utf-8"?>
<!-- Generator: Adobe Illustrator 22.0.0, SVG Export Plug-In . SVG Version: 6.00 Build 0)  -->
<svg version="1.1" xmlns="http://www.w3.org/2000/svg" xmlns:xlink="http://www.w3.org/1999/xlink" x="0px" y="0px"
	 viewBox="0 0 273.8 56" style="enable-background:new 0 0 273.8 56;" xml:space="preserve">
<style type="text/css">
	.st0{display:none;}
	.st1{display:inline;stroke:#FFFFFF;stroke-miterlimit:10;}
	.st2{fill:#FFFFFF;}
</style>
<g id="Livello_2" class="st0">
	<rect x="-9.6" y="-6.4" class="st1" width="305.9" height="59"/>
</g>
<g id="Livello_1">
	<g>
		<path class="st2" d="M10.2,19.4c-1.3,0-2.6-0.2-3.9-0.7s-2.4-1.2-3.5-2.1l2.3-2.7c0.8,0.6,1.6,1.2,2.5,1.5
			c0.8,0.4,1.8,0.6,2.8,0.6c0.8,0,1.4-0.1,1.9-0.4c0.4-0.3,0.7-0.7,0.7-1.2v-0.1c0-0.2,0-0.5-0.1-0.7s-0.3-0.4-0.5-0.5
			c-0.3-0.2-0.6-0.3-1.1-0.5s-1.1-0.3-1.8-0.5c-0.9-0.2-1.7-0.5-2.4-0.7s-1.5-0.6-2-1S4.2,9.5,3.9,8.9S3.5,7.6,3.5,6.7V6.6
			c0-0.8,0.1-1.5,0.4-2.2c0.3-0.6,0.7-1.2,1.3-1.7c0.5-0.3,1.2-0.6,1.9-0.9c0.7-0.2,1.6-0.4,2.5-0.4c1.3,0,2.5,0.2,3.5,0.6
			c1.1,0.4,2.1,0.9,3,1.6l-2,2.9c-0.8-0.5-1.6-1-2.3-1.3C11,4.9,10.3,4.7,9.6,4.7S8.3,4.8,7.9,5.1C7.5,5.4,7.3,5.8,7.3,6.2v0.2
			c0,0.3,0.1,0.5,0.2,0.7s0.3,0.4,0.6,0.6C8.4,7.9,8.8,8,9.3,8.2c0.5,0.1,1.1,0.3,1.9,0.5c0.9,0.2,1.7,0.5,2.4,0.8s1.3,0.6,1.8,1
			s0.8,0.9,1.1,1.4c0.2,0.6,0.4,1.2,0.4,2V14c0,0.9-0.2,1.6-0.5,2.3c-0.3,0.7-0.8,1.2-1.3,1.7c-0.6,0.5-1.2,0.8-2,1.1
			C12.1,19.3,11.2,19.4,10.2,19.4z"/>
		<path class="st2" d="M28.2,19.5c-1.3,0-2.5-0.2-3.6-0.7s-2.1-1.1-2.9-1.9s-1.4-1.8-1.9-2.9s-0.7-2.3-0.7-3.5l0,0
			c0-1.2,0.2-2.4,0.7-3.5s1.1-2,1.9-2.9c0.8-0.8,1.8-1.5,2.9-1.9c1.1-0.5,2.4-0.7,3.7-0.7c0.8,0,1.6,0.1,2.2,0.2
			c0.7,0.1,1.3,0.3,1.8,0.6c0.6,0.2,1.1,0.5,1.5,0.8c0.5,0.3,0.9,0.7,1.3,1.1L32.6,7c-0.7-0.6-1.4-1.1-2.1-1.5C29.8,5.1,29,5,28.1,5
			c-0.7,0-1.4,0.1-2,0.4s-1.2,0.7-1.6,1.2s-0.8,1.1-1,1.7c-0.2,0.7-0.4,1.4-0.4,2.1l0,0c0,0.8,0.1,1.5,0.4,2.1
			c0.2,0.7,0.6,1.2,1,1.8c0.4,0.5,1,0.9,1.6,1.2s1.3,0.4,2.1,0.4c1,0,1.8-0.2,2.5-0.5c0.7-0.4,1.4-0.9,2.1-1.5l2.5,2.5
			c-0.5,0.5-0.9,0.9-1.4,1.3s-1,0.7-1.6,1c-0.6,0.3-1.2,0.5-1.9,0.6C29.8,19.4,29,19.5,28.2,19.5z"/>
		<path class="st2" d="M45.7,19.5c-2.4,0-4.2-0.6-5.5-1.9c-1.4-1.3-2-3.2-2-5.8v-10H42v9.9c0,1.4,0.3,2.5,1,3.2s1.6,1.1,2.8,1.1
			s2.1-0.4,2.8-1.1c0.7-0.7,1-1.8,1-3.1v-10h3.9v9.9c0,1.3-0.2,2.5-0.5,3.5c-0.4,1-0.9,1.8-1.5,2.5c-0.7,0.7-1.5,1.1-2.4,1.5
			C48,19.3,46.9,19.5,45.7,19.5z"/>
		<path class="st2" d="M65.8,19.5c-1.4,0-2.6-0.2-3.7-0.7c-1.1-0.5-2.1-1.1-2.9-1.9c-0.8-0.8-1.5-1.8-1.9-2.9
			c-0.5-1.1-0.7-2.3-0.7-3.5l0,0c0-1.2,0.2-2.4,0.7-3.5s1.1-2,1.9-2.9c0.8-0.8,1.8-1.5,3-1.9c1.1-0.5,2.4-0.7,3.7-0.7
			s2.6,0.2,3.7,0.7s2.1,1.1,2.9,1.9S74,5.9,74.4,7c0.5,1.1,0.7,2.3,0.7,3.5l0,0c0,1.2-0.2,2.4-0.7,3.5s-1.1,2-1.9,2.9
			c-0.8,0.8-1.8,1.5-3,1.9S67.2,19.5,65.8,19.5z M65.9,15.9c0.8,0,1.5-0.1,2.1-0.4s1.2-0.7,1.7-1.2s0.8-1.1,1.1-1.7
			c0.3-0.7,0.4-1.4,0.4-2.1l0,0c0-0.8-0.1-1.5-0.4-2.1c-0.3-0.7-0.6-1.2-1.1-1.8s-1-0.9-1.7-1.2C67.4,5.1,66.6,5,65.9,5
			c-0.8,0-1.5,0.1-2.1,0.4s-1.2,0.7-1.6,1.2c-0.5,0.5-0.8,1.1-1.1,1.7c-0.3,0.7-0.4,1.4-0.4,2.1l0,0c0,0.8,0.1,1.5,0.4,2.1
			c0.3,0.7,0.6,1.2,1.1,1.8c0.5,0.5,1,0.9,1.7,1.2C64.4,15.8,65.1,15.9,65.9,15.9z"/>
		<path class="st2" d="M78.6,1.7h3.9v14h8.7v3.5H78.6V1.7z"/>
		<path class="st2" d="M100.1,1.6h3.5l7.5,17.6h-4l-1.6-3.9h-7.4l-1.6,3.9h-3.9L100.1,1.6z M104.1,11.9l-2.3-5.7l-2.3,5.7H104.1z"/>
		<path class="st2" d="M129.5,19.5c-1.3,0-2.5-0.2-3.6-0.7s-2.1-1.1-2.9-1.9s-1.4-1.8-1.9-2.9s-0.7-2.3-0.7-3.5l0,0
			c0-1.2,0.2-2.4,0.7-3.5s1.1-2,1.9-2.9c0.8-0.8,1.8-1.5,2.9-1.9c1.1-0.5,2.4-0.7,3.7-0.7c0.8,0,1.6,0.1,2.2,0.2
			c0.7,0.1,1.3,0.3,1.8,0.6c0.6,0.2,1.1,0.5,1.5,0.8c0.5,0.3,0.9,0.7,1.3,1.1L133.9,7c-0.7-0.6-1.4-1.1-2.1-1.5
			c-0.7-0.4-1.5-0.5-2.4-0.5c-0.7,0-1.4,0.1-2,0.4s-1.2,0.7-1.6,1.2s-0.8,1.1-1,1.7c-0.2,0.7-0.4,1.4-0.4,2.1l0,0
			c0,0.8,0.1,1.5,0.4,2.1c0.2,0.7,0.6,1.2,1,1.8c0.4,0.5,1,0.9,1.6,1.2s1.3,0.4,2.1,0.4c1,0,1.8-0.2,2.5-0.5
			c0.7-0.4,1.4-0.9,2.1-1.5l2.5,2.5c-0.5,0.5-0.9,0.9-1.4,1.3s-1,0.7-1.6,1s-1.2,0.5-1.9,0.6C131.1,19.4,130.4,19.5,129.5,19.5z"/>
		<path class="st2" d="M145.8,1.6h3.5l7.5,17.6h-4l-1.6-3.9h-7.4l-1.6,3.9h-3.9L145.8,1.6z M149.8,11.9l-2.3-5.7l-2.3,5.7H149.8z"/>
		<path class="st2" d="M163.6,5.2h-5.3V1.7h14.5v3.5h-5.3v14h-3.9V5.2z"/>
		<path class="st2" d="M179.8,5.2h-5.3V1.7H189v3.5h-5.3v14h-3.9V5.2z"/>
		<path class="st2" d="M200.4,19.5c-1.4,0-2.6-0.2-3.7-0.7c-1.1-0.5-2.1-1.1-2.9-1.9c-0.8-0.8-1.5-1.8-1.9-2.9
			c-0.5-1.1-0.7-2.3-0.7-3.5l0,0c0-1.2,0.2-2.4,0.7-3.5s1.1-2,1.9-2.9c0.8-0.8,1.8-1.5,3-1.9c1.1-0.5,2.4-0.7,3.7-0.7
			s2.6,0.2,3.7,0.7c1.1,0.5,2.1,1.1,2.9,1.9c0.8,0.8,1.5,1.8,1.9,2.9c0.5,1.1,0.7,2.3,0.7,3.5l0,0c0,1.2-0.2,2.4-0.7,3.5
			s-1.1,2-1.9,2.9c-0.8,0.8-1.8,1.5-3,1.9S201.8,19.5,200.4,19.5z M200.5,15.9c0.8,0,1.5-0.1,2.1-0.4s1.2-0.7,1.7-1.2
			s0.8-1.1,1.1-1.7c0.3-0.7,0.4-1.4,0.4-2.1l0,0c0-0.8-0.1-1.5-0.4-2.1c-0.3-0.7-0.6-1.2-1.1-1.8s-1-0.9-1.7-1.2
			C202,5.1,201.2,5,200.5,5c-0.8,0-1.5,0.1-2.1,0.4s-1.2,0.7-1.6,1.2c-0.5,0.5-0.8,1.1-1.1,1.7c-0.3,0.7-0.4,1.4-0.4,2.1l0,0
			c0,0.8,0.1,1.5,0.4,2.1c0.3,0.7,0.6,1.2,1.1,1.8s1,0.9,1.7,1.2C199,15.8,199.7,15.9,200.5,15.9z"/>
		<path class="st2" d="M213.2,1.7h3.9v14h8.7v3.5h-12.6L213.2,1.7L213.2,1.7z"/>
		<path class="st2" d="M228.8,1.7h3.9v17.5h-3.9V1.7z"/>
		<path class="st2" d="M245.2,19.5c-1.3,0-2.5-0.2-3.6-0.7s-2.1-1.1-2.9-1.9c-0.8-0.8-1.4-1.8-1.9-2.9s-0.7-2.3-0.7-3.5l0,0
			c0-1.2,0.2-2.4,0.7-3.5s1.1-2,1.9-2.9c0.8-0.8,1.8-1.5,2.9-1.9c1.1-0.5,2.4-0.7,3.7-0.7c0.8,0,1.6,0.1,2.2,0.2
			c0.7,0.1,1.3,0.3,1.8,0.6c0.6,0.2,1.1,0.5,1.5,0.8c0.5,0.3,0.9,0.7,1.3,1.1L249.6,7c-0.7-0.6-1.4-1.1-2.1-1.5
			C246.8,5.1,246,5,245.1,5c-0.7,0-1.4,0.1-2,0.4s-1.2,0.7-1.6,1.2c-0.4,0.5-0.8,1.1-1,1.7c-0.2,0.7-0.4,1.4-0.4,2.1l0,0
			c0,0.8,0.1,1.5,0.4,2.1c0.2,0.7,0.6,1.2,1,1.8c0.4,0.5,1,0.9,1.6,1.2s1.3,0.4,2.1,0.4c1,0,1.8-0.2,2.5-0.5
			c0.7-0.4,1.4-0.9,2.1-1.5l2.5,2.5c-0.5,0.5-0.9,0.9-1.4,1.3s-1,0.7-1.6,1s-1.2,0.5-1.9,0.6C246.8,19.4,246.1,19.5,245.2,19.5z"/>
		<path class="st2" d="M261.5,1.6h3.5l7.5,17.6h-4l-1.6-3.9h-7.4l-1.6,3.9H254L261.5,1.6z M265.5,11.9l-2.3-5.7l-2.3,5.7H265.5z"/>
		<path class="st2" d="M12.1,52.6c-1.2,0-2.2-0.1-3.4-0.7c-1-0.4-2.1-1-2.8-1.9c-0.9-0.9-1.5-1.9-2.1-3.3C3.1,45.3,3,43.9,3,42.1V42
			c0-1.6,0.3-3.1,0.7-4.5s1.2-2.4,2.1-3.3s1.8-1.5,2.8-1.9c1-0.4,2.2-0.6,3.4-0.6c1.5,0,2.8,0.3,3.7,0.9c1,0.6,1.8,1.3,2.5,2.1v-9.9
			h5.7V52h-5.7v-2.8c-0.7,0.9-1.5,1.8-2.5,2.4C14.8,52.3,13.6,52.6,12.1,52.6z M13.6,47.8c0.7,0,1.3-0.1,1.9-0.4
			c0.6-0.3,1-0.6,1.5-1.2c0.4-0.4,0.7-1,1-1.8c0.3-0.7,0.4-1.5,0.4-2.2V42c0-0.7-0.1-1.6-0.4-2.2c-0.3-0.7-0.6-1.3-1-1.8
			c-0.4-0.4-0.9-0.9-1.5-1.2c-0.6-0.3-1.2-0.4-1.9-0.4c-0.6,0-1.3,0.1-1.9,0.4c-0.6,0.3-1,0.6-1.5,1.2c-0.4,0.4-0.7,1-1,1.8
			c-0.3,0.7-0.4,1.5-0.4,2.2v0.1c0,0.7,0.1,1.6,0.4,2.2c0.3,0.7,0.6,1.3,1,1.8s0.9,0.9,1.5,1.2C12.3,47.6,12.9,47.8,13.6,47.8z"/>
		<path class="st2" d="M38.5,52.7c-1.5,0-2.8-0.3-4.2-0.7s-2.4-1.2-3.3-2.1c-0.9-0.9-1.6-1.9-2.2-3.3c-0.6-1.2-0.7-2.7-0.7-4.2l0,0
			c0-1.5,0.3-2.8,0.7-4c0.4-1.3,1.2-2.4,2.1-3.3c0.9-0.9,1.9-1.6,3.1-2.2s2.5-0.7,4-0.7c1.6,0,3.1,0.3,4.3,0.9s2.2,1.3,3,2.4
			c0.7,1,1.3,2.2,1.8,3.4c0.4,1.3,0.6,2.7,0.6,4c0,0.1,0,0.4,0,0.7s0,0.4,0,0.7H33.9c0.3,1.3,0.9,2.2,1.6,3c0.9,0.6,1.9,1,3.1,1
			c0.9,0,1.8-0.1,2.5-0.4s1.5-0.9,2.4-1.5l3.3,2.8c-0.9,1.2-2.1,2.1-3.4,2.7C42.1,52.6,40.3,52.7,38.5,52.7z M42.3,40.6
			c-0.1-1.3-0.6-2.2-1.3-3.1c-0.7-0.7-1.6-1.2-2.8-1.2s-2.1,0.4-2.8,1.2s-1.2,1.8-1.5,3.1H42.3z"/>
		<path class="st2" d="M52.3,24.9h5.7v27.2h-5.7V24.9z"/>
		<path class="st2" d="M81.1,31.4h-7.9v-5.2h21.6v5.2h-7.9v20.9h-5.8V31.4z"/>
		<path class="st2" d="M99.1,26.1h11.9c3.3,0,5.8,0.9,7.6,2.7c1.5,1.5,2.2,3.4,2.2,6V35c0,2.1-0.4,3.9-1.5,5.2c-1,1.3-2.4,2.2-4,3
			l6.4,9.3h-6.7l-5.7-8.4h-0.1h-4.5v8.4H99V26.1H99.1z M110.8,38.8c1.3,0,2.5-0.3,3.3-1c0.7-0.7,1.2-1.6,1.2-2.7l0,0
			c0-1.2-0.4-2.2-1.2-2.8c-0.9-0.6-1.9-0.9-3.4-0.9H105v7.5H110.8z"/>
		<path class="st2" d="M126.2,26.1h19.7v5.1h-14v5.4h12.2v5.1h-12.2v5.5H146v5.1h-19.9V26.1z"/>
		<path class="st2" d="M151.3,26.1h5.2l12.2,16.1V26.1h5.7v26.1h-4.9l-12.5-16.6v16.6h-5.7C151.3,52.3,151.3,26.1,151.3,26.1z"/>
		<path class="st2" d="M186.8,31.4h-7.9v-5.2h21.6v5.2h-7.9v20.9h-5.8V31.4z"/>
		<path class="st2" d="M205.2,26.1h5.8v26.1h-5.8V26.1z"/>
		<path class="st2" d="M217.4,26.1h5.2l12.2,16.1V26.1h5.7v26.1h-4.9l-12.7-16.6v16.6h-5.7V26.1H217.4z"/>
		<path class="st2" d="M259.6,52.7c-2.1,0-3.9-0.3-5.5-1c-1.6-0.7-3.1-1.6-4.3-2.8c-1.2-1.2-2.2-2.7-2.8-4.3c-0.7-1.6-1-3.4-1-5.2
			l0,0c0-1.8,0.3-3.6,1-5.2c0.7-1.6,1.6-3,2.8-4.3c1.2-1.2,2.7-2.2,4.5-2.8c1.6-0.7,3.6-1,5.5-1s3.9,0.3,5.5,1
			c1.6,0.7,3.1,1.6,4.3,2.8c1.2,1.2,2.2,2.7,2.8,4.3c0.7,1.6,1,3.4,1,5.2l0,0c0,1.8-0.3,3.6-1,5.2s-1.6,3-2.8,4.3
			c-1.2,1.2-2.7,2.2-4.5,2.8C263.4,52.3,261.6,52.7,259.6,52.7z M259.6,47.3c1.2,0,2.2-0.1,3.1-0.6c0.9-0.4,1.8-1,2.5-1.8
			c0.7-0.7,1.2-1.6,1.6-2.5c0.4-1,0.6-2.1,0.6-3.1l0,0c0-1.2-0.1-2.2-0.6-3.1c-0.4-1-0.9-1.8-1.6-2.7s-1.5-1.3-2.5-1.8
			c-0.9-0.4-2.1-0.6-3.1-0.6c-1.2,0-2.2,0.1-3.1,0.6c-0.9,0.4-1.8,1-2.4,1.8c-0.7,0.7-1.2,1.6-1.6,2.5c-0.4,1-0.6,2.1-0.6,3.1l0,0
			c0,1.2,0.1,2.2,0.6,3.1c0.4,1,0.9,1.8,1.6,2.7s1.5,1.3,2.5,1.8C257.4,47.2,258.5,47.3,259.6,47.3z"/>
	</g>
</g>
</svg>
